<?xml version="1.0" standalone="no"?>
<!DOCTYPE svg PUBLIC "-//W3C//DTD SVG 1.1//EN" "http://www.w3.org/Graphics/SVG/1.1/DTD/svg11.dtd" >
<svg xmlns="http://www.w3.org/2000/svg" xmlns:xlink="http://www.w3.org/1999/xlink" version="1.1">
<metadata>
Created by FontForge 20170731 at Thu Aug  4 19:25:33 2016
 By Aleksey,,,
(c) 1992 Unity Progress. Portions (c) 2004 The Monotype Corporation. Portions (c) 2015 Microsoft Corporation. All Rights Reserved.
</metadata>
<defs>
<font id="AngsanaUPC-Italic" horiz-adv-x="1352" >
  <font-face 
    font-family="AngsanaUPC"
    font-weight="400"
    font-style="italic"
    font-stretch="normal"
    units-per-em="4096"
    panose-1="2 2 5 3 5 4 5 9 3 4"
    ascent="3276"
    descent="-820"
    x-height="1163"
    cap-height="1790"
    bbox="-1326 -836.164 3265 3782"
    underline-thickness="102"
    underline-position="-460"
    slope="-10"
    unicode-range="U+0020-25CC"
  />
<missing-glyph horiz-adv-x="1497" 
d="M136 0v2730h1089v-2730h-1089zM272 136h817v2458h-817v-2458z" />
    <glyph glyph-name=".notdef" horiz-adv-x="1497" 
d="M136 0v2730h1089v-2730h-1089zM272 136h817v2458h-817v-2458z" />
    <glyph glyph-name=".null" horiz-adv-x="0" 
 />
    <glyph glyph-name="nonmarkingreturn" horiz-adv-x="1365" 
 />
    <glyph glyph-name="space" unicode=" " horiz-adv-x="676" 
 />
    <glyph glyph-name="space" unicode="&#xa0;" horiz-adv-x="676" 
 />
    <glyph glyph-name="exclam" unicode="!" horiz-adv-x="900" 
d="M426 436h-50q97 359 151 694l80 490q26 116 86 181q29 30 77 30q88 0 88 -107q0 -53 -25 -137q-58 -193 -214 -598l-84 -219q-22 -64 -109 -334zM338 227q136 0 136 -136q0 -135 -136 -135q-135 0 -135 135q0 136 135 136z" />
    <glyph glyph-name="quotedbl" unicode="&#x22;" horiz-adv-x="1135" 
d="M873 1060l38 385q14 146 21 177q30 142 106 186q40 23 87 23q97 0 97 -91q0 -36 -18 -87q-47 -130 -83 -206l-186 -387h-62zM388 1060l41 391q18 171 34 225q47 155 175 155q100 0 100 -93q0 -30 -13 -69q-18 -52 -97 -220l-183 -389h-57z" />
    <glyph glyph-name="numbersign" unicode="#" 
d="M297 -37l123 601h-226v108h247l91 453h-338v105h363l120 601h110l-120 -601h444l129 601h109l-125 -601h224v-105h-244l-93 -453h337v-108h-359l-123 -601h-107l120 601h-447l-125 -601h-110zM552 672h447l95 453h-450z" />
    <glyph glyph-name="dollar" unicode="$" 
d="M1030 1695l-184 -634q207 -163 289 -303q58 -100 58 -226q0 -152 -86 -289t-225 -203t-355 -64l-43 -154h-87l47 154q-187 37 -330 149l108 374h54q-15 -85 -15 -141q0 -225 213 -297l230 808q-317 248 -317 492q0 186 141 313q137 124 325 124q43 0 117 -8l31 103h84
l-34 -115q148 -43 270 -152l-87 -318h-54q5 61 5 98q0 111 -51 197q-30 50 -104 92zM950 1719q-59 9 -92 9q-120 0 -200 -90q-77 -86 -77 -208q0 -143 197 -317zM548 49q39 -4 59 -4q232 0 347 193q55 92 55 195q0 172 -237 376z" />
    <glyph glyph-name="percent" unicode="%" horiz-adv-x="2252" 
d="M2208 1831l-1893 -1902h-125l1893 1902h125zM714 1831q140 0 227 -112q79 -103 79 -247q0 -216 -141 -400q-152 -199 -362 -199q-144 0 -234 110q-84 102 -84 250q0 214 148 400q158 198 367 198zM723 1774q-63 0 -118 -51q-103 -95 -172 -300q-63 -187 -63 -343
q0 -157 134 -157q57 0 99 39q107 99 181 303q70 191 70 348q0 161 -131 161zM1890 883q144 0 232 -112q81 -104 81 -252q0 -334 -272 -512q-121 -80 -232 -80q-142 0 -231 105q-85 100 -85 244q0 214 144 403q155 204 363 204zM1906 829q-66 0 -117 -48q-99 -92 -172 -299
q-67 -193 -67 -342q0 -160 130 -160q63 0 109 44q100 95 174 297q70 190 70 339q0 169 -127 169z" />
    <glyph glyph-name="ampersand" unicode="&#x26;" horiz-adv-x="2103" 
d="M1422 939h534v-51q-129 -17 -210 -80q-64 -48 -150 -173q-137 -198 -217 -302q158 -266 340 -266q112 0 203 97h59q-149 -205 -377 -205q-235 0 -403 205q-273 -205 -573 -205q-221 0 -355 112q-144 119 -144 336q0 237 200 415q129 116 532 253q-14 100 -14 175
q0 236 120 399q134 182 362 182q125 0 206 -67q86 -72 86 -194q0 -327 -520 -495q95 -394 234 -659q204 247 204 395q0 70 -117 77v51zM1084 1159q201 86 270 164q97 108 97 236q0 182 -167 182q-227 0 -227 -358q0 -89 27 -224zM874 991q-479 -178 -479 -518
q0 -170 106.5 -277.5t276.5 -107.5q162 0 373 150q-196 306 -277 753z" />
    <glyph glyph-name="quotesingle" unicode="'" horiz-adv-x="578" 
d="M355 1060l41 391q18 168 34 224q47 156 173 156q103 0 103 -94q0 -29 -13 -67q-16 -46 -98 -221l-182 -389h-58z" />
    <glyph glyph-name="parenleft" unicode="(" horiz-adv-x="900" 
d="M508 -557l-45 -21q-158 302 -225 529q-53 178 -53 362q0 426 196 762q241 411 783 802l32 -46q-244 -181 -399 -405q-190 -277 -314 -670t-124 -727q0 -248 149 -586z" />
    <glyph glyph-name="parenright" unicode=")" horiz-adv-x="900" 
d="M393 1852l45 25q155 -295 225 -528q54 -182 54 -362q0 -426 -197 -761q-242 -413 -783 -804l-31 41q245 183 398 405q191 276 315 670t124 728q0 248 -150 586z" />
    <glyph glyph-name="asterisk" unicode="*" 
d="M844 1378q-6 90 -37 181q-45 128 -45 178q0 140 112 140q102 0 102 -137q0 -54 -35 -173q-38 -129 -43 -189q74 47 130 112q134 155 222 155q103 0 103 -101q0 -106 -261 -163q-102 -23 -169 -52q69 -36 167 -54q259 -47 259 -167q0 -98 -99 -98q-90 0 -218 152
q-55 65 -134 121q2 -73 30 -164q48 -154 48 -212q0 -126 -99 -126q-50 0 -89 39q-28 27 -28 88q0 57 27 139q39 125 42 136q8 34 15 100q-81 -53 -136 -115q-98 -108 -146 -137q-35 -21 -71 -21q-108 0 -108 98q0 81 108 129q36 16 162 42q82 17 160 50q-69 35 -170 56
q-162 33 -201 62q-59 43 -59 105q0 95 99 95q93 0 214 -139q72 -84 148 -130z" />
    <glyph glyph-name="plus" unicode="+" horiz-adv-x="1824" 
d="M907 186v659h-656v108h656v656h108v-656h659v-108h-659v-659h-108z" />
    <glyph glyph-name="comma" unicode="," horiz-adv-x="676" 
d="M-28 -297q99 45 161 114q48 52 48 101q0 25 -8 44q-31 29 -73 86q-9 24 -9 51q0 55 38 97t93 42q59 0 98 -46.5t39 -107.5q0 -142 -115 -263q-99 -105 -245 -160z" />
    <glyph glyph-name="hyphen" unicode="-" horiz-adv-x="900" 
d="M809 675l-54 -176h-684l54 176h684z" />
    <glyph glyph-name="period" unicode="." horiz-adv-x="676" 
d="M224 236q135 0 135 -133t-135 -133q-133 0 -133 133t133 133z" />
    <glyph glyph-name="slash" unicode="/" horiz-adv-x="751" 
d="M1031 1877l-1006 -1918h-116l1012 1918h110z" />
    <glyph glyph-name="zero" unicode="0" 
d="M935 1827q216 0 319 -197q81 -153 81 -390q0 -588 -328 -1005q-124 -158 -260 -227q-78 -40 -183 -40q-219 0 -322 197q-81 153 -81 392q0 303 116 607q136 356 347 541q139 122 311 122zM936 1758q-181 0 -318 -310q-85 -193 -160 -490q-99 -390 -99 -668
q0 -273 203 -273q81 0 138 53q152 143 260 487q175 562 175 916q0 285 -199 285z" />
    <glyph glyph-name="one" unicode="1" 
d="M1129 1827l-425 -1480q-37 -129 -37 -189q0 -95 191 -109l-13 -49h-680l18 49q109 2 143 17q55 23 83 63q43 61 89 218l306 1063q28 98 30 111q4 24 4 51q0 99 -93 99q-35 0 -107 -16l-18 48l445 124h64z" />
    <glyph glyph-name="two" unicode="2" 
d="M933 0h-891v49q681 596 901 936q101 157 101 330q0 137 -83.5 223.5t-219.5 86.5q-187 0 -307 -178l-46 21q142 359 477 359q169 0 285.5 -115.5t116.5 -284.5q0 -116 -41 -215q-63 -153 -233 -346q-263 -296 -691 -675h449q212 0 279 165h52z" />
    <glyph glyph-name="three" unicode="3" 
d="M413 978v38q318 49 477 191q113 101 113 238q0 100 -62 169q-65 72 -163 72q-148 0 -263 -184l-49 15q139 310 412 310q150 0 248 -88q100 -92 100 -241q0 -273 -401 -434q277 -115 277 -419q0 -176 -99.5 -338.5t-256.5 -247.5q-165 -91 -347 -91q-168 0 -252 58
q-57 39 -57 93q0 112 116 112q34 0 69 -11q75 -43 232 -114q46 -15 95 -15q129 0 208 159q65 130 65 273q0 267 -216 386q-113 61 -246 69z" />
    <glyph glyph-name="four" unicode="4" 
d="M1316 1790l-342 -1178h214l-47 -163h-217l-139 -481h-194l140 481h-647l56 185l1076 1156h100zM1023 1449l-770 -837h530z" />
    <glyph glyph-name="five" unicode="5" 
d="M697 1790h598l-61 -218h-537l-99 -220q215 -35 333 -134q183 -153 183 -431q0 -342 -233.5 -580.5t-520.5 -238.5q-133 0 -211 58q-53 40 -53 101q0 115 119 115q71 0 156 -70t153 -70q184 0 300 182q100 159 100 352q0 336 -236 445q-103 48 -275 66z" />
    <glyph glyph-name="six" unicode="6" 
d="M1420 1827v-52q-482 -112 -810 -657q142 61 232 61q185 0 298 -134q106 -127 106 -315q0 -278 -178 -510q-192 -252 -463 -252q-209 0 -328 162q-107 144 -107 361q0 577 466 986q215 189 445 279q136 52 339 71zM546 1007q-188 -402 -188 -676q0 -117 57 -204
q66 -99 178 -99q192 0 315 285q99 229 99 449q0 133 -62 222q-72 102 -199 102q-86 0 -200 -79z" />
    <glyph glyph-name="seven" unicode="7" 
d="M524 1790h891v-45l-1003 -1777l-106 49l878 1563h-425q-165 0 -227 -26q-74 -32 -161 -156h-54z" />
    <glyph glyph-name="eight" unicode="8" 
d="M912 1002q244 -265 244 -498q0 -228 -171 -384q-166 -152 -396 -152q-197 0 -337 118q-149 125 -149 318q0 341 527 570q-201 246 -201 424q0 187 139 310q134 119 323 119q170 0 295 -96q135 -104 135 -270q0 -313 -409 -459zM861 1057q299 103 299 415q0 129 -73 209
t-201 80q-118 0 -190.5 -73.5t-72.5 -191.5q0 -88 38 -164q57 -112 200 -275zM678 920q-398 -166 -398 -570q0 -145 89 -232.5t234 -87.5q150 0 253.5 104.5t103.5 253.5q0 223 -282 532z" />
    <glyph glyph-name="nine" unicode="9" 
d="M78 -32v43q135 28 236 84q349 192 573 576q-129 -64 -226 -64q-190 0 -303 133q-107 126 -107 320q0 276 179 512q194 255 462 255q209 0 328 -164q107 -146 107 -363q0 -570 -461 -979q-212 -189 -446 -280q-139 -54 -342 -73zM953 780q186 378 186 675q0 119 -56 204
q-65 98 -179 98q-197 0 -317 -284q-96 -225 -96 -451q0 -321 257 -321q92 0 205 79z" />
    <glyph glyph-name="colon" unicode=":" horiz-adv-x="900" 
d="M574 1196q135 0 135 -133q0 -135 -135 -135q-134 0 -134 135q0 133 134 133zM294 240q132 0 132 -133q0 -132 -132 -132q-133 0 -133 132q0 133 133 133z" />
    <glyph glyph-name="semicolon" unicode=";" horiz-adv-x="900" 
d="M578 1193q135 0 135 -134q0 -135 -135 -135q-134 0 -134 135q0 134 134 134zM48 -293q204 117 204 210q0 26 -9 46q-29 31 -69 94q-10 22 -10 49q0 54 38.5 95.5t91.5 41.5q138 0 138 -157q0 -183 -186 -328q-29 -22 -176 -97z" />
    <glyph glyph-name="less" unicode="&#x3c;" horiz-adv-x="1824" 
d="M198 932l1420 615v-115l-1222 -530l1222 -536v-119l-1420 620v65z" />
    <glyph glyph-name="equal" unicode="=" horiz-adv-x="1824" 
d="M264 1166h1424v-109h-1424v109zM264 735h1424v-108h-1424v108z" />
    <glyph glyph-name="greater" unicode="&#x3e;" horiz-adv-x="1824" 
d="M1618 862l-1420 -615v113l1224 531l-1224 536v120l1420 -620v-65z" />
    <glyph glyph-name="question" unicode="?" 
d="M475 440h-50q21 187 104 330q62 105 219 272q182 192 239 310q41 83 41 171q0 110 -77 181q-75 67 -187 67q-111 0 -182 -47q-39 -27 -39 -65q0 -25 21.5 -73.5t21.5 -75.5q0 -105 -109 -105q-111 0 -111 120q0 146 144 233q121 73 277 73q176 0 307 -97
q146 -107 146 -278q0 -118 -59 -205q-75 -111 -289 -261q-220 -154 -295 -259q-81 -112 -122 -291zM396 227q135 0 135 -135q0 -133 -135 -133t-135 133q0 135 135 135z" />
    <glyph glyph-name="at" unicode="@" horiz-adv-x="2487" 
d="M1859 1265l-155 -527q-123 -419 -123 -502q0 -100 99 -100q143 0 283 141q112 114 181 268q96 217 96 452q0 227 -107 415q-111 193 -309.5 295.5t-438.5 102.5q-320 0 -581 -171q-253 -165 -399 -456q-153 -304 -153 -631q0 -297 126 -538q135 -259 385 -390
q243 -127 523 -127q364 0 644 197q271 191 417 533h77q-122 -370 -439 -592q-312 -218 -706 -218q-317 0 -581 146q-272 151 -421 423.5t-149 599.5q0 349 161 646q166 305 461 475t627 170q593 0 827 -443q115 -217 115 -461q0 -230 -97 -458q-108 -251 -284 -366
q-167 -108 -347 -108q-202 0 -202 181q0 74 23 194q-311 -376 -520 -376q-112 0 -179 101q-60 89 -60 206q0 217 139 456q131 226 317 360q151 110 272 110q185 0 227 -183l43 146zM1395 1210q-99 0 -200 -104q-149 -152 -255 -413q-78 -191 -78 -306q0 -71 39 -126
q44 -62 113 -62q156 0 338 237q92 120 134 242q74 211 74 342q0 190 -165 190z" />
    <glyph glyph-name="A" unicode="A" horiz-adv-x="1651" 
d="M1393 1831l-136 -1489q-11 -116 -11 -137q0 -52 20 -81q51 -75 212 -75l-14 -49h-705l15 49h30q85 0 140 37q39 26 59 83q13 37 28 193l21 227h-512l-182 -247q-94 -127 -94 -188q0 -100 148 -105l-15 -49h-529l15 49q117 5 229 117q42 43 165 210l1069 1455h47z
M1131 1391l-519 -706h451z" />
    <glyph glyph-name="B" unicode="B" horiz-adv-x="1651" 
d="M400 1741l18 49h639q343 0 476 -190q63 -90 63 -190q0 -352 -475 -464q315 -118 315 -381q0 -290 -245 -444q-107 -67 -259 -99q-108 -22 -338 -22h-656l17 49q101 2 140 20q53 23 75 59q32 51 85 230l321 1083q40 139 40 193q0 106 -174 106q-22 0 -42 1zM668 998
q86 -3 124 -3q229 0 372 93q171 110 171 326q0 288 -344 288q-47 0 -121 -16zM408 116q142 -18 223 -18q214 0 363 121q161 131 161 339q0 345 -416 345q-42 0 -103 -4z" />
    <glyph glyph-name="C" unicode="C" horiz-adv-x="1803" 
d="M1902 1831l-133 -580h-48l-5 146q-2 68 -30 141q-50 128 -192 179q-72 25 -161 25q-236 0 -413 -129q-226 -165 -354 -466q-105 -248 -105 -503q0 -253 145 -410q150 -160 401 -160q352 0 593 334h62q-282 -449 -746 -449q-459 0 -645 350q-89 166 -89 358
q0 304 161.5 578t426.5 427q274 159 553 159q129 0 293 -62q69 -27 103 -27q55 0 134 89h49z" />
    <glyph glyph-name="D" unicode="D" horiz-adv-x="1952" 
d="M396 1741l16 49h571q302 0 466 -55q227 -77 352 -290q104 -179 104 -384q0 -349 -196 -606q-218 -286 -574 -398q-183 -57 -458 -57h-758l18 49q103 2 140 18q52 23 77 61q37 54 86 223l317 1083q37 126 37 200q0 107 -169 107h-29zM865 1691l-388 -1340
q-44 -150 -44 -186q0 -51 51 -67q38 -12 111 -12q451 0 676 170q354 267 354 828q0 612 -580 612q-69 0 -180 -5z" />
    <glyph glyph-name="E" unicode="E" horiz-adv-x="1651" 
d="M875 1694l-204 -708h167q171 0 252 50q87 54 147 207h49l-184 -649h-53q24 82 24 140q0 106 -86 142q-41 16 -170 16h-170l-173 -592q-25 -86 -25 -131q0 -34 33 -61q23 -18 112 -18h158q257 0 413 91.5t278 316.5h49l-169 -498h-1384l17 49q104 2 139 18q52 24 77 61
q33 51 84 227l314 1080q37 127 37 199q0 107 -171 107h-28l16 49h1285l-110 -432h-49q9 61 9 102q0 149 -165 210q-64 24 -292 24h-227z" />
    <glyph glyph-name="F" unicode="F" horiz-adv-x="1651" 
d="M879 1695l-211 -709h235q163 0 245 55q75 51 154 202h50l-186 -652h-53q20 80 20 131q0 169 -254 169h-237l-156 -540q-42 -146 -42 -191q0 -97 213 -111l-15 -49h-708l17 49q101 2 137 18q54 24 78 61q35 53 85 223l315 1079q39 130 39 204q0 71 -68 95q-34 12 -134 12
l15 49h1389l-132 -453h-50q14 82 14 135q0 164 -171 210q-49 13 -236 13h-353z" />
    <glyph glyph-name="G" unicode="G" horiz-adv-x="1952" 
d="M1946 1831l-134 -564h-50q12 99 12 147q0 157 -141 249q-122 79 -288 79q-410 0 -670 -385q-208 -306 -208 -682q0 -266 126 -432q140 -184 397 -184q115 0 302 65l131 461q28 98 28 152q0 110 -214 110h-37l14 52h745l-13 -52q-167 -2 -227 -100q-23 -37 -73 -207
l-132 -453q-300 -129 -525 -129q-532 0 -718 387q-84 175 -84 348q0 457 342 795q345 343 813 343q191 0 346 -63q62 -26 91 -26q60 0 117 89h50z" />
    <glyph glyph-name="H" unicode="H" horiz-adv-x="1952" 
d="M667 991h826l131 443q37 125 37 200q0 72 -68 95q-34 12 -134 12l13 49h721l-16 -49q-91 1 -136 -18q-63 -28 -94 -72q-43 -61 -88 -217l-316 -1082q-39 -135 -39 -192q0 -97 201 -111l-14 -49h-697l18 49q103 2 138 18q52 24 76 61q34 51 85 224l161 548h-830l-163 -548
q-38 -129 -38 -192q0 -97 201 -111l-11 -49h-702l17 49q104 2 138 18q55 25 78 61q34 52 85 224l317 1082q38 130 38 200q0 72 -68 95q-35 12 -137 12l16 49h706l-14 -49q-86 1 -131 -18q-62 -28 -91 -70q-41 -60 -87 -219z" />
    <glyph glyph-name="I" unicode="I" horiz-adv-x="900" 
d="M667 49l-15 -49h-736l18 49q108 2 147 18q59 25 85 62q44 63 90 222l312 1080q39 137 39 203q0 70 -69 95q-35 12 -137 12l16 49h692l-15 -49q-130 2 -195 -67q-12 -12 -21 -27q-32 -50 -79 -216l-311 -1080q-42 -147 -42 -190q0 -68 69 -92q37 -12 152 -20z" />
    <glyph glyph-name="J" unicode="J" horiz-adv-x="1200" 
d="M774 1790h704l-14 -49q-154 -1 -217 -79q-39 -48 -91 -228l-227 -789q-63 -220 -130 -340q-194 -346 -575 -346q-127 0 -214 56q-102 65 -102 186q0 74 45 128q49 56 122 56q135 0 135 -122q0 -43 -34 -82q-44 -50 -44 -69q0 -72 92 -72q136 0 249 117q58 59 101 143
q52 101 87 227l65 228l197 679q43 150 43 186q0 108 -207 121z" />
    <glyph glyph-name="K" unicode="K" horiz-adv-x="1803" 
d="M863 1018l444 -685q100 -154 161 -206q94 -78 240 -78l-14 -49h-763l12 49q166 17 166 121q0 42 -13 77q-9 23 -77 129l-363 569l-176 -593q-43 -147 -43 -191q0 -98 219 -112l-21 -49h-708l18 49q103 2 138 18q54 25 78 61q34 53 85 224l315 1082q36 122 36 199
q0 108 -165 108h-27l16 49h672l-13 -49q-84 1 -124 -18q-71 -35 -110 -125q-6 -15 -51 -164l-139 -460l636 479q129 97 167 151q23 34 23 62q0 62 -99 75l14 49h572l-11 -49q-162 -27 -289 -112q-1 0 -258 -195z" />
    <glyph glyph-name="L" unicode="L" horiz-adv-x="1504" 
d="M1240 0h-1327l18 49q107 3 142 17q55 23 81 62q42 61 88 219l315 1089q40 137 40 198q0 106 -173 106q-23 0 -36 1l16 49h730l-11 -49q-194 0 -260 -102q-24 -38 -78 -221l-310 -1071q-35 -123 -35 -169q0 -31 35 -61q24 -19 102 -19h173q189 0 299 47q83 36 151 107
q43 46 131 197l34 59h49z" />
    <glyph glyph-name="M" unicode="M" horiz-adv-x="2252" 
d="M857 1790l165 -1442l1039 1442h437v-49q-144 -9 -168 -18q-91 -35 -159 -267l-331 -1135q-29 -100 -29 -156q0 -116 194 -116h32l-12 -49h-754l13 49h36q99 0 153 29q79 42 164 340l296 1038l-1045 -1456h-52l-168 1456l-320 -1108q-40 -141 -40 -190q0 -95 208 -109
l-14 -49h-590l14 49h36q130 0 188 66q43 48 89 206l389 1334q-70 72 -229 86l13 49h445z" />
    <glyph glyph-name="N" unicode="N" horiz-adv-x="1803" 
d="M775 1790l553 -1403l300 1048q37 129 37 201q0 104 -163 104q-16 0 -33 1l15 49h575l-16 -49q-89 1 -133 -18q-63 -29 -92 -72q-41 -59 -86 -216l-421 -1476h-48l-595 1510l-318 -1115q-36 -125 -36 -194q0 -97 186 -111l-13 -49h-562l18 49q106 2 141 18q56 25 81 62
q38 57 86 225l355 1245q-89 136 -293 142l14 49h448z" />
    <glyph glyph-name="O" unicode="O" horiz-adv-x="1952" 
d="M1332 1831q373 0 531 -306q77 -151 77 -313q0 -306 -172 -616.5t-431 -470.5q-269 -166 -557 -166q-404 0 -552 334q-67 151 -67 292q0 239 118 490q111 238 291 415q348 341 762 341zM1287 1746q-275 0 -508 -279q-125 -149 -223 -389q-122 -295 -122 -558
q0 -200 94 -330q106 -146 298 -146q248 0 477 262q160 184 265.5 463.5t105.5 521.5q0 192 -96 317q-105 138 -291 138z" />
    <glyph glyph-name="P" unicode="P" horiz-adv-x="1651" 
d="M422 1790h705q225 0 374 -90q178 -109 178 -321q0 -311 -346 -471q-171 -80 -371 -80q-124 0 -315 45l-143 -489q-50 -172 -50 -230q0 -93 206 -105l-13 -49h-712l15 49q158 0 221 79q37 48 92 235l295 1019q53 182 53 246q0 103 -203 113zM669 956q149 -39 241 -39
q313 0 446 238q67 119 67 247q0 289 -330 289q-90 0 -218 -22z" />
    <glyph glyph-name="Q" unicode="Q" horiz-adv-x="1952" 
d="M791 -41l-341 -276q81 15 149 15q108 0 363 -58q184 -41 321 -41q269 0 448 220l43 -21q-256 -368 -713 -368q-112 0 -314 45q-302 67 -426 67q-74 0 -163 -38l-30 35l541 428q-231 32 -372 209q-137 172 -137 409q0 303 181 612q178 300 441 464q273 170 535 170
q393 0 547 -310q75 -151 75 -309q0 -306 -172 -616t-429.5 -471t-546.5 -166zM1286 1746q-275 0 -508 -279q-126 -150 -224 -389q-120 -293 -120 -558q0 -200 94 -330q106 -146 298 -146q248 0 476 261q160 184 266 464t106 522q0 192 -96 318q-106 137 -292 137z" />
    <glyph glyph-name="R" unicode="R" horiz-adv-x="1651" 
d="M1123 0l-286 870q-100 -1 -206 20l-154 -542q-31 -106 -31 -178q0 -55 38 -87q29 -24 159 -34l-12 -49h-693l14 49q96 4 132 20q55 23 80 60q44 66 88 219l313 1082q32 109 32 167q0 147 -192 144l16 49h584q551 0 551 -403q0 -197 -153 -337q-139 -126 -343 -160
l174 -524q58 -173 107 -229q70 -79 225 -88l-15 -49h-428zM653 965q85 -12 151 -12q209 0 345 113q146 122 146 327q0 302 -330 302q-42 0 -100 -11z" />
    <glyph glyph-name="S" unicode="S" 
d="M18 -41l148 664h45q-9 -96 -9 -160q0 -184 116 -296t301 -112q157 0 255 97.5t98 254.5q0 90 -41 163q-63 111 -332 386q-132 135 -167 196q-61 107 -61 225q0 202 151 331q143 123 348 123q71 0 140 -15q40 -8 149 -52q66 -27 84.5 -32t40.5 -5q71 0 131 104h50
l-137 -594h-45q5 79 5 128q0 166 -110 266q-106 97 -274 97q-122 0 -212 -71q-97 -76 -97 -196q0 -116 110 -250q37 -45 197 -199q157 -150 214 -231q100 -142 100 -291q0 -316 -279 -461q-134 -70 -294 -70q-141 0 -367 86q-52 20 -86 20q-78 0 -121 -106h-51z" />
    <glyph glyph-name="T" unicode="T" horiz-adv-x="1504" 
d="M396 1790h1360l-147 -475h-50q25 104 25 186q0 96 -59 145q-45 37 -231 37h-142l-353 -1233q-68 -234 -68 -286q0 -115 192 -115h60l-15 -49h-779l14 49h35q102 0 158 33q72 42 156 330l371 1271h-107q-282 0 -402 -154q-58 -76 -95 -214h-48z" />
    <glyph glyph-name="U" unicode="U" horiz-adv-x="1952" 
d="M354 1790h756l-14 -49q-97 -2 -139 -13q-70 -19 -112 -77q-35 -49 -73 -180l-183 -634q-48 -164 -58 -222q-16 -87 -16 -157q0 -177 133 -282q123 -98 304 -98q255 0 410 188q126 153 241 550l158 546q59 205 59 267q0 101 -203 112l15 49h569l-15 -49q-163 0 -222 -88
q-31 -47 -74 -192l-194 -664q-85 -291 -142 -409q-103 -212 -276 -325q-157 -104 -391 -104q-235 0 -408 131q-191 143 -191 371q0 81 14 166q10 57 52 201l177 608q37 127 37 194q0 99 -227 111z" />
    <glyph glyph-name="V" unicode="V" horiz-adv-x="1651" 
d="M411 -41l147 1490q11 107 11 154q0 138 -184 138h-47l13 49h706l-14 -49q-181 -2 -226 -100q-14 -32 -28 -165l-105 -1068l698 953q114 155 143 215q19 41 19 71q0 85 -143 94l15 49h539l-13 -49q-62 -5 -103 -25q-137 -67 -372 -387l-1009 -1370h-47z" />
    <glyph glyph-name="W" unicode="W" horiz-adv-x="2252" 
d="M366 -41l154 1492q9 89 9 132q0 153 -200 158l14 49h671l-15 -49q-151 2 -200 -70q-34 -50 -52 -220l-99 -967l680 1050q1 26 1 45q0 147 -231 162l11 49h725l-15 -49q-126 -1 -169 -21q-67 -30 -88 -157q-36 -206 -66 -538q-43 -463 -52 -541l566 861q140 213 140 294
q0 88 -140 102l11 49h531l-14 -49q-130 -10 -252 -145q-41 -47 -174 -251l-899 -1386h-49l145 1386l-898 -1386h-45z" />
    <glyph glyph-name="X" unicode="X" horiz-adv-x="1651" 
d="M1397 1790h605l-14 -49q-128 -18 -224 -77q-79 -49 -260 -234l-465 -476l131 -479q18 -67 68 -212q52 -151 143 -190q49 -20 146 -24l-14 -49h-702l14 49q191 7 191 109q0 40 -34 163l-125 450l-420 -424q-120 -121 -147 -165q-14 -24 -14 -46q0 -40 39 -65
q17 -10 113 -22l-14 -49h-595l15 49q114 11 183 51q101 60 288 247l520 523l-143 516q-55 202 -78 241q-60 105 -203 114l13 49h641l-16 -49q-135 0 -167 -45q-17 -24 -17 -53q0 -32 32 -147l122 -441l281 280q163 163 228 268q22 36 22 63q0 69 -158 75z" />
    <glyph glyph-name="Y" unicode="Y" horiz-adv-x="1504" 
d="M945 952l341 476q132 185 132 238q0 64 -190 75l13 49h562l-10 -49q-84 -11 -113 -22q-45 -19 -93 -62q-63 -57 -180 -218l-438 -605l-132 -442q-49 -164 -49 -230q0 -73 69 -96q48 -16 153 -17l-13 -49h-754l16 49q110 2 149 18q60 25 88 64q46 61 93 217l157 523
l-192 618q-43 141 -74 180q-49 62 -170 72l13 49h662l-16 -49q-122 -9 -141 -16q-66 -22 -66 -101q0 -57 38 -185z" />
    <glyph glyph-name="Z" unicode="Z" horiz-adv-x="1504" 
d="M409 1790h1242v-49l-1329 -1655h207q265 0 368 14q218 29 335 134q92 81 154 232h50l-154 -466h-1287v38l1329 1656h-371q-203 0 -269 -9q-157 -21 -242 -102q-71 -66 -120 -201h-46z" />
    <glyph glyph-name="bracketleft" unicode="[" horiz-adv-x="1052" 
d="M17 -539l695 2370h562l-29 -91h-368l-639 -2184h367l-27 -95h-561z" />
    <glyph glyph-name="backslash" unicode="\" horiz-adv-x="751" 
d="M381 1877l245 -1918h-98l-240 1918h93z" />
    <glyph glyph-name="bracketright" unicode="]" horiz-adv-x="1052" 
d="M986 1831l-694 -2370h-563l28 92h370l637 2183h-365l26 95h561z" />
    <glyph glyph-name="asciicircum" unicode="^" horiz-adv-x="1141" 
d="M682 1831l561 -945h-121l-462 773l-462 -773h-124l569 945h39z" />
    <glyph glyph-name="underscore" unicode="_" 
d="M1375 -583h-1397v110h1397v-110z" />
    <glyph glyph-name="grave" unicode="`" horiz-adv-x="900" 
d="M767 1851l144 -454h-42l-394 454h292z" />
    <glyph glyph-name="a" unicode="a" 
d="M1269 1195l-287 -1015q-4 -17 -4 -30q0 -48 40 -48q54 0 182 179l45 -32q-187 -281 -366 -281q-113 0 -113 111q0 67 29 170l27 99q-291 -380 -522 -380q-114 0 -179 97q-58 84 -58 203q0 221 133 456q126 224 314 360q152 111 286 111q163 0 215 -183l48 151zM799 1126
q-85 0 -180 -79q-137 -115 -240.5 -334t-103.5 -398q0 -194 147 -194q144 0 313 213q226 283 226 579q0 213 -162 213z" />
    <glyph glyph-name="b" unicode="b" 
d="M780 1877l-260 -912q221 230 419 230q154 0 244 -103q86 -99 86 -255q0 -214 -123 -426q-120 -207 -303.5 -325t-362.5 -118q-199 0 -409 149l402 1383q46 159 46 187q0 75 -111 75q-28 0 -85 -9v50zM269 103q132 -73 233 -73q288 0 457 373q92 202 92 408q0 102 -49 175
q-56 83 -153 83q-145 0 -262 -118q-103 -104 -146 -254z" />
    <glyph glyph-name="c" unicode="c" horiz-adv-x="1200" 
d="M1044 288q-266 -320 -573 -320q-183 0 -290 103.5t-107 286.5q0 211 119 408q113 189 297 307q191 122 375 122q286 0 286 -208q0 -80 -50 -140q-38 -44 -91 -44q-95 0 -95 92q0 48 51 97q44 42 44 71q0 72 -133 72q-286 0 -473 -350q-108 -202 -108 -406
q0 -292 285 -292q206 0 425 235z" />
    <glyph glyph-name="d" unicode="d" 
d="M1463 1877l-454 -1558q-37 -126 -37 -166q0 -37 34 -37q17 0 41 17q45 33 150 159l45 -28q-213 -296 -373 -296q-103 0 -103 122q0 76 39 202l52 163q-316 -487 -556 -487q-121 0 -190 110q-60 94 -60 222q0 216 138 442q129 210 319 340q164 113 299 113q131 0 224 -126
l129 460q2 4 24 77q16 52 16 88q0 68 -91 68q-31 0 -100 -9v49zM973 940q0 187 -173 187q-194 0 -370 -310q-157 -277 -157 -490q0 -203 148 -203q162 0 362 321q190 304 190 495z" />
    <glyph glyph-name="e" unicode="e" horiz-adv-x="1200" 
d="M322 498q-9 -66 -9 -110q0 -119 83 -200.5t202 -81.5q170 0 444 211l27 -38q-313 -311 -596 -311q-172 0 -280.5 109t-108.5 281q0 204 126 411q122 200 301 311q183 115 377 115q275 0 275 -192q0 -110 -87 -210q-114 -129 -338 -211q-150 -54 -416 -84zM331 562
q197 23 318 77q325 144 325 366q0 124 -134 124q-184 0 -335 -200q-121 -160 -174 -367z" />
    <glyph glyph-name="f" unicode="f" horiz-adv-x="751" 
d="M801 1163l-23 -87h-193l-145 -577q-96 -381 -194 -590q-232 -492 -542 -492q-77 0 -134 47q-41 34 -41 86q0 104 116 104q84 0 84 -74q0 -29 -27 -54q-21 -19 -21 -28q0 -27 46 -27q133 0 231 142q48 69 92 204q23 70 99 365l230 894h-230l19 87q171 0 233 73
q36 44 94 161q79 161 149 245q194 235 408 235q80 0 145 -39q77 -47 77 -122q0 -110 -108 -110q-93 0 -93 81q0 19 17.5 52t17.5 42q0 41 -63 41q-181 0 -307 -272q-35 -74 -131 -387h194z" />
    <glyph glyph-name="g" unicode="g" 
d="M1408 1113l-38 -137h-220q25 -72 25 -134q0 -208 -181 -337q-157 -111 -376 -124q-139 -41 -210 -100q-27 -22 -27 -43q0 -59 144 -93l256 -59q349 -81 349 -280q0 -235 -314 -339q-153 -50 -339 -50q-365 0 -492 143q-58 66 -58 136q0 127 132 220q37 25 202 118
q-60 48 -60 105q0 127 279 242q-131 26 -219 110q-96 93 -96 221q0 222 196 360q174 123 406 123q170 0 285 -82h356zM950 906q0 227 -212 227q-153 0 -254 -160q-89 -141 -89 -302q0 -96 57 -162q61 -69 155 -69q150 0 246 143q97 147 97 323zM318 0q-216 -99 -216 -276
q0 -87 79 -144q114 -82 332 -82q150 0 279 46q178 62 178 184q0 124 -241 173q-79 16 -411 99z" />
    <glyph glyph-name="h" unicode="h" 
d="M793 1877l-371 -1282q178 267 265 367q203 233 368 233q148 0 148 -160q0 -84 -37 -211l-161 -553q-31 -105 -31 -111q0 -43 37 -43q17 0 40 18q75 57 149 161l41 -25q-123 -192 -262 -270q-58 -33 -102 -33q-111 0 -111 111q0 56 46 217l152 528q29 101 29 155
q0 59 -60 59q-111 0 -294 -235q-38 -49 -211 -330q-57 -93 -91 -202l-85 -271h-198l481 1674q0 87 -98 87q-17 0 -73 -8l-27 -4v52z" />
    <glyph glyph-name="i" unicode="i" horiz-adv-x="751" 
d="M605 1719q132 0 132 -132t-132 -132t-132 132t132 132zM622 1195l-262 -926q-26 -93 -26 -112q0 -47 42 -47q21 0 48 21q74 58 152 169l46 -31q-90 -136 -211 -231q-91 -70 -172 -70q-123 0 -123 114q0 48 33 162l172 592q42 145 42 182q0 66 -77 66q-29 0 -120 -15v52z
" />
    <glyph glyph-name="j" unicode="j" horiz-adv-x="751" 
d="M619 1717q133 0 133 -133t-133 -133t-133 133t133 133zM640 1195l-342 -1182q-172 -596 -594 -596q-169 0 -169 129q0 103 107 103q91 0 91 -70q0 -34 -33 -59q-18 -15 -18 -24l3 -7q7 -10 35 -10q219 0 318 339l296 1014q44 149 44 165q0 81 -101 81q-14 0 -90 -11v46z
" />
    <glyph glyph-name="k" unicode="k" horiz-adv-x="1200" 
d="M774 1877l-375 -1298l150 129q251 213 321 308q24 33 24 51q0 28 -39 39q-23 7 -81 7h-47l15 50h577l-13 -50q-180 -10 -311 -107q-127 -95 -175 -137l-114 -101q27 -86 72 -265q97 -388 147 -388q23 0 53 22q69 51 147 160l46 -33q-235 -296 -360 -296q-56 0 -86 44
q-53 77 -176 614l-181 -157l-136 -469h-206l476 1634q6 23 6 58q0 74 -95 74q-30 0 -96 -13v46z" />
    <glyph glyph-name="l" unicode="l" horiz-adv-x="751" 
d="M804 1877l-452 -1571q-33 -115 -33 -144q0 -46 44 -46q26 0 54 23q68 53 144 167l40 -41q-211 -297 -379 -297q-118 0 -118 114q0 49 43 195l357 1238q44 151 44 175q0 72 -103 72q-31 0 -93 -9v49z" />
    <glyph glyph-name="m" unicode="m" horiz-adv-x="1952" 
d="M586 1195l-172 -596q116 211 196 316q214 280 391 280q153 0 153 -151q0 -60 -31 -169l-93 -335q215 403 408 565q106 90 211 90q138 0 138 -171q0 -78 -23 -162l-146 -514q-47 -168 -47 -186q0 -41 33 -41q13 0 46 26q75 57 141 153l44 -28q-121 -193 -260 -271
q-60 -33 -110 -33q-108 0 -108 110q0 64 54 255l120 423q41 143 44 163q4 24 4 49q0 70 -50 70q-56 0 -118 -57q-182 -168 -340 -470q-105 -199 -196 -511h-199l226 799q37 130 37 173q0 70 -51 70q-43 0 -92 -32q-94 -61 -225 -249q-113 -163 -172 -295q-35 -76 -157 -466
h-196l276 966q9 33 9 37q0 75 -93 75q-18 0 -95 -15l-12 48z" />
    <glyph glyph-name="n" unicode="n" 
d="M597 1195l-176 -601q182 272 265 367q203 234 366 234q152 0 152 -157q0 -80 -38 -212l-161 -555q-28 -96 -28 -118q0 -43 33 -43q16 0 38 17q69 54 153 169l41 -25q-211 -303 -369 -303q-107 0 -107 110q0 62 45 218l153 530q29 101 29 155q0 59 -60 59q-36 0 -88 -31
q-189 -116 -427 -546q-63 -114 -103 -245l-66 -218h-198l241 826q42 146 42 180q0 72 -81 72q-22 0 -55 -5l-50 -8l-8 48z" />
    <glyph glyph-name="o" unicode="o" 
d="M1250 781q0 -209 -109 -399.5t-288 -299.5q-188 -114 -365 -114q-182 0 -295.5 116t-113.5 299q0 205 117 400q114 189 293 298q187 114 361 114q179 0 291 -118q109 -115 109 -296zM1031 873q0 253 -215 253q-218 0 -381 -317q-139 -272 -139 -513q0 -262 223 -262
q215 0 376 323q136 275 136 516z" />
    <glyph glyph-name="p" unicode="p" 
d="M598 1195l-91 -304q258 304 487 304q131 0 211 -105q73 -96 73 -231q0 -311 -235 -594q-247 -297 -552 -297q-118 0 -231 66l-96 -340q-29 -103 -29 -131q0 -60 64 -81q35 -11 136 -11l-12 -49h-621l13 49q134 5 181 60q31 36 75 187l334 1156q30 105 30 136q0 75 -83 75
q-38 0 -107 -9v51zM290 139q82 -98 221 -98q142 0 279.5 152t218.5 405q43 133 43 264q0 218 -161 218q-162 0 -312 -200q-119 -158 -174 -347z" />
    <glyph glyph-name="q" unicode="q" 
d="M1282 1195l-432 -1492q-29 -100 -29 -132q0 -62 57 -84q40 -16 107 -16l-13 -49h-633l13 49q131 10 161 22q94 36 155 254l182 650q-294 -430 -524 -430q-128 0 -202 110q-65 96 -65 231q0 215 134 438q125 208 313 339q156 110 282 110q188 0 246 -192l41 148zM981 937
q0 81 -48 136q-51 57 -130 57q-189 0 -362 -313q-156 -279 -156 -487q0 -202 152 -202q80 0 182 90q141 124 248 327q114 217 114 392z" />
    <glyph glyph-name="r" unicode="r" horiz-adv-x="1052" 
d="M141 1121l456 74l-190 -642q230 394 419 552q108 90 175 90q93 0 93 -101q0 -85 -45 -166q-32 -59 -91 -59q-69 0 -79 80q-5 44 -37 44q-22 0 -42 -11q-33 -17 -104 -103q-109 -130 -238 -335q-56 -89 -95 -197q-57 -156 -63 -181l-43 -166h-202l245 820q42 142 42 203
t-90 61q-28 0 -102 -12z" />
    <glyph glyph-name="s" unicode="s" horiz-adv-x="1052" 
d="M981 1195l-81 -406h-49q-12 338 -245 338q-178 0 -178 -153q0 -81 103 -194q272 -298 272 -462q0 -154 -127 -255q-119 -95 -276 -95q-95 0 -219 45q-44 16 -67 16q-60 0 -90 -61h-49l80 428h49q15 -367 289 -367q92 0 153 50q65 54 65 144q0 53 -21 98
q-37 80 -153.5 216t-153.5 213q-34 70 -34 140q0 136 100 222q94 83 233 83q44 0 77 -7q19 -4 90 -31q62 -24 87 -24q56 0 95 62h50z" />
    <glyph glyph-name="t" unicode="t" horiz-adv-x="751" 
d="M702 1522l-103 -359h208l-23 -83h-206l-227 -779q-37 -127 -37 -162q0 -47 36 -47q32 0 87 47q33 27 141 162l44 -33q-206 -300 -379 -300q-132 0 -132 130q0 71 42 217l221 765h-200l13 51q163 45 270 144q83 77 187 247h58z" />
    <glyph glyph-name="u" unicode="u" 
d="M1273 1163l-230 -787q-52 -176 -52 -222t32 -46q45 0 186 184l40 -31q-106 -166 -214 -243q-71 -50 -140 -50q-110 0 -110 105q0 41 18 118q23 107 120 425q-395 -648 -656 -648q-146 0 -146 149q0 98 59 304l114 408q43 150 43 182q0 38 -36 38q-53 0 -181 -166l-41 29
q98 152 210 226q86 57 156 57q111 0 111 -111q0 -74 -53 -255l-124 -426q-52 -177 -52 -221q0 -55 61 -55q116 0 300 237q117 149 193 281q82 141 162 418l29 100h201z" />
    <glyph glyph-name="v" unicode="v" horiz-adv-x="1200" 
d="M58 1113l382 82q42 -101 66 -200q36 -149 58 -353q10 -94 29 -436q163 180 196 226q181 245 201 277q41 65 61 123q14 42 14 75q0 29 -61 79t-61 100q0 109 113 109q61 0 102 -50q38 -47 38 -109q0 -67 -21 -129q-75 -219 -430 -632q-24 -28 -294 -307h-48
q-32 837 -132 1043q-33 67 -110 67q-33 0 -94 -11z" />
    <glyph glyph-name="w" unicode="w" horiz-adv-x="1803" 
d="M1133 1195l91 -990q229 269 367 505q80 139 80 201q0 29 -13 51q-35 23 -92 83q-15 24 -15 52q0 98 108 98q130 0 130 -148q0 -71 -20 -128q-40 -115 -155 -293q-261 -405 -509 -658h-49l-86 914l-545 -914h-58q-9 564 -57 890q-20 136 -66 178q-33 31 -100 31
q-38 0 -98 -8v47l379 89q80 -223 103 -678q9 -184 13 -217l543 895h49z" />
    <glyph glyph-name="x" unicode="x" horiz-adv-x="1200" 
d="M469 1195q63 -68 97 -138q25 -50 78 -249l116 174q37 55 113 121q66 57 116 78q31 14 70 14q124 0 124 -105q0 -50 -20 -68q-36 -33 -85 -33q-25 0 -59 12q-60 21 -83 21q-96 0 -271 -303l109 -454q34 -145 76 -145q28 0 65 30q72 61 124 159l46 -24q-83 -156 -211 -259
q-72 -58 -123 -58q-73 0 -117 83q-28 53 -115 444q-207 -359 -330 -461q-80 -66 -156 -66q-54 0 -96 39q-32 28 -32 77q0 102 100 102q42 0 90 -42q34 -30 53 -30q15 0 41 21q60 49 169 214q99 152 140 242l-89 340q-55 157 -223 157q-30 0 -70 -3v48z" />
    <glyph glyph-name="y" unicode="y" horiz-adv-x="1200" 
d="M432 1195q71 -121 96 -406l58 -649q83 100 230 301q72 99 179 273q63 103 80 148q7 22 7 44q0 27 -57 45q-90 29 -90 124q0 120 110 120q140 0 140 -181q0 -178 -345 -650q-204 -277 -493 -604q-303 -343 -461 -343q-102 0 -102 103q0 51 42 93t93 42q26 0 44 -11
q10 -7 28 -49q16 -37 34 -37q10 2 28 13q75 47 169 143q125 127 187 211l-74 837q-14 161 -29 200q-36 97 -150 97q-28 0 -99 -8l-12 49z" />
    <glyph glyph-name="z" unicode="z" horiz-adv-x="1052" 
d="M227 1163h838v-33l-913 -950h387q192 0 242 55q31 34 69 124h49l-115 -359h-859v38l913 951h-380q-117 0 -145 -7q-82 -19 -148 -153h-50z" />
    <glyph glyph-name="braceleft" unicode="{" horiz-adv-x="1081" 
d="M591 -537l-14 -46q-162 23 -261 122q-106 105 -106 264q0 123 102 326.5t102 269.5q0 190 -228 221l16 55q278 35 371 250q27 63 42 260q14 184 78 305q80 152 251 260q162 104 339 127l-13 -46q-287 -66 -376 -276q-31 -72 -44 -250t-52 -267q-117 -267 -494 -387
q272 -115 272 -361q0 -106 -103 -306.5t-103 -283.5q0 -177 221 -237z" />
    <glyph glyph-name="bar" unicode="|" horiz-adv-x="743" 
d="M422 1877v-2460h-109v2460h109z" />
    <glyph glyph-name="braceright" unicode="}" horiz-adv-x="1081" 
d="M490 1831l13 46q162 -22 262 -121q106 -105 106 -264q0 -124 -103 -327t-103 -269q0 -189 230 -221l-16 -55q-275 -35 -371 -250q-27 -61 -42 -259q-14 -187 -79 -308q-80 -151 -250 -259q-162 -104 -339 -127l13 46q289 69 376 276q29 68 41 243.5t49 260.5
q121 278 501 401q-272 112 -272 361q0 106 103 306.5t103 281.5q0 180 -222 238z" />
    <glyph glyph-name="asciitilde" unicode="~" horiz-adv-x="1463" 
d="M1375 891h60q-5 -154 -86 -255q-88 -111 -238 -111q-103 0 -492 160q-206 85 -289 85q-196 0 -246 -242h-58q7 151 81 252q84 115 228 115q56 0 119 -18q40 -12 348 -135q241 -97 328 -97q221 0 245 246z" />
    <glyph glyph-name="uni007F" horiz-adv-x="2048" 
 />
    <glyph glyph-name="exclamdown" unicode="&#xa1;" horiz-adv-x="900" 
d="M652 774h50l-196 -1068l-23 -104q-9 -40 -31 -74t-51 -59t-61 -39t-61 -14q-49 0 -77 31t-28 92q0 42 15.5 84.5t32.5 82.5zM827 1286q48 0 79 -29.5t31 -75.5q0 -35 -17.5 -69t-45 -60t-62.5 -42t-70 -16q-46 0 -78 28.5t-32 74.5q0 36 16.5 70t44 60.5t62.5 42.5t72 16
z" />
    <glyph glyph-name="cent" unicode="&#xa2;" 
d="M1322 460q-56 -105 -127.5 -195t-154.5 -156t-175 -103.5t-189 -37.5h-4q-115 0 -200 46l-339 -514h-92l369 564q-56 72 -79.5 142.5t-23.5 155.5q0 125 34 240t92.5 213.5t136.5 178.5t166.5 137t182.5 88t184 31q25 0 78 -6l334 506h94l-347 -530q52 -26 86 -51.5
t54 -51t28.5 -52t8.5 -53.5q0 -35 -11.5 -66.5t-33 -55t-52 -37t-69.5 -13.5q-46 0 -76 22.5t-30 74.5q0 21 5.5 49.5t5.5 60.5q0 18 -3 39l-544 -834q28 -23 49 -38.5t41 -24.5t43.5 -13t57.5 -4q40 0 81.5 9t81 24.5t74 35.5t60.5 42q52 45 168 195zM584 330l531 812
q-28 16 -73 16q-80 0 -150.5 -36t-129 -97.5t-103 -143.5t-71.5 -175q-15 -52 -23 -96t-8 -86v-8q0 -80 27 -186z" />
    <glyph glyph-name="sterling" unicode="&#xa3;" 
d="M1208 870h-340q-27 -86 -49.5 -155t-48.5 -133.5t-60.5 -130t-85.5 -143.5q112 -42 177.5 -64t85.5 -27q39 -10 68.5 -13.5t66.5 -3.5q58 0 106.5 13t89.5 39.5t76.5 66t67.5 93.5l44 -12q-44 -104 -103 -184.5t-126 -135.5t-138 -83.5t-139 -28.5q-31 0 -55.5 1.5t-48 8
t-47.5 19.5t-54.5 36.5t-70 59.5t-92.5 87q-167 -212 -304 -212h-4q-54 0 -83.5 29t-29.5 81q0 54 24 102t64 84.5t91.5 58t107.5 21.5l109 -10q11 32 22.5 69t26.5 95.5t35.5 147t48.5 224.5h-256l37 126h256q17 86 30.5 149.5t26.5 112t27 85.5t31.5 70t40 65.5t53.5 72.5
q52 67 112.5 118.5t126 86.5t133 53.5t132.5 18.5q70 0 120 -18t82 -48t46.5 -68.5t14.5 -79.5q0 -29 -11 -58t-30.5 -52.5t-45 -38.5t-55.5 -15q-29 0 -50.5 20t-21.5 59q0 10 3.5 26t7.5 34t7.5 36t3.5 32q0 97 -123 97q-75 0 -138 -34t-116 -119.5t-97.5 -232
t-81.5 -372.5h340zM460 228q-25 16 -48.5 25t-52.5 11q-34 0 -64 -12t-53 -33t-36.5 -49.5t-13.5 -61.5q0 -30 18 -47t44 -17q21 0 45 9t50 30.5t54 57t57 87.5z" />
    <glyph glyph-name="currency" unicode="&#xa4;" 
d="M1441 1346l242 186l57 -74l-245 -186q51 -105 51 -217q0 -141 -69.5 -274.5t-199.5 -254.5l134 -192l-99 -72l-133 188q-217 -136 -396 -136q-54 0 -108.5 10.5t-102 29t-84 43t-55.5 53.5l-247 -188l-53 72l246 192q-52 89 -52 200q0 72 18.5 144.5t53.5 142.5t85 135.5
t113 123.5l-135 186l95 74l138 -186q42 28 95 52.5t109.5 42.5t111 28.5t99.5 10.5t91 -8t89 -24.5t82 -42t69 -59.5zM1077 1372q-76 0 -152.5 -23.5t-147.5 -65t-133 -98.5t-107.5 -125t-72 -144.5t-26.5 -155.5q0 -75 27 -137.5t75 -107.5t113.5 -70t142.5 -25t154 23.5
t148 65.5t132.5 99t106.5 123.5t71 140.5t26 149q0 81 -27 146t-74.5 110.5t-113 70t-142.5 24.5z" />
    <glyph glyph-name="yen" unicode="&#xa5;" 
d="M952 562h562l-29 -98h-562l-41 -142q-20 -69 -31 -111.5t-11 -63.5t10.5 -38.5t28.5 -29.5t42.5 -18.5t53.5 -6.5h54l-15 -54h-680l15 54h42q62 0 101.5 9t67.5 37t49 81t47 141l41 142h-560l29 98h560l55 190l-6 46h-540l28 98h498l-88 654q-8 55 -20 91.5t-31 58.5
t-46.5 31t-65.5 9l15 50h584l-15 -50q-52 0 -87.5 -9.5t-57.5 -25t-31.5 -35t-9.5 -38.5q0 -11 0.5 -23.5t2.5 -28.5l82 -684l477 664q33 47 46 76t13 41q0 8 -1.5 17t-10.5 17t-27.5 14.5t-52.5 10.5l-35 4l15 50h456l-15 -50q-45 0 -79 -10.5t-66 -34t-65.5 -62.5
t-76.5 -97l-470 -640h510l-28 -98h-552l-16 -20z" />
    <glyph glyph-name="brokenbar" unicode="&#xa6;" horiz-adv-x="542" 
d="M871 1878l-287 -980h-110l287 980h110zM437 396l-286 -980h-110l286 980h110z" />
    <glyph glyph-name="section" unicode="&#xa7;" 
d="M823 1112q-38 66 -59 122t-21 108q0 62 19.5 122t54.5 114t82.5 99.5t103 79t116.5 52.5t123 19q58 0 106 -16.5t82 -46t53 -69.5t19 -87q0 -29 -9 -62.5t-27.5 -62t-47 -47.5t-66.5 -19q-32 0 -54.5 19t-22.5 53q0 12 5 25t13 31t18.5 42t21.5 58q6 19 6 37
q0 38 -28 63.5t-85 25.5q-60 0 -115.5 -27t-99 -71.5t-69.5 -102t-26 -118.5q0 -54 38.5 -117.5t111.5 -129.5q71 -66 124 -124.5t88 -113.5t52.5 -109t17.5 -109q0 -70 -27 -145.5t-82 -150t-137.5 -143.5t-194.5 -127q44 -71 62 -125.5t18 -105.5q0 -64 -20.5 -124.5
t-56.5 -114t-84 -98t-104 -76.5t-116 -50t-119 -18q-57 0 -104.5 16.5t-81 46t-52 70.5t-18.5 89q0 30 9.5 63.5t28.5 62t47 47.5t64 19q27 0 49.5 -18.5t22.5 -53.5q0 -25 -11.5 -55.5t-25 -60t-25 -55t-11.5 -40.5q0 -20 11 -34.5t29.5 -24.5t42 -15t48.5 -5q58 0 113 27
t98.5 69.5t70 95.5t26.5 105q0 63 -41.5 134.5t-132.5 156.5q-68 64 -117 121t-81 110t-47.5 105t-15.5 105q0 72 29 149t85 150.5t138 140.5t188 119zM853 1072q-146 -75 -223 -171t-77 -211q0 -37 11.5 -74.5t36 -78t62.5 -85.5t91 -96q20 -19 36 -36t30 -32.5t27.5 -31.5
t27.5 -32q145 72 221.5 164.5t76.5 203.5q0 36 -8 71.5t-29 75t-57.5 85.5t-92.5 102q-42 43 -75 79t-58 67z" />
    <glyph glyph-name="dieresis" unicode="&#xa8;" horiz-adv-x="900" 
d="M260 1766q46 0 77 -28.5t31 -74.5q0 -36 -17.5 -69.5t-45.5 -59t-61.5 -41t-66.5 -15.5q-48 0 -78 27.5t-30 73.5q0 36 17 70t44 60t61 41.5t69 15.5zM726 1766q22 0 41.5 -8t34 -21.5t22.5 -32.5t8 -41q0 -38 -17.5 -71.5t-45 -59t-61.5 -40t-67 -14.5q-22 0 -41.5 7.5
t-34.5 21t-23.5 32t-8.5 41.5q0 34 17 67.5t44.5 60t62 42.5t69.5 16z" />
    <glyph glyph-name="copyright" unicode="&#xa9;" horiz-adv-x="2054" 
d="M1301 1832q147 0 274.5 -46.5t222.5 -134.5t149.5 -214.5t54.5 -286.5q0 -139 -47 -281t-131.5 -274.5t-201 -248t-255 -201.5t-294.5 -135.5t-319 -49.5q-151 0 -279.5 46.5t-222 133.5t-146.5 213t-53 285q0 135 46 276.5t129 274t198.5 249.5t254 204.5t296 138.5
t324.5 51zM1277 1750q-118 0 -248.5 -37.5t-257.5 -106.5t-242 -167t-202.5 -219.5t-139 -263.5t-51.5 -299q0 -138 47 -251.5t131.5 -194.5t202.5 -126t260 -45q107 0 220.5 28.5t224 81.5t213.5 129t190 171t153.5 207.5t103.5 238.5q17 61 25.5 120t9.5 116
q0 141 -47.5 255t-132.5 195t-202.5 124.5t-257.5 43.5zM1666 1498l-83 -370h-50q-1 79 -23 137.5t-61.5 97t-96.5 57t-128 18.5q-99 0 -188 -35t-163 -101t-131 -161t-92 -215q-41 -143 -41 -245q0 -75 22 -131t63 -94t100 -57t133 -19q260 0 474 214l43 -26
q-262 -268 -585 -268q-104 0 -190 30t-147.5 84.5t-95.5 131t-34 170.5q0 99 33 195.5t92 183.5t139.5 161t176 127.5t202 84t216.5 30.5h5q35 0 57 -1t44.5 -6t51 -15t76.5 -28q17 -6 28 -7.5t17 -2.5q23 0 40.5 11t43.5 49h52z" />
    <glyph glyph-name="ordfeminine" unicode="&#xaa;" horiz-adv-x="746" 
d="M485 1558q27 94 27 147q0 45 -26 65t-74 20q-124 0 -158 -118q-17 -58 -44.5 -85t-64.5 -27q-25 0 -40 15t-15 39q0 39 26.5 77.5t74.5 68.5t116.5 49t152.5 19q60 0 103 -11.5t70.5 -30t41.5 -41t16 -43.5v-12q0 -23 -5 -56.5t-17 -75.5l-85 -288q-11 -35 -15.5 -56
t-6.5 -29v-3q0 -11 6.5 -18.5t16.5 -7.5q16 0 87 38l-18 -62q-56 -33 -90 -52.5t-56.5 -29.5t-39.5 -13t-39 -3q-30 0 -46.5 18.5t-16.5 71.5q0 8 0.5 17t1.5 19q-94 -57 -177 -89.5t-140 -32.5q-28 0 -52 9.5t-41.5 26t-27.5 39.5t-10 49q0 57 33 106.5t102 96t175.5 93.5
t254.5 100zM470 1508q-92 -27 -158 -60t-108 -69t-62 -73.5t-20 -72.5q0 -38 26 -59.5t64 -21.5q31 0 71 13.5t100 44.5z" />
    <glyph glyph-name="guillemotleft" unicode="&#xab;" 
d="M1086 -10h-78l-338 622l701 622h78l-503 -622zM488 -10h-74l-330 622l693 622h74l-503 -622z" />
    <glyph glyph-name="logicalnot" unicode="&#xac;" horiz-adv-x="1524" 
d="M126 1160h1426l-157 -536h-106l125 428h-1320z" />
    <glyph glyph-name="uni00AD" unicode="&#xad;" horiz-adv-x="900" 
d="M139 706h682l-59 -200h-682z" />
    <glyph glyph-name="registered" unicode="&#xae;" horiz-adv-x="2054" 
d="M1301 1832q147 0 274.5 -46.5t222.5 -134.5t149.5 -214.5t54.5 -286.5q0 -139 -47 -281t-131.5 -274.5t-201 -248t-255 -201.5t-294.5 -135.5t-319 -49.5q-151 0 -279.5 46.5t-222 133.5t-146.5 213t-53 285q0 135 46 276.5t129 274t198.5 249.5t254 204.5t296 138.5
t324.5 51zM1277 1750q-118 0 -248.5 -37.5t-257.5 -106.5t-242 -167t-202.5 -219.5t-139 -263.5t-51.5 -299q0 -138 47 -251.5t131.5 -194.5t202.5 -126t260 -45q107 0 220.5 28.5t224 81.5t213.5 129t190 171t153.5 207.5t103.5 238.5q17 61 25.5 120t9.5 116
q0 141 -47.5 255t-132.5 195t-202.5 124.5t-257.5 43.5zM677 1470h510q79 0 138.5 -16.5t99 -45.5t59.5 -69.5t20 -88.5q0 -59 -23 -114t-70.5 -103t-121.5 -87t-176 -64l161 -394q14 -34 27 -56t27.5 -35.5t32 -19t39.5 -5.5l-13 -44h-244l-231 536h-100l-119 -408
q0 -3 -0.5 -6.5t-0.5 -6.5q0 -18 4.5 -31.5t18.5 -22t40 -13t69 -4.5l-13 -44h-484l13 44q48 0 77.5 6t49 25.5t33.5 55t32 95.5l201 690q27 92 30 116q0 29 -20.5 45.5t-78.5 18.5zM829 920q114 0 199.5 22t143 63.5t86.5 100t29 130.5q0 41 -15 73.5t-42 55.5t-64 35
t-82 12q-49 0 -117 -20z" />
    <glyph glyph-name="macron" unicode="&#xaf;" 
d="M1359 1930h-1397l33 110h1397z" />
    <glyph glyph-name="degree" unicode="&#xb0;" horiz-adv-x="1082" 
d="M652 1830q67 0 123.5 -21t97.5 -59t64 -91t23 -117q0 -65 -22 -129.5t-60 -122.5t-90 -108t-112.5 -86.5t-127 -57t-133.5 -20.5q-65 0 -120 21t-96 58.5t-64 90.5t-23 117q0 66 21.5 130.5t59.5 123t89.5 108t111.5 86t125.5 57t132.5 20.5zM619 1718q-48 0 -95.5 -14.5
t-91.5 -40.5t-81 -61.5t-65 -77.5t-43.5 -88.5t-15.5 -95.5q0 -47 16.5 -85.5t46 -66t70 -43t88.5 -15.5q72 0 142.5 32.5t127 85.5t91 120.5t34.5 136.5q0 47 -17 86.5t-47 67.5t-71 43.5t-89 15.5z" />
    <glyph glyph-name="plusminus" unicode="&#xb1;" horiz-adv-x="1484" 
d="M-178 186l32 108h657l161 550h-658l32 110h658l192 656h106l-192 -656h660l-32 -110h-660l-161 -550h660l-32 -108h-1423z" />
    <glyph glyph-name="uni00B2" unicode="&#xb2;" horiz-adv-x="810" 
d="M679 1078l-141 -202h-651l11 38q178 115 307.5 208.5t213 173t123.5 147t40 129.5q0 58 -39 96t-108 38q-152 0 -263 -154h-58q26 61 66 112t91.5 87.5t112.5 56.5t129 20q56 0 102.5 -15t79.5 -41t51 -61.5t18 -75.5q0 -61 -36 -126.5t-112 -141.5t-195 -165.5
t-285 -197.5h246q63 0 101.5 4t62.5 12.5t39.5 22.5t33.5 35h60z" />
    <glyph glyph-name="uni00B3" unicode="&#xb3;" horiz-adv-x="810" 
d="M153 1622q45 56 89 95.5t88.5 64t91 35.5t96.5 11q51 0 90.5 -12.5t66 -34t40.5 -49.5t14 -59q0 -53 -48 -112.5t-156 -132.5q63 -26 96.5 -69.5t33.5 -103.5q0 -78 -42.5 -150t-116.5 -127.5t-173.5 -88.5t-213.5 -33q-78 0 -123.5 17t-45.5 55q0 14 9 27t22.5 23
t30.5 16t34 6q14 0 39.5 -10t55 -22t60 -22t54.5 -10q43 0 85.5 20t76 52t54.5 72.5t21 81.5q0 50 -22 82.5t-54 51.5t-68.5 26.5t-65.5 7.5h-40l11 36q58 0 113.5 22.5t98.5 58.5t69 80.5t26 88.5q0 51 -34 76.5t-91 25.5q-111 0 -227 -116z" />
    <glyph glyph-name="acute" unicode="&#xb4;" horiz-adv-x="900" 
d="M812 1834l-523 -454h-44l271 454h296z" />
    <glyph glyph-name="mu" unicode="&#xb5;" horiz-adv-x="1558" 
d="M520 1210h218l-206 -704q-27 -92 -40 -155.5t-13 -98.5v-8q0 -51 35.5 -84.5t92.5 -33.5q154 0 363 176l266 908h218l-253 -864q-20 -70 -30 -111t-10 -67t15.5 -44t44.5 -18q43 0 80.5 42.5t73.5 121.5h56q-22 -71 -58 -128t-82 -96.5t-100 -60.5t-112 -21
q-69 0 -107.5 34.5t-38.5 109.5q0 44 12 106q-77 -67 -143 -114.5t-125 -77.5t-113 -44t-107 -14q-35 0 -61 5.5t-46 18t-35 34t-29 54.5l-8 -28q-2 -5 -3 -11t-3 -11l-6 -12q-16 -54 -28 -131t-20 -183q-5 -57 -17.5 -108.5t-35.5 -90.5t-56.5 -62t-79.5 -23
q-36 0 -58.5 24.5t-22.5 67.5q0 21 5.5 43.5t18 53t34 72.5t53.5 101q42 78 67 132t40.5 95t25 75t20.5 72l27 98z" />
    <glyph glyph-name="paragraph" unicode="&#xb6;" horiz-adv-x="1226" 
d="M1379 1718l-673 -2302h-96l673 2302h-246l-673 -2302h-96l403 1378q-137 0 -234 21t-158.5 63.5t-90.5 106.5t-29 150q0 109 35.5 202.5t93.5 168.5t131.5 130t149.5 88q73 32 160.5 48.5t193.5 17.5h654l-22 -72h-176z" />
    <glyph glyph-name="periodcentered" unicode="&#xb7;" horiz-adv-x="676" 
d="M380 1042q51 0 80.5 -28t29.5 -76q0 -35 -17 -69t-44.5 -61t-62.5 -43.5t-71 -16.5q-48 0 -79 28t-31 76q0 35 16.5 69t43.5 61t62 43.5t73 16.5z" />
    <glyph glyph-name="periodcentered" unicode="&#x2219;" horiz-adv-x="676" 
d="M380 1042q51 0 80.5 -28t29.5 -76q0 -35 -17 -69t-44.5 -61t-62.5 -43.5t-71 -16.5q-48 0 -79 28t-31 76q0 35 16.5 69t43.5 61t62 43.5t73 16.5z" />
    <glyph glyph-name="cedilla" unicode="&#xb8;" horiz-adv-x="900" 
d="M554 22h80l-97 -106q60 -14 88.5 -49.5t28.5 -84.5q0 -55 -30 -108t-80.5 -95t-116 -67.5t-136.5 -25.5q-42 0 -72.5 3t-49.5 5l17 58q14 -3 31 -4.5t32 -1.5q36 0 72.5 15.5t66.5 40t48.5 55t18.5 60.5q0 33 -23 52t-59 19l-34 -2z" />
    <glyph glyph-name="uni00B9" unicode="&#xb9;" horiz-adv-x="810" 
d="M285 1712l304 116h46l-229 -782q-13 -43 -16.5 -63t-4.5 -35q1 -6 5 -11.5t16 -9.5t35 -6.5t62 -2.5l-13 -42h-430l13 42q42 0 66.5 2t38.5 6.5t20.5 10t11.5 13.5q6 8 15.5 31.5t20.5 64.5l144 494q17 58 23.5 89.5t6.5 43.5q0 25 -28 29q-26 0 -98 -26z" />
    <glyph glyph-name="ordmasculine" unicode="&#xba;" horiz-adv-x="838" 
d="M543 1828q63 0 115.5 -19.5t89.5 -55t57.5 -85t20.5 -110.5q0 -64 -21.5 -127t-58.5 -121t-88 -107.5t-110 -86t-124 -57.5t-130 -21q-59 0 -110 18.5t-88.5 52t-59 82t-21.5 108.5q0 72 21 139.5t58.5 126t88 107t109 83.5t123 54t128.5 19zM488 1770q-41 0 -88 -28.5
t-88 -85t-68 -141t-27 -195.5q0 -44 7.5 -82.5t23.5 -68t42 -46.5t64 -17q78 0 143 58.5t102 185.5q16 55 24.5 103.5t8.5 92.5q0 45 -9 86t-27 71.5t-45 48.5t-63 18z" />
    <glyph glyph-name="guillemotright" unicode="&#xbb;" 
d="M265 1234h78l338 -624l-700 -620h-78l502 620zM863 1234h74l330 -624l-693 -620h-74l503 620z" />
    <glyph glyph-name="onequarter" unicode="&#xbc;" horiz-adv-x="2028" 
d="M1811 296l54 -108h-229l-70 -240h-154l70 240h-452l28 98l676 614h110l-177 -604h144zM1983 1828l-1789 -1900h-118l1789 1900h118zM419 1712l306 116h46l-228 -782q-11 -38 -16 -61t-5 -32v-2q1 -8 5 -14t16 -10.5t34.5 -6.5t61.5 -2l-12 -42h-430l12 42q49 0 76.5 1
t44 12t26.5 37.5t25 77.5l156 534q19 67 19 93q0 12 -6 19t-24 10q-25 0 -95 -26zM1513 296l122 416l-464 -416h342z" />
    <glyph glyph-name="onehalf" unicode="&#xbd;" horiz-adv-x="2028" 
d="M1759 150l-139 -202h-652l11 38q180 115 309 208.5t212 172t122 146t39 131.5q0 61 -39.5 97.5t-105.5 36.5q-76 0 -141 -36.5t-122 -117.5h-60q27 61 68 112t93 87.5t113 56.5t127 20q57 0 103.5 -15.5t79 -42.5t50.5 -63t18 -76q0 -57 -35.5 -121t-111.5 -140
t-195.5 -166.5t-287.5 -199.5h248q59 0 95 2.5t60 10t41.5 22.5t39.5 39h60zM1951 1828l-1789 -1900h-118l1789 1900h118zM419 1712l306 116h46l-228 -782q-11 -38 -16 -61t-5 -32v-2q1 -8 5 -14t16 -10.5t34.5 -6.5t61.5 -2l-12 -42h-430l12 42q49 0 76.5 1t44 12
t26.5 37.5t25 77.5l156 534q19 67 19 93q0 12 -6 19t-24 10q-25 0 -95 -26z" />
    <glyph glyph-name="threequarters" unicode="&#xbe;" horiz-adv-x="2028" 
d="M1811 296l-31 -108h-144l-70 -240h-152l70 240h-454l28 98l676 614h110l-177 -604h144zM287 1622q85 109 173.5 157.5t190.5 48.5q50 0 89 -12t66 -32.5t41 -48.5t14 -59q0 -55 -48 -114.5t-157 -133.5q69 -26 100.5 -72t31.5 -103q0 -75 -42 -146.5t-115.5 -127
t-173 -89.5t-214.5 -34q-82 0 -126.5 18t-44.5 52q0 16 9 29.5t23 23.5t31 15.5t34 5.5q13 0 37.5 -10t54 -22t60 -22t55.5 -10q46 0 89.5 20.5t77 53.5t54 75t20.5 85q0 72 -59.5 116t-191.5 44l10 36q59 0 114.5 23t98 59t68.5 80.5t26 86.5q0 48 -32 75.5t-92 27.5
q-109 0 -228 -116zM1963 1828l-1785 -1900h-118l1789 1900h114zM1515 296l122 416l-466 -416h344z" />
    <glyph glyph-name="questiondown" unicode="&#xbf;" horiz-adv-x="1200" 
d="M720 826h52q-24 -82 -51 -142.5t-59 -117.5q-14 -26 -34.5 -57.5t-48 -71t-64 -88t-82.5 -107.5q-70 -89 -116.5 -165.5t-74.5 -141.5t-40 -120t-12 -101q0 -53 16.5 -93.5t46.5 -68.5t72.5 -42t93.5 -14q63 0 118 18.5t95.5 47.5t64 65.5t23.5 71.5q0 15 -4 36t-8.5 43
t-8.5 43t-4 36q0 28 12 53.5t31.5 45.5t45.5 32t55 12q19 0 37 -8.5t31.5 -24t22 -38.5t8.5 -53q0 -57 -22 -113t-62.5 -107t-96 -95t-123 -76t-143.5 -50.5t-157 -18.5q-90 0 -161 22.5t-120.5 63t-76 97t-26.5 124.5q0 38 9 79.5t24.5 82.5t36 79.5t43.5 71.5
q46 67 115 136.5t168 155.5q90 77 151 135t103 112.5t69.5 113.5t50.5 137zM869 1288q22 0 42 -7.5t35.5 -21.5t24.5 -34t9 -45q0 -33 -17 -66.5t-45 -60t-63 -43t-72 -16.5q-48 0 -78.5 27.5t-30.5 75.5q0 36 17 70t44.5 61t62.5 43.5t71 16.5z" />
    <glyph glyph-name="Agrave" unicode="&#xc0;" horiz-adv-x="1651" 
d="M1393 1831l-136 -1489q-11 -116 -11 -137q0 -52 20 -81q51 -75 212 -75l-14 -49h-705l15 49h30q85 0 140 37q39 26 59 83q13 37 28 193l21 227h-512l-182 -247q-94 -127 -94 -188q0 -100 148 -105l-15 -49h-529l15 49q117 5 229 117q42 43 165 210l1069 1455h47z
M1131 1391l-519 -706h451zM1253 2391l144 -454h-42l-394 454h292z" />
    <glyph glyph-name="Aacute" unicode="&#xc1;" horiz-adv-x="1651" 
d="M1393 1831l-136 -1489q-11 -116 -11 -137q0 -52 20 -81q51 -75 212 -75l-14 -49h-705l15 49h30q85 0 140 37q39 26 59 83q13 37 28 193l21 227h-512l-182 -247q-94 -127 -94 -188q0 -100 148 -105l-15 -49h-529l15 49q117 5 229 117q42 43 165 210l1069 1455h47z
M1131 1391l-519 -706h451zM1812 2374l-523 -454h-44l271 454h296z" />
    <glyph glyph-name="Acircumflex" unicode="&#xc2;" horiz-adv-x="1651" 
d="M1393 1831l-136 -1489q-11 -116 -11 -137q0 -52 20 -81q51 -75 212 -75l-14 -49h-705l15 49h30q85 0 140 37q39 26 59 83q13 37 28 193l21 227h-512l-182 -247q-94 -127 -94 -188q0 -100 148 -105l-15 -49h-529l15 49q117 5 229 117q42 43 165 210l1069 1455h47z
M1131 1391l-519 -706h451zM1384 2348h244l115 -436h-40l-273 280l-391 -280h-38z" />
    <glyph glyph-name="Atilde" unicode="&#xc3;" horiz-adv-x="1651" 
d="M1393 1831l-136 -1489q-11 -116 -11 -137q0 -52 20 -81q51 -75 212 -75l-14 -49h-705l15 49h30q85 0 140 37q39 26 59 83q13 37 28 193l21 227h-512l-182 -247q-94 -127 -94 -188q0 -100 148 -105l-15 -49h-529l15 49q117 5 229 117q42 43 165 210l1069 1455h47z
M1131 1391l-519 -706h451zM1000 1968h-41q25 87 64 151.5t85.5 106.5t98.5 63t104 21q28 0 51 -3.5t48.5 -15t56.5 -33.5t74 -59q85 -73 141 -73q20 0 40.5 7t43 27t47 56t52.5 94h40q-26 -85 -65.5 -150t-87 -109t-100 -66.5t-104.5 -22.5q-35 0 -65 10t-62.5 29.5
t-69.5 47.5t-85 64q-15 11 -26 18t-20.5 11.5t-19 6t-22.5 1.5q-24 0 -42 -4t-37 -21.5t-42 -54t-57 -102.5z" />
    <glyph glyph-name="Adieresis" unicode="&#xc4;" horiz-adv-x="1651" 
d="M1393 1831l-136 -1489q-11 -116 -11 -137q0 -52 20 -81q51 -75 212 -75l-14 -49h-705l15 49h30q85 0 140 37q39 26 59 83q13 37 28 193l21 227h-512l-182 -247q-94 -127 -94 -188q0 -100 148 -105l-15 -49h-529l15 49q117 5 229 117q42 43 165 210l1069 1455h47z
M1131 1391l-519 -706h451zM1250 2246q46 0 77 -28.5t31 -74.5q0 -36 -17.5 -69.5t-45.5 -59t-61.5 -41t-66.5 -15.5q-48 0 -78 27.5t-30 73.5q0 36 17 70t44 60t61 41.5t69 15.5zM1716 2246q22 0 41.5 -8t34 -21.5t22.5 -32.5t8 -41q0 -38 -17.5 -71.5t-45 -59t-61.5 -40
t-67 -14.5q-22 0 -41.5 7.5t-34.5 21t-23.5 32t-8.5 41.5q0 34 17 67.5t44.5 60t62 42.5t69.5 16z" />
    <glyph glyph-name="Aring" unicode="&#xc5;" horiz-adv-x="1651" 
d="M1393 1831l-136 -1489q-11 -116 -11 -137q0 -52 20 -81q51 -75 212 -75l-14 -49h-705l15 49h30q85 0 140 37q39 26 59 83q13 37 28 193l21 227h-512l-182 -247q-94 -127 -94 -188q0 -100 148 -105l-15 -49h-529l15 49q117 5 229 117q42 43 165 210l1069 1455h47z
M1131 1391l-519 -706h451zM1548 2420q41 0 75.5 -12.5t59.5 -35.5t39 -55.5t14 -72.5q0 -64 -30.5 -123.5t-80 -105.5t-111 -73.5t-123.5 -27.5q-41 0 -75 13t-58.5 36t-38.5 55.5t-14 71.5q0 60 29.5 119t77.5 105.5t109.5 75.5t126.5 30zM1519 2328q-40 0 -79 -17.5
t-69.5 -46.5t-49.5 -67t-19 -78q0 -51 32 -82t86 -31q40 0 79.5 18.5t70.5 48.5t50 67t19 75q0 51 -33 82t-87 31z" />
    <glyph glyph-name="AE" unicode="&#xc6;" horiz-adv-x="2404" 
d="M1602 1692l-219 -708h340q73 0 131.5 14t103.5 45.5t77.5 80.5t53.5 120h48l-191 -620h-48q7 42 10.5 74t3.5 56q0 31 -5.5 55.5t-27 42t-65.5 27t-121 9.5h-340l-183 -592q-34 -111 -34 -138v-6q0 -8 4 -17.5t16.5 -17.5t37.5 -13.5t67 -5.5h240q109 0 197 20t163 62.5
t142.5 109.5t136.5 160h50l-281 -450h-1344l15 48h68q106 0 180 66q45 41 95 202l116 378h-522l-259 -308q-46 -55 -77.5 -97t-51 -72.5t-28 -50.5t-8.5 -30q0 -15 5 -28.5t23 -25t53 -20t94 -14.5l-15 -48h-561l15 48q46 0 87 14.5t87 50.5t102 96.5t134 152.5l858 1018
q95 113 140 179t45 99q0 16 -10 31.5t-33.5 27t-61.5 18.5t-94 7l15 48h1466l-102 -394h-44q12 69 12 119q0 66 -21 105.5t-73 59.5q-32 12 -176 12h-436zM1348 1692l-749 -902h470z" />
    <glyph glyph-name="Ccedilla" unicode="&#xc7;" horiz-adv-x="1803" 
d="M1902 1831l-133 -580h-48l-5 146q-2 68 -30 141q-50 128 -192 179q-72 25 -161 25q-236 0 -413 -129q-226 -165 -354 -466q-105 -248 -105 -503q0 -253 145 -410q150 -160 401 -160q352 0 593 334h62q-282 -449 -746 -449q-459 0 -645 350q-89 166 -89 358
q0 304 161.5 578t426.5 427q274 159 553 159q129 0 293 -62q69 -27 103 -27q55 0 134 89h49zM1001 22h80l-97 -106q60 -14 88.5 -49.5t28.5 -84.5q0 -55 -30 -108t-80.5 -95t-116 -67.5t-136.5 -25.5q-42 0 -72.5 3t-49.5 5l17 58q14 -3 31 -4.5t32 -1.5q36 0 72.5 15.5
t66.5 40t48.5 55t18.5 60.5q0 33 -23 52t-59 19l-34 -2z" />
    <glyph glyph-name="Egrave" unicode="&#xc8;" horiz-adv-x="1651" 
d="M875 1694l-204 -708h167q171 0 252 50q87 54 147 207h49l-184 -649h-53q24 82 24 140q0 106 -86 142q-41 16 -170 16h-170l-173 -592q-25 -86 -25 -131q0 -34 33 -61q23 -18 112 -18h158q257 0 413 91.5t278 316.5h49l-169 -498h-1384l17 49q104 2 139 18q52 24 77 61
q33 51 84 227l314 1080q37 127 37 199q0 107 -171 107h-28l16 49h1285l-110 -432h-49q9 61 9 102q0 149 -165 210q-64 24 -292 24h-227zM1143 2391l144 -454h-42l-394 454h292z" />
    <glyph glyph-name="Eacute" unicode="&#xc9;" horiz-adv-x="1651" 
d="M875 1694l-204 -708h167q171 0 252 50q87 54 147 207h49l-184 -649h-53q24 82 24 140q0 106 -86 142q-41 16 -170 16h-170l-173 -592q-25 -86 -25 -131q0 -34 33 -61q23 -18 112 -18h158q257 0 413 91.5t278 316.5h49l-169 -498h-1384l17 49q104 2 139 18q52 24 77 61
q33 51 84 227l314 1080q37 127 37 199q0 107 -171 107h-28l16 49h1285l-110 -432h-49q9 61 9 102q0 149 -165 210q-64 24 -292 24h-227zM1538 2374l-523 -454h-44l271 454h296z" />
    <glyph glyph-name="Ecircumflex" unicode="&#xca;" horiz-adv-x="1651" 
d="M875 1694l-204 -708h167q171 0 252 50q87 54 147 207h49l-184 -649h-53q24 82 24 140q0 106 -86 142q-41 16 -170 16h-170l-173 -592q-25 -86 -25 -131q0 -34 33 -61q23 -18 112 -18h158q257 0 413 91.5t278 316.5h49l-169 -498h-1384l17 49q104 2 139 18q52 24 77 61
q33 51 84 227l314 1080q37 127 37 199q0 107 -171 107h-28l16 49h1285l-110 -432h-49q9 61 9 102q0 149 -165 210q-64 24 -292 24h-227zM1122 2368h244l115 -436h-40l-273 280l-391 -280h-38z" />
    <glyph glyph-name="Edieresis" unicode="&#xcb;" horiz-adv-x="1651" 
d="M875 1694l-204 -708h167q171 0 252 50q87 54 147 207h49l-184 -649h-53q24 82 24 140q0 106 -86 142q-41 16 -170 16h-170l-173 -592q-25 -86 -25 -131q0 -34 33 -61q23 -18 112 -18h158q257 0 413 91.5t278 316.5h49l-169 -498h-1384l17 49q104 2 139 18q52 24 77 61
q33 51 84 227l314 1080q37 127 37 199q0 107 -171 107h-28l16 49h1285l-110 -432h-49q9 61 9 102q0 149 -165 210q-64 24 -292 24h-227zM1013 2216q46 0 77 -28.5t31 -74.5q0 -36 -17.5 -69.5t-45.5 -59t-61.5 -41t-66.5 -15.5q-48 0 -78 27.5t-30 73.5q0 36 17 70t44 60
t61 41.5t69 15.5zM1479 2216q22 0 41.5 -8t34 -21.5t22.5 -32.5t8 -41q0 -38 -17.5 -71.5t-45 -59t-61.5 -40t-67 -14.5q-22 0 -41.5 7.5t-34.5 21t-23.5 32t-8.5 41.5q0 34 17 67.5t44.5 60t62 42.5t69.5 16z" />
    <glyph glyph-name="Igrave" unicode="&#xcc;" horiz-adv-x="900" 
d="M667 49l-15 -49h-736l18 49q108 2 147 18q59 25 85 62q44 63 90 222l312 1080q39 137 39 203q0 70 -69 95q-35 12 -137 12l16 49h692l-15 -49q-130 2 -195 -67q-12 -12 -21 -27q-32 -50 -79 -216l-311 -1080q-42 -147 -42 -190q0 -68 69 -92q37 -12 152 -20zM831 2391
l144 -454h-42l-394 454h292z" />
    <glyph glyph-name="Iacute" unicode="&#xcd;" horiz-adv-x="900" 
d="M667 49l-15 -49h-736l18 49q108 2 147 18q59 25 85 62q44 63 90 222l312 1080q39 137 39 203q0 70 -69 95q-35 12 -137 12l16 49h692l-15 -49q-130 2 -195 -67q-12 -12 -21 -27q-32 -50 -79 -216l-311 -1080q-42 -147 -42 -190q0 -68 69 -92q37 -12 152 -20zM1260 2374
l-523 -454h-44l271 454h296z" />
    <glyph glyph-name="Icircumflex" unicode="&#xce;" horiz-adv-x="900" 
d="M667 49l-15 -49h-736l18 49q108 2 147 18q59 25 85 62q44 63 90 222l312 1080q39 137 39 203q0 70 -69 95q-35 12 -137 12l16 49h692l-15 -49q-130 2 -195 -67q-12 -12 -21 -27q-32 -50 -79 -216l-311 -1080q-42 -147 -42 -190q0 -68 69 -92q37 -12 152 -20zM794 2368
h244l115 -436h-40l-273 280l-391 -280h-38z" />
    <glyph glyph-name="Idieresis" unicode="&#xcf;" horiz-adv-x="900" 
d="M667 49l-15 -49h-736l18 49q108 2 147 18q59 25 85 62q44 63 90 222l312 1080q39 137 39 203q0 70 -69 95q-35 12 -137 12l16 49h692l-15 -49q-130 2 -195 -67q-12 -12 -21 -27q-32 -50 -79 -216l-311 -1080q-42 -147 -42 -190q0 -68 69 -92q37 -12 152 -20zM629 2216
q46 0 77 -28.5t31 -74.5q0 -36 -17.5 -69.5t-45.5 -59t-61.5 -41t-66.5 -15.5q-48 0 -78 27.5t-30 73.5q0 36 17 70t44 60t61 41.5t69 15.5zM1095 2216q22 0 41.5 -8t34 -21.5t22.5 -32.5t8 -41q0 -38 -17.5 -71.5t-45 -59t-61.5 -40t-67 -14.5q-22 0 -41.5 7.5t-34.5 21
t-23.5 32t-8.5 41.5q0 34 17 67.5t44.5 60t62 42.5t69.5 16z" />
    <glyph glyph-name="Eth" unicode="&#xd0;" horiz-adv-x="1952" 
d="M-230 0l15 48h68q113 0 184 74q41 44 88 194l179 580h-258l29 96h258l149 482q17 57 26 97.5t9 70.5q0 53 -40 76.5t-102 23.5h-68l15 48h728q209 0 351.5 -23t236.5 -71t148 -123t86 -179q14 -45 21 -93t7 -99q0 -129 -36 -258.5t-100.5 -251.5t-154.5 -231.5
t-199 -197.5q-326 -263 -843 -263h-797zM322 132q157 -36 271 -36q150 0 296.5 55t274 158.5t227.5 251.5t156 333q53 174 53 308q0 117 -37.5 208t-106 153.5t-165.5 95.5t-215 33q-61 0 -131.5 -9.5t-152.5 -28.5l-205 -662h520l-29 -96h-520z" />
    <glyph glyph-name="Ntilde" unicode="&#xd1;" horiz-adv-x="1803" 
d="M775 1790l553 -1403l300 1048q37 129 37 201q0 104 -163 104q-16 0 -33 1l15 49h575l-16 -49q-89 1 -133 -18q-63 -29 -92 -72q-41 -59 -86 -216l-421 -1476h-48l-595 1510l-318 -1115q-36 -125 -36 -194q0 -97 186 -111l-13 -49h-562l18 49q106 2 141 18q56 25 81 62
q38 57 86 225l355 1245q-89 136 -293 142l14 49h448zM824 1968h-41q25 87 64 151.5t85.5 106.5t98.5 63t104 21q28 0 51 -3.5t48.5 -15t56.5 -33.5t74 -59q85 -73 141 -73q20 0 40.5 7t43 27t47 56t52.5 94h40q-26 -85 -65.5 -150t-87 -109t-100 -66.5t-104.5 -22.5
q-35 0 -65 10t-62.5 29.5t-69.5 47.5t-85 64q-15 11 -26 18t-20.5 11.5t-19 6t-22.5 1.5q-24 0 -42 -4t-37 -21.5t-42 -54t-57 -102.5z" />
    <glyph glyph-name="Ograve" unicode="&#xd2;" horiz-adv-x="1952" 
d="M1332 1831q373 0 531 -306q77 -151 77 -313q0 -306 -172 -616.5t-431 -470.5q-269 -166 -557 -166q-404 0 -552 334q-67 151 -67 292q0 239 118 490q111 238 291 415q348 341 762 341zM1287 1746q-275 0 -508 -279q-125 -149 -223 -389q-122 -295 -122 -558
q0 -200 94 -330q106 -146 298 -146q248 0 477 262q160 184 265.5 463.5t105.5 521.5q0 192 -96 317q-105 138 -291 138zM1319 2391l144 -454h-42l-394 454h292z" />
    <glyph glyph-name="Oacute" unicode="&#xd3;" horiz-adv-x="1952" 
d="M1332 1831q373 0 531 -306q77 -151 77 -313q0 -306 -172 -616.5t-431 -470.5q-269 -166 -557 -166q-404 0 -552 334q-67 151 -67 292q0 239 118 490q111 238 291 415q348 341 762 341zM1287 1746q-275 0 -508 -279q-125 -149 -223 -389q-122 -295 -122 -558
q0 -200 94 -330q106 -146 298 -146q248 0 477 262q160 184 265.5 463.5t105.5 521.5q0 192 -96 317q-105 138 -291 138zM1827 2374l-523 -454h-44l271 454h296z" />
    <glyph glyph-name="Ocircumflex" unicode="&#xd4;" horiz-adv-x="1952" 
d="M1332 1831q373 0 531 -306q77 -151 77 -313q0 -306 -172 -616.5t-431 -470.5q-269 -166 -557 -166q-404 0 -552 334q-67 151 -67 292q0 239 118 490q111 238 291 415q348 341 762 341zM1287 1746q-275 0 -508 -279q-125 -149 -223 -389q-122 -295 -122 -558
q0 -200 94 -330q106 -146 298 -146q248 0 477 262q160 184 265.5 463.5t105.5 521.5q0 192 -96 317q-105 138 -291 138zM1346 2368h244l115 -436h-40l-273 280l-391 -280h-38z" />
    <glyph glyph-name="Otilde" unicode="&#xd5;" horiz-adv-x="1952" 
d="M1332 1831q373 0 531 -306q77 -151 77 -313q0 -306 -172 -616.5t-431 -470.5q-269 -166 -557 -166q-404 0 -552 334q-67 151 -67 292q0 239 118 490q111 238 291 415q348 341 762 341zM1287 1746q-275 0 -508 -279q-125 -149 -223 -389q-122 -295 -122 -558
q0 -200 94 -330q106 -146 298 -146q248 0 477 262q160 184 265.5 463.5t105.5 521.5q0 192 -96 317q-105 138 -291 138zM1023 1968h-41q25 87 64 151.5t85.5 106.5t98.5 63t104 21q28 0 51 -3.5t48.5 -15t56.5 -33.5t74 -59q85 -73 141 -73q20 0 40.5 7t43 27t47 56t52.5 94
h40q-26 -85 -65.5 -150t-87 -109t-100 -66.5t-104.5 -22.5q-35 0 -65 10t-62.5 29.5t-69.5 47.5t-85 64q-15 11 -26 18t-20.5 11.5t-19 6t-22.5 1.5q-24 0 -42 -4t-37 -21.5t-42 -54t-57 -102.5z" />
    <glyph glyph-name="Odieresis" unicode="&#xd6;" horiz-adv-x="1952" 
d="M1332 1831q373 0 531 -306q77 -151 77 -313q0 -306 -172 -616.5t-431 -470.5q-269 -166 -557 -166q-404 0 -552 334q-67 151 -67 292q0 239 118 490q111 238 291 415q348 341 762 341zM1287 1746q-275 0 -508 -279q-125 -149 -223 -389q-122 -295 -122 -558
q0 -200 94 -330q106 -146 298 -146q248 0 477 262q160 184 265.5 463.5t105.5 521.5q0 192 -96 317q-105 138 -291 138zM1276 2246q46 0 77 -28.5t31 -74.5q0 -36 -17.5 -69.5t-45.5 -59t-61.5 -41t-66.5 -15.5q-48 0 -78 27.5t-30 73.5q0 36 17 70t44 60t61 41.5t69 15.5z
M1742 2246q22 0 41.5 -8t34 -21.5t22.5 -32.5t8 -41q0 -38 -17.5 -71.5t-45 -59t-61.5 -40t-67 -14.5q-22 0 -41.5 7.5t-34.5 21t-23.5 32t-8.5 41.5q0 34 17 67.5t44.5 60t62 42.5t69.5 16z" />
    <glyph glyph-name="multiply" unicode="&#xd7;" horiz-adv-x="1524" 
d="M74 434l610 466l-320 464l99 76l321 -464l609 464l51 -74l-610 -466l324 -466l-100 -78l-321 468l-610 -466z" />
    <glyph glyph-name="Oslash" unicode="&#xd8;" horiz-adv-x="1952" 
d="M1742 1634l241 214l58 -58l-244 -220q109 -175 109 -361q0 -154 -50 -306t-137 -291t-204.5 -258t-252.5 -206.5t-280.5 -137.5t-288.5 -50q-67 0 -135 11.5t-132 35t-120.5 59t-100.5 82.5l-234 -210l-58 62l239 216q-105 157 -105 367q0 136 35.5 271.5t102.5 262.5
t162.5 241.5t214.5 207.5q341 266 706 266q298 0 474 -198zM1590 1498q-80 240 -357 240q-147 0 -274 -61.5t-232 -171t-186 -259.5t-135 -326q-74 -240 -78 -375q2 -57 4.5 -97t5.5 -66zM1611 1404l-1249 -1118q22 -63 55.5 -107t76.5 -72t96 -40.5t114 -12.5
q84 0 165.5 17.5t162.5 64t162.5 127.5t164.5 207q35 54 68 121t61 141t51 152.5t39.5 154.5t25.5 147.5t9 131.5q0 20 -0.5 41.5t-1.5 44.5z" />
    <glyph glyph-name="Ugrave" unicode="&#xd9;" horiz-adv-x="1952" 
d="M354 1790h756l-14 -49q-97 -2 -139 -13q-70 -19 -112 -77q-35 -49 -73 -180l-183 -634q-48 -164 -58 -222q-16 -87 -16 -157q0 -177 133 -282q123 -98 304 -98q255 0 410 188q126 153 241 550l158 546q59 205 59 267q0 101 -203 112l15 49h569l-15 -49q-163 0 -222 -88
q-31 -47 -74 -192l-194 -664q-85 -291 -142 -409q-103 -212 -276 -325q-157 -104 -391 -104q-235 0 -408 131q-191 143 -191 371q0 81 14 166q10 57 52 201l177 608q37 127 37 194q0 99 -227 111zM1375 2391l144 -454h-42l-394 454h292z" />
    <glyph glyph-name="Uacute" unicode="&#xda;" horiz-adv-x="1952" 
d="M354 1790h756l-14 -49q-97 -2 -139 -13q-70 -19 -112 -77q-35 -49 -73 -180l-183 -634q-48 -164 -58 -222q-16 -87 -16 -157q0 -177 133 -282q123 -98 304 -98q255 0 410 188q126 153 241 550l158 546q59 205 59 267q0 101 -203 112l15 49h569l-15 -49q-163 0 -222 -88
q-31 -47 -74 -192l-194 -664q-85 -291 -142 -409q-103 -212 -276 -325q-157 -104 -391 -104q-235 0 -408 131q-191 143 -191 371q0 81 14 166q10 57 52 201l177 608q37 127 37 194q0 99 -227 111zM1819 2374l-523 -454h-44l271 454h296z" />
    <glyph glyph-name="Ucircumflex" unicode="&#xdb;" horiz-adv-x="1952" 
d="M354 1790h756l-14 -49q-97 -2 -139 -13q-70 -19 -112 -77q-35 -49 -73 -180l-183 -634q-48 -164 -58 -222q-16 -87 -16 -157q0 -177 133 -282q123 -98 304 -98q255 0 410 188q126 153 241 550l158 546q59 205 59 267q0 101 -203 112l15 49h569l-15 -49q-163 0 -222 -88
q-31 -47 -74 -192l-194 -664q-85 -291 -142 -409q-103 -212 -276 -325q-157 -104 -391 -104q-235 0 -408 131q-191 143 -191 371q0 81 14 166q10 57 52 201l177 608q37 127 37 194q0 99 -227 111zM1403 2368h244l115 -436h-40l-273 280l-391 -280h-38z" />
    <glyph glyph-name="Udieresis" unicode="&#xdc;" horiz-adv-x="1952" 
d="M354 1790h756l-14 -49q-97 -2 -139 -13q-70 -19 -112 -77q-35 -49 -73 -180l-183 -634q-48 -164 -58 -222q-16 -87 -16 -157q0 -177 133 -282q123 -98 304 -98q255 0 410 188q126 153 241 550l158 546q59 205 59 267q0 101 -203 112l15 49h569l-15 -49q-163 0 -222 -88
q-31 -47 -74 -192l-194 -664q-85 -291 -142 -409q-103 -212 -276 -325q-157 -104 -391 -104q-235 0 -408 131q-191 143 -191 371q0 81 14 166q10 57 52 201l177 608q37 127 37 194q0 99 -227 111zM1180 2246q46 0 77 -28.5t31 -74.5q0 -36 -17.5 -69.5t-45.5 -59t-61.5 -41
t-66.5 -15.5q-48 0 -78 27.5t-30 73.5q0 36 17 70t44 60t61 41.5t69 15.5zM1646 2246q22 0 41.5 -8t34 -21.5t22.5 -32.5t8 -41q0 -38 -17.5 -71.5t-45 -59t-61.5 -40t-67 -14.5q-22 0 -41.5 7.5t-34.5 21t-23.5 32t-8.5 41.5q0 34 17 67.5t44.5 60t62 42.5t69.5 16z" />
    <glyph glyph-name="Yacute" unicode="&#xdd;" horiz-adv-x="1504" 
d="M945 952l341 476q132 185 132 238q0 64 -190 75l13 49h562l-10 -49q-84 -11 -113 -22q-45 -19 -93 -62q-63 -57 -180 -218l-438 -605l-132 -442q-49 -164 -49 -230q0 -73 69 -96q48 -16 153 -17l-13 -49h-754l16 49q110 2 149 18q60 25 88 64q46 61 93 217l157 523
l-192 618q-43 141 -74 180q-49 62 -170 72l13 49h662l-16 -49q-122 -9 -141 -16q-66 -22 -66 -101q0 -57 38 -185zM1612 2374l-523 -454h-44l271 454h296z" />
    <glyph glyph-name="Thorn" unicode="&#xde;" horiz-adv-x="1504" 
d="M705 1384h98q148 0 253.5 -13t177 -44t113 -81t61.5 -124q11 -46 13 -98q0 -63 -18 -123t-49.5 -115.5t-74 -105t-92 -91t-103 -74t-106.5 -53.5q-23 -9 -47 -16.5t-51.5 -13.5t-59.5 -12t-71 -12q-50 -6 -256 -6h-92l-25 -82q-17 -55 -26 -97.5t-8 -72.5q0 -55 37 -78.5
t115 -23.5h54l-15 -48h-761l15 48h50q121 0 198 74q39 42 86 194l354 1146q22 70 32 114.5t11 64.5v6q-2 16 -13.5 33t-31.5 31t-48 22.5t-64 8.5h-52l15 48h762l-15 -48h-52q-20 0 -46.5 -3.5t-55.5 -13.5t-58 -29.5t-53 -50.5q-35 -49 -75 -175zM672 1280l-242 -784h58
q132 0 233 30t175 83t123 126t76 159q11 34 15 65.5t5 60.5q0 75 -24 125t-71 80t-118.5 42.5t-165.5 12.5h-64z" />
    <glyph glyph-name="germandbls" unicode="&#xdf;" 
d="M-241 0l15 48q56 0 93 10t64 37t48 76t45 127l302 978q50 162 117 276.5t150 187t181 105.5t210 33q83 0 148.5 -20.5t111.5 -58.5t70 -92.5t24 -122.5q0 -80 -24.5 -154.5t-73 -139.5t-121 -117.5t-168.5 -88.5q115 -35 175 -113.5t60 -199.5q0 -87 -25 -179
t-69.5 -179.5t-106 -166t-134 -137t-153.5 -93t-166 -34.5h-3q-44 0 -80.5 11.5t-62.5 32.5t-40 50t-14 64q0 37 12.5 68.5t33 54.5t48 36t57.5 13q42 0 61 -20t19 -51q0 -20 -6.5 -39t-14.5 -36t-15.5 -29.5t-9.5 -18.5q-3 -9 -3 -17q0 -18 15.5 -31.5t41.5 -13.5
q46 0 90 24t84 69.5t74 112t60 150.5q55 174 55 307q0 69 -15.5 125t-47 95.5t-79.5 61t-114 21.5l23 76q70 0 129.5 19.5t108.5 62.5t88 110.5t68 163.5q30 97 30 163q0 85 -45 129t-133 44q-54 0 -103.5 -17.5t-96 -64t-89.5 -129t-83 -211.5l-423 -1368h-393z" />
    <glyph glyph-name="agrave" unicode="&#xe0;" 
d="M1269 1195l-287 -1015q-4 -17 -4 -30q0 -48 40 -48q54 0 182 179l45 -32q-187 -281 -366 -281q-113 0 -113 111q0 67 29 170l27 99q-291 -380 -522 -380q-114 0 -179 97q-58 84 -58 203q0 221 133 456q126 224 314 360q152 111 286 111q163 0 215 -183l48 151zM799 1126
q-85 0 -180 -79q-137 -115 -240.5 -334t-103.5 -398q0 -194 147 -194q144 0 313 213q226 283 226 579q0 213 -162 213zM767 1851l144 -454h-42l-394 454h292z" />
    <glyph glyph-name="aacute" unicode="&#xe1;" 
d="M1269 1195l-287 -1015q-4 -17 -4 -30q0 -48 40 -48q54 0 182 179l45 -32q-187 -281 -366 -281q-113 0 -113 111q0 67 29 170l27 99q-291 -380 -522 -380q-114 0 -179 97q-58 84 -58 203q0 221 133 456q126 224 314 360q152 111 286 111q163 0 215 -183l48 151zM799 1126
q-85 0 -180 -79q-137 -115 -240.5 -334t-103.5 -398q0 -194 147 -194q144 0 313 213q226 283 226 579q0 213 -162 213zM1257 1834l-523 -454h-44l271 454h296z" />
    <glyph glyph-name="acircumflex" unicode="&#xe2;" 
d="M1269 1195l-287 -1015q-4 -17 -4 -30q0 -48 40 -48q54 0 182 179l45 -32q-187 -281 -366 -281q-113 0 -113 111q0 67 29 170l27 99q-291 -380 -522 -380q-114 0 -179 97q-58 84 -58 203q0 221 133 456q126 224 314 360q152 111 286 111q163 0 215 -183l48 151zM799 1126
q-85 0 -180 -79q-137 -115 -240.5 -334t-103.5 -398q0 -194 147 -194q144 0 313 213q226 283 226 579q0 213 -162 213zM959 1828h244l115 -436h-40l-273 280l-391 -280h-38z" />
    <glyph glyph-name="atilde" unicode="&#xe3;" 
d="M1269 1195l-287 -1015q-4 -17 -4 -30q0 -48 40 -48q54 0 182 179l45 -32q-187 -281 -366 -281q-113 0 -113 111q0 67 29 170l27 99q-291 -380 -522 -380q-114 0 -179 97q-58 84 -58 203q0 221 133 456q126 224 314 360q152 111 286 111q163 0 215 -183l48 151zM799 1126
q-85 0 -180 -79q-137 -115 -240.5 -334t-103.5 -398q0 -194 147 -194q144 0 313 213q226 283 226 579q0 213 -162 213zM451 1448h-41q25 87 64 151.5t85.5 106.5t98.5 63t104 21q28 0 51 -3.5t48.5 -15t56.5 -33.5t74 -59q85 -73 141 -73q20 0 40.5 7t43 27t47 56t52.5 94
h40q-26 -85 -65.5 -150t-87 -109t-100 -66.5t-104.5 -22.5q-35 0 -65 10t-62.5 29.5t-69.5 47.5t-85 64q-15 11 -26 18t-20.5 11.5t-19 6t-22.5 1.5q-24 0 -42 -4t-37 -21.5t-42 -54t-57 -102.5z" />
    <glyph glyph-name="adieresis" unicode="&#xe4;" 
d="M1269 1195l-287 -1015q-4 -17 -4 -30q0 -48 40 -48q54 0 182 179l45 -32q-187 -281 -366 -281q-113 0 -113 111q0 67 29 170l27 99q-291 -380 -522 -380q-114 0 -179 97q-58 84 -58 203q0 221 133 456q126 224 314 360q152 111 286 111q163 0 215 -183l48 151zM799 1126
q-85 0 -180 -79q-137 -115 -240.5 -334t-103.5 -398q0 -194 147 -194q144 0 313 213q226 283 226 579q0 213 -162 213zM690 1766q46 0 77 -28.5t31 -74.5q0 -36 -17.5 -69.5t-45.5 -59t-61.5 -41t-66.5 -15.5q-48 0 -78 27.5t-30 73.5q0 36 17 70t44 60t61 41.5t69 15.5z
M1156 1766q22 0 41.5 -8t34 -21.5t22.5 -32.5t8 -41q0 -38 -17.5 -71.5t-45 -59t-61.5 -40t-67 -14.5q-22 0 -41.5 7.5t-34.5 21t-23.5 32t-8.5 41.5q0 34 17 67.5t44.5 60t62 42.5t69.5 16z" />
    <glyph glyph-name="aring" unicode="&#xe5;" 
d="M1269 1195l-287 -1015q-4 -17 -4 -30q0 -48 40 -48q54 0 182 179l45 -32q-187 -281 -366 -281q-113 0 -113 111q0 67 29 170l27 99q-291 -380 -522 -380q-114 0 -179 97q-58 84 -58 203q0 221 133 456q126 224 314 360q152 111 286 111q163 0 215 -183l48 151zM799 1126
q-85 0 -180 -79q-137 -115 -240.5 -334t-103.5 -398q0 -194 147 -194q144 0 313 213q226 283 226 579q0 213 -162 213zM1045 1882q41 0 75.5 -12.5t59.5 -35.5t39 -55.5t14 -72.5q0 -64 -30.5 -123.5t-80 -105.5t-111 -73.5t-123.5 -27.5q-41 0 -75 13t-58.5 36t-38.5 55.5
t-14 71.5q0 60 29.5 119t77.5 105.5t109.5 75.5t126.5 30zM1016 1790q-40 0 -79 -17.5t-69.5 -46.5t-49.5 -67t-19 -78q0 -51 32 -82t86 -31q40 0 79.5 18.5t70.5 48.5t50 67t19 75q0 51 -33 82t-87 31z" />
    <glyph glyph-name="ae" unicode="&#xe6;" horiz-adv-x="1804" 
d="M1012 748l-31 -98q-24 -75 -35 -138t-11 -114q0 -60 17.5 -104.5t48.5 -73.5t74 -43.5t94 -14.5q63 0 126.5 19t129.5 61q78 49 207 210l33 -30q-46 -86 -112 -168.5t-147.5 -147t-175 -103.5t-195.5 -39q-60 0 -104.5 5.5t-81.5 26.5t-70.5 63t-70.5 115l-89 -56
q-75 -47 -131.5 -77t-104.5 -47t-93 -23.5t-99 -6.5q-48 0 -87.5 14t-68 40t-44 63.5t-15.5 85.5q0 40 10 81t28 79t41.5 72t50.5 60t74.5 56.5t107 61.5t127 61.5t135.5 58.5t132.5 51t117.5 40l38 122q24 78 24 131q0 66 -37.5 97.5t-100.5 31.5q-44 0 -82 -12t-68 -31.5
t-50.5 -44.5t-28.5 -50q-25 -81 -47.5 -124.5t-43.5 -63t-40.5 -22t-39.5 -2.5q-26 0 -42.5 7.5t-26.5 20t-14 28t-4 31.5q0 49 39.5 108t111 110.5t171 86t219.5 34.5q77 0 132.5 -11t92.5 -32t57 -51t26 -68q50 45 98 76t96.5 50t100 27.5t109.5 8.5q71 0 128.5 -19
t98 -55.5t62.5 -91t22 -125.5q0 -45 -8.5 -97t-26.5 -110h-754zM693 242q-2 13 -3.5 27t-1.5 31q0 30 4 66t10.5 74t15.5 75t19 69l36 118q-57 -16 -120 -38.5t-124 -52t-116.5 -65.5t-98 -80t-67.5 -96t-25 -112q0 -36 12 -64.5t32.5 -48.5t48.5 -30.5t60 -10.5
q29 0 58 6.5t65 22t82.5 42t112.5 67.5zM1038 834h500q27 85 27 149q0 84 -48 126.5t-124 42.5q-51 0 -104 -20.5t-101 -61t-87 -100t-63 -136.5z" />
    <glyph glyph-name="ccedilla" unicode="&#xe7;" horiz-adv-x="1200" 
d="M1044 288q-266 -320 -573 -320q-183 0 -290 103.5t-107 286.5q0 211 119 408q113 189 297 307q191 122 375 122q286 0 286 -208q0 -80 -50 -140q-38 -44 -91 -44q-95 0 -95 92q0 48 51 97q44 42 44 71q0 72 -133 72q-286 0 -473 -350q-108 -202 -108 -406
q0 -292 285 -292q206 0 425 235zM554 22h80l-97 -106q60 -14 88.5 -49.5t28.5 -84.5q0 -55 -30 -108t-80.5 -95t-116 -67.5t-136.5 -25.5q-42 0 -72.5 3t-49.5 5l17 58q14 -3 31 -4.5t32 -1.5q36 0 72.5 15.5t66.5 40t48.5 55t18.5 60.5q0 33 -23 52t-59 19l-34 -2z" />
    <glyph glyph-name="egrave" unicode="&#xe8;" horiz-adv-x="1200" 
d="M322 498q-9 -66 -9 -110q0 -119 83 -200.5t202 -81.5q170 0 444 211l27 -38q-313 -311 -596 -311q-172 0 -280.5 109t-108.5 281q0 204 126 411q122 200 301 311q183 115 377 115q275 0 275 -192q0 -110 -87 -210q-114 -129 -338 -211q-150 -54 -416 -84zM331 562
q197 23 318 77q325 144 325 366q0 124 -134 124q-184 0 -335 -200q-121 -160 -174 -367zM767 1851l144 -454h-42l-394 454h292z" />
    <glyph glyph-name="eacute" unicode="&#xe9;" horiz-adv-x="1200" 
d="M322 498q-9 -66 -9 -110q0 -119 83 -200.5t202 -81.5q170 0 444 211l27 -38q-313 -311 -596 -311q-172 0 -280.5 109t-108.5 281q0 204 126 411q122 200 301 311q183 115 377 115q275 0 275 -192q0 -110 -87 -210q-114 -129 -338 -211q-150 -54 -416 -84zM331 562
q197 23 318 77q325 144 325 366q0 124 -134 124q-184 0 -335 -200q-121 -160 -174 -367zM1221 1834l-523 -454h-44l271 454h296z" />
    <glyph glyph-name="ecircumflex" unicode="&#xea;" horiz-adv-x="1200" 
d="M322 498q-9 -66 -9 -110q0 -119 83 -200.5t202 -81.5q170 0 444 211l27 -38q-313 -311 -596 -311q-172 0 -280.5 109t-108.5 281q0 204 126 411q122 200 301 311q183 115 377 115q275 0 275 -192q0 -110 -87 -210q-114 -129 -338 -211q-150 -54 -416 -84zM331 562
q197 23 318 77q325 144 325 366q0 124 -134 124q-184 0 -335 -200q-121 -160 -174 -367zM858 1828h244l115 -436h-40l-273 280l-391 -280h-38z" />
    <glyph glyph-name="edieresis" unicode="&#xeb;" horiz-adv-x="1200" 
d="M322 498q-9 -66 -9 -110q0 -119 83 -200.5t202 -81.5q170 0 444 211l27 -38q-313 -311 -596 -311q-172 0 -280.5 109t-108.5 281q0 204 126 411q122 200 301 311q183 115 377 115q275 0 275 -192q0 -110 -87 -210q-114 -129 -338 -211q-150 -54 -416 -84zM331 562
q197 23 318 77q325 144 325 366q0 124 -134 124q-184 0 -335 -200q-121 -160 -174 -367zM683 1766q46 0 77 -28.5t31 -74.5q0 -36 -17.5 -69.5t-45.5 -59t-61.5 -41t-66.5 -15.5q-48 0 -78 27.5t-30 73.5q0 36 17 70t44 60t61 41.5t69 15.5zM1149 1766q22 0 41.5 -8
t34 -21.5t22.5 -32.5t8 -41q0 -38 -17.5 -71.5t-45 -59t-61.5 -40t-67 -14.5q-22 0 -41.5 7.5t-34.5 21t-23.5 32t-8.5 41.5q0 34 17 67.5t44.5 60t62 42.5t69.5 16z" />
    <glyph glyph-name="igrave" unicode="&#xec;" horiz-adv-x="751" 
d="M622 1195l-262 -926q-14 -47 -20 -74.5t-6 -37.5q0 -47 42 -47q18 0 42 16.5t50.5 43t54.5 60.5t53 70l46 -31q-91 -137 -211 -231q-91 -70 -172 -70q-123 0 -123 114q0 48 33 162l172 592q42 145 42 182q0 66 -77 66q-29 0 -120 -15v52zM478 1851l144 -454h-42l-394 454
h292z" />
    <glyph glyph-name="iacute" unicode="&#xed;" horiz-adv-x="751" 
d="M622 1195l-262 -926q-14 -47 -20 -74.5t-6 -37.5q0 -47 42 -47q18 0 42 16.5t50.5 43t54.5 60.5t53 70l46 -31q-91 -137 -211 -231q-91 -70 -172 -70q-123 0 -123 114q0 48 33 162l172 592q42 145 42 182q0 66 -77 66q-29 0 -120 -15v52zM972 1834l-523 -454h-44l271 454
h296z" />
    <glyph glyph-name="icircumflex" unicode="&#xee;" horiz-adv-x="751" 
d="M622 1195l-262 -926q-14 -47 -20 -74.5t-6 -37.5q0 -47 42 -47q18 0 42 16.5t50.5 43t54.5 60.5t53 70l46 -31q-91 -137 -211 -231q-91 -70 -172 -70q-123 0 -123 114q0 48 33 162l172 592q42 145 42 182q0 66 -77 66q-29 0 -120 -15v52zM474 1828h244l115 -436h-40
l-273 280l-391 -280h-38z" />
    <glyph glyph-name="idieresis" unicode="&#xef;" horiz-adv-x="751" 
d="M622 1195l-262 -926q-14 -47 -20 -74.5t-6 -37.5q0 -47 42 -47q18 0 42 16.5t50.5 43t54.5 60.5t53 70l46 -31q-91 -137 -211 -231q-91 -70 -172 -70q-123 0 -123 114q0 48 33 162l172 592q42 145 42 182q0 66 -77 66q-29 0 -120 -15v52zM313 1766q46 0 77 -28.5
t31 -74.5q0 -36 -17.5 -69.5t-45.5 -59t-61.5 -41t-66.5 -15.5q-48 0 -78 27.5t-30 73.5q0 36 17 70t44 60t61 41.5t69 15.5zM779 1766q22 0 41.5 -8t34 -21.5t22.5 -32.5t8 -41q0 -38 -17.5 -71.5t-45 -59t-61.5 -40t-67 -14.5q-22 0 -41.5 7.5t-34.5 21t-23.5 32
t-8.5 41.5q0 34 17 67.5t44.5 60t62 42.5t69.5 16z" />
    <glyph glyph-name="eth" unicode="&#xf0;" 
d="M812 1544l-381 -178l-18 72l362 174q-34 48 -57.5 78.5t-36.5 45.5l-39 39q-9 9 -22.5 20t-30.5 25l54 58q69 -42 137.5 -95.5t125.5 -110.5l386 184l22 -72l-355 -172q127 -153 187.5 -321.5t60.5 -356.5q0 -115 -28 -231t-80.5 -224t-128 -202t-169 -163.5
t-204.5 -109.5t-235 -40q-89 0 -164 28.5t-130 82t-86 129t-31 169.5q0 95 30.5 195.5t84.5 196t128.5 181t162 149.5t185 101.5t198.5 37.5q32 0 56.5 -2t47 -10t45 -23.5t51.5 -42.5q-19 109 -50.5 205.5t-77.5 182.5zM704 1154q-62 0 -124 -25.5t-120 -81.5t-109 -145.5
t-91 -217.5q-23 -72 -37 -139.5t-13 -142.5q0 -86 19.5 -150.5t53 -108t77.5 -65.5t94 -22q59 0 118.5 25t114.5 78t103.5 137t85.5 202q61 193 61 341q0 157 -60.5 236t-172.5 79z" />
    <glyph glyph-name="ntilde" unicode="&#xf1;" 
d="M597 1195l-176 -601q182 272 265 367q203 234 366 234q152 0 152 -157q0 -80 -38 -212l-161 -555q-28 -96 -28 -118q0 -43 33 -43q16 0 38 17q69 54 153 169l41 -25q-211 -303 -369 -303q-107 0 -107 110q0 62 45 218l153 530q29 101 29 155q0 59 -60 59q-36 0 -88 -31
q-189 -116 -427 -546q-63 -114 -103 -245l-66 -218h-198l241 826q42 146 42 180q0 72 -81 72q-22 0 -55 -5l-50 -8l-8 48zM403 1448h-41q25 87 64 151.5t85.5 106.5t98.5 63t104 21q28 0 51 -3.5t48.5 -15t56.5 -33.5t74 -59q85 -73 141 -73q20 0 40.5 7t43 27t47 56
t52.5 94h40q-26 -85 -65.5 -150t-87 -109t-100 -66.5t-104.5 -22.5q-35 0 -65 10t-62.5 29.5t-69.5 47.5t-85 64q-15 11 -26 18t-20.5 11.5t-19 6t-22.5 1.5q-24 0 -42 -4t-37 -21.5t-42 -54t-57 -102.5z" />
    <glyph glyph-name="ograve" unicode="&#xf2;" 
d="M1250 781q0 -209 -109 -399.5t-288 -299.5q-188 -114 -365 -114q-182 0 -295.5 116t-113.5 299q0 205 117 400q114 189 293 298q187 114 361 114q179 0 291 -118q109 -115 109 -296zM1031 873q0 253 -215 253q-218 0 -381 -317q-139 -272 -139 -513q0 -262 223 -262
q215 0 376 323q136 275 136 516zM767 1851l144 -454h-42l-394 454h292z" />
    <glyph glyph-name="oacute" unicode="&#xf3;" 
d="M1250 781q0 -209 -109 -399.5t-288 -299.5q-188 -114 -365 -114q-182 0 -295.5 116t-113.5 299q0 205 117 400q114 189 293 298q187 114 361 114q179 0 291 -118q109 -115 109 -296zM1031 873q0 253 -215 253q-218 0 -381 -317q-139 -272 -139 -513q0 -262 223 -262
q215 0 376 323q136 275 136 516zM1362 1834l-523 -454h-44l271 454h296z" />
    <glyph glyph-name="ocircumflex" unicode="&#xf4;" 
d="M1250 781q0 -209 -109 -399.5t-288 -299.5q-188 -114 -365 -114q-182 0 -295.5 116t-113.5 299q0 205 117 400q114 189 293 298q187 114 361 114q179 0 291 -118q109 -115 109 -296zM1031 873q0 253 -215 253q-218 0 -381 -317q-139 -272 -139 -513q0 -262 223 -262
q215 0 376 323q136 275 136 516zM914 1828h244l115 -436h-40l-273 280l-391 -280h-38z" />
    <glyph glyph-name="otilde" unicode="&#xf5;" 
d="M1250 781q0 -209 -109 -399.5t-288 -299.5q-188 -114 -365 -114q-182 0 -295.5 116t-113.5 299q0 205 117 400q114 189 293 298q187 114 361 114q179 0 291 -118q109 -115 109 -296zM1031 873q0 253 -215 253q-218 0 -381 -317q-139 -272 -139 -513q0 -262 223 -262
q215 0 376 323q136 275 136 516zM530 1448h-41q25 87 64 151.5t85.5 106.5t98.5 63t104 21q28 0 51 -3.5t48.5 -15t56.5 -33.5t74 -59q85 -73 141 -73q20 0 40.5 7t43 27t47 56t52.5 94h40q-26 -85 -65.5 -150t-87 -109t-100 -66.5t-104.5 -22.5q-35 0 -65 10t-62.5 29.5
t-69.5 47.5t-85 64q-15 11 -26 18t-20.5 11.5t-19 6t-22.5 1.5q-24 0 -42 -4t-37 -21.5t-42 -54t-57 -102.5z" />
    <glyph glyph-name="odieresis" unicode="&#xf6;" 
d="M1250 781q0 -209 -109 -399.5t-288 -299.5q-188 -114 -365 -114q-182 0 -295.5 116t-113.5 299q0 205 117 400q114 189 293 298q187 114 361 114q179 0 291 -118q109 -115 109 -296zM1031 873q0 253 -215 253q-218 0 -381 -317q-139 -272 -139 -513q0 -262 223 -262
q215 0 376 323q136 275 136 516zM737 1766q46 0 77 -28.5t31 -74.5q0 -36 -17.5 -69.5t-45.5 -59t-61.5 -41t-66.5 -15.5q-48 0 -78 27.5t-30 73.5q0 36 17 70t44 60t61 41.5t69 15.5zM1203 1766q22 0 41.5 -8t34 -21.5t22.5 -32.5t8 -41q0 -38 -17.5 -71.5t-45 -59
t-61.5 -40t-67 -14.5q-22 0 -41.5 7.5t-34.5 21t-23.5 32t-8.5 41.5q0 34 17 67.5t44.5 60t62 42.5t69.5 16z" />
    <glyph glyph-name="divide" unicode="&#xf7;" horiz-adv-x="1484" 
d="M1438 844h-1424l34 110h1424zM651 600q36 0 61 -22t25 -59q0 -28 -13.5 -55t-36 -48.5t-51 -34.5t-57.5 -13q-36 0 -60.5 21t-24.5 61q0 29 13.5 56t36 48t50.5 33.5t57 12.5zM904 1420q35 0 59.5 -23t24.5 -58q0 -27 -12.5 -53.5t-34.5 -47.5t-50.5 -34.5t-59.5 -13.5
q-36 0 -60 20t-24 58q0 31 14.5 59t37.5 48.5t51 32.5t54 12z" />
    <glyph glyph-name="oslash" unicode="&#xf8;" 
d="M1217 1098l236 194l42 -56l-240 -202q45 -98 45 -210q0 -53 -14 -118t-41.5 -135t-67.5 -142.5t-93 -140t-118.5 -126.5t-142 -103t-164.5 -69.5t-187 -25.5q-54 0 -99.5 7.5t-85.5 24.5t-76 46t-70 72l-240 -202l-44 56l249 210q-41 80 -41 200q0 91 28 190.5
t79.5 195.5t124.5 183t164.5 153t198.5 105t226 39q55 0 100 -8t84 -25t75 -45t72 -68zM1046 864l-715 -594q15 -61 34 -102t45.5 -66t61 -35.5t81.5 -10.5q65 0 127 25t118.5 81t106 146.5t90.5 221.5q49 157 51 334zM1037 950q-16 58 -36 98t-46.5 64.5t-60.5 35t-79 10.5
q-64 0 -126.5 -25t-119.5 -79.5t-107 -141.5t-88 -210q-26 -82 -39.5 -168t-17.5 -178z" />
    <glyph glyph-name="ugrave" unicode="&#xf9;" 
d="M1273 1163l-230 -787q-52 -176 -52 -222t32 -46q45 0 186 184l40 -31q-106 -166 -214 -243q-71 -50 -140 -50q-110 0 -110 105q0 41 18 118q23 107 120 425q-395 -648 -656 -648q-146 0 -146 149q0 98 59 304l114 408q43 150 43 182q0 38 -36 38q-53 0 -181 -166l-41 29
q98 152 210 226q86 57 156 57q111 0 111 -111q0 -74 -53 -255l-124 -426q-52 -177 -52 -221q0 -55 61 -55q116 0 300 237q117 149 193 281q82 141 162 418l29 100h201zM767 1851l144 -454h-42l-394 454h292z" />
    <glyph glyph-name="uacute" unicode="&#xfa;" 
d="M1273 1163l-230 -787q-52 -176 -52 -222t32 -46q45 0 186 184l40 -31q-106 -166 -214 -243q-71 -50 -140 -50q-110 0 -110 105q0 41 18 118q23 107 120 425q-395 -648 -656 -648q-146 0 -146 149q0 98 59 304l114 408q43 150 43 182q0 38 -36 38q-53 0 -181 -166l-41 29
q98 152 210 226q86 57 156 57q111 0 111 -111q0 -74 -53 -255l-124 -426q-52 -177 -52 -221q0 -55 61 -55q116 0 300 237q117 149 193 281q82 141 162 418l29 100h201zM1281 1834l-523 -454h-44l271 454h296z" />
    <glyph glyph-name="ucircumflex" unicode="&#xfb;" 
d="M1273 1163l-230 -787q-52 -176 -52 -222t32 -46q45 0 186 184l40 -31q-106 -166 -214 -243q-71 -50 -140 -50q-110 0 -110 105q0 41 18 118q23 107 120 425q-395 -648 -656 -648q-146 0 -146 149q0 98 59 304l114 408q43 150 43 182q0 38 -36 38q-53 0 -181 -166l-41 29
q98 152 210 226q86 57 156 57q111 0 111 -111q0 -74 -53 -255l-124 -426q-52 -177 -52 -221q0 -55 61 -55q116 0 300 237q117 149 193 281q82 141 162 418l29 100h201zM883 1828h244l115 -436h-40l-273 280l-391 -280h-38z" />
    <glyph glyph-name="udieresis" unicode="&#xfc;" 
d="M1273 1163l-230 -787q-52 -176 -52 -222t32 -46q45 0 186 184l40 -31q-106 -166 -214 -243q-71 -50 -140 -50q-110 0 -110 105q0 41 18 118q23 107 120 425q-395 -648 -656 -648q-146 0 -146 149q0 98 59 304l114 408q43 150 43 182q0 38 -36 38q-53 0 -181 -166l-41 29
q98 152 210 226q86 57 156 57q111 0 111 -111q0 -74 -53 -255l-124 -426q-52 -177 -52 -221q0 -55 61 -55q116 0 300 237q117 149 193 281q82 141 162 418l29 100h201zM670 1766q46 0 77 -28.5t31 -74.5q0 -36 -17.5 -69.5t-45.5 -59t-61.5 -41t-66.5 -15.5q-48 0 -78 27.5
t-30 73.5q0 36 17 70t44 60t61 41.5t69 15.5zM1136 1766q22 0 41.5 -8t34 -21.5t22.5 -32.5t8 -41q0 -38 -17.5 -71.5t-45 -59t-61.5 -40t-67 -14.5q-22 0 -41.5 7.5t-34.5 21t-23.5 32t-8.5 41.5q0 34 17 67.5t44.5 60t62 42.5t69.5 16z" />
    <glyph glyph-name="yacute" unicode="&#xfd;" horiz-adv-x="1200" 
d="M432 1195q71 -121 96 -406l58 -649q83 100 230 301q72 99 179 273q63 103 80 148q7 22 7 44q0 27 -57 45q-90 29 -90 124q0 120 110 120q140 0 140 -181q0 -178 -345 -650q-204 -277 -493 -604q-303 -343 -461 -343q-102 0 -102 103q0 51 42 93t93 42q26 0 44 -11
q10 -7 28 -49q16 -37 34 -37q10 2 28 13q75 47 169 143q125 127 187 211l-74 837q-14 161 -29 200q-36 97 -150 97q-28 0 -99 -8l-12 49zM1223 1834l-523 -454h-44l271 454h296z" />
    <glyph glyph-name="thorn" unicode="&#xfe;" 
d="M330 1726l419 152h50l-285 -920q71 79 135 133.5t122 88.5t112 49t106 15q74 0 132 -25.5t97.5 -72t60.5 -112t21 -146.5q0 -109 -31.5 -220t-87 -213.5t-131.5 -192t-165.5 -156t-189 -104.5t-200.5 -38q-44 0 -78.5 3.5t-64.5 15t-57 32t-55 55.5l-114 -368
q-18 -57 -25.5 -93.5t-8.5 -54.5v-7q2 -16 9.5 -29.5t25.5 -23t50 -15t83 -5.5l-16 -50h-633l16 50l33 -2q23 0 47.5 2t49 10t47 23t42.5 41q22 26 64 162l549 1780q20 63 28 98.5t8 51.5q0 29 -16.5 46.5t-59.5 17.5q-31 0 -86 -20zM490 880l-139 -452q-23 -73 -36 -120.5
t-13 -69.5v-16q0 -36 13 -68.5t39.5 -57t66.5 -39.5t94 -15q76 0 146.5 35.5t131.5 99.5t110 152.5t81 194.5q22 74 33.5 137.5t11.5 118.5q0 59 -12.5 109t-37.5 87t-62.5 57.5t-87.5 20.5h-3q-54 0 -136 -32q-24 -11 -74 -46.5t-126 -95.5z" />
    <glyph glyph-name="ydieresis" unicode="&#xff;" horiz-adv-x="1200" 
d="M432 1195q71 -121 96 -406l58 -649q83 100 230 301q72 99 179 273q63 103 80 148q7 22 7 44q0 27 -57 45q-90 29 -90 124q0 120 110 120q140 0 140 -181q0 -178 -345 -650q-204 -277 -493 -604q-303 -343 -461 -343q-102 0 -102 103q0 51 42 93t93 42q26 0 44 -11
q10 -7 28 -49q16 -37 34 -37q10 2 28 13q75 47 169 143q125 127 187 211l-74 837q-14 161 -29 200q-36 97 -150 97q-28 0 -99 -8l-12 49zM603 1766q46 0 77 -28.5t31 -74.5q0 -36 -17.5 -69.5t-45.5 -59t-61.5 -41t-66.5 -15.5q-48 0 -78 27.5t-30 73.5q0 36 17 70t44 60
t61 41.5t69 15.5zM1069 1766q22 0 41.5 -8t34 -21.5t22.5 -32.5t8 -41q0 -38 -17.5 -71.5t-45 -59t-61.5 -40t-67 -14.5q-22 0 -41.5 7.5t-34.5 21t-23.5 32t-8.5 41.5q0 34 17 67.5t44.5 60t62 42.5t69.5 16z" />
    <glyph glyph-name="dotlessi" unicode="&#x131;" horiz-adv-x="751" 
d="M622 1195l-262 -926q-14 -47 -20 -74.5t-6 -37.5q0 -47 42 -47q18 0 42 16.5t50.5 43t54.5 60.5t53 70l46 -31q-91 -137 -211 -231q-91 -70 -172 -70q-123 0 -123 114q0 48 33 162l172 592q42 145 42 182q0 66 -77 66q-29 0 -120 -15v52z" />
    <glyph glyph-name="OE" unicode="&#x152;" horiz-adv-x="2404" 
d="M1705 1692l-218 -706h242q75 0 132 15t99.5 46.5t72.5 80t51 116.5h52l-192 -622h-52q23 78 23 127q0 37 -10.5 63t-35 43t-66.5 25t-105 8h-242l-182 -590q-16 -50 -24 -83.5t-7 -51.5v-3q1 -13 3.5 -24t14.5 -19t37.5 -12.5t72.5 -4.5h138q81 0 133.5 3t92 13t74 29
t79.5 51q64 45 126 107.5t122 144.5h54l-282 -448h-640q-14 0 -26.5 -0.5t-26.5 -0.5q-23 0 -46 0.5t-46 0.5q-21 0 -41.5 -0.5t-40.5 -1.5l-223 -12q-23 -1 -55.5 -2t-62.5 -2t-52 -2t-25 -2q-123 0 -228 37t-182 111t-121 185.5t-44 261.5q0 120 30 243t85.5 242
t133.5 230t175 206q318 312 746 312q55 -5 116 -8t122.5 -4.5t121.5 -2.5t114 -1h753l-106 -394h-42q5 45 7.5 78.5t2.5 58.5q0 40 -6.5 70t-33 49.5t-79 29.5t-145.5 10h-338zM1353 1376q45 147 45 208q0 69 -51.5 103.5t-148.5 34.5q-120 0 -235.5 -52.5t-219 -157.5
t-191.5 -262.5t-154 -367.5q-32 -103 -48.5 -199t-18.5 -199v-16q0 -92 22.5 -165t66.5 -124.5t109.5 -79t152.5 -27.5q88 0 160 29t123 98q22 30 47 92.5t54 156.5z" />
    <glyph glyph-name="oe" unicode="&#x153;" horiz-adv-x="1952" 
d="M1186 756l-19 -50q-22 -57 -28 -121.5t-7 -133.5v-5q0 -68 18.5 -118t50.5 -83t76 -49t95 -16q103 0 205 67.5t200 220.5l35 -22q-62 -126 -132 -217t-146 -150t-156.5 -87t-162.5 -28q-65 0 -114.5 16.5t-85 45.5t-58 67.5t-32.5 82.5q-117 -108 -235 -160t-251 -52
q-86 0 -158.5 25.5t-125.5 74.5t-83 121t-30 165q0 123 34.5 237.5t94 214t138.5 181t168 139.5t183 90t183 32q144 0 228.5 -56.5t119.5 -151.5q57 57 109 96.5t104.5 65t108 37t117.5 11.5q70 0 128 -18.5t99 -54.5t64 -89t23 -123q0 -88 -36 -205h-722zM773 1172
q-38 0 -89 -18t-106 -68t-109.5 -140t-99.5 -234q-32 -102 -47.5 -189t-14.5 -162q0 -68 11.5 -124t35.5 -96.5t60.5 -62.5t87.5 -22q58 0 115 23t109.5 75t99.5 137t85 209q35 115 52.5 210.5t17.5 176.5q0 144 -51 214.5t-157 70.5zM1213 842h462q24 78 24 150
q0 36 -10.5 66t-31 52.5t-49.5 35t-66 12.5q-43 0 -91 -21t-93.5 -61.5t-83.5 -99t-61 -134.5z" />
    <glyph glyph-name="Scaron" unicode="&#x160;" 
d="M18 -41l148 664h45q-9 -96 -9 -160q0 -184 116 -296t301 -112q157 0 255 97.5t98 254.5q0 90 -41 163q-63 111 -332 386q-132 135 -167 196q-61 107 -61 225q0 202 151 331q143 123 348 123q71 0 140 -15q40 -8 149 -52q66 -27 84.5 -32t40.5 -5q71 0 131 104h50
l-137 -594h-45q5 79 5 128q0 166 -110 266q-106 97 -274 97q-122 0 -212 -71q-97 -76 -97 -196q0 -116 110 -250q37 -45 197 -199q157 -150 214 -231q100 -142 100 -291q0 -316 -279 -461q-134 -70 -294 -70q-141 0 -367 86q-52 20 -86 20q-78 0 -121 -106h-51zM1071 1932
h-242l-115 436h40l273 -280l389 280h40z" />
    <glyph glyph-name="scaron" unicode="&#x161;" horiz-adv-x="1052" 
d="M981 1195l-81 -406h-49q-12 338 -245 338q-178 0 -178 -153q0 -81 103 -194q272 -298 272 -462q0 -154 -127 -255q-119 -95 -276 -95q-95 0 -219 45q-44 16 -67 16q-60 0 -90 -61h-49l80 428h49q15 -367 289 -367q92 0 153 50q65 54 65 144q0 53 -21 98
q-37 80 -153.5 216t-153.5 213q-34 70 -34 140q0 136 100 222q94 83 233 83q44 0 77 -7q19 -4 90 -31q62 -24 87 -24q56 0 95 62h50zM781 1392h-242l-115 436h40l273 -280l389 280h40z" />
    <glyph glyph-name="Ydieresis" unicode="&#x178;" horiz-adv-x="1504" 
d="M945 952l341 476q132 185 132 238q0 64 -190 75l13 49h562l-10 -49q-84 -11 -113 -22q-45 -19 -93 -62q-63 -57 -180 -218l-438 -605l-132 -442q-49 -164 -49 -230q0 -73 69 -96q48 -16 153 -17l-13 -49h-754l16 49q110 2 149 18q60 25 88 64q46 61 93 217l157 523
l-192 618q-43 141 -74 180q-49 62 -170 72l13 49h662l-16 -49q-122 -9 -141 -16q-66 -22 -66 -101q0 -57 38 -185zM942 2306q46 0 77 -28.5t31 -74.5q0 -36 -17.5 -69.5t-45.5 -59t-61.5 -41t-66.5 -15.5q-48 0 -78 27.5t-30 73.5q0 36 17 70t44 60t61 41.5t69 15.5z
M1408 2306q22 0 41.5 -8t34 -21.5t22.5 -32.5t8 -41q0 -38 -17.5 -71.5t-45 -59t-61.5 -40t-67 -14.5q-22 0 -41.5 7.5t-34.5 21t-23.5 32t-8.5 41.5q0 34 17 67.5t44.5 60t62 42.5t69.5 16z" />
    <glyph glyph-name="Zcaron" unicode="&#x17d;" horiz-adv-x="1504" 
d="M409 1790h1242v-49l-1329 -1655h207q265 0 368 14q218 29 335 134q92 81 154 232h50l-154 -466h-1287v38l1329 1656h-371q-203 0 -269 -9q-157 -21 -242 -102q-71 -66 -120 -201h-46zM1200 1932h-242l-115 436h40l273 -280l389 280h40z" />
    <glyph glyph-name="zcaron" unicode="&#x17e;" horiz-adv-x="1052" 
d="M227 1163h838v-33l-913 -950h387q192 0 242 55q31 34 69 124h49l-115 -359h-859v38l913 951h-380q-117 0 -145 -7q-82 -19 -148 -153h-50zM711 1392h-242l-115 436h40l273 -280l389 280h40z" />
    <glyph glyph-name="florin" unicode="&#x192;" 
d="M1067 1156h236l-49 -88h-230q-51 -104 -106 -208.5t-118 -217.5t-135 -238t-157 -270q-117 -201 -217.5 -335.5t-187.5 -216t-163 -116t-146 -34.5q-60 0 -93 27t-33 73q0 32 14.5 60.5t36 49.5t47 33.5t47.5 12.5q26 0 45 -17t19 -44q0 -14 -6.5 -26t-15.5 -23
t-18.5 -21t-16.5 -19v-4q0 -5 3.5 -13t22.5 -11q26 0 57.5 13.5t69.5 50t82.5 101t97.5 167.5l282 548l373 678h-234l47 88q57 0 97 3t70 11.5t53 25t45.5 43t48 64.5t60.5 91q90 138 160.5 223.5t130 133t113 64.5t109.5 17q66 0 103.5 -31t37.5 -79q0 -27 -11 -52.5
t-28.5 -45t-40 -31t-46.5 -11.5q-32 0 -48 16t-16 38q0 18 9 34t20 30t20 25.5t9 20.5v7q0 5 -6 8.5t-32 8.5q-56 0 -100 -39t-89.5 -116t-98 -192t-124.5 -267z" />
    <glyph glyph-name="circumflex" unicode="&#x2c6;" horiz-adv-x="900" 
d="M395 1828h244l115 -436h-40l-273 280l-391 -280h-38z" />
    <glyph glyph-name="caron" unicode="&#x2c7;" horiz-adv-x="900" 
d="M504 1392h-242l-115 436h40l273 -280l389 280h40z" />
    <glyph glyph-name="ring" unicode="&#x2da;" horiz-adv-x="900" 
d="M528 1880q41 0 75.5 -12.5t59.5 -35.5t39 -55.5t14 -72.5q0 -64 -30.5 -123.5t-80 -105.5t-111 -73.5t-123.5 -27.5q-41 0 -75 13t-58.5 36t-38.5 55.5t-14 71.5q0 60 29.5 119t77.5 105.5t109.5 75.5t126.5 30zM499 1788q-40 0 -79 -17.5t-69.5 -46.5t-49.5 -67t-19 -78
q0 -51 32 -82t86 -31q40 0 79.5 18.5t70.5 48.5t50 67t19 75q0 51 -33 82t-87 31z" />
    <glyph glyph-name="ring" unicode="&#x25e6;" horiz-adv-x="900" 
d="M528 1880q41 0 75.5 -12.5t59.5 -35.5t39 -55.5t14 -72.5q0 -64 -30.5 -123.5t-80 -105.5t-111 -73.5t-123.5 -27.5q-41 0 -75 13t-58.5 36t-38.5 55.5t-14 71.5q0 60 29.5 119t77.5 105.5t109.5 75.5t126.5 30zM499 1788q-40 0 -79 -17.5t-69.5 -46.5t-49.5 -67t-19 -78
q0 -51 32 -82t86 -31q40 0 79.5 18.5t70.5 48.5t50 67t19 75q0 51 -33 82t-87 31z" />
    <glyph glyph-name="tilde" unicode="&#x2dc;" horiz-adv-x="900" 
d="M20 1448h-41q25 87 64 151.5t85.5 106.5t98.5 63t104 21q28 0 51 -3.5t48.5 -15t56.5 -33.5t74 -59q85 -73 141 -73q20 0 40.5 7t43 27t47 56t52.5 94h40q-26 -85 -65.5 -150t-87 -109t-100 -66.5t-104.5 -22.5q-35 0 -65 10t-62.5 29.5t-69.5 47.5t-85 64q-15 11 -26 18
t-20.5 11.5t-19 6t-22.5 1.5q-24 0 -42 -4t-37 -21.5t-42 -54t-57 -102.5z" />
    <glyph glyph-name="uni0E01" unicode="&#xe01;" horiz-adv-x="1622" 
d="M225 1110q0 92 132 237q108 118 211 183q173 109 419 108q223 -1 362 -116q150 -124 150 -342l-176 -1004l-193 -176h-65l205 1171q0 320 -316 349q-330 0 -506 -187q-67 -72 -67 -104h475l-25 -127h-245l-193 -1102h-225l197 1110h-140z" />
    <glyph glyph-name="uni0E02" unicode="&#xe02;" horiz-adv-x="1630" 
d="M303 1212q64 82 189 82q71 0 106 -32q49 -45 49 -111q0 -55 -37 -131q-72 -149 -196 -152q-90 -2 -156.5 70t-64.5 156q5 204 122 360q132 176 357 176q141 0 224 -83t83 -224l-188 -1073q0 -148 127 -148q141 0 167 148l213 1208l209 180h49l-225 -1278
q-37 -208 -241 -315q-94 -49 -193 -49q-154 0 -237 111q-74 99 -74 258l147 847q17 98 17 127q0 92 -95 131q-31 13 -73 13q-58 0 -115 -29q-151 -76 -164 -242zM471 1208q-126 0 -152 -123q0 -127 87 -127q98 0 135 103q8 32 8 45q0 89 -78 102z" />
    <glyph glyph-name="uni0E03" unicode="&#xe03;" horiz-adv-x="1860" 
d="M872 1380q-3 0 -101 -88t-103 -88q-8 2 -68.5 116t-75.5 114q-190 -90 -225 -336q0 -295 180 -295q87 0 107 78q0 70 -68 90q-27 8 -51 16q0 14 17 50t28 36q-25 0 86 -8q143 -10 143 -160q0 -18 -8 -49q-23 -87 -96 -146t-162 -59q-45 0 -61 8q-217 84 -217 385
q0 51 8 107q23 160 141 324q114 159 211 159q19 0 83.5 -105t64.5 -132q3 19 116.5 130t128.5 111q201 0 201 -266l-184 -1057q-9 -52 -9 -65q0 -148 140 -152q89 -2 148 43q56 43 77 162l205 1159l209 180h49l-225 -1282q-27 -152 -172.5 -257t-307.5 -103q-157 2 -247 106
q-84 99 -84 259l143 815q20 114 20 123q0 52 -41 77z" />
    <glyph glyph-name="uni0E04" unicode="&#xe04;" horiz-adv-x="1630" 
d="M721 762q-27 0 -78 16.5t-74 16.5q-24 0 -28 -25l-135 -770h-226l131 733q-41 58 -97 148q-26 58 -26 151q0 47 13 115q21 111 151 236q107 104 230 169q165 86 364 86q172 0 287 -35q121 -38 197 -157q49 -77 49 -184q0 -53 -13 -127l-200 -1135h-226l209 1176
q0 161 -106 253q-114 97 -295 91q-189 -6 -323 -95q-127 -84 -214 -254q-24 -47 -24 -114q0 -139 61 -139q28 55 88 163q16 27 43 54q131 133 275 135q102 1 162 -73q55 -68 55 -173q-59 -223 -250 -262zM754 1155q-151 0 -172 -143q0 -156 114 -156q68 0 126.5 54.5
t58.5 121.5q0 123 -127 123z" />
    <glyph glyph-name="uni0E05" unicode="&#xe05;" horiz-adv-x="1638" 
d="M307 1102q0 -149 62 -230q13 144 196 266q88 58 185 58q89 0 151 -50q66 -55 66 -142q0 -19 -9 -46q-36 -108 -79 -152.5t-150 -80.5q-28 0 -83 8t-81 8q-24 0 -24 -12l-127 -729h-226l127 729q-43 74 -96 175q-26 70 -26 177q23 230 368 463q138 93 205 94
q16 0 75.5 -112.5t67.5 -112.5q13 0 106 111t107 110q200 -12 319 -236q50 -95 50 -177l-217 -1221h-225l213 1212q0 43 -68 134.5t-104 91.5q-18 -4 -101 -91t-100 -90q-10 0 -87 127t-93 127q-85 -9 -286 -223q-87 -92 -116 -186zM750 1102q-139 0 -168 -139
q0 -148 114 -148q66 0 121 51.5t55 116.5q0 119 -122 119z" />
    <glyph glyph-name="uni0E06" unicode="&#xe06;" horiz-adv-x="1982" 
d="M713 885q-25 -94 -95 -139.5t-151 -45.5q-68 0 -115 29q-83 51 -120 123q-35 67 -35 176q0 42 8 123q20 203 216 399q81 81 144 88q12 0 72 -104t72 -104q212 208 249 208q201 -43 201 -217q0 -47 -16 -143l-119 -684q0 -17 92 -60q58 -28 117 -55q127 -78 209 -184
l209 1196l254 147l-291 -1638h-225q-7 0 -35 78q-33 93 -42 111q-36 69 -104 126q-142 119 -196 119q-21 0 -21 -16l-41 -225q-12 -67 -93 -131q-86 -69 -206 -66q-101 2 -156 82q-53 76 -53 160q0 24 9 53q74 239 268 273q74 13 76 22l135 770q0 82 -70 82
q-10 0 -95.5 -90.5t-100.5 -90.5q-10 0 -65.5 98.5t-70.5 102.5q-47 0 -128 -135q-74 -122 -85 -184q-8 -46 -8 -78q0 -199 115 -234q26 -8 70 -8q65 0 90 37q12 18 12 70q0 91 -45 102l131 66q41 -44 41 -152q0 -27 -8 -57zM770 430q0 33 -25 33q-50 0 -113 -55
q-58 -51 -79 -101q-12 -29 -12 -65q0 -115 102 -115q71 8 78 45z" />
    <glyph glyph-name="uni0E07" unicode="&#xe07;" horiz-adv-x="1290" 
d="M606 1393q20 103 119 175q94 70 201 70q233 0 233 -233q0 -62 -8 -107l-229 -1298h-226l-544 860l20 107l582 -631l147 815q0 12 -16 12q-19 0 -57 -8t-58 -8q-24 0 -45 8q-119 45 -119 238zM692 1380q0 -142 123 -139q143 3 160 139q0 144 -111 144q-138 0 -172 -144z
" />
    <glyph glyph-name="uni0E08" unicode="&#xe08;" horiz-adv-x="1454" 
d="M270 1036q21 101 114 164q87 58 194 57q217 -3 217 -241l-136 -766q0 -154 86 -156q129 -4 156 148l164 917q0 244 -202 320q-75 28 -118 28q-195 0 -354 -155q-60 -59 -67 -62l-95 21q0 36 142 139q114 83 178 116q137 72 287 72q248 0 402 -198q69 -89 69 -187
l-168 -946q-22 -122 -148.5 -218.5t-253.5 -96.5q-116 0 -205.5 97t-89.5 214l90 516q-23 0 -70.5 -8t-72.5 -8q-119 45 -119 233zM496 1143q-116 0 -131 -123q0 -126 106 -123q110 4 123 111q0 135 -98 135z" />
    <glyph glyph-name="uni0E09" unicode="&#xe09;" horiz-adv-x="1753" 
d="M238 1040q15 93 99.5 167t178.5 75q99 1 170.5 -65t71.5 -164l-115 -647q0 -17 12 -17q55 0 135 59q91 69 132 80q76 21 135 21l102 -8l111 622q0 201 -224 288q-103 39 -210 40q-269 2 -487 -134l-87 -54l-16 90q70 61 178 109q130 58 212 85q168 51 322 51
q238 0 393 -134q152 -129 152 -292l-123 -692l-20 -65q78 -105 78 -164q0 -20 -8 -70q-61 -225 -279 -225q-184 0 -184 229q19 150 143 217q-65 9 -90 9q-133 0 -270 -107q-88 -69 -146 -266q-15 -49 -31 -78h-225l152 852q-50 -8 -102 -8q-160 0 -160 196zM471 1171
q-117 0 -139 -118q0 -127 98 -127q107 0 135 127q0 118 -94 118zM1163 82q155 12 172 147q0 148 -127 148q-150 -12 -164 -160q0 -135 119 -135z" />
    <glyph glyph-name="uni0E0A" unicode="&#xe0a;" horiz-adv-x="1659" 
d="M545 1098q-5 41 -107 41v90q9 45 111 45q115 0 115 -164q-44 -242 -254 -242q-102 12 -155 126q-42 91 -42 206q31 205 182 322.5t289 115.5q286 -5 348 -213q8 -27 8 -86q0 -85 -16 -143q221 0 358 200l79 132q66 110 75 110h225q0 -57 -66 -165q-63 -103 -114 -142
q-196 -150 -274 -176q36 -37 101 -148q26 -72 26 -188q0 -65 -21 -205q-44 -291 -255 -514q-94 -100 -179 -100h-594l16 102h205l209 1172q0 209 -209 209q-103 0 -190 -86q-82 -81 -105 -185q0 -227 107 -249q127 0 127 135zM1008 1090l-177 -988h111q141 0 262 541
q25 112 25 193q0 266 -180 266q-41 0 -41 -12z" />
    <glyph glyph-name="uni0E0B" unicode="&#xe0b;" horiz-adv-x="1802" 
d="M360 840q71 -54 103 -54q33 0 63.5 31t30.5 64q0 31 -31.5 60.5t-62.5 29.5l37 98q100 0 147 -53q33 -46 33 -98q0 -60 -37 -140q-45 -98 -237 -98q-218 53 -218 307q0 59 17 172q20 130 124 269t224 198l123 -229l295 245q52 -18 106 -69q94 -89 94 -279l-20 -106h78
q106 0 209 102q20 20 221 348h221q0 -44 -73 -161q-61 -98 -107 -150q-117 -132 -283 -201q79 -92 114 -180q30 -75 30 -172q0 -56 -13 -123q-134 -651 -409 -651h-627l16 102h205l201 1135q0 100 -12 119q-17 34 -66 49l-201 -188l-135 221q-155 -105 -201 -283
q-24 -94 -24 -151q0 -114 65 -164zM1130 1065l-172 -963h82q75 0 141 96q69 100 134 396q28 127 28 242q0 229 -131 229h-82z" />
    <glyph glyph-name="uni0E0C" unicode="&#xe0c;" horiz-adv-x="2073" 
d="M459 467q0 -24 46 -39q55 -18 66 -32q31 -38 31 -109q0 -24 -8 -66q-18 -94 -107 -159q-85 -62 -184 -62q-184 20 -184 242q10 82 79 152q26 26 27 32l119 659h-151q0 54 50 163q53 115 150 202q88 79 221 134q128 53 242 54q265 3 425 -211q71 -96 71 -206l-135 -758
l155 -119l148 -143l217 1237l209 200h53l-291 -1638h-225q-33 0 -119 172q-95 133 -142 159q-19 10 -26 13l-25 -143q-14 -79 -150 -160q-71 -43 -161 -41q-75 1 -127.5 61t-52.5 136q0 21 8 53q45 180 231 215q75 14 76 22l123 701q0 114 -78 197q-82 86 -225 90
q-155 4 -280 -57q-68 -34 -142 -96q-94 -80 -94 -134h463l-17 -103h-176zM971 356q-5 21 -29 21q-58 0 -106 -41q-58 -50 -58 -135q0 -99 119 -99q33 0 33 25zM381 381q-123 0 -168 -127q-8 -32 -8 -45q0 -124 119 -127q141 -4 176 131q0 168 -119 168z" />
    <glyph glyph-name="uni0E0D" unicode="&#xe0d;" horiz-adv-x="2138" 
d="M786 270q5 -105 -76 -189.5t-239 -80.5q-242 5 -242 307l140 778h-176q0 72 28 140q32 79 112 169q83 95 213 167q136 75 285 77q236 3 362 -87q183 -133 183 -322l-168 -959q0 -76 46.5 -130t121.5 -54q73 0 140.5 62t80.5 135l209 1187l258 168l-241 -1355
q-23 -127 -179 -210q-135 -73 -276 -73q-155 0 -260 64q-125 77 -125 223l164 913q0 137 -99 219q-102 85 -262 88q-119 2 -239 -62q-68 -37 -152 -108q-108 -92 -108 -141q1 -8 8 -8h516l-12 -103h-205l-119 -667q-30 0 38 10t89 10q176 0 184 -168zM578 356
q-122 0 -152 -110q-8 -30 -8 -45q0 -97 98 -111q156 0 176 127q0 139 -114 139zM1184 -750q-139 -3 -238 89t-94 235q3 99 78 198q68 93 147 105q164 0 164 -176q-25 -135 -156 -135q-70 0 -114 65q0 -15 -7 -46q-6 -32 -6 -48q0 -156 172 -160q117 -2 215 60q92 60 113 178
l45 254h226q-6 -70 -31 -199q-27 -134 -80 -215q-130 -199 -434 -205z" />
    <glyph glyph-name="uni0E0E" unicode="&#xe0e;" horiz-adv-x="1720" 
d="M782 -461q-47 50 -91 86l-48 39q0 -116 -72 -223q-80 -120 -190 -121q-100 -1 -167 60.5t-67 160.5q0 21 9 53q71 250 336 250q58 0 98 -12q0 74 106 188q83 89 181 127l61 -81q-120 -31 -184 -127q-50 -76 -62 -144q78 -53 176 -155q105 -109 160 -205l303 1728
q0 143 -101 233q-106 95 -284 99q-182 4 -315 -63q-70 -36 -144 -102q-94 -84 -94 -142h484l-17 -103h-205l-131 -733q-63 -355 -311 -352q-172 2 -172 238q18 92 101.5 164.5t176.5 72.5l111 610h-164l13 66q0 80 179 265q216 222 554 222q364 0 488 -270q52 -113 52 -225
l-344 -1962h-225q-9 0 -44 85q-78 188 -157 273zM532 -299q-29 29 -90 29q-159 0 -196 -144q0 -136 86 -164q100 0 143 66q57 112 57 213zM283 373q-66 0 -116 -47q-54 -52 -56 -117q-4 -119 122 -123q135 -5 164 131q0 156 -114 156z" />
    <glyph glyph-name="uni0E0F" unicode="&#xe0f;" horiz-adv-x="1741" 
d="M692 -590q86 66 168 66q44 0 114 -31l70 -31l299 1712q0 161 -119 255q-124 97 -237 98q-292 3 -416.5 -101.5t-148.5 -173.5h491l-20 -119h-209l-152 -856q-17 -97 -101.5 -163t-184.5 -66q-201 0 -201 242q35 166 228 220q77 21 79 30l107 593h-164l8 62q6 47 86 164
q73 107 160 168q216 151 467 159q121 4 259 -59q298 -138 298 -449l-344 -1949h-225q-29 0 -36 56q-9 71 -20 86q-30 41 -96 50q-58 0 -111 -45l-53 -45h-127q0 15 5 52q4 33 3 51q-4 74 -49 143q-17 -87 -86 -150t-155 -63q-78 0 -137 71q-56 67 -56 146q0 47 16 82
q83 180 250 180q85 0 148 -57q0 31 52 117q50 82 79 108q167 150 184 160l103 -86q-155 -35 -246 -160q-63 -87 -90 -192q49 -84 65 -127q25 -67 45 -148zM303 -291q-135 -28 -135 -176q0 -24 12 -49q32 -66 119 -66q56 0 104 89q43 79 43 141q-28 61 -143 61zM315 369
q-63 0 -117 -42q-57 -45 -63 -106q0 -133 123 -131q52 1 103 44q48 40 57 95q0 126 -103 140z" />
    <glyph glyph-name="uni0E10" unicode="&#xe10;" horiz-adv-x="1548" 
d="M803 827l-107 -594q0 -122 70 -122q93 0 115 122l114 644q9 51 9 73q0 143 -93.5 229t-238.5 87q-91 1 -254 -54q-174 -58 -225 -118q55 248 285 426q146 112 366 118q90 3 159 -21q79 -46 218 -101q93 0 217 122h45q-23 -114 -103 -196q-87 -90 -196 -90q-62 9 -143 56
l-135 76q-48 21 -144 19q-224 -5 -402 -225q215 103 361 102q226 -2 363 -129q141 -130 141 -354l-119 -659q-17 -92 -134 -164q-120 -74 -210 -74q-109 0 -195 59q-96 66 -96 170l78 443q-295 0 -295 225q25 121 117 173q96 55 174 52q258 -10 258 -295zM487 1020
q-129 0 -151 -123q0 -123 102 -123q53 0 97.5 39t50.5 92q0 115 -99 115zM967 -520q-24 -65 -86 -156q-58 -41 -164 -41h-361q29 95 29 168q0 30 -12 66q-25 76 -66 114q0 -104 -71 -172.5t-175 -68.5q-167 0 -167 221q14 72 80.5 129.5t140.5 66.5q94 0 139 -16q4 32 33 74
q17 30 69 65l103 -16l-66 -78q-25 -35 -49 -82q40 -20 94 -110q37 -61 37 -226h316l24 136q-13 0 -39 -4q-26 -5 -39 -5q-176 0 -176 172q9 86 82 137q77 55 168 52q88 -3 144 -63q53 -57 53 -130zM635 -287q-2 -94 131 -94q78 21 94 102q0 111 -94 111q-46 0 -88 -38
t-43 -81zM-33 -434q0 -90 90 -103q97 0 127 62q26 55 49 168q-24 24 -102 24q-164 0 -164 -151z" />
    <glyph glyph-name="uni0E11" unicode="&#xe11;" horiz-adv-x="2146" 
d="M655 1053q50 -42 50 -189q-39 -188 -246 -188q-133 0 -207 107q-64 94 -64 233q0 63 9 106q33 159 134 304q112 162 251 212l123 -254l241 254q92 -7 168 -90q45 -50 45 -209l-127 -704h45l324 717q66 145 222 238q80 48 163 48q229 0 229 -274q0 -41 -8 -86l-225 -1278
h-226l213 1200q9 51 9 90q0 97 -103 119q-149 0 -188 -90l-565 -1319h-226l217 1237l21 90q0 21 -8 33q-4 11 -24 28q-11 4 -38 5l-192 -181l-135 246q-82 -41 -154 -163q-64 -108 -84 -210q0 -299 188 -299q91 31 91 111q0 26 -9 62l-8 32z" />
    <glyph glyph-name="uni0E12" unicode="&#xe12;" horiz-adv-x="2134" 
d="M1176 1380q-57 62 -103 78l-233 -225l-160 262q-105 -45 -226 -174q-129 -137 -143 -240q0 -134 40 -283q50 -190 136 -241l197 135q-103 33 -124 132q-7 33 -7 53q0 104 111 208q79 74 184 74q44 0 86 -16q110 -42 110 -230q-27 -150 -237 -287l-148 -94
q-202 -137 -225 -270l-45 -262h-225l86 479q0 86 -35 251q-35 166 -35 249q0 55 13 111q34 147 208 322q163 164 316 226l151 -237l250 241q163 0 257.5 -93.5t94.5 -295.5l-131 -737q88 -44 140 -110q26 -32 48 -52q17 -17 54 -88l217 1221l176 151h78l-291 -1638h-229
q-3 0 -34 107q-32 114 -44 135q-50 89 -135 143l-29 -156q-24 -131 -155 -192q-79 -37 -152 -37q-90 0 -152 66q-57 60 -57 147q0 76 45 152q95 159 299 159l127 725q0 57 -69 131zM1106 426q-160 0 -201 -94q-28 -65 -28 -123q0 -69 41 -86q50 -21 94 -21q40 0 45 29z
M664 905q-3 -119 122 -119q132 12 152 127q0 144 -111 144q-62 0 -111.5 -45t-51.5 -107z" />
    <glyph glyph-name="uni0E13" unicode="&#xe13;" horiz-adv-x="2187" 
d="M492 459q84 28 139 28q182 0 180 -217q-1 -100 -97 -186q-99 -87 -227 -84q-245 6 -245 324l135 761h-184l8 58q16 116 167 311q142 182 480 184q184 1 320 -86q159 -100 159 -274q0 -24 -8 -70l-160 -913q41 83 201 147q92 37 225 37l176 1016l250 143l-201 -1134
l-61 -53q115 -43 115 -177q0 -11 -9 -57q-18 -92 -89.5 -154.5t-163.5 -62.5q-188 0 -197 168q-3 60 38 130q37 64 56 83q-77 0 -156.5 -45.5t-132.5 -124.5l-104 -211h-225l209 1196q0 270 -275 299q-284 0 -440 -197q-60 -76 -60 -110h508l-16 -103h-205zM1659 356
q-130 0 -156 -139q0 -126 119 -123q121 3 143 131q0 131 -106 131zM594 393q-144 0 -172 -135q0 -142 86 -160q162 0 197 131q0 164 -111 164z" />
    <glyph glyph-name="uni0E14" unicode="&#xe14;" horiz-adv-x="1638" 
d="M672 668q-57 20 -97 91q-38 66 -38 130q0 31 12 69q70 226 282 226q246 0 246 -209q0 -19 -8 -49q-60 -207 -292 -348q-126 -76 -159 -103q-138 -112 -163 -250l-41 -225h-226l91 512q0 65 -46 231q-45 163 -45 297q58 349 418 520q166 78 344 78q220 0 364 -101
q165 -114 165 -325q0 -41 -9 -94l-196 -1118h-225l196 1110q8 45 8 70q0 143 -103 228q-108 88 -232 91q-131 3 -265 -63q-275 -137 -329 -371q0 -114 76 -263l46 -97l26 -63q7 -19 24 -77zM844 1073q-65 2 -125.5 -39t-79.5 -108q0 -181 135 -181q73 0 132.5 67.5
t56.5 145.5q-5 111 -119 115z" />
    <glyph glyph-name="uni0E15" unicode="&#xe15;" horiz-adv-x="1642" 
d="M705 643q-189 11 -189 193q0 44 12 90q22 86 104 150t171 63q217 -3 217 -226q0 -150 -282 -383l-230 -190q-55 -46 -78 -119l-41 -221h-225l90 512q0 33 -41 159t-41 214q0 87 12 164q31 201 216 369q182 165 354 220l151 -237l238 237q136 -15 246 -139
q98 -110 98 -221q0 -45 -8 -90l-209 -1188h-226l209 1188q0 63 -41 139q-22 42 -64 78q-47 40 -63 45l-208 -225l-164 278q-97 -27 -223 -142q-131 -119 -171 -300q-12 -54 -12 -111q0 -93 103 -237q64 -90 77 -238q105 69 218 168zM791 1044q-77 0 -129 -51.5t-52 -128.5
q0 -119 127 -119q76 0 128.5 52.5t52.5 128.5q0 118 -127 118z" />
    <glyph glyph-name="uni0E16" unicode="&#xe16;" horiz-adv-x="1614" 
d="M758 242q-36 -219 -275 -242q-266 0 -266 291l139 794h-163q0 93 118 240q97 122 194 193q165 120 429 120q303 0 448 -226q68 -107 68 -241q0 -41 -8 -86l-160 -905l-152 -180h-106l197 1110q0 179 -74 275q-78 100 -270 102q-279 4 -400 -104q-117 -104 -153 -195h458
l-16 -103h-184l-115 -655q44 21 102 21q189 0 189 -209zM565 365q-56 0 -107 -34q-55 -36 -65 -89q0 -144 111 -144q142 0 155 144q0 107 -94 123z" />
    <glyph glyph-name="uni0E17" unicode="&#xe17;" horiz-adv-x="1843" 
d="M573 1171q-58 -26 -114 -24q-213 6 -213 254q21 104 125 173q97 65 207 64q258 -3 258 -229q0 -35 -9 -86l-155 -885l377 873q67 155 173.5 242t198.5 85q126 -3 204.5 -80t78.5 -202q0 -44 -8 -90l-221 -1266h-254l229 1290q0 172 -94 172q-62 0 -139 -78
q-73 -73 -95 -127l-528 -1257h-225zM520 1536q-60 0 -112 -45q-55 -47 -56 -98q-1 -78 31.5 -118t95.5 -38q127 4 156 143q0 156 -115 156z" />
    <glyph glyph-name="uni0E18" unicode="&#xe18;" horiz-adv-x="1556" 
d="M725 1483l98 -185l-16 -94l504 -160l-135 -774q-18 -106 -108 -188t-196 -82h-688l17 102h184l184 1037l-352 90q0 65 100 179q83 93 156 143q126 87 309 87q149 0 402 -106q69 -29 119 -29q63 0 172 127q0 -96 -90 -205q-94 -114 -189 -114q-154 0 -270 94
q-31 25 -134 57q-54 16 -67 21zM782 1077l-172 -975h152q80 0 126.5 44.5t65.5 152.5l119 684zM352 1311l238 -62l41 234q-81 0 -148 -33q-80 -39 -131 -139z" />
    <glyph glyph-name="uni0E19" unicode="&#xe19;" horiz-adv-x="1884" 
d="M1319 504l172 979l184 155h70l-201 -1118l-65 -57q90 -74 90 -238q-45 -225 -266 -225q-205 0 -201 209q1 73 50 136q45 57 69 65q-253 0 -410 -111q-63 -45 -143 -135q-95 -109 -95 -164h-225l213 1208q-56 -28 -131 -28q-47 0 -78 12q-110 42 -110 188q12 120 106 192
q89 68 213 66q254 -3 254 -225q0 -32 -8 -78l-184 -1061q141 144 327 197q144 41 258 41q37 0 111 -8zM1352 373q-55 -1 -100.5 -47t-51.5 -101q0 -135 115 -135q147 0 160 143q0 143 -123 140zM512 1532q-58 2 -108.5 -36t-59.5 -95q0 -131 115 -131q129 0 151 127
q0 132 -98 135z" />
    <glyph glyph-name="uni0E1A" unicode="&#xe1a;" horiz-adv-x="1843" 
d="M246 1393q69 242 348 245q254 3 254 -323l-217 -1213h446q86 0 176 74q30 25 43 88l11 51l233 1323h225l-237 -1343q-25 -143 -94 -201q-111 -94 -177 -94h-1052l16 102h185l192 1074q-76 -39 -147 -46q-26 0 -70 9q-143 29 -143 188q0 38 8 66zM451 1225q133 0 167 135
q0 151 -114 151q-53 0 -104 -38q-54 -39 -64 -89q0 -159 115 -159z" />
    <glyph glyph-name="uni0E1B" unicode="&#xe1b;" horiz-adv-x="1843" 
d="M246 1393q69 242 348 245q254 3 254 -323l-217 -1213h446q86 0 176 74q30 25 43 88l11 51l377 2142l170 176h82l-408 -2338q-25 -143 -94 -201q-111 -94 -177 -94h-1052l16 102h185l192 1074q-76 -39 -147 -46q-26 0 -70 9q-143 29 -143 188q0 38 8 66zM451 1225
q133 0 167 135q0 151 -114 151q-53 0 -104 -38q-54 -39 -64 -89q0 -159 115 -159z" />
    <glyph glyph-name="uni0E1C" unicode="&#xe1c;" horiz-adv-x="1602" 
d="M836 1401q-37 -200 -234 -230q-57 0 -164 37l-135 -774l512 635l266 -627l213 1196h226l-258 -1458l-185 -180h-73l40 242l-266 622l-512 -631l-41 -233h-225l242 1364q22 125 172 221q83 53 200 53q101 0 163 -69q59 -66 59 -168zM737 1405q0 127 -110 127
q-115 0 -148 -119q0 -135 107 -139q54 -2 101 38q44 37 50 93z" />
    <glyph glyph-name="uni0E1D" unicode="&#xe1d;" horiz-adv-x="1597" 
d="M836 1401q-37 -200 -234 -230q-57 0 -164 37l-135 -774l512 635l266 -627l361 2045l184 184h74l-438 -2491l-185 -180h-73l40 242l-266 622l-512 -631l-41 -233h-225l242 1364q22 125 172 221q83 53 200 53q101 0 163 -69q59 -66 59 -168zM737 1405q0 127 -110 127
q-115 0 -148 -119q0 -135 107 -139q54 -2 101 38q44 37 50 93z" />
    <glyph glyph-name="uni0E1E" unicode="&#xe1e;" horiz-adv-x="1901" 
d="M823 1413l-176 -991l545 1216h102l99 -1187l209 1187h225l-291 -1638h-225l-119 1397l-619 -1397h-225l209 1180q-16 0 -50 -5q-34 -4 -52 -4q-209 0 -209 222q18 103 106 174t193 71q111 0 189 -56q89 -63 89 -169zM606 1393q0 139 -110 139q-133 0 -156 -139
q0 -144 106 -144q138 0 160 144z" />
    <glyph glyph-name="uni0E1F" unicode="&#xe1f;" horiz-adv-x="1901" 
d="M823 1413l-176 -991l545 1216h102l99 -1187l349 2000l180 154h72l-458 -2605h-225l-119 1397l-619 -1397h-225l209 1180q-16 0 -50 -5q-34 -4 -52 -4q-209 0 -209 222q18 103 106 174t193 71q111 0 189 -56q89 -63 89 -169zM606 1393q0 139 -110 139q-133 0 -156 -139
q0 -144 106 -144q138 0 160 144z" />
    <glyph glyph-name="uni0E20" unicode="&#xe20;" horiz-adv-x="1696" 
d="M377 504l106 602h-172l8 57q6 44 97 166q229 308 620 309q293 0 432 -221q68 -109 68 -254l-172 -970l-164 -193h-94l209 1176q0 152 -124 226q-128 75 -290 73q-196 -3 -310 -102.5t-149 -164.5h484l-17 -102h-200l-152 -860q-18 -104 -115.5 -175t-212.5 -71
q-90 0 -141 86q-43 72 -43 168q44 250 332 250zM422 258q0 142 -123 139q-126 -3 -152 -139q0 -143 103 -147q60 -2 113 42q50 42 59 105z" />
    <glyph glyph-name="uni0E21" unicode="&#xe21;" horiz-adv-x="1720" 
d="M795 1368l-148 -836q131 -88 209 -176q144 -163 250 -163q58 16 78 131l192 1101l193 213h73l-241 -1359q-18 -103 -103 -182q-81 -76 -188 -97q-138 0 -250 162l-41 59q-33 46 -93 94l-103 82l-25 -151q-15 -88 -102.5 -164.5t-176.5 -77.5q-92 -1 -152 76
q-56 71 -56 166q15 128 98.5 207t212.5 79l115 644q-71 -21 -115 -21q-24 0 -53 8q-123 36 -123 221q21 109 108.5 181.5t198.5 72.5q113 0 180 -80q62 -75 62 -190zM631 1376q0 171 -135 168q-64 -1 -115 -54t-57 -118q0 -135 131 -135q142 0 176 139zM197 303
q-9 -23 -9 -57q0 -127 82 -127q80 0 90 57l41 246q-158 0 -204 -119z" />
    <glyph glyph-name="uni0E22" unicode="&#xe22;" horiz-adv-x="1405" 
d="M582 1163q-59 -1 -117 32q-63 35 -80 87q-12 -43 -12 -82q0 -75 69 -139q54 -37 160 -37h135l-16 -102h-111q-113 0 -155 -37q-87 -77 -103 -168l-57 -328q0 -117 73 -193.5t189 -76.5q118 0 218 65q111 71 130 181l193 1105l164 168h94l-221 -1249q-32 -183 -319 -326
q-127 -63 -243 -63q-217 0 -350 107q-145 116 -145 327l41 242q15 88 110 201q61 73 115 94q-40 28 -72 113q-30 78 -30 133q0 41 8 73q36 144 144 243q114 105 257 105q197 0 197 -208q-9 -99 -87 -181q-81 -84 -179 -86zM733 1409q0 123 -110 123q-115 0 -148 -119
q0 -139 119 -139q125 14 139 135z" />
    <glyph glyph-name="uni0E23" unicode="&#xe23;" horiz-adv-x="1401" 
d="M713 442l106 594l-602 193q40 123 161 257q137 150 249 152q51 1 176 -32l183 -47q69 -15 169 -15q57 6 180 94q-129 -290 -291 -290q-62 0 -233 58q-178 60 -233 60q-13 0 -37 -8q-144 -63 -168 -164l676 -221l-136 -778q-25 -141 -137 -220q-104 -75 -252 -75
q-217 0 -217 229q70 238 275 238q81 0 131 -25zM688 229q0 150 -123 148q-53 -1 -96 -41t-55 -94q0 -140 110 -140q136 0 164 127z" />
    <glyph glyph-name="uni0E24" unicode="&#xe24;" horiz-adv-x="1618" 
d="M758 242q-36 -219 -275 -242q-266 0 -266 291l139 794h-163q0 104 161 299q209 253 580 254q303 0 448 -226q68 -107 68 -241q0 -41 -8 -86l-275 -1548l-151 -180h-107l312 1753q0 179 -74 275q-78 100 -270 102q-279 4 -400 -104q-117 -104 -153 -195h458l-16 -103h-184
l-115 -655q44 21 102 21q189 0 189 -209zM565 365q-56 0 -107 -34q-55 -36 -65 -89q0 -144 111 -144q142 0 155 144q0 107 -94 123z" />
    <glyph glyph-name="uni0E25" unicode="&#xe25;" horiz-adv-x="1618" 
d="M451 475q56 21 102 21q168 0 209 -131q8 -42 8 -62q0 -133 -101 -220q-96 -83 -231 -83q-245 0 -245 258q0 29 8 74l86 479q29 162 168 287q132 120 299 151q43 8 65 8q106 0 221 -53q126 -58 172 -143l25 151q0 138 -132 224q-115 75 -261 75q-316 0 -498 -176
q-64 -62 -96 -110l-12 123q119 128 299.5 209t351.5 81q216 0 375 -80q202 -101 202 -296q0 -24 -8 -70l-209 -1192h-225l152 852q0 123 -105 204q-97 74 -223 74q-169 0 -276 -167q-46 -73 -60 -148zM360 246q0 -156 132 -156q143 0 172 148q0 163 -127 163
q-151 0 -177 -155z" />
    <glyph glyph-name="uni0E26" unicode="&#xe26;" horiz-adv-x="1700" 
d="M377 504l106 602h-172l8 57q6 44 97 166q229 308 620 309q293 0 432 -221q68 -109 68 -254l-287 -1618l-164 -192h-94l324 1823q0 152 -124 226q-128 75 -290 73q-196 -3 -310 -102.5t-149 -164.5h447l-17 -102h-163l-152 -860q-18 -104 -115.5 -175t-212.5 -71
q-90 0 -141 86q-43 72 -43 168q44 250 332 250zM422 258q0 142 -123 139q-126 -3 -152 -139q0 -143 103 -147q60 -2 113 42q50 42 59 105z" />
    <glyph glyph-name="uni0E27" unicode="&#xe27;" horiz-adv-x="1450" 
d="M1176 279q-22 -122 -136 -203q-109 -76 -237 -76q-93 0 -155 51q-66 55 -66 146q0 16 8 57q18 94 98 159.5t176 65.5q57 0 115 -33l135 771q0 260 -283 290q-250 0 -460 -212q-77 -77 -88 -103l-58 78q79 158 324 293q137 75 299 75q208 0 343 -101q152 -112 152 -312z
M672 233q0 -142 131 -139q148 4 168 144q0 151 -127 151q-62 0 -112.5 -47t-59.5 -109z" />
    <glyph glyph-name="uni0E28" unicode="&#xe28;" horiz-adv-x="1597" 
d="M528 799l-139 -799h-225l115 651q0 35 -31 122q-40 113 -44 130q-16 60 -16 174q40 363 435 504q149 53 282 53q228 0 324 -86q33 -26 97 -82q17 -18 46 -61q168 143 168 373h209q-53 -220 -119 -324q-73 -116 -180 -201l-221 -1253h-225l196 1106q-33 -9 -160 -53
q-30 -10 -114 -54q-14 -141 -119 -200q-87 -49 -156 -49q-68 0 -123 49zM676 1245q103 0 146 -20q56 -27 91 -111q141 26 291 127q-55 129 -148 174q-103 50 -278 55q-142 4 -293 -97q-145 -98 -178 -247q-8 -36 -8 -86q0 -60 49 -143q0 160 181 292q77 56 147 56zM565 987
q0 -127 107 -127q135 0 155 127q0 135 -110 135q-120 0 -152 -135z" />
    <glyph glyph-name="uni0E29" unicode="&#xe29;" horiz-adv-x="1806" 
d="M549 1241q-63 -37 -127 -37q-107 0 -156 78q-20 26 -20 82q0 122 94 200q89 74 213 74q250 0 250 -266l-78 -446q49 106 217 106q139 0 139 -131q0 -80 -37 -131l-122 -29q28 29 28 78q0 74 -57 74q-97 0 -139 -74q-21 -37 -21 -69q0 -79 82 -133q73 -48 156 -48
q130 0 239 59q105 57 125 167l123 688l184 155h70l-250 -1400q-13 -75 -151 -168q-104 -70 -213 -70h-946l16 102h180zM332 1409q0 -129 127 -127q50 1 98 41q44 37 53 90q0 135 -114 135q-142 0 -164 -139zM1024 102q80 0 131 45q79 70 86 111l57 328q-157 -117 -352 -111
q-173 5 -274 143l-94 -516h446z" />
    <glyph glyph-name="uni0E2A" unicode="&#xe2a;" horiz-adv-x="1802" 
d="M1311 0h-226l148 848q0 274 -361 274q-120 -14 -197 -99q-82 -90 -102 -208l-61 -352q43 12 82 12q141 0 184 -115q13 -35 13 -73q0 -118 -84.5 -200.5t-202.5 -82.5q-250 0 -250 254q0 29 8 74l86 479q30 166 197 315q162 144 381 144q77 0 131 -17l184 74
q-53 72 -146 124q-101 57 -218 52q-138 -6 -278 -76q-230 -115 -308 -239l-70 78q110 135 419 294q152 78 273 78q363 0 553 -213q101 60 144 144q53 104 53 205h209q0 -140 -111 -287q-84 -111 -217 -164zM406 246q0 -148 110 -148q120 0 168 123q0 168 -115 168
q-141 0 -163 -143zM1118 1217q48 -15 103 -70q31 -43 65 -86q29 0 29 119q0 39 -29 82z" />
    <glyph glyph-name="uni0E2B" unicode="&#xe2b;" horiz-adv-x="1913" 
d="M1774 1319q-30 -110 -172 -156l16 -102l-188 -1061h-234l197 1118q-81 -26 -107 -41q-301 -172 -561 -491q-60 -73 -70 -131l-82 -455h-225l209 1184q-41 -21 -106 -21q-87 0 -148 55q-64 57 -61 146t90 183q83 91 184 91q295 0 295 -286l-119 -668q213 222 361 336
q210 162 282 209q-32 44 -32 119q0 118 81 192q103 94 222 94q188 0 188 -196q0 -46 -20 -119zM344 1389q0 -130 119 -127q115 3 143 122q0 121 -94 136q-149 0 -168 -131zM1405 1376q0 -127 123 -127q132 0 155 127q0 148 -106 152q-59 2 -111 -44.5t-61 -107.5z" />
    <glyph glyph-name="uni0E2C" unicode="&#xe2c;" horiz-adv-x="1864" 
d="M467 1155q-202 0 -221 160q0 119 82 217q87 104 204 102q201 -3 201 -250l-188 -1048l610 1171l172 -1163l156 889q-168 26 -168 209q0 53 20 102q34 84 113 138q76 51 166 51q87 0 146 -55.5t59 -141.5q45 56 45 74q24 80 24 123h176q-9 -54 -38 -166
q-48 -132 -158 -211q-134 -97 -156 -107l-221 -1249h-225l-176 1167l-603 -1167h-225zM1397 1470q0 -131 135 -131q160 0 188 152q0 168 -127 168q-72 0 -134 -58.5t-62 -130.5zM344 1376q0 -119 107 -119q138 0 167 132q0 147 -110 147q-61 0 -109.5 -49t-54.5 -111z" />
    <glyph glyph-name="uni0E2D" unicode="&#xe2d;" horiz-adv-x="1614" 
d="M315 975q21 116 126 203.5t223 87.5q19 0 57 -9q164 -39 164 -196q0 -163 -151 -249q-73 -42 -148 -42q-42 0 -78 12l-74 -413q0 -124 72 -191q77 -72 186 -76q125 -4 254 74q120 72 139 180l148 820q0 219 -152 282q-140 58 -274 58q-249 0 -415 -184q-49 -70 -109 -140
q-18 -1 -66 45q0 89 218 259q91 71 200 101q134 37 283 37q343 0 487 -204q53 -75 53 -250l-143 -807q-30 -168 -354 -311q-141 -62 -261 -62q-172 0 -323 102q-168 114 -168 279zM500 1016q0 -144 118 -144q62 0 112 47t56 109q0 127 -122 127q-142 0 -164 -139z" />
    <glyph glyph-name="uni0E2E" unicode="&#xe2e;" horiz-adv-x="1520" 
d="M1114 1466q42 49 57 82q19 43 29 90h238q-71 -203 -238 -303l25 -90l-152 -844q-44 -246 -323 -353q-125 -48 -254 -48q-193 0 -307.5 114.5t-114.5 307.5l57 332q23 131 153 214q127 81 273 81q188 -21 188 -205q0 -35 -12 -90q-19 -86 -104 -138q-76 -47 -170 -47
q-76 0 -127 37l-41 -241q0 -259 233 -259q114 0 208 79q91 76 112 192l151 848q-171 -111 -327 -111q-51 0 -82 4q-286 36 -312 180q0 104 73 179q68 71 145 104q133 57 237 57q113 0 229 -57q96 -47 156 -115zM967 1339q-35 79 -90 118q-61 42 -193 46q-121 4 -221 -55
q-94 -56 -98 -100q0 -74 98 -116q75 -32 160 -32q204 0 344 139zM356 799q0 -64 39 -103t92 -37q56 2 105 45q46 39 55 95q0 151 -123 151q-135 0 -168 -151z" />
    <glyph glyph-name="uni0E2F" unicode="&#xe2f;" horiz-adv-x="1638" 
d="M672 1110q-26 82 -123 82q-13 0 -45 -8q-125 -31 -139 -180q0 -66 46 -105q49 -42 117 -39q74 3 167 84q200 173 243 461q11 72 69 148q65 85 132 85h319l-291 -1638h-225l238 1352q0 78 -37 78q-79 0 -123 -141q-21 -67 -29 -85q-107 -230 -278 -377q-109 -94 -262 -94
q-94 0 -164 49q-103 72 -103 209q0 77 41 160q51 103 131 159q84 58 185 58q164 0 164 -74z" />
    <glyph glyph-name="uni0E30" unicode="&#xe30;" horiz-adv-x="1466" 
d="M676 1126q187 0 332 99q191 131 229 360h139q-49 -278 -303 -463q-208 -151 -459 -147q-218 4 -323 119q-62 68 -62 159q0 57 4 82q15 90 110 170q99 82 177 84q223 4 271 -131q16 -45 16 -86q0 -141 -131 -246zM508 160q188 0 328 98q189 132 233 360h139
q-46 -273 -303 -462q-206 -152 -463 -148q-216 3 -323 119q-62 82 -62 152q0 22 9 90q12 93 105 170q99 82 181 84q221 4 266 -131q17 -38 17 -91q0 -140 -127 -241zM385 524q-73 0 -133.5 -52t-71.5 -124q0 -160 135 -160q73 0 133 48.5t72 119.5q0 168 -135 168zM553 1491
q-73 0 -131.5 -52t-69.5 -124q0 -160 135 -160q73 0 133 48.5t72 119.5q0 168 -139 168z" />
    <glyph glyph-name="uni0E31" unicode="&#xe31;" horiz-adv-x="0" 
d="M-254 2085q188 0 328 98q190 133 229 361h139q-47 -277 -299 -463q-204 -150 -462 -148q-109 1 -189 28q-74 24 -135 91q-62 82 -62 152q0 16 9 90q11 91 105 170q100 82 181 84q223 4 267 -131q16 -49 16 -86q0 -145 -127 -246zM-381 2449q-73 0 -131.5 -52t-69.5 -124
q0 -159 136 -159q73 0 132.5 48t71.5 119q0 168 -139 168z" />
    <glyph glyph-name="uni0E32" unicode="&#xe32;" horiz-adv-x="1167" 
d="M266 1335l-12 99q136 161 303 188q76 12 139 12q201 0 295 -123q78 -102 78 -200l-229 -1311h-226l226 1270q0 142 -78 200q-67 50 -144 50q-56 0 -135 -25q-127 -40 -217 -160z" />
    <glyph glyph-name="uni0E33" unicode="&#xe33;" horiz-adv-x="1188" 
d="M246 1335l-12 99q136 161 303 188q76 12 139 12q201 0 295 -123q78 -102 78 -200l-229 -1311h-226l226 1270q0 142 -78 200q-67 50 -144 50q-56 0 -135 -25q-127 -40 -217 -160zM217 2290q-27 -130 -128 -221q-106 -95 -236 -95q-250 0 -250 316q21 128 133 218
q117 92 244 89q106 -3 173 -87q64 -81 64 -220zM-274 2277q0 -191 155 -188q73 2 133 61q56 57 68 131q0 174 -123 185q-199 0 -233 -189z" />
    <glyph glyph-name="uni0E34" unicode="&#xe34;" horiz-adv-x="0" 
d="M-1169 2093q107 319 440 466q154 67 309 67q45 0 119 -13q188 -33 296 -171q105 -135 105 -328q0 -99 -20 -177q-315 157 -737 189q-104 8 -148 8q-123 0 -364 -41zM-490 2216q218 -18 492 -127q-28 152 -136 258q-118 115 -274 119q-385 10 -606 -258q178 20 283 20
q96 0 241 -12z" />
    <glyph glyph-name="uni0E35" unicode="&#xe35;" horiz-adv-x="0" 
d="M-814 2048q-50 4 -110 4q-126 0 -402 -57q84 271 324 426q177 114 393 114q224 0 361 -110l49 266h225l-90 -504q29 -103 29 -159q0 -86 -5 -144q-284 125 -774 164zM-646 2126q243 -18 492 -115q-68 334 -418 373q-36 4 -82 4q-315 0 -536 -287q178 33 344 33
q90 0 200 -8z" />
    <glyph glyph-name="uni0E36" unicode="&#xe36;" horiz-adv-x="0" 
d="M72 1885q-196 83 -346 120q-133 33 -362 52q-109 9 -221 9q-144 0 -361 -25q106 292 393 442q173 90 328 90q100 0 205 -36q18 113 112 198.5t207 83.5q101 -1 165.5 -64.5t64.5 -164.5q0 -52 -25 -111q-63 -150 -229 -176q68 -112 78 -217q0 -123 -9 -201zM-456 2142
q123 -10 197 -32q85 -25 233 -85q-32 149 -141 255q-113 110 -273 113q-217 4 -364 -58q-137 -59 -250 -188q136 13 250 13q104 0 348 -18zM15 2705q-64 2 -121.5 -45.5t-66.5 -110.5q0 -143 135 -143q117 0 159 126q9 17 9 54q0 116 -115 119z" />
    <glyph glyph-name="uni0E37" unicode="&#xe37;" horiz-adv-x="0" 
d="M1 2798h205l-110 -635q26 -107 28 -176q2 -67 -8 -127q-249 127 -704 184q-71 8 -119 8q-159 0 -434 -57q65 266 315 430q194 127 418 127l45 250h184l-49 -275q104 -25 164 -106zM-490 2126q243 -19 496 -127q-63 321 -390 364q-69 9 -94 9q-304 0 -524 -271l174 20
l162 13q59 1 176 -8z" />
    <glyph glyph-name="uni0E38" unicode="&#xe38;" horiz-adv-x="0" 
d="M-692 -553q-39 -16 -90 -16q-139 0 -181 90q-16 48 -16 82q0 98 78 192t233 94q139 0 185 -57q53 -65 53 -184l-78 -434h-225zM-729 -221q-140 0 -156 -135q0 -123 107 -123q139 0 155 127q0 131 -106 131z" />
    <glyph glyph-name="uni0E39" unicode="&#xe39;" horiz-adv-x="0" 
d="M-1020 -569q-47 -14 -82 -13q-128 5 -172 90q-24 46 -24 103q0 100 77 180q87 90 197 90q47 0 98 -20q107 -42 107 -172l-53 -291q0 -103 86 -103q83 0 98 82l86 476h225l-94 -521q-13 -71 -105 -119q-100 -52 -194 -49q-254 9 -254 222zM-1036 -229q-131 0 -160 -131
q0 -130 115 -127q118 3 139 122q0 136 -94 136z" />
    <glyph glyph-name="uni0E3A" unicode="&#xe3a;" horiz-adv-x="0" 
d="M-729 -397q28 159 197 159q131 0 131 -168q-12 -65 -67.5 -112t-121.5 -47q-139 0 -139 168z" />
    <glyph glyph-name="uni0E3F" unicode="&#xe3f;" horiz-adv-x="1802" 
d="M983 1647q-176 0 -188 -66l-107 -610h176zM1073 967q274 36 328 336q12 66 12 110q0 206 -213 242h-8zM709 82l135 778h-176l-111 -639q0 -139 152 -139zM1049 831l-131 -749q176 15 267 104q95 93 126 293q8 52 8 99q0 214 -270 253zM705 -20h-730l9 53q261 0 290 164
l242 1355q0 164 -233 164l8 53h708l45 246h205l-45 -241q484 -33 484 -357q0 -31 -13 -106q-53 -305 -426 -389l-4 -4q381 -75 381 -373q0 -28 -8 -74q-85 -491 -725 -491l-21 -140h-192z" />
    <glyph glyph-name="uni0E40" unicode="&#xe40;" horiz-adv-x="688" 
d="M578 1638l-205 -1159q164 0 164 -221q-18 -101 -99 -177q-83 -79 -184 -81q-89 -1 -151 51q-66 55 -66 142q0 17 8 53q25 111 90 176l184 1053l197 163h62zM446 250q0 147 -147 147q-129 -13 -164 -143q0 -176 123 -176q155 0 188 172z" />
    <glyph glyph-name="uni0E41" unicode="&#xe41;" horiz-adv-x="1544" 
d="M578 1638l-205 -1159q164 0 164 -221q-18 -101 -99 -177q-83 -79 -184 -81q-89 -1 -151 51q-66 55 -66 142q0 17 8 53q25 111 90 176l184 1053l197 163h62zM446 250q0 147 -147 147q-129 -13 -164 -143q0 -176 123 -176q155 0 188 172zM1398 1638l-205 -1159
q164 0 164 -221q-18 -101 -99 -177q-83 -79 -184 -81q-89 -1 -151 51q-66 55 -66 142q0 17 8 53q25 111 90 176l184 1053l197 163h62zM1266 250q0 147 -147 147q-129 -13 -164 -143q0 -176 123 -176q155 0 188 172z" />
    <glyph glyph-name="uni0E42" unicode="&#xe42;" horiz-adv-x="1401" 
d="M1229 2056l-279 -1577q160 0 160 -221q-15 -102 -98 -180t-185 -78q-89 0 -151 51q-66 55 -66 142q0 17 8 53q30 133 99 200l287 1631l-582 311q15 73 257 216q111 65 251 91q90 0 271 -125q99 -69 154 -82q27 -5 42 -6q68 0 113 63q19 27 26 31h66q-38 -93 -157 -208
q-65 -62 -134 -82q-76 0 -325 139q-131 72 -183 86q-69 0 -197 -103zM1028 246q0 155 -160 155q-146 -14 -172 -159q0 -164 135 -164q167 0 197 168z" />
    <glyph glyph-name="uni0E43" unicode="&#xe43;" horiz-adv-x="1253" 
d="M1204 2351l-327 -1872q96 0 131.5 -57.5t35.5 -163.5q-18 -101 -98 -177q-84 -79 -184 -81q-209 -3 -209 246q19 124 90 205l336 1892q0 170 -139 197q-200 0 -303 -173q-45 -76 -45 -151q0 -66 32 -111q49 -69 111 -69q55 0 115 45q28 21 28 86q0 147 -90 147l57 53
q111 -40 111 -225q-28 -164 -201 -205q-115 0 -188.5 71.5t-73.5 186.5q0 38 8 78q84 418 500 414q176 -1 241 -96q62 -91 62 -240zM958 246q0 155 -155 155q-137 -14 -164 -143q0 -180 127 -180q160 0 192 168z" />
    <glyph glyph-name="uni0E44" unicode="&#xe44;" horiz-adv-x="1409" 
d="M1376 2507l-356 -2024q151 0 151 -229q-18 -102 -98 -176q-83 -78 -184 -78q-90 0 -151 51q-66 54 -66 142q0 17 8 53q30 133 102 205l365 2052q0 106 -57 106q-102 -15 -119 -110l-74 -418q-11 -64 -80 -128q-72 -66 -141 -69q-78 -3 -137 57q-56 57 -56 144l99 573
q0 73 -90 140q0 32 28 41q96 0 180 -54q50 -24 50 -94q-1 -18 -9 -61l-94 -537q0 -113 53 -115q40 -2 73 38q29 36 38 85l66 373q17 94 114 171t193 75q192 -3 192 -213zM1094 258q0 152 -160 152q-58 -8 -110 -55.5t-62 -104.5q0 -172 131 -172q171 0 201 180z" />
    <glyph glyph-name="uni0E45" unicode="&#xe45;" horiz-adv-x="1196" 
d="M258 1335l-8 74q169 231 397 229q422 -3 422 -327l-344 -1950h-225l340 1917q0 111 -54 174q-58 66 -147 68q-148 4 -251 -67q-99 -67 -130 -118z" />
    <glyph glyph-name="uni0E46" unicode="&#xe46;" horiz-adv-x="1741" 
d="M475 1081l103 74q106 -33 106 -172q0 -72 -33 -123q-60 -94 -184 -94q-100 0 -188 57q-95 61 -95 185q0 135 103 315q77 134 340 265q101 50 131 50l139 -204l213 204q57 0 156 -55q94 -52 135 -100q102 -121 102 -234l-315 -1773h-225l311 1761q0 75 -49 147
q-71 82 -131 82q-27 0 -45 -16l-181 -164l-102 139q-43 58 -98 58q-44 0 -115 -49q-169 -116 -217 -205q-53 -98 -53 -205q0 -64 24 -94q53 -66 127 -66q52 0 78 33q20 20 20 66q0 111 -57 118z" />
    <glyph glyph-name="uni0E47" unicode="&#xe47;" horiz-adv-x="0" 
d="M-167 2138q-107 0 -152 62q-16 22 -16 57q0 49 33 98q42 62 139 62q45 0 70 -9q71 -25 98 -135q8 -33 8 -61q0 -102 -86 -197q-97 -107 -262 -106q-84 0 -182 59q-29 18 -88 51q-80 45 -123 45q-19 0 -42 -8.5t-56 -53t-33 -69.5q-109 52 -152 156q-29 71 -29 139
q0 240 168 344q100 62 262 62q40 0 125 -7q82 -7 125 -6q79 1 107 7q54 10 92 49q26 26 55 88q51 110 45 190q-4 47 9 47h204q0 -172 -72 -288.5t-243 -198.5q-85 -41 -221 -41l-86 2l-86 2q-22 0 -65 2q-44 2 -66 2q-119 0 -176 -65q-74 -84 -74 -176q0 -87 61 -136
q51 99 140 115q91 0 208 -57q50 -35 156 -96q35 -16 78 -15q58 2 127 86z" />
    <glyph glyph-name="uni0E48" unicode="&#xe48;" horiz-adv-x="0" 
d="M-147 2642h286l-164 -639h-184z" />
    <glyph glyph-name="uni0E49" unicode="&#xe49;" horiz-adv-x="0" 
d="M-762 1790l24 135q176 0 283 107q104 104 118 221q-48 -8 -65 -8q-86 0 -160 61q-57 47 -57 139q0 59 29 123q40 87 107 133q75 51 159 52q241 4 241 -218q0 -105 -17 -161q-20 -68 -69 -166q-53 -104 -151 -209q138 58 273 170q147 123 206 244q138 283 143 462h177
q-7 -198 -141 -464q-156 -312 -461 -455q-352 -166 -639 -166zM-332 2666q-69 0 -126 -51.5t-63 -120.5q0 -143 131 -143q141 0 176 148q0 167 -118 167z" />
    <glyph glyph-name="uni0E4A" unicode="&#xe4a;" horiz-adv-x="0" 
d="M-593 2060q-40 42 -40 82q0 30 8 49q41 95 151 95q17 0 41 -9q65 -25 62 -118q-3 -119 -127 -185q-53 -28 -115 -28q-76 0 -164 49q-127 71 -127 360q29 184 172 320q107 102 180 102q17 0 33 -16l144 -193l196 180q27 25 58 25q94 0 176 -127q32 -72 32 -201
q-16 -129 -90 -233q133 79 213 209q66 107 66 303q0 129 -12 168l172 74q24 -105 24 -189q0 -102 -37 -225q-67 -223 -250 -381q-208 -179 -385 -229l-28 102q98 71 154 183q15 29 26 108q0 286 -102 286q-24 0 -50 -24l-180 -168l-147 188q-50 0 -131 -91q-73 -80 -95 -138
q-32 -83 -32 -143q0 -98 78 -148q58 -37 126 -37z" />
    <glyph glyph-name="uni0E4B" unicode="&#xe4b;" horiz-adv-x="0" 
d="M-184 2413l57 331h225l-57 -331h332l-41 -226h-332l-57 -332h-226l58 332h-332l41 226h332z" />
    <glyph glyph-name="uni0E4C" unicode="&#xe4c;" horiz-adv-x="0" 
d="M-544 2253q60 230 287 254l166 19q85 15 153 59q221 142 234 401l201 -139q-176 -370 -557 -443q45 -59 45 -135q0 -129 -111 -229q-91 -82 -201 -82q-82 0 -143 49q-82 65 -82 172q0 43 8 74zM-433 2224q0 -147 123 -147q135 0 164 139q0 156 -115 156q-62 0 -112.5 -43
t-59.5 -105z" />
    <glyph glyph-name="uni0E4D" unicode="&#xe4d;" horiz-adv-x="0" 
d="M-618 2163q21 133 129.5 226t242.5 93q258 0 258 -307q-25 -133 -124 -229q-102 -100 -228 -103q-122 -3 -202 86q-76 85 -76 234zM-471 2163q0 -176 164 -176q136 20 164 176q0 172 -123 176q-69 2 -132.5 -52t-72.5 -124z" />
    <glyph glyph-name="uni0E4E" unicode="&#xe4e;" horiz-adv-x="0" 
d="M-61 1999q-73 -66 -189 -66q-143 0 -201 95q-28 46 -28 114q0 110 69 189q107 123 279 123q-123 15 -123 167q23 109 125 186q94 71 211 85q190 0 258 -37l-143 -127q-18 0 -52 8l-39 8q-34 0 -65 -8q-107 -28 -135 -131q0 -119 151 -119l-77 -131q-167 0 -246 -78
q-45 -45 -45 -106q0 -33 8 -45q17 -41 86 -41q70 0 106 37z" />
    <glyph glyph-name="uni0E4F" unicode="&#xe4f;" horiz-adv-x="1753" 
d="M684 0q-262 4 -422 172q-156 162 -156 426q0 78 17 168q76 404 453 600q177 92 370 92q362 0 528 -277q78 -131 78 -296q0 -63 -12 -127q-62 -329 -296 -544q-239 -219 -560 -214zM1425 758q9 57 9 102q0 221 -144 360q-141 136 -364 136q-346 0 -571 -296
q-105 -137 -126 -294q-8 -60 -8 -102q0 -323 233 -484q112 -78 255 -78q364 0 587 331q101 151 129 325zM905 1085q125 -1 199 -81q78 -85 72 -218q-6 -140 -138 -254q-127 -110 -276 -110q-121 0 -202 81t-81 202q0 35 13 81q38 137 153 217q119 84 260 82z" />
    <glyph glyph-name="uni0E50" unicode="&#xe50;" horiz-adv-x="1647" 
d="M885 1200q299 0 442 -248q66 -115 66 -256q0 -46 -9 -98q-59 -341 -395 -517q-153 -81 -317 -81q-338 0 -498 242q-76 114 -76 258q0 49 8 98q28 169 149 310q252 293 630 292zM348 598q0 -178 88 -291q96 -125 269 -127q215 -2 360 212q66 98 86 206q8 44 8 74
q0 141 -84 236q-87 97 -227 100q-96 2 -211 -55q-246 -122 -289 -355z" />
    <glyph glyph-name="uni0E51" unicode="&#xe51;" horiz-adv-x="1655" 
d="M754 319l-95 -24q-15 0 -41 8q-122 56 -122 164q0 89 76.5 173.5t164.5 84.5q108 0 172 -72q62 -68 62 -178q0 -23 -8 -74q-20 -127 -164 -258q-153 -139 -357 -139q-213 22 -315 205q-49 88 -49 192q0 66 24 189q41 209 168 344q239 254 566 258q282 4 442 -184
q123 -144 123 -324q0 -65 -17 -147q-26 -125 -120 -269q-68 -104 -166 -211q-137 -151 -205 -151q-19 0 -35 22q-10 14 -10 31q0 38 86 131l119 127q159 199 159 393q0 62 -24 115q-123 270 -369 270q-236 0 -410 -180q-93 -97 -135 -262q-12 -48 -12 -94q0 -275 234 -303
q57 0 88 11q37 12 84 58q72 70 86 94z" />
    <glyph glyph-name="uni0E52" unicode="&#xe52;" horiz-adv-x="2327" 
d="M1049 369q-54 52 -54 114q0 41 9 62q48 147 221 147q110 -26 110 -196q-28 -170 -192 -213q-80 -21 -144 -21q-143 0 -225 94q-78 89 -78 222q0 109 58 241q94 214 315 294q84 30 131 30q268 0 348 -205q142 229 361 229q205 -20 205 -331q0 -189 -99 -402
q-70 -150 -217 -283q-168 -151 -311 -151h-1041q-152 0 -221 78q-49 55 -49 209l217 1229l21 110q0 28 -13 57q-18 73 -86 111q74 74 197 74q59 0 102 -25q62 -36 62 -106q0 -14 -12 -82l-238 -1344q0 -94 29 -123q45 -45 98 -45h987q96 0 210 145q97 124 130 236
q37 125 37 213q0 160 -127 205q-68 0 -188 -90q-9 -4 -9 -29q0 -17 2 -51t2 -51q0 -117 -36 -221q-95 -275 -201 -275q-8 4 -8 17q0 22 41 110q47 104 53 123q29 92 29 172q0 208 -181 258q-47 13 -90 13q-178 0 -286 -144q-74 -99 -74 -201q0 -52 24 -98q52 -100 181 -106z
" />
    <glyph glyph-name="uni0E53" unicode="&#xe53;" horiz-adv-x="2089" 
d="M557 184q-79 0 -123 58q-28 37 -28 94q0 68 40 127q71 106 234 106q144 -17 147 -188q4 -187 -176 -303q-114 -74 -209 -74q-82 0 -151 49q-186 131 -189 381q-3 281 185 496q236 270 516 270q63 0 123 -12q198 -40 291 -213q127 217 294 213q371 -9 369 -373
q-2 -309 -176 -549q-193 -266 -295 -266q-61 0 -61 66q0 38 92 133q109 112 125 141q131 231 131 389q0 70 -25 111q-84 139 -164 139q-23 0 -53 -12q-149 -60 -186 -246q-17 -139 -80 -377q-48 -103 -127 -206q-106 -138 -180 -138q-25 0 -41 16q-21 16 -21 45q0 42 99 160
q53 64 75 96q40 58 51 109q58 258 58 319q0 154 -119 209q-97 45 -197 45q-195 0 -331 -155q-54 -60 -148 -187q-57 -97 -57 -239q20 -227 201 -258q44 0 106 24z" />
    <glyph glyph-name="uni0E54" unicode="&#xe54;" horiz-adv-x="2097" 
d="M1061 586q-2 -94 43 -159q42 -62 133 -132q66 -51 251 -82q88 -15 114 -29q40 -14 116 -49q23 -14 23 -33q0 -24 -62 -53q-95 -45 -123 -45q-24 0 -57 25q-79 61 -393 61q-98 0 -284 -41q-213 -48 -285 -49q-290 -5 -402 193q-53 94 -53 200q0 119 70 254
q140 269 544 434q149 61 388 128l325 94q262 87 303 311q8 44 8 123q65 65 144 65q35 0 53 -24q20 -35 20 -74q0 -114 -106 -258q-87 -119 -263 -207q-70 -35 -315 -129l-448 -133q-89 -31 -187 -92q-119 -73 -201 -209q-85 -140 -85 -275q42 -240 413 -245q172 -2 328 82
q-126 48 -168 180q-16 51 -16 114q0 94 53 177q134 209 328 209q66 0 131 -29q123 -40 123 -160q0 -28 -13 -57q-58 -172 -200 -180q-69 -4 -125 37q-54 37 -56 102q-2 54 29 123l-73 -67q-23 -28 -25 -101z" />
    <glyph glyph-name="uni0E55" unicode="&#xe55;" horiz-adv-x="2163" 
d="M1450 1421q-2 -78 -53 -159q102 12 184 65q119 78 162 118q80 75 100 169q8 38 8 123q80 73 156 73q42 0 66 -28q16 -23 16 -58q0 -111 -135 -286q-153 -199 -369 -287q-171 -70 -328 -70q-136 -24 -237 -73l-264 -120q-441 -202 -441 -495q47 -254 328 -254q56 0 94 8
l372 52q69 13 132 47q-122 53 -168 196q-16 50 -16 119q0 108 57 197q128 200 352 200q73 0 140 -28q123 -51 123 -176q0 -21 -13 -58q-61 -171 -196 -188q-189 0 -193 139q-2 60 33 127q-37 -20 -92 -76q-14 -26 -23 -88q0 -87 40 -150q18 -29 104 -120q66 -71 204 -147
q115 -47 115 -78q0 -24 -37 -66q-50 -57 -98 -57q-35 0 -82 37q-57 45 -389 45q-101 0 -291 -33q-111 -20 -283 -41q-289 -6 -401 193q-53 94 -53 204q0 254 223 418q150 109 534 262l132 53q10 4 12 5q-66 35 -98 122q-17 47 -17 95q0 143 123 258q87 82 246 82
q88 0 119 -25q105 -84 102 -246zM1278 1401q0 135 -94 135q-115 0 -131 -139q0 -119 135 -119q76 39 90 123z" />
    <glyph glyph-name="uni0E56" unicode="&#xe56;" horiz-adv-x="1749" 
d="M340 1819q44 49 90 49q74 0 141 -94q125 -177 125 -344q0 -200 -78 -349q165 86 316 86q89 0 176 -24q369 -101 369 -459q0 -28 -9 -86q-53 -344 -376 -520q-150 -82 -312 -82q-281 0 -427 217q-68 101 -68 221q16 110 95 197q84 91 187 86q164 -8 164 -193
q-35 -176 -237 -176q64 -217 299 -217q219 0 370 215q66 96 92 211q13 58 13 111q0 141 -74 242q-81 112 -217 114q-119 2 -383 -103q-145 -57 -203 -57q-57 18 -57 29q0 49 60 112q73 75 87 106q42 100 45 257q1 84 -134 255q-79 98 -79 142q0 26 25 54z" />
    <glyph glyph-name="uni0E57" unicode="&#xe57;" horiz-adv-x="2195" 
d="M549 152q-33 38 -33 98q0 89 69 169t177 77q143 -3 143 -213q-23 -117 -126 -195q-110 -85 -230 -88q-184 -5 -320 150q-131 150 -131 358q0 53 8 102q22 136 128 277q231 309 499 309q213 -27 254 -270q53 120 156 194t221 72q136 -3 195 -123t59 -278q0 -80 -12 -127
q-79 -312 -168 -435q160 118 270 300q115 190 135 380q8 85 8 127q0 401 -372 582l49 266q247 -75 385 -291q119 -187 119 -397q0 -132 -54 -336q-99 -374 -424 -664q-148 -132 -292 -204l-127 123q180 122 249 315q54 150 54 299q0 234 -181 234q-108 -11 -201 -105
t-114 -203q0 155 -144 260q-67 48 -143 48q-207 0 -326 -242q-57 -114 -59 -213q-3 -142 72 -240q71 -95 207 -116z" />
    <glyph glyph-name="uni0E58" unicode="&#xe58;" horiz-adv-x="2056" 
d="M758 1122q115 2 300 -63q167 -60 261 -60q68 0 139 21q207 61 275 422q45 238 45 295q0 39 -9 98q190 -6 213 -119q0 -198 -81 -405q-110 -282 -303 -430q-97 -74 -197 -90q-31 -5 -82 -5q-97 0 -248 55q-164 60 -268 60q-385 2 -496 -254q-37 -85 -37 -172
q0 -137 111 -229l41 120q30 68 75 99q49 34 150 35q73 0 212 -139q148 -148 247 -193q63 -29 115 -29q67 0 111 49q17 19 20 21q-71 0 -126 67q-51 63 -50 134q1 82 78 141q71 55 155 55q176 0 176 -229q0 -19 -8 -66q-22 -130 -124 -215q-109 -91 -245 -96q-93 -3 -157 24
q-60 25 -191 99q-53 42 -165 118q-38 21 -81 21q-31 0 -53 -8q-74 -27 -74 -156q0 -64 17 -98q-182 19 -295 150q-111 128 -111 313q0 95 29 184q69 211 240 341t391 134z" />
    <glyph glyph-name="uni0E59" unicode="&#xe59;" horiz-adv-x="1671" 
d="M115 598q93 311 430 406q-176 44 -176 229q0 37 12 86q65 266 410 270q69 1 202 -24t199 -25q89 0 151 45q79 58 91 234q4 68 8 73q18 9 41 9q144 0 151 -66q0 -101 -94 -262q-97 -165 -295 -172q-42 -2 -223 6l-203 6q-229 0 -274 -151q0 -181 442 -181q66 0 107 4
q121 12 270 74q-7 -49 -39 -128q-40 -97 -72 -97q-47 20 -159 20q-148 0 -336 -24q-159 -20 -296 -121q-153 -113 -171 -260q0 -169 87 -290q98 -136 261 -136q66 0 127 24q191 75 266 250q-48 -16 -69 -16q-72 0 -126.5 50t-54.5 122q9 101 96 158q76 51 183 51
q156 -23 156 -205q0 -62 -17 -115q-136 -422 -590 -442q-138 -6 -266 64q-250 134 -250 407q0 57 21 127z" />
    <glyph glyph-name="uni0E5A" unicode="&#xe5a;" horiz-adv-x="1929" 
d="M614 1110q-33 111 -163 111q-82 -8 -126 -78q-48 -75 -51 -148q-2 -56 55 -96q54 -39 142 -39q128 27 282 176q147 143 205 369q17 65 93 153q70 80 116 80h312l-291 -1638h-225l237 1352q0 78 -37 78q-40 0 -108 -140q-32 -67 -43 -86q-172 -298 -365 -393
q-159 -78 -266 -78q-91 0 -152 49q-94 75 -94 209q0 78 41 160q52 104 127 159q80 58 180 58q164 0 164 -74zM1659 1626h229l-286 -1634l-230 8z" />
    <glyph glyph-name="uni0E5B" unicode="&#xe5b;" horiz-adv-x="3342" 
d="M741 16q-149 -4 -294 63q-302 139 -300 453q4 519 338 789q167 135 400 174q48 8 78 8q218 0 413 -135l-45 -180q-43 0 -101 46q-71 57 -98 67q-82 30 -198 30q-52 0 -86 -4q-288 -34 -446 -408q-70 -164 -70 -321q0 -414 413 -414q299 0 517 292l126 191
q106 160 115 160q8 0 83 -151q76 -151 110 -152q26 -1 149 157q54 74 146 150q43 1 111 -219q30 -100 40 -100l230 256q50 55 73 55q26 0 98 -147l88 -186q37 -64 105 -64q14 0 37 8q216 76 309 311l35 91h148q-101 -307 -193 -390q-185 -167 -336 -167q-183 0 -292 235
q-41 88 -40 92q-214 -255 -290 -282q-60 0 -123 152l-54 134q-242 -278 -290 -278q-53 22 -114 157l-34 76q-70 0 -121 -110q-74 -157 -91 -176q-88 -100 -226 -177q-145 -82 -320 -86z" />
    <glyph glyph-name="uni200B" unicode="&#x200b;" horiz-adv-x="0" 
 />
    <glyph glyph-name="endash" unicode="&#x2013;" 
d="M1374 598h-1398v96h1398v-96z" />
    <glyph glyph-name="emdash" unicode="&#x2014;" horiz-adv-x="2404" 
d="M2429 598h-2454v96h2454v-96z" />
    <glyph glyph-name="quoteleft" unicode="&#x2018;" horiz-adv-x="900" 
d="M960 1790q-209 -91 -209 -214q0 -25 8 -45q30 -29 73 -86q9 -21 9 -51q0 -55 -38 -97.5t-93 -42.5q-59 0 -98 46t-39 107q0 142 114 264q100 105 246 160z" />
    <glyph glyph-name="quoteright" unicode="&#x2019;" horiz-adv-x="900" 
d="M529 1296q99 44 161 114q48 53 48 100q0 27 -8 45q-32 29 -73 86q-9 21 -9 51q0 56 38 97.5t93 41.5q59 0 99 -48q38 -44 38 -105q0 -142 -114 -264q-100 -105 -246 -160z" />
    <glyph glyph-name="quotesinglbase" unicode="&#x201a;" horiz-adv-x="676" 
d="M34 -450l18 58q313 94 390 339q6 19 6 32q0 22 -19 22q-3 0 -16 -6t-30.5 -13t-38.5 -13t-41 -6q-107 0 -107 84q0 42 19 81t50.5 69t73 48.5t86.5 18.5q78 0 116 -48.5t38 -129.5q0 -93 -40.5 -175.5t-113 -151t-172.5 -121.5t-219 -88z" />
    <glyph glyph-name="quotedblleft" unicode="&#x201c;" horiz-adv-x="1504" 
d="M906 1790q-101 -41 -172 -123q-34 -39 -34 -96q0 -27 6 -44q29 -32 72 -96q9 -21 9 -45q0 -56 -39.5 -97.5t-95.5 -41.5q-132 0 -132 156q0 174 162 309q56 46 193 119zM1511 1790q-207 -115 -207 -215q0 -26 9 -48q28 -30 70 -92q10 -21 10 -46q0 -58 -39 -100t-96 -42
q-133 0 -133 155q0 255 360 420z" />
    <glyph glyph-name="quotedblright" unicode="&#x201d;" horiz-adv-x="1504" 
d="M1098 1298q98 39 171 121q35 41 35 94q0 26 -8 43q-28 34 -70 94q-10 22 -10 46q0 55 40.5 95.5t95.5 40.5q132 0 132 -156q0 -174 -163 -308q-57 -47 -194 -121zM492 1296q208 113 208 213q0 25 -10 46q-27 30 -70 92q-9 20 -9 45q0 56 39 97.5t95 41.5q134 0 134 -156
q0 -260 -360 -426z" />
    <glyph glyph-name="quotedblbase" unicode="&#x201e;" horiz-adv-x="1200" 
d="M46 -418l17 56q79 38 131.5 71t86.5 65.5t53 66.5t31 75q4 14 5.5 24.5l2.5 17.5q0 17 -9.5 24.5t-19.5 7.5q-7 0 -20.5 -3t-29 -7t-31 -7t-25.5 -3q-48 0 -74.5 26t-26.5 68q0 37 20.5 73t53 64t73.5 45.5t83 17.5q31 0 60.5 -12.5t52 -36t36.5 -56t14 -72.5
q0 -77 -38 -155t-104 -146.5t-154 -122t-188 -81.5zM676 -418l17 56q148 66 228.5 148.5t80.5 170.5q0 17 -7.5 25t-18.5 8q-9 0 -23.5 -3t-30 -7t-30 -7t-22.5 -3q-42 0 -70 25.5t-28 68.5q0 35 18 71t49 64.5t72 46.5t86 18q33 0 63 -13t52.5 -37t36 -56.5t13.5 -71.5
q0 -75 -37.5 -151.5t-103 -144.5t-154.5 -122.5t-191 -85.5z" />
    <glyph glyph-name="dagger" unicode="&#x2020;" 
d="M319 -556h-50q90 289 150.5 519t94.5 407q26 134 42.5 256.5t21.5 243.5q45 31 79 62t61 67.5t48.5 81t40.5 101.5q-42 0 -86.5 -11.5t-102.5 -34.5q-78 -31 -133.5 -44t-86.5 -14q-48 0 -73.5 24.5t-25.5 63.5q0 35 16 66t42 53.5t58.5 35.5t65.5 13q21 0 31 -1t27 -7
q6 -1 14.5 -4.5t22.5 -10.5t34 -17.5t49 -25.5q36 -19 78 -28t84 -10q17 56 17 76v4q1 9 1.5 18t0.5 18q0 1 -2.5 24t-5 55t-5 67t-2.5 61q0 64 16.5 119t46 95t69 62.5t85.5 22.5q21 0 39 -8t31.5 -23t21.5 -36t8 -46q0 -34 -7 -61.5t-24.5 -60t-48 -75.5t-77.5 -108
q-45 -62 -72.5 -110.5t-41.5 -93.5q31 0 69.5 7t78 18t78 23.5t70.5 23.5t54 19t28 9q10 2 20 3t20 1q48 0 77.5 -24.5t29.5 -64.5q0 -34 -16 -64.5t-43 -53.5t-62 -36.5t-74 -13.5q-36 0 -79.5 19t-105.5 44l-81 32q-10 4 -32.5 5t-45.5 5q-14 -45 -20 -82.5t-6 -69.5
q0 -51 16 -89t45 -71q-55 -96 -99 -182.5t-81.5 -169.5t-71 -166t-67.5 -172q-32 -83 -63 -167.5t-62.5 -175t-63.5 -188t-65 -205.5z" />
    <glyph glyph-name="daggerdbl" unicode="&#x2021;" 
d="M898 1288q-12 -53 -12 -88q0 -37 15 -68t51 -68q-50 -51 -87 -96t-66.5 -94t-54 -106t-47.5 -130q-23 -71 -32 -122.5t-9 -99.5q0 -42 8.5 -90t28.5 -102q-44 -30 -71.5 -51.5t-47.5 -44t-36.5 -52.5t-37.5 -76l78 14q28 7 105 36q123 46 192 46q42 0 67.5 -21t25.5 -58
q0 -32 -14.5 -61t-38.5 -50.5t-53.5 -34.5t-59.5 -13q-20 0 -41 6t-48.5 17t-63.5 26.5t-85 34.5q-10 4 -33 5.5t-46 4.5q-3 -17 -6 -33.5t-5.5 -31.5t-4 -26t-1.5 -16v-8q0 -13 2.5 -37t5.5 -51t5.5 -54t2.5 -45q0 -52 -14 -95t-39 -74t-59.5 -48t-74.5 -17q-45 0 -70 25.5
t-25 68.5q0 19 3 35t8.5 30t12 27l13.5 27q3 6 24.5 36.5t50.5 75.5t61 100t56 111q-30 0 -50 -1.5t-40.5 -6.5t-46.5 -14.5t-68 -25.5q-59 -23 -98.5 -35t-65.5 -11q-40 0 -65 22t-25 57q0 36 15.5 65.5t40 50t54.5 32t59 11.5q30 0 61 -10t81 -34q24 -12 42 -20t36 -13
t38.5 -7t49.5 -2q3 23 5 42t2 34q0 20 -3.5 36.5t-11 32t-20.5 32.5t-32 37q72 69 128 152t95 172t59.5 180t20.5 175v23q0 35 -12 70.5t-32 67.5q45 28 72 48.5t46 43.5t36 53.5t42 78.5q-16 0 -25 0.5t-17 0.5q-9 0 -18 -2t-25.5 -7.5t-44.5 -15.5t-76 -27
q-51 -18 -93 -28t-75 -9q-38 0 -62 20.5t-24 57.5q0 30 13 57.5t35 48.5t50 33.5t57 12.5q21 0 55 -11t70.5 -25t69.5 -27t52 -17q24 -6 73 -12q11 32 14 49.5t3 36.5v29q-1 25 -3 59.5t-5 79.5l-6 80q7 37 23 74t40 66t56.5 47.5t72.5 18.5q42 0 67 -22.5t25 -64.5
q0 -36 -8 -64.5t-19.5 -51t-24.5 -40t-24 -32.5q-49 -66 -92 -130.5t-65 -134.5q31 3 48 4t34 4.5t42.5 12t74.5 27.5q55 21 99 32.5t80 11.5q42 0 65.5 -22t23.5 -58q0 -33 -14.5 -60.5t-38 -48t-53 -32t-60.5 -11.5q-39 0 -83.5 16t-107.5 45q-30 14 -48.5 20t-31.5 7.5
t-22.5 1t-22.5 0.5z" />
    <glyph glyph-name="bullet" unicode="&#x2022;" horiz-adv-x="946" 
d="M560 1225q138 0 234.5 -96.5t96.5 -234.5q0 -139 -96.5 -235.5t-234.5 -96.5q-139 0 -235.5 96.5t-96.5 235.5t96.5 235t235.5 96z" />
    <glyph glyph-name="ellipsis" unicode="&#x2026;" horiz-adv-x="2404" 
d="M498 256q146 0 146 -146q0 -62 -42.5 -104.5t-103.5 -42.5t-104 42.5t-43 104.5q0 146 147 146zM1196 256q146 0 146 -146q0 -62 -42.5 -104.5t-103.5 -42.5t-104 42.5t-43 104.5q0 146 147 146zM1894 256q147 0 147 -146q0 -62 -43 -104.5t-104 -42.5t-103.5 42.5
t-42.5 104.5q0 146 146 146z" />
    <glyph glyph-name="perthousand" unicode="&#x2030;" horiz-adv-x="2704" 
d="M760 1832q57 0 105 -19t83 -56.5t55 -93t20 -127.5q0 -91 -24 -176t-65.5 -159t-96.5 -135t-116.5 -104.5t-126.5 -67.5t-126 -24q-57 0 -106 19t-85 55.5t-56.5 91.5t-20.5 127q0 77 21.5 156.5t60 154t91 140t114 114t130.5 76.5t139 28h4zM2234 888q53 0 101.5 -18.5
t85.5 -55.5t59 -92.5t22 -128.5q0 -98 -31 -192t-80.5 -174.5t-113 -142.5t-127.5 -96q-113 -60 -211 -60q-51 0 -98 19t-84 55.5t-59 90.5t-22 123q0 95 30.5 190.5t81 178.5t115.5 148t134 100q109 55 197 55zM1360 888q51 0 98 -17.5t83 -54.5t57.5 -94.5t21.5 -136.5
q0 -85 -24 -166.5t-65 -154.5t-95.5 -134.5t-117 -106.5t-129 -70t-130.5 -25q-53 0 -101 19t-84 55.5t-57.5 90.5t-21.5 124q0 80 22.5 161t62 155.5t93.5 139t117 112.5t132 75.5t138 27.5zM732 1762q-44 0 -84 -29t-76 -83.5t-69 -132.5t-63 -175q-27 -88 -40 -154.5
t-13 -114.5q0 -69 26.5 -103t71.5 -34q81 0 159 107.5t142 316.5q24 78 36.5 141.5t12.5 113.5q0 73 -27 110t-76 37zM1334 818q-44 0 -82.5 -23t-74.5 -73.5t-71 -131t-70 -194.5q-52 -166 -52 -264q0 -66 25.5 -99t70.5 -33q85 0 160 102t135 298q54 174 54 275
q0 69 -23.5 106t-71.5 37zM2212 818q-43 0 -81 -24.5t-73.5 -75.5t-69.5 -129.5t-68 -186.5q-28 -88 -40 -154.5t-13 -114.5q0 -67 27 -100t72 -33q38 0 75.5 22t75 73t74.5 134t75 205q23 77 34.5 137.5t12.5 105.5q0 72 -26.5 106.5t-74.5 34.5zM1904 1832l-1871 -1904
h-117l1872 1904h116z" />
    <glyph glyph-name="guilsinglleft" unicode="&#x2039;" horiz-adv-x="900" 
d="M551 -10h-76l-317 622l702 622h76l-514 -622z" />
    <glyph glyph-name="guilsinglright" unicode="&#x203a;" horiz-adv-x="900" 
d="M344 1234h76l327 -624l-712 -620h-75l511 620z" />
    <glyph glyph-name="Euro" unicode="&#x20ac;" 
d="M1247 973h-757q-18 -56 -32 -110h729l-56 -103h-696q-59 -279 -5 -464q64 -217 263 -217q177 0 319 91q85 55 232 206l34 -26q-158 -180 -270 -256q-183 -126 -395 -126q-304 0 -407 252q-50 123 -50 290q0 114 23 250h-133l56 103h98l5 21q10 40 25 89h-131l56 103h111
q122 312 342 516q254 235 555 235q226 0 420 -116l-98 -395h-52q12 67 12 124q2 300 -303 300q-209 0 -385 -221q-137 -170 -234 -443h780z" />
    <glyph glyph-name="trademark" unicode="&#x2122;" horiz-adv-x="2650" 
d="M1690 1790l127 -756l583 756h368l-15 -48q-55 0 -87 -7.5t-52 -27.5t-33 -54.5t-29 -88.5l-191 -618q-12 -38 -17.5 -65.5t-5.5 -45.5q0 -15 5.5 -26.5t19 -20t35.5 -12.5t56 -4l-15 -48h-524l15 48q55 0 89 7.5t55 27t35 52.5t30 85l201 650l-673 -870h-44l-141 858
l-197 -636q-15 -48 -20.5 -73.5t-5.5 -40.5q0 -27 20.5 -43.5t74.5 -16.5h48l-15 -48h-404l15 48q55 0 87.5 7t52.5 26t33 53t30 88l190 614q14 45 21 75.5t7 47.5v3q-1 13 -6.5 23t-19 17.5t-36.5 11.5t-60 4l15 48h378zM232 1790h960l-52 -266h-46q2 14 3.5 26.5t1.5 24.5
q0 32 -9.5 57t-33 42.5t-62.5 26.5t-99 9h-98l-236 -764q-12 -38 -17.5 -65.5t-5.5 -45.5q0 -34 25 -48.5t85 -14.5l-15 -48h-494l15 48q45 5 73 12t47 24.5t33.5 49.5t31.5 88l236 764h-100q-65 0 -111 -9.5t-81 -31t-62.5 -57.5t-54.5 -88h-44z" />
    <glyph glyph-name="uni25CC" unicode="&#x25cc;" horiz-adv-x="2040" 
d="M1362 1750q-28 -91 -115 -91q-64 0 -64 51q0 30 9.5 53.5t26 39.5t38 24t45.5 8q66 0 66 -49q0 -17 -6 -36zM1943 1257q-27 -89 -116 -89q-65 0 -65 51q0 30 10 53t26.5 38.5t39 23.5t46.5 8q65 0 65 -50q0 -16 -6 -35zM1042 1684q-26 -84 -115 -84q-65 0 -65 49
q0 30 10.5 53.5t27 39.5t38 24t43.5 8q68 0 68 -52q0 -21 -7 -38zM1756 652q-26 -86 -115 -86q-65 0 -65 51q0 30 10 53t26.5 38.5t37.5 23.5t44 8q68 0 68 -52q0 -15 -6 -36zM326 954q-27 -86 -113 -86q-69 0 -69 51q0 29 10 51.5t26.5 38t39 23.5t46.5 8q66 0 66 -51
q0 -16 -6 -35zM872 163q-29 -90 -115 -90q-64 0 -64 51q0 30 10 53.5t26.5 39t38 24t44.5 8.5q66 0 66 -50q0 -17 -6 -36zM381 390q-25 -85 -111 -85q-66 0 -66 50q0 31 10.5 54t27.5 39t38.5 24t43.5 8q64 0 64 -51q0 -21 -7 -39zM592 226q-28 -88 -117 -88q-66 0 -66 48
q0 30 10.5 53t27.5 38.5t38 23.5t43 8q70 0 70 -51q0 -14 -6 -32zM1644 1684q-26 -84 -107 -84q-70 0 -70 51q0 30 10.5 53t28 38.5t40 23.5t45.5 8q60 0 60 -50q0 -22 -7 -40zM291 652q-26 -86 -111 -86q-65 0 -65 51q0 30 10 53t26.5 38.5t37.5 23.5t44 8q65 0 65 -50
q-2 -18 -7 -38zM478 1257q-27 -89 -109 -89q-67 0 -67 52q0 30 9.5 53t25.5 38t37.5 23t44.5 8q65 0 65 -50q0 -16 -6 -35zM1912 954q-27 -86 -109 -86q-69 0 -69 51q0 29 10 51.5t26.5 38t39 23.5t46.5 8q62 0 62 -50q0 -15 -6 -36zM1501 390q-25 -85 -107 -85
q-67 0 -67 50q0 30 10.5 53.5t27.5 39.5t38.5 24t44.5 8q60 0 60 -50q1 -10 -1.5 -20t-5.5 -20zM1848 1513q-26 -81 -106 -81q-72 0 -72 50q0 29 10.5 51t28 37t39.5 22.5t46 7.5q61 0 61 -49q0 -8 -2 -17.5t-5 -20.5zM728 1513q-26 -81 -110 -81q-67 0 -67 47
q0 29 10.5 51.5t27 38t38 23.5t43.5 8q65 0 65 -50q0 -8 -2 -17t-5 -20zM1191 219q-26 -81 -106 -81q-67 0 -67 49q0 30 10.5 52.5t27.5 38t38.5 23.5t43.5 8q60 0 60 -50q0 -22 -7 -40z" />
    <glyph glyph-name="glyph99" horiz-adv-x="1548" 
d="M803 827l-107 -594q0 -122 70 -122q93 0 115 122l114 644q9 51 9 73q0 143 -93.5 229t-238.5 87q-91 1 -254 -54q-174 -58 -225 -118q55 248 285 426q146 112 366 118q90 3 159 -21q79 -46 218 -101q93 0 217 122h45q-23 -114 -103 -196q-87 -90 -196 -90q-62 9 -143 56
l-135 76q-48 21 -144 19q-224 -5 -402 -225q215 103 361 102q226 -2 363 -129q141 -130 141 -354l-119 -659q-17 -92 -134 -164q-120 -74 -210 -74q-109 0 -195 59q-96 66 -96 170l78 443q-295 0 -295 225q25 121 117 173q96 55 174 52q258 -10 258 -295zM487 1020
q-129 0 -151 -123q0 -123 102 -123q53 0 97.5 39t50.5 92q0 115 -99 115z" />
    <glyph glyph-name="glyph115" horiz-adv-x="2150" 
d="M786 270q5 -105 -76 -189.5t-239 -80.5q-242 5 -242 307l140 778h-176q0 72 28 140q32 79 112 169q83 95 213 167q136 75 285 77q236 3 362 -87q183 -133 183 -322l-168 -959q0 -76 46.5 -130t121.5 -54q73 0 140.5 62t80.5 135l209 1187l258 168l-241 -1355
q-23 -127 -179 -210q-135 -73 -276 -73q-155 0 -260 64q-125 77 -125 223l164 913q0 137 -99 219q-102 85 -262 88q-119 2 -239 -62q-68 -37 -152 -108q-108 -92 -108 -141q1 -8 8 -8h516l-12 -103h-205l-119 -667q-30 0 38 10t89 10q176 0 184 -168zM578 356
q-122 0 -152 -110q-8 -30 -8 -45q0 -97 98 -111q156 0 176 127q0 139 -114 139z" />
    <glyph glyph-name="glyph201" horiz-adv-x="0" 
d="M-94 3416h278l-147 -500h-164z" />
    <glyph glyph-name="glyph202" horiz-adv-x="0" 
d="M-223 2951l20 115q87 0 205 73q93 57 115 164q-225 0 -225 152q0 54 20 90q60 139 213 143q81 2 134 -46q50 -46 50 -126q0 -141 -61 -254q-59 -109 -160 -180q244 93 365 274q56 83 101 224q40 126 59 202h139q-22 -183 -162 -433q-160 -285 -536 -358
q-203 -40 -277 -40zM113 3614q-124 0 -139 -127q0 -102 98 -106q104 -4 127 106q0 127 -86 127z" />
    <glyph glyph-name="glyph203" horiz-adv-x="0" 
d="M-248 3084q-22 24 -28 62q0 15 8 41q32 73 111 73q12 0 36 -8q50 -16 46 -94q-4 -92 -99 -139q-43 -21 -90 -21q-63 0 -123 33q-102 56 -102 209q0 25 8 74q23 141 127 241q81 78 143 78q21 0 25 -8l111 -152l155 140q18 16 41 16q85 0 131 -90q25 -49 25 -160
q-10 -88 -66 -180q102 60 164 164q49 81 49 241q0 52 -8 123l131 54q21 -87 21 -140q0 -70 -33 -180q-53 -176 -193 -295q-158 -134 -295 -172l-20 78q51 35 74 74q50 66 65 147q0 221 -82 221q-20 0 -37 -16l-139 -131l-115 147q-24 0 -86 -61q-58 -57 -81 -119
q-25 -67 -25 -110q0 -78 57 -111q50 -29 94 -29z" />
    <glyph glyph-name="glyph204" horiz-adv-x="0" 
d="M-53 3400l45 245h188l-45 -245h250l-33 -193h-250l-45 -250h-188l45 250h-250l33 193h250z" />
    <glyph glyph-name="glyph205" horiz-adv-x="0" 
d="M7 2875q0 107 95 195q91 84 200 88q183 7 290 111q113 110 119 262l148 -115q-48 -132 -169.5 -236.5t-260.5 -132.5q28 -45 28 -102q0 -183 -192 -246q-24 -8 -66 -8q-78 0 -135 53.5t-57 130.5zM109 2904q0 -118 111 -115q112 3 139 115q0 127 -90 131q-54 3 -106 -38
q-48 -39 -54 -93z" />
    <glyph glyph-name="zero.ccmp" 
d="M901 1644q87 0 154 -36.5t112.5 -105t69.5 -166.5t24 -220q0 -529 -295 -905q-44 -56 -89 -100.5t-93.5 -75.5t-102 -47.5t-113.5 -16.5q-89 0 -156.5 37t-113.5 106t-69.5 167t-23.5 220q0 98 15 199t42.5 199t65.5 191t84.5 175t99.5 150.5t110 118.5q125 110 279 110z
M902 1582q-68 0 -127 -47t-111.5 -138t-100 -225.5t-91.5 -309.5q-89 -356 -89 -601q0 -246 183 -246q59 0 113 43.5t101.5 117.5t88 171.5t74 205.5t59 220.5t43.5 215.5t27 190.5t9 146.5q0 256 -179 256z" />
    <glyph glyph-name="one.ccmp" 
d="M1047 1644l-382 -1332q-17 -59 -26 -100.5t-8 -69.5q0 -85 172 -98l-12 -44h-612l17 44q98 2 128 15t51 31t38.5 47.5t32.5 71.5t33 103l276 957q25 88 27 100q3 21 3 46q0 89 -84 89q-32 0 -96 -15l-16 44l400 111h58z" />
    <glyph glyph-name="two.ccmp" 
d="M885 0h-802v44q306 267 508.5 477.5t302.5 364.5q91 142 91 297q0 61 -20 112.5t-56 88.5t-86.5 57.5t-110.5 20.5q-168 0 -276 -160l-42 19q128 323 429 323q76 0 142 -28t115 -77t77 -114.5t28 -140.5q0 -107 -37 -193q-29 -69 -80 -146.5t-129 -165.5
q-120 -135 -273.5 -285t-348.5 -322h404q191 0 251 148h47z" />
    <glyph glyph-name="three.ccmp" 
d="M454 880v34q120 18 218 53t167.5 84.5t107.5 112t38 136.5q0 46 -15.5 85.5t-42.5 68.5t-64.5 46t-80.5 17q-134 0 -237 -165l-44 13q124 279 371 279q68 0 125.5 -21.5t99 -60.5t65 -93.5t23.5 -120.5q0 -246 -361 -390q250 -103 250 -378q0 -159 -90 -304
q-90 -147 -231 -223q-76 -42 -152.5 -62.5t-159.5 -19.5q-61 0 -112 9.5t-88 27t-57.5 42.5t-20.5 57q0 101 104 101q24 0 49.5 -9t57.5 -24t72 -35.5t92 -44.5q39 -13 86 -13q52 0 97 33.5t78 88.5t51.5 125t18.5 142q0 88 -29 160.5t-82.5 125.5t-130.5 85t-173 38z" />
    <glyph glyph-name="four.ccmp" 
d="M1246 1611l-307 -1060h192l-42 -147h-195l-126 -433h-174l126 433h-582l50 167l968 1040h90zM983 1304l-693 -753h477z" />
    <glyph glyph-name="five.ccmp" 
d="M723 1611h538l-54 -196h-484l-89 -198q193 -32 300 -121q165 -138 165 -388q0 -309 -211 -523q-210 -214 -468 -214q-48 0 -91 9.5t-76 27.5t-52 44.5t-19 61.5q0 104 107 104q63 0 140 -63q76 -63 139 -63q76 0 142 40t114.5 106.5t76 153.5t27.5 180q0 113 -27.5 194
t-84 136t-143.5 86t-205 44z" />
    <glyph glyph-name="six.ccmp" 
d="M1276 1644v-47q-434 -101 -729 -591q125 55 209 55q79 0 146 -30.5t115 -84.5t75 -128t27 -161q0 -251 -160 -459q-173 -227 -417 -227q-89 0 -161 35t-123 97.5t-79 149t-28 189.5q0 519 419 887q194 170 401 251q61 23 136.5 39.5t168.5 24.5zM489 906
q-169 -359 -169 -608q0 -56 15.5 -106t43 -87t66.5 -58.5t87 -21.5q172 0 283 257q89 208 89 404q0 63 -16.5 116.5t-47 92.5t-74 60.5t-97.5 21.5q-76 0 -180 -71z" />
    <glyph glyph-name="seven.ccmp" 
d="M551 1611h801v-41l-902 -1599l-96 44l791 1407h-383q-146 0 -204 -23q-65 -28 -145 -141h-49z" />
    <glyph glyph-name="eight.ccmp" 
d="M923 902q219 -239 219 -448q0 -101 -40.5 -189t-110 -153t-162.5 -103t-197 -38q-91 0 -170.5 30t-139 82.5t-93.5 124.5t-34 156q0 306 474 513q-181 220 -181 381q0 82 33 153t89.5 122.5t132 81t161.5 29.5q79 0 149.5 -25t123.5 -69t83.5 -104.5t30.5 -130.5
q0 -141 -91.5 -244.5t-276.5 -168.5zM712 828q-358 -148 -358 -513q0 -65 21 -118t59 -91t91.5 -58.5t119.5 -20.5q67 0 125.5 25.5t102 69t68.5 102.5t25 125q0 201 -254 479zM877 951q269 93 269 374q0 57 -16.5 104.5t-48.5 82t-78 54t-104 19.5q-53 0 -96.5 -17.5
t-74.5 -49t-48 -75.5t-17 -97q0 -80 34 -147q53 -103 180 -248z" />
    <glyph glyph-name="nine.ccmp" 
d="M167 -29v39q121 25 213 75q314 173 515 519q-115 -58 -203 -58q-83 0 -150.5 30t-116.5 84t-75.5 129t-26.5 165q0 246 161 461q172 229 416 229q88 0 160.5 -35.5t123.5 -98.5t79 -150t28 -190q0 -514 -415 -881q-190 -169 -401 -252q-63 -25 -139 -41.5t-169 -24.5z
M955 702q167 343 167 607q0 58 -15.5 108t-43 86.5t-66.5 57t-86 20.5q-178 0 -286 -255q-86 -205 -86 -406q0 -289 231 -289q81 0 185 71z" />
    <glyph glyph-name="glyph354" horiz-adv-x="0" 
d="M-130 2081q-55 0 -93 22.5t-38 69.5q0 23 8 45.5t24.5 40t41.5 28.5t60 11q28 0 53 -8.5t43.5 -27t29.5 -49t11 -75.5q0 -44 -20 -86t-56 -75.5t-86 -54t-109 -20.5q-26 0 -47.5 5.5t-45 16t-51.5 26.5t-67 38q-62 35 -96 35q-7 0 -15 -1t-17.5 -5.5t-20 -14t-23.5 -27.5
q-26 -35 -26 -54q-35 16 -61.5 41t-44 55t-26.5 64.5t-9 69.5q0 73 21 132t63 100t105 63t146 22q12 0 39 -1.5t57 -4t57.5 -4t41.5 -1.5q49 1 83 11.5t58 29.5t42 47t35 64q5 11 9 34.5t7 48.5q4 29 6 63h160q0 -135 -57 -226q-20 -32 -52.5 -65t-77.5 -60t-103 -44
t-129 -17q-57 1 -98.5 2t-70 2t-44.5 1.5t-23 0.5q-53 0 -90.5 -18.5t-60.5 -46.5t-33.5 -61t-10.5 -62q0 -69 48 -106q39 77 109 90q32 0 57.5 -5.5t55.5 -19t70 -37t101 -58.5q31 -11 54 -11q25 0 50.5 15t55.5 52z" />
    <glyph glyph-name="glyph360" horiz-adv-x="0" 
d="M-473 2098q8 51 35 96.5t66.5 79.5t88.5 53.5t100 19.5q202 0 202 -240q-10 -54 -37 -101t-65.5 -82t-84.5 -55.5t-94 -20.5q-45 0 -84 17t-67 49.5t-44 78.5t-16 105zM-358 2098q0 -138 128 -138q106 15 128 138q0 137 -99 137q-27 0 -53.5 -11.5t-48.5 -31t-37 -44
t-18 -50.5z" />
    <glyph glyph-name="glyph361" horiz-adv-x="0" 
d="M-27 1993q-58 -52 -147 -52q-81 0 -130 41t-49 122q0 55 23 100.5t61 77t86.5 49t100.5 17.5q-96 10 -96 130q8 40 32.5 76t60 64.5t79.5 47t91 23.5q149 0 201 -28l-112 -100h-3q-7 0 -16.5 2.5t-20.5 4.5l-31 6q-63 0 -102.5 -29.5t-53.5 -78.5q0 -93 118 -93l-60 -102
q-50 0 -91.5 -10t-71.5 -28.5t-47 -45t-17 -60.5q0 -36 17 -51.5t56 -15.5q54 0 83 29z" />
  </font>
</defs>
</svg>
