<?xml version="1.0" standalone="no"?>
<!DOCTYPE svg PUBLIC "-//W3C//DTD SVG 1.1//EN" "http://www.w3.org/Graphics/SVG/1.1/DTD/svg11.dtd" >
<svg xmlns="http://www.w3.org/2000/svg" xmlns:xlink="http://www.w3.org/1999/xlink" version="1.1">
<metadata>
Created by FontForge 20170731 at Thu Aug  4 19:25:17 2016
 By Aleksey,,,
(c) 1992 Unity Progress. Portions (c) 2004 The Monotype Corporation. Portions (c) 2015 Microsoft Corporation. All Rights Reserved.
</metadata>
<defs>
<font id="AngsanaUPC-Bold" horiz-adv-x="1352" >
  <font-face 
    font-family="AngsanaUPC"
    font-weight="700"
    font-stretch="normal"
    units-per-em="4096"
    panose-1="2 2 8 3 7 5 5 2 3 4"
    ascent="3276"
    descent="-820"
    x-height="1234"
    cap-height="1790"
    bbox="-1550 -881 3208 4076"
    underline-thickness="102"
    underline-position="-460"
    unicode-range="U+0020-25CC"
  />
<missing-glyph horiz-adv-x="1497" 
d="M136 0v2730h1089v-2730h-1089zM272 136h817v2458h-817v-2458z" />
    <glyph glyph-name=".notdef" horiz-adv-x="1497" 
d="M136 0v2730h1089v-2730h-1089zM272 136h817v2458h-817v-2458z" />
    <glyph glyph-name=".null" horiz-adv-x="0" 
 />
    <glyph glyph-name="nonmarkingreturn" horiz-adv-x="1365" 
 />
    <glyph glyph-name="space" unicode=" " horiz-adv-x="676" 
 />
    <glyph glyph-name="space" unicode="&#xa0;" horiz-adv-x="676" 
 />
    <glyph glyph-name="exclam" unicode="!" horiz-adv-x="900" 
d="M480 582h-58q-9 152 -60 364l-69 288q-62 259 -62 371q0 226 219 226q96 0 158.5 -62.5t62.5 -159.5q0 -103 -66 -375l-70 -288q-37 -152 -55 -364zM453 393q102 0 158 -68.5t56 -146.5q0 -103 -68 -158.5t-146 -55.5q-103 0 -158.5 68t-55.5 146q0 91 61.5 153t152.5 62
z" />
    <glyph glyph-name="quotedbl" unicode="&#x22;" horiz-adv-x="1501" 
d="M461 952h-65l-137 508q-27 100 -27 174q0 83 56.5 140t139.5 57q82 0 138.5 -54t56.5 -136q0 -60 -32 -184zM1098 952h-66l-133 507q-32 122 -32 179q0 90 64 141.5t136 51.5q71 0 131.5 -49t60.5 -140q0 -47 -34 -183z" />
    <glyph glyph-name="numbersign" unicode="#" 
d="M119 -37l113 560h-179v175h214l78 386h-292v171h326l115 572h174l-116 -572h389l114 572h174l-116 -572h185v-171h-218l-79 -386h297v-175h-330l-114 -560h-176l114 560h-384l-119 -560h-170zM442 698h388l77 386h-388z" />
    <glyph glyph-name="dollar" unicode="$" 
d="M747 1102q353 -220 436 -344t83 -280q0 -234 -154 -360.5t-365 -145.5v-154h-115v145q-256 5 -496 98v426h55q71 -403 441 -426v652q-345 210 -436.5 338t-91.5 258q0 203 151.5 321t376.5 147v62h115v-62q225 -16 452 -139v-381h-52q-106 358 -400 427v-582zM632 1688
q-110 -8 -178.5 -72t-68.5 -149q0 -128 247 -292v513zM747 61q219 51 219 251q0 159 -219 320v-571z" />
    <glyph glyph-name="percent" unicode="%" horiz-adv-x="2703" 
d="M2076 1831l-1271 -1906h-177l1270 1906h178zM631 1831q219 0 332 -147.5t113 -327.5q0 -212 -124.5 -347.5t-325.5 -135.5q-221 0 -330 144t-109 325q0 186 111.5 337.5t332.5 151.5zM631 1761q-114 0 -114 -430q0 -392 114 -392t114 386q0 436 -114 436zM2067 886
q224 0 336.5 -146.5t112.5 -328.5q0 -206 -125 -345.5t-321 -139.5q-213 0 -327 148t-114 333q0 208 121 343.5t317 135.5zM2071 817q-111 0 -111 -392q0 -425 114 -425q112 0 112 405q0 412 -115 412z" />
    <glyph glyph-name="ampersand" unicode="&#x26;" horiz-adv-x="2252" 
d="M1539 1071h549v-52q-96 -13 -149.5 -60t-132.5 -188q-84 -151 -238 -339q225 -202 335 -202q98 0 177 128l55 -29q-189 -370 -445 -370q-192 0 -423 210q-312 -210 -612 -210q-205 0 -376 116t-171 339q0 379 552 598q-69 172 -69 327q0 215 149.5 353.5t378.5 138.5
q167 0 285.5 -84.5t118.5 -225.5q0 -280 -464 -450q149 -263 437 -567q194 218 194 374q0 125 -151 141v52zM1014 1150q233 87 233 252q0 127 -58 222t-146 95q-151 0 -151 -181q0 -119 122 -388zM697 928q-211 -83 -211 -260q0 -182 138 -343t311 -161q101 0 249 87
q-318 326 -487 677z" />
    <glyph glyph-name="quotesingle" unicode="'" horiz-adv-x="751" 
d="M413 953h-63l-139 504q-26 94 -26 173q0 75 49.5 138t144.5 63q73 0 134 -49.5t61 -143.5q0 -63 -30 -179z" />
    <glyph glyph-name="parenleft" unicode="(" horiz-adv-x="900" 
d="M871 1932v-61q-210 -135 -308 -377t-98 -749q0 -888 406 -1119v-66q-371 124 -566 476t-195 717q0 399 209 732.5t552 446.5z" />
    <glyph glyph-name="parenright" unicode=")" horiz-adv-x="900" 
d="M19 -440v61q232 141 318.5 398.5t86.5 728.5q0 353 -59 596t-147 351t-199 171v66q343 -115 551.5 -453t208.5 -740q0 -399 -209.5 -731.5t-550.5 -447.5z" />
    <glyph glyph-name="asterisk" unicode="*" 
d="M651 1309q-6 114 -70 239q-42 82 -42 130q0 58 40 105.5t97 47.5q140 0 140 -155q0 -50 -38 -125q-64 -127 -73 -242q108 45 199 142q83 88 160 88q137 0 137 -129q0 -144 -175 -144l-155 4q-70 0 -156 -4q84 -95 198 -153q138 -70 138 -169q0 -135 -131 -135
q-135 0 -165 214q-16 118 -77 218q-67 -108 -83 -218q-30 -210 -162 -210t-132 126q0 103 139 180q116 64 199 147q-129 4 -183 4l-135 -5q-171 0 -171 142q0 132 138 132q49 0 87 -22.5t156 -138.5q41 -34 120 -69z" />
    <glyph glyph-name="plus" unicode="+" horiz-adv-x="1540" 
d="M53 982h635v634h173v-634h635v-174h-635v-628h-173v628h-635v174z" />
    <glyph glyph-name="comma" unicode="," horiz-adv-x="676" 
d="M135 -474v58q291 126 291 386q0 45 -27 45q-19 0 -52 -16q-32 -16 -67 -16q-81 0 -137 61t-56 142q0 102 72.5 160.5t153.5 58.5q126 0 200 -94t74 -234q0 -412 -452 -551z" />
    <glyph glyph-name="hyphen" unicode="-" horiz-adv-x="900" 
d="M836 661h-770v274h770v-274z" />
    <glyph glyph-name="period" unicode="." horiz-adv-x="676" 
d="M338 407q106 0 163 -70t57 -151q0 -93 -63.5 -156t-156.5 -63q-64 0 -113 29t-77.5 78t-28.5 112q0 93 63 157t156 64z" />
    <glyph glyph-name="slash" unicode="/" horiz-adv-x="751" 
d="M759 1831l-587 -1872h-169l590 1872h166z" />
    <glyph glyph-name="zero" unicode="0" 
d="M1253 895q0 -429 -162 -680.5t-416 -251.5q-271 0 -424 262t-153 649q0 444 159.5 698.5t417.5 254.5t418 -250t160 -682zM846 898q0 427 -4 543.5t-45 205.5t-126 89q-118 0 -145.5 -139t-27.5 -871q0 -400 31.5 -533.5t148.5 -133.5q161 0 163 271z" />
    <glyph glyph-name="one" unicode="1" 
d="M880 1827v-1464q0 -140 9 -190.5t56 -87t159 -36.5h40v-49h-942v49h47q106 0 162 28.5t70.5 77t14.5 208.5v928q0 138 -33.5 184t-96.5 46q-68 0 -164 -43l-24 48l659 301h43z" />
    <glyph glyph-name="two" unicode="2" 
d="M1119 0h-1053v29q468 541 580 768.5t112 397.5q0 136 -84.5 229t-211.5 93q-203 0 -315 -204l-49 18q139 496 551 496q170 0 329 -120t159 -324q0 -161 -103.5 -369t-576.5 -668h387q158 0 214 26t114 145h48z" />
    <glyph glyph-name="three" unicode="3" 
d="M400 898v46q351 84 351 352q0 128 -87.5 197.5t-190.5 69.5q-185 0 -315 -195l-48 17q190 442 574 442q156 0 291.5 -98.5t135.5 -280.5q0 -217 -232 -352q317 -155 317 -462q0 -200 -95.5 -349.5t-262 -236t-388.5 -86.5q-406 0 -406 211q0 52 38 99t105 47
q72 0 264 -153q107 -85 209 -85q113 0 175.5 84.5t62.5 188.5q0 215 -146.5 355t-351.5 189z" />
    <glyph glyph-name="four" unicode="4" 
d="M67 675l850 1152h161v-1152h164v-274h-164v-401h-363v401h-648v274zM195 675h520v706z" />
    <glyph glyph-name="five" unicode="5" 
d="M412 1790h838l-133 -341h-705l-67 -178q285 -11 483 -95t308.5 -228t110.5 -334q0 -266 -204 -458.5t-527 -192.5q-196 0 -307 63t-111 151q0 50 38.5 97t103.5 47q96 0 285 -132q133 -93 231 -93q124 0 192 85.5t68 184.5q0 178 -124.5 297.5t-312 171.5t-488.5 52z" />
    <glyph glyph-name="six" unicode="6" 
d="M1270 1827v-37q-302 -75 -484.5 -235.5t-257.5 -491.5q116 78 269 78q212 0 340.5 -151.5t128.5 -392.5q0 -306 -172.5 -470t-391.5 -164q-289 0 -445.5 221t-156.5 513q0 467 323.5 795t846.5 335zM511 956q-11 -182 -11 -267q0 -311 63 -475.5t171 -164.5
q156 0 156 358q0 592 -242 592q-53 0 -137 -43z" />
    <glyph glyph-name="seven" unicode="7" 
d="M479 -37l487 1477h-371q-174 0 -286 -39.5t-168 -166.5h-50l129 556h1067l-601 -1827h-207z" />
    <glyph glyph-name="eight" unicode="8" 
d="M921 1011q336 -246 336 -532q0 -234 -172.5 -375t-433.5 -141q-217 0 -386.5 110.5t-169.5 339.5q0 284 363 450q-219 166 -276 274t-57 231q0 205 166.5 328.5t404.5 123.5q207 0 369.5 -101t162.5 -309q0 -247 -307 -399zM821 1078q96 131 96 328q0 332 -227 332
q-102 0 -157 -70t-55 -153q0 -213 343 -437zM557 800q-127 -115 -127 -387q0 -365 243 -365q104 0 166.5 74.5t62.5 189.5q0 256 -345 488z" />
    <glyph glyph-name="nine" unicode="9" 
d="M83 -37v37q629 140 738 721q-146 -76 -260 -76q-214 0 -344 151.5t-130 396.5q0 299 170.5 466.5t394.5 167.5q275 0 439 -216.5t164 -521.5q0 -455 -311.5 -779.5t-860.5 -346.5zM841 832q13 147 13 260q0 269 -57.5 457t-177.5 188q-154 0 -154 -354q0 -594 240 -594
q51 0 136 43z" />
    <glyph glyph-name="colon" unicode=":" horiz-adv-x="900" 
d="M451 1270q80 0 150 -57t70 -162q0 -93 -63.5 -156t-156.5 -63q-56 0 -104.5 25t-81.5 76t-33 118q0 63 29.5 112t78 78t111.5 29zM450 407q63 0 112.5 -29.5t79 -79t29.5 -112.5q0 -93 -64 -156t-157 -63q-57 0 -105 25t-81 75.5t-33 118.5q0 93 63 157t156 64z" />
    <glyph glyph-name="semicolon" unicode=";" horiz-adv-x="900" 
d="M450 1270q64 0 112.5 -29t77 -77.5t28.5 -111.5q0 -92 -63 -155.5t-155 -63.5q-63 0 -112 29t-78 78t-29 112q0 106 69 162t150 56zM248 -474v58q292 126 292 386q0 45 -27 45q-8 0 -46 -16t-74 -16q-81 0 -136.5 61t-55.5 142q0 91 66.5 155t158.5 64q125 0 200 -94
t75 -234q0 -412 -453 -551z" />
    <glyph glyph-name="less" unicode="&#x3c;" horiz-adv-x="1540" 
d="M1496 244l-1442 589v107l1442 595v-182l-1116 -466l1116 -458v-185z" />
    <glyph glyph-name="equal" unicode="=" horiz-adv-x="1540" 
d="M53 1193h1444v-171h-1444v171zM53 762h1444v-172h-1444v172z" />
    <glyph glyph-name="greater" unicode="&#x3e;" horiz-adv-x="1540" 
d="M54 1535l1442 -587v-108l-1442 -596v184l1116 464l-1116 458v185z" />
    <glyph glyph-name="question" unicode="?" 
d="M642 583h-55q0 236 100 420q113 208 113 395q0 342 -231 342q-52 0 -104.5 -27t-52.5 -72q0 -17 41 -99t41 -140q0 -152 -155 -152q-174 0 -174 190q0 187 154.5 289t356.5 102q207 0 365.5 -101.5t158.5 -315.5q0 -248 -334 -468q-147 -97 -182.5 -173t-41.5 -190z
M627 391q62 0 109.5 -28.5t75.5 -76t28 -108.5q0 -90 -61.5 -152t-151.5 -62q-102 0 -157.5 68t-55.5 146q0 62 28.5 109.5t76 75.5t108.5 28z" />
    <glyph glyph-name="at" unicode="@" horiz-adv-x="2515" 
d="M1556 1221l322 13l-241 -829q-41 -141 -41 -206q0 -104 107 -104q177 0 373 246t196 574q0 370 -236 601.5t-609 231.5q-536 0 -851.5 -361.5t-315.5 -857.5q0 -458 287.5 -748.5t744.5 -290.5q371 0 664.5 197.5t418.5 530.5h80q-157 -386 -458.5 -593.5t-706.5 -207.5
q-313 0 -570.5 129t-428 394.5t-170.5 635.5q0 537 359 896t919 359q481 0 714.5 -268t233.5 -623q0 -360 -209 -650t-583 -290q-268 0 -268 231q0 71 32 186q-240 -417 -456 -417q-221 0 -221 293q0 233 91 436t268 372.5t323 169.5q156 0 187 -207zM1357 1176
q-110 0 -242.5 -311.5t-132.5 -501.5q0 -121 78 -121q93 0 242 255t149 505q0 174 -94 174z" />
    <glyph glyph-name="A" unicode="A" horiz-adv-x="1952" 
d="M1125 510h-633l-75 -175q-37 -86 -37 -144q0 -57 37 -94.5t199 -47.5v-49h-595v49q97 15 161 85t151 265l640 1428h25l645 -1468q81 -184 134 -243.5t145 -66.5v-49h-866v49h36q175 0 175 90q0 36 -47 147zM1080 607l-267 617l-274 -617h541z" />
    <glyph glyph-name="B" unicode="B" horiz-adv-x="1803" 
d="M1203 949q505 -107 505 -455q0 -223 -195 -358.5t-547 -135.5h-909v49q90 0 146.5 18.5t79 56t22.5 190.5v1162q0 118 -10.5 162t-57 73.5t-180.5 29.5v49h858q214 0 358.5 -30t248.5 -148.5t104 -271.5q0 -284 -423 -391zM722 985q461 0 461 356q0 146 -89 247.5
t-372 101.5v-705zM722 882l1 -638q-2 -146 142 -146q179 0 278.5 108.5t99.5 272.5q0 205 -115 304.5t-406 98.5z" />
    <glyph glyph-name="C" unicode="C" horiz-adv-x="1952" 
d="M1804 1831v-621h-51q-55 232 -209 367t-367 135q-262 0 -428.5 -207.5t-166.5 -584.5q0 -837 586 -837q323 0 606 329v-155q-286 -298 -694 -298q-481 0 -727 274t-246 629q0 396 286.5 682.5t692.5 286.5q188 0 399 -82q121 -47 154 -47q96 0 114 129h51z" />
    <glyph glyph-name="D" unicode="D" horiz-adv-x="1952" 
d="M36 0v49h59q66 0 110.5 20.5t63.5 56.5t19 180v1178q0 107 -7.5 149.5t-55 75t-130.5 32.5h-59v49h801q507 0 754.5 -242.5t247.5 -657.5q0 -433 -264.5 -661.5t-737.5 -228.5h-801zM718 1688v-1396q0 -110 24.5 -152t124.5 -42q495 0 495 781q0 301 -76.5 483t-193 255
t-374.5 71z" />
    <glyph glyph-name="E" unicode="E" horiz-adv-x="1803" 
d="M737 1687v-729h35q302 0 345 423h50v-937h-50q-24 233 -110.5 324t-269.5 91v-504q0 -184 41 -220t236 -36q488 0 619 470h49l-81 -569h-1547v49h60q118 0 155 52t37 205v1178q0 111 -6 153t-53.5 73t-132.5 31h-60v49h1498v-529h-50q-42 219 -129 301.5t-181.5 103.5
t-270.5 21h-184z" />
    <glyph glyph-name="F" unicode="F" horiz-adv-x="1651" 
d="M743 1687v-735h52q346 0 389 384h46v-899h-46q-41 417 -389 417h-52v-548q0 -102 8 -147t55 -77.5t131 -32.5h60v-49h-936v49h59q113 0 153 51.5t40 205.5v1178q0 107 -7.5 149.5t-55 75t-130.5 32.5h-59v49h1510v-514h-54q-16 154 -88.5 250t-181.5 128.5t-337 32.5
h-167z" />
    <glyph glyph-name="G" unicode="G" horiz-adv-x="2103" 
d="M1865 1831v-631h-49q-83 245 -256 386.5t-396 141.5q-311 0 -444.5 -242t-133.5 -600q0 -828 578 -828q126 0 272 54v372q0 218 -185 218h-46v49h870v-49q-128 -8 -169 -52t-41 -166v-372q-346 -154 -742 -154q-302 0 -528.5 119.5t-355.5 322.5t-129 471
q0 280 130.5 493.5t353.5 340.5t514 127q199 0 425 -82q132 -48 157 -48q81 0 126 129h49z" />
    <glyph glyph-name="H" unicode="H" horiz-adv-x="2103" 
d="M739 861v-555q0 -102 8 -147t55 -77.5t131 -32.5h60v-49h-936v49h59q113 0 153 51.5t40 205.5v1178q0 107 -7.5 149.5t-55 75t-130.5 32.5h-59v49h936v-49h-60q-113 0 -153.5 -51.5t-40.5 -205.5v-507h633v507q0 107 -7 149.5t-55.5 75t-132.5 32.5h-58v49h935v-49h-58
q-120 0 -157 -52.5t-37 -204.5v-1178q0 -107 7 -150t54.5 -75t132.5 -32h58v-49h-935v49h58q120 0 157.5 53.5t37.5 203.5v555h-633z" />
    <glyph glyph-name="I" unicode="I" horiz-adv-x="1052" 
d="M990 49v-49h-936v49h60q118 0 155 52t37 205v1178q0 106 -7.5 149t-54.5 75.5t-130 32.5h-60v49h936v-49h-59q-120 0 -157 -52.5t-37 -204.5v-1178q0 -107 7 -149.5t55 -75t132 -32.5h59z" />
    <glyph glyph-name="J" unicode="J" 
d="M384 1741v49h952v-49h-58q-121 0 -157.5 -52.5t-36.5 -204.5v-877q0 -196 -35.5 -331.5t-166 -226t-349.5 -90.5q-180 0 -342 100.5t-162 281.5q0 78 49.5 142.5t145.5 64.5q70 0 130 -46t60 -132q0 -61 -44 -124q-43 -62 -43 -84q0 -96 165 -96q102 0 131.5 76.5
t29.5 384.5v957q0 107 -7 149.5t-55 75t-132 32.5h-75z" />
    <glyph glyph-name="K" unicode="K" horiz-adv-x="2103" 
d="M1126 1105l630 -788q110 -137 194.5 -202.5t182.5 -65.5v-49h-932v49q140 12 140 76q0 57 -121 209l-411 516l-66 -55v-489q0 -105 8.5 -149.5t62.5 -76t150 -31.5v-49h-903v49h59q113 0 153 51.5t40 205.5v1178q0 107 -7.5 149.5t-55 75t-130.5 32.5h-59v49h891v-49
q-72 0 -119 -20t-68.5 -58t-21.5 -179v-557l664 537q139 112 139 179q0 37 -32.5 66.5t-168.5 31.5v49h698v-49q-86 -6 -147 -37t-246 -179z" />
    <glyph glyph-name="L" unicode="L" horiz-adv-x="1803" 
d="M1707 628l-68 -628h-1589v49h60q118 0 155 52t37 205v1178q0 106 -7.5 149t-54.5 75.5t-130 32.5h-60v49h955v-49h-78q-120 0 -157 -52.5t-37 -204.5v-1141q0 -99 19 -156.5t53 -72t314 -14.5q207 0 328 119t206 409h54z" />
    <glyph glyph-name="M" unicode="M" horiz-adv-x="2552" 
d="M1288 610l486 1180h729v-49h-58q-66 0 -110 -20.5t-64 -57.5t-20 -177v-1180q0 -110 7.5 -149.5t54 -73.5t132.5 -34h58v-49h-935v49h58q121 0 157.5 52.5t36.5 204.5v1327l-686 -1633h-32l-697 1621v-1261q0 -126 10 -178.5t74.5 -92.5t177.5 -40v-49h-613v49h19
q97 0 149 37.5t67.5 87.5t15.5 180v1132q0 107 -7 149t-55 74t-132 32h-57v49h731z" />
    <glyph glyph-name="N" unicode="N" horiz-adv-x="1952" 
d="M673 1790l883 -1110v769q0 183 -63.5 237.5t-194.5 54.5v49h591v-49q-142 -13 -188.5 -69t-46.5 -223v-1490h-45l-1210 1490v-1137q0 -263 232 -263h42v-49h-635v49q145 1 204.5 59.5t59.5 203.5v1263l-38 47q-93 115 -226 119v49h635z" />
    <glyph glyph-name="O" unicode="O" horiz-adv-x="2103" 
d="M1044 1815q291 0 497 -106t335.5 -317t129.5 -490q0 -390 -254.5 -666.5t-690.5 -276.5q-476 0 -715.5 289t-239.5 652q0 238 103 441t313.5 338.5t521.5 135.5zM1060 1731q-478 0 -478 -843q0 -830 475 -830q473 0 473 820q0 853 -470 853z" />
    <glyph glyph-name="P" unicode="P" horiz-adv-x="1651" 
d="M730 811v-497q0 -116 10 -160.5t56.5 -74.5t181.5 -30v-49h-909v49q90 0 146.5 18.5t79 56t22.5 190.5v1162q0 118 -10.5 162t-57 73.5t-180.5 29.5v49h780q721 0 721 -481q0 -181 -97 -296.5t-262.5 -158.5t-480.5 -43zM730 1687v-774q291 0 346 130t55 260
q0 384 -347 384h-54z" />
    <glyph glyph-name="Q" unicode="Q" horiz-adv-x="2103" 
d="M1292 -16q122 -352 510 -352q53 0 112 10v-80q-199 -50 -356 -50q-532 0 -730 472q-225 47 -385 176t-248.5 317t-88.5 421q0 278 123 485t335.5 327.5t494.5 120.5q412 0 680.5 -263t268.5 -670q0 -340 -203.5 -600.5t-512.5 -313.5zM1057 1731q-475 0 -475 -837
q0 -836 475 -836q476 0 476 807q0 866 -476 866z" />
    <glyph glyph-name="R" unicode="R" horiz-adv-x="1952" 
d="M718 816v-502q0 -118 10.5 -162t57 -73.5t180.5 -29.5v-49h-916v49q90 0 146.5 18.5t79 55t22.5 191.5v1162q0 116 -10 161t-56.5 74.5t-181.5 29.5v49h832q534 0 675 -148t141 -346q0 -351 -398 -450l431 -606q79 -111 123.5 -149t121.5 -42v-49h-564l-576 816h-118z
M718 1694v-784h75q244 0 357 86.5t113 297.5q0 400 -404 400h-141z" />
    <glyph glyph-name="S" unicode="S" horiz-adv-x="1504" 
d="M1270 1831l14 -597h-54q-36 210 -180 354t-332 144q-109 0 -200.5 -60.5t-91.5 -177.5q0 -96 83 -172.5t354 -210.5q333 -163 432.5 -303t99.5 -302q0 -238 -181.5 -393t-437.5 -155q-151 0 -348 82q-62 26 -105 26q-87 0 -134 -107h-49v676h49q53 -258 209 -421.5
t372 -163.5q123 0 223 70t100 198q0 105 -80.5 186.5t-298.5 188.5q-310 153 -441.5 289t-131.5 334q0 220 159.5 367.5t393.5 147.5q116 0 266 -62q150 -61 179 -61q65 0 91 123h40z" />
    <glyph glyph-name="T" unicode="T" horiz-adv-x="1803" 
d="M1705 1790v-484h-47q-38 151 -104 243t-132 115t-175 23h-133v-1381q0 -107 7 -149.5t55.5 -75t132.5 -32.5h60v-49h-937v49h59q82 0 120.5 25t56 59t17.5 173v1381h-129q-116 0 -193 -32t-136 -124t-79 -225h-50v484h1607z" />
    <glyph glyph-name="U" unicode="U" horiz-adv-x="1952" 
d="M63 1790h924v-49h-46q-136 0 -175.5 -48t-39.5 -225v-877q0 -171 19.5 -268.5t107.5 -164t239 -66.5q139 0 236 55.5t156 173t59 417.5v730q0 141 -46 207t-210 66v49h619v-49h-37q-86 0 -150.5 -45.5t-64.5 -227.5v-680q0 -210 -15.5 -338.5t-90.5 -247t-221 -181.5
t-357 -63q-674 0 -674 633v877q0 129 -12 175.5t-56.5 72t-164.5 25.5v49z" />
    <glyph glyph-name="V" unicode="V" horiz-adv-x="1952" 
d="M1925 1790v-49q-103 -17 -167 -94.5t-173 -319.5l-616 -1368h-44l-712 1654q-68 114 -192 128v49h858v-49h-29q-189 0 -189 -87q0 -39 82 -230l382 -891l353 794q93 209 93 276q0 138 -234 138v49h588z" />
    <glyph glyph-name="W" unicode="W" horiz-adv-x="2703" 
d="M2680 1790v-49q-75 -5 -113 -52.5t-116 -252.5l-561 -1477h-51l-444 1154l-488 -1154h-49l-671 1663q-62 110 -163 119v49h776v-49q-156 -4 -156 -92q0 -52 65 -213l351 -868l281 678l-74 190q-76 196 -126.5 250.5t-168.5 54.5v49h867v-49q-190 -3 -190 -95
q0 -33 59 -186l326 -848l292 767q67 176 67 243q0 115 -178 119v49h465z" />
    <glyph glyph-name="X" unicode="X" horiz-adv-x="1952" 
d="M1142 1049l494 -732q105 -155 159.5 -206.5t138.5 -61.5v-49h-873v49q165 12 165 90q0 43 -101 190l-262 386l-273 -334q-123 -150 -123 -205q0 -127 239 -127v-49h-688v49q103 15 180.5 59.5t251.5 257.5l355 433l-455 669q-66 96 -123.5 176.5t-169.5 96.5v49h888v-49
h-45q-144 0 -144 -90q0 -22 87 -154l242 -367l189 231q145 177 145 249q0 131 -198 131v49h659v-49q-108 -2 -175 -46.5t-224 -235.5z" />
    <glyph glyph-name="Y" unicode="Y" horiz-adv-x="1952" 
d="M1922 1790v-49q-71 -8 -124.5 -41t-220.5 -313l-388 -648v-433q0 -106 7 -149t53 -75.5t126 -32.5h101v-49h-1005v49h94q84 0 122 25.5t55 59t17 172.5v359l-421 767q-108 196 -162 251.5t-152 57.5v49h858v-49h-38q-140 0 -140 -70q0 -47 105 -239l324 -592l322 539
q120 201 120 263q0 88 -200 99v49h547z" />
    <glyph glyph-name="Z" unicode="Z" horiz-adv-x="1803" 
d="M1650 1790l-1052 -1690h341q208 0 345.5 32t256.5 163.5t163 351.5h52l-73 -647h-1639l1053 1692h-265q-176 0 -278.5 -27t-189.5 -125.5t-128 -273.5h-49l49 524h1414z" />
    <glyph glyph-name="bracketleft" unicode="[" horiz-adv-x="900" 
d="M281 -417v2284h531v-55h-59q-111 0 -144 -43t-33 -196v-1705q0 -65 1.5 -120t45.5 -86t130 -31h59v-48h-531z" />
    <glyph glyph-name="backslash" unicode="\" horiz-adv-x="751" 
d="M3 1831h166l590 -1872h-170z" />
    <glyph glyph-name="bracketright" unicode="]" horiz-adv-x="900" 
d="M620 1867v-2284h-531v50h60q112 0 144.5 42.5t32.5 195.5v1706q0 53 -1.5 113.5t-46 92t-129.5 31.5h-60v53h531z" />
    <glyph glyph-name="asciicircum" unicode="^" horiz-adv-x="1571" 
d="M194 879l543 948h108l533 -948h-210l-389 676l-383 -676h-202z" />
    <glyph glyph-name="underscore" unicode="_" 
d="M-25 -411h1402v-172h-1402v172z" />
    <glyph glyph-name="grave" unicode="`" horiz-adv-x="900" 
d="M50 1851h397l154 -458h-113z" />
    <glyph glyph-name="a" unicode="a" 
d="M772 182q-226 -199 -405 -199q-93 0 -169.5 61.5t-76.5 181.5q0 143 131 259t520 295v124q0 267 -167 267q-176 0 -176 -94q0 -22 43 -77q44 -54 44 -101q0 -156 -174 -156q-81 0 -138 47.5t-57 120.5q0 171 175 265.5t390 94.5q160 0 261.5 -56t134.5 -142.5t33 -292.5
v-479q0 -149 56 -149q35 0 70 49l40 -32q-126 -186 -297 -186q-212 0 -238 199zM772 279v413q-289 -171 -289 -345q0 -52 35.5 -97t100.5 -45q66 0 153 74z" />
    <glyph glyph-name="b" unicode="b" horiz-adv-x="1504" 
d="M569 1790v-680q156 161 341 161q220 0 348.5 -174t128.5 -429q0 -333 -175.5 -519t-427.5 -186q-189 0 -331 135l-205 -134h-45v1570q0 121 -25 162.5t-121 44.5v49h512zM569 993v-549q0 -151 8.5 -221.5t57 -119t133.5 -48.5q122 0 175.5 133t53.5 467q0 466 -210 466
q-114 0 -218 -128z" />
    <glyph glyph-name="c" unicode="c" horiz-adv-x="1200" 
d="M1098 318l41 -32q-172 -323 -494 -323q-244 0 -393 182t-149 452q0 253 148 463.5t434 210.5q151 0 284 -81t133 -230q0 -165 -165 -165q-170 0 -191 235q-14 149 -110 149q-177 0 -177 -379q0 -261 99 -444t280 -183q124 0 260 145z" />
    <glyph glyph-name="d" unicode="d" horiz-adv-x="1504" 
d="M1291 1790v-1420q0 -162 24 -208t128 -54v-43l-522 -102v195q-161 -195 -332 -195q-236 0 -360.5 189.5t-124.5 442.5q0 289 137.5 482.5t376.5 193.5q163 0 303 -154v372q0 155 -28 200.5t-150 45.5v55h548zM921 953q-97 188 -239 188q-191 0 -191 -486q0 -534 211 -534
q116 0 219 183v649z" />
    <glyph glyph-name="e" unicode="e" horiz-adv-x="1200" 
d="M1137 661h-678q11 -220 108.5 -358.5t241.5 -138.5q152 0 283 203l45 -29q-184 -375 -503 -375q-264 0 -397 184.5t-133 449.5q0 280 154.5 477t404.5 197q221 0 343 -176t131 -434zM812 750q0 435 -169 435q-86 0 -138 -111.5t-52 -277.5v-46h359z" />
    <glyph glyph-name="f" unicode="f" horiz-adv-x="900" 
d="M632 1105v-857q0 -151 45.5 -175.5t136.5 -24.5v-48h-727v48q110 2 145 38.5t35 161.5v857h-180v129h180q0 154 -2 154q0 193 141.5 318t374.5 125q125 0 222.5 -48.5t97.5 -146.5q0 -147 -178 -147q-149 0 -149 115q0 12 5 44t5 48q0 60 -65 60q-89 0 -89 -134v-388h184
v-129h-182z" />
    <glyph glyph-name="g" unicode="g" 
d="M883 1220h416v-145h-236q121 -123 121 -267q0 -131 -67.5 -226t-199 -152.5t-226.5 -57.5l-167 7q-54 0 -94.5 -38.5t-40.5 -93.5q0 -108 155 -108h228q235 0 335 -37t148 -111t48 -171q0 -202 -173 -302.5t-469 -100.5q-559 0 -559 242q0 133 215 191q-172 84 -172 234
q0 205 292 327q-335 122 -335 414q0 209 162 327.5t366 118.5q122 0 253 -51zM655 1189q-182 0 -182 -397q0 -343 175 -343q185 0 185 355q0 385 -178 385zM577 -182q-254 0 -254 -133q0 -177 371 -177q394 0 394 186q0 74 -89.5 99t-421.5 25z" />
    <glyph glyph-name="h" unicode="h" horiz-adv-x="1504" 
d="M595 1790v-714q186 195 362 195q141 0 238 -84t97 -437v-482q0 -123 21.5 -166.5t112.5 -53.5v-48h-626v48q60 8 91.5 43t31.5 177v550q0 275 -116 275q-107 0 -212 -164v-661q0 -119 19 -164t104 -56v-48h-626v48q69 6 101.5 39t32.5 181v1254q0 122 -21 164.5
t-113 54.5v49h503z" />
    <glyph glyph-name="i" unicode="i" horiz-adv-x="751" 
d="M388 1832q75 0 140 -53t65 -151t-65 -151t-140 -53q-86 0 -144.5 59t-58.5 145q0 75 52.5 139.5t150.5 64.5zM573 1234v-978q0 -113 24.5 -158t124.5 -50v-48h-667v48q73 2 110.5 35.5t37.5 172.5v721q0 113 -24 157.5t-124 50.5v49h518z" />
    <glyph glyph-name="j" unicode="j" horiz-adv-x="900" 
d="M470 1831q85 0 143.5 -58t58.5 -143t-58.5 -144t-143.5 -59t-143.5 59t-58.5 144t58.5 143t143.5 58zM655 1234v-1278q0 -165 -26 -278t-124 -187t-263 -74q-317 0 -317 225q0 51 35.5 97.5t98.5 46.5q107 0 107 -157q0 -128 73 -128q74 0 74 102q0 20 -8 107
q-18 190 -18 236l1 1085q0 83 -30.5 114.5t-117.5 39.5v49h515z" />
    <glyph glyph-name="k" unicode="k" horiz-adv-x="1504" 
d="M593 1790v-1178l286 282q132 130 132 198q0 76 -142 93v49h553v-49q-80 -4 -146.5 -45t-224.5 -195l-135 -132l291 -425q152 -221 197.5 -277.5t124.5 -62.5v-48h-638v48q81 0 81 50q0 30 -56 112l-244 358l-79 -78v-222q0 -124 21 -167t113 -53v-48h-637v48
q69 6 101 38.5t32 181.5v1254q0 121 -21 164t-112 55v49h503z" />
    <glyph glyph-name="l" unicode="l" horiz-adv-x="751" 
d="M574 1790v-1534q0 -113 24.5 -158t124.5 -50v-48h-666v48q71 2 109.5 36t38.5 172v1278q0 136 -36 169.5t-112 37.5v49h517z" />
    <glyph glyph-name="m" unicode="m" horiz-adv-x="2252" 
d="M603 1234v-162q183 199 378 199q237 0 323 -224q200 224 405 224q184 0 262 -112.5t78 -383.5v-506q0 -126 20.5 -167.5t112.5 -53.5v-48h-638v48q85 7 110 55t25 166v531q0 298 -121 298q-114 0 -233 -166v-663q0 -120 23 -167.5t116 -53.5v-48h-639v48q77 4 104 46.5
t27 174.5v531q0 300 -124 300q-110 0 -229 -168v-663q0 -120 23 -166.5t111 -54.5v-48h-637v48q69 6 101.5 39t32.5 182v697q0 122 -20.5 164.5t-113.5 54.5v49h503z" />
    <glyph glyph-name="n" unicode="n" horiz-adv-x="1504" 
d="M595 1234v-159q182 196 370 196q123 0 200 -60t101.5 -157.5t24.5 -303.5v-481q0 -126 21 -169t112 -52v-48h-624v48q78 10 99.5 56.5t21.5 164.5v549q0 275 -114 275t-212 -162v-662q0 -121 20.5 -166t101.5 -55v-48h-625v48q69 6 101.5 39t32.5 182v697
q0 122 -20.5 164.5t-113.5 54.5v49h503z" />
    <glyph glyph-name="o" unicode="o" 
d="M673 1271q277 0 429.5 -189t152.5 -466q0 -288 -157 -470.5t-421 -182.5q-288 0 -433.5 196.5t-145.5 451.5q0 283 158 471.5t417 188.5zM678 1177q-106 0 -150 -120t-44 -547q0 -234 40 -345t149 -111q120 0 157 118.5t37 546.5q0 458 -189 458z" />
    <glyph glyph-name="p" unicode="p" horiz-adv-x="1504" 
d="M569 125v-459q0 -120 35.5 -157.5t150.5 -37.5v-49h-704v49q73 2 110.5 34.5t37.5 168.5v1303q0 113 -24 157.5t-124 50.5v49h518v-162q135 199 342 199q231 0 353 -192.5t122 -455.5q0 -325 -141.5 -492.5t-346.5 -167.5q-194 0 -329 162zM569 259q113 -161 243 -161
q186 0 186 497q0 515 -210 515q-133 0 -219 -193v-658z" />
    <glyph glyph-name="q" unicode="q" horiz-adv-x="1504" 
d="M920 129q-160 -166 -343 -166q-222 0 -348 179.5t-126 422.5q0 332 182.5 519t422.5 187q212 0 330 -144l207 144h45v-1598q0 -116 24.5 -158.5t134.5 -43.5v-49h-712v49q110 0 146.5 37t36.5 154v467zM920 249v509q0 222 -39.5 323.5t-149.5 101.5q-243 0 -243 -594
q0 -477 209 -477q116 0 223 137z" />
    <glyph glyph-name="r" unicode="r" horiz-adv-x="1200" 
d="M603 1234v-280q203 317 394 317q162 0 162 -174q0 -186 -147 -186q-65 0 -127 51q-61 52 -85 52q-95 0 -146 -133t-51 -307l1 -358q0 -89 29.5 -126t132.5 -42v-48h-667v48q85 7 111 50.5t26 191.5v683q0 120 -23 161.5t-114 50.5v49h504z" />
    <glyph glyph-name="s" unicode="s" horiz-adv-x="1052" 
d="M871 1269l20 -422h-45q-139 325 -339 325q-131 0 -131 -120q0 -84 273 -264q307 -201 307 -418q0 -192 -121 -299.5t-283 -107.5q-63 0 -165 35t-126 35q-43 0 -72 -66h-44l-21 444h45q50 -148 148.5 -248.5t210.5 -100.5q144 0 144 133q0 59 -37.5 105.5t-179.5 144.5
q-232 160 -290 255t-58 198q0 185 118.5 279t264.5 94q70 0 153 -34t99 -34q39 0 84 66h45z" />
    <glyph glyph-name="t" unicode="t" horiz-adv-x="900" 
d="M581 1686v-452h293v-130h-293v-762q0 -207 91 -207q86 0 162 130l40 -29q-107 -253 -347 -253q-118 0 -193 50.5t-99 126t-24 277.5v667h-161v46q317 224 487 536h44z" />
    <glyph glyph-name="u" unicode="u" horiz-adv-x="1504" 
d="M1283 1234v-966q0 -122 21.5 -166t111.5 -54v-48h-503v165q-169 -202 -374 -202q-113 0 -197.5 71.5t-105 168.5t-20.5 274v489q0 125 -20.5 166t-112.5 53v49h503v-887q0 -204 115 -204q98 0 212 163v660q0 125 -20.5 166t-112.5 53v49h503z" />
    <glyph glyph-name="v" unicode="v" 
d="M648 -37l-416 957q-71 162 -108 207.5t-99 57.5v49h656v-49q-116 0 -116 -91q0 -50 58 -183l203 -464l163 400q70 172 70 243q0 91 -135 95v49h404v-49q-63 -9 -101 -52t-105 -201l-412 -969h-62z" />
    <glyph glyph-name="w" unicode="w" horiz-adv-x="1952" 
d="M1315 -37l-338 906l-332 -906h-68l-329 895q-58 157 -102.5 233t-123.5 94v49h623v-49q-110 0 -110 -60q0 -23 42 -135l181 -482l174 482l-13 32q-35 86 -63.5 118.5t-97.5 44.5v49h632v-49q-114 -6 -114 -67q0 -20 39 -128l174 -482l158 444q35 98 35 129q0 95 -123 104
v49h366v-49q-66 -8 -101.5 -50.5t-87.5 -190.5l-346 -981h-75z" />
    <glyph glyph-name="x" unicode="x" 
d="M821 756l214 -406q109 -206 158 -253t115 -49v-48h-688v48q119 9 119 60q0 37 -42 116l-107 201l-91 -133q-81 -118 -81 -153q0 -91 127 -91v-48h-483v48q101 0 181.5 64t200.5 244l101 151l-212 393q-87 162 -140.5 220.5t-130.5 64.5v49h684v-49q-95 -23 -105 -27.5
t-10 -27.5q0 -29 44 -112l96 -180l50 72q106 153 106 203q0 61 -106 72v49h437v-49q-161 -5 -308 -231z" />
    <glyph glyph-name="y" unicode="y" 
d="M657 -50l-398 915q-76 175 -119.5 236.5t-117.5 83.5v49h656v-49q-117 -4 -117 -79q0 -47 66 -198l211 -483l144 374q78 203 78 277q0 105 -147 109v49h414v-49q-44 -4 -81.5 -34.5t-54.5 -62.5t-91 -223l-353 -915q-153 -396 -236 -464.5t-190 -68.5q-93 0 -169.5 55.5
t-76.5 157.5q0 177 163 177q144 0 147 -173q2 -79 43 -79q83 0 191 292z" />
    <glyph glyph-name="z" unicode="z" horiz-adv-x="1200" 
d="M1102 0h-1074v29l678 1125h-198q-112 0 -200 -31t-144 -248h-47v359h1039v-35l-673 -1115h85q221 0 346 61.5t188 276.5h37z" />
    <glyph glyph-name="braceleft" unicode="{" horiz-adv-x="1065" 
d="M950 1923v-60q-257 -48 -257 -248q0 -51 31 -224q32 -173 32 -224q0 -316 -430 -430q433 -123 433 -432q0 -48 -33 -218q-32 -170 -32 -223q0 -207 256 -256v-62h-46q-227 0 -363 132t-136 286q0 92 41 249q31 119 31 210q0 229 -259 272v81q259 43 259 284q0 87 -30 202
q-40 154 -40 238q0 172 146 293.5t397 129.5z" />
    <glyph glyph-name="bar" unicode="|" horiz-adv-x="595" 
d="M210 -583v2414h171v-2414h-171z" />
    <glyph glyph-name="braceright" unicode="}" horiz-adv-x="1065" 
d="M122 -454v60q258 50 258 248q0 50 -32 223t-32 225q0 312 431 430q-435 128 -435 433q0 48 32 218q33 170 33 222q0 205 -255 257v61l46 1q165 0 332 -108.5t167 -311.5q0 -89 -41 -248q-30 -117 -30 -210q0 -232 259 -272v-80q-259 -43 -259 -284q0 -89 29 -202
q40 -156 40 -239q0 -170 -148 -294t-395 -129z" />
    <glyph glyph-name="asciitilde" unicode="~" horiz-adv-x="1466" 
d="M1378 936h75q-7 -194 -101.5 -310t-253.5 -116q-119 0 -495 157q-192 80 -278 80q-191 0 -233 -236h-76q21 426 343 426q140 0 506 -157q196 -84 279 -84q210 0 234 240z" />
    <glyph glyph-name="uni007F" horiz-adv-x="2048" 
 />
    <glyph glyph-name="exclamdown" unicode="&#xa1;" horiz-adv-x="900" 
d="M448 1284q90 0 152 -62t62 -152q0 -87 -62 -150.5t-152 -63.5q-88 0 -151 63t-63 151t63 151t151 63zM422 666h58q0 -69 17 -166q12 -69 43 -198l68 -288q32 -130 47 -220t15 -150q0 -101 -60.5 -164.5t-157.5 -63.5q-94 0 -157 63t-63 161q0 55 15 143t51 231l68 288
q34 145 56 364z" />
    <glyph glyph-name="cent" unicode="&#xa2;" 
d="M1162 320l42 -30q-176 -326 -506 -326q-116 0 -222 56l-202 -518h-90l216 570q-115 94 -173.5 230.5t-58.5 299.5q0 271 158 468q80 98 180 147t224 49q26 0 41 -1q74 -5 83 -5l198 520h96l-210 -546q117 -42 172 -118q56 -71 56 -156q0 -74 -44.5 -120t-117.5 -46
q-62 0 -110 32q-42 31 -70 108l-210 -552q59 -106 126 -158q36 -25 74.5 -37.5t83.5 -12.5q142 0 264 146zM794 1108q-42 72 -94 72q-61 0 -108 -68q-70 -100 -70 -288q0 -70 10.5 -144.5t33.5 -173.5z" />
    <glyph glyph-name="sterling" unicode="&#xa3;" 
d="M704 1034h290v-200h-272l2 -102q0 -101 -15.5 -195.5t-48.5 -192.5q40 -10 75.5 -17t66.5 -7q28 -4 68 -6t78 -2q140 0 216 44q51 27 78 100h54q0 -234 -115.5 -363t-290.5 -129q-79 0 -154 30q-34 15 -79.5 45.5t-100.5 76.5q-57 -76 -112 -110q-72 -42 -158 -42
q-106 0 -172 66q-68 62 -68 152q0 95 73.5 165.5t204.5 70.5q15 0 29.5 -0.5t31.5 -3.5t33 -6t38 -12q0 37 -5 68t-15 72l-94 298h-286v200h244q-20 140 -20 226q0 214 122 378q148 200 384 200q170 0 286 -102.5t116 -223.5q0 -81 -47.5 -131.5t-124.5 -50.5q-80 0 -129 49
t-49 133l2 66v22.5t2 23.5q0 66 -28 94q-29 32 -78 32q-47 0 -78 -40q-32 -35 -32 -120q0 -49 8.5 -118t24.5 -151.5t30.5 -162t14.5 -124.5zM440 216q-49 35 -84 48.5t-74 13.5q-61 0 -96 -32q-34 -28 -34 -74q0 -41 32.5 -70.5t81.5 -29.5t96 32q44 33 78 112z" />
    <glyph glyph-name="currency" unicode="&#xa4;" 
d="M1028 1356l182 178l118 -114l-184 -186q114 -159 114 -342q0 -179 -114 -350l170 -170l-122 -120l-172 170q-52 -32 -95.5 -54t-84.5 -36q-36 -10 -78.5 -16t-87.5 -6q-51 0 -93.5 6t-81.5 19t-83 34.5t-90 52.5l-176 -170l-116 120l174 170q-116 152 -116 344
q0 50 6.5 93t21.5 91q26 90 88 164l-180 178l122 122l176 -178q163 118 344 118q173 0 358 -118zM674 1302q-87 0 -159.5 -29t-134.5 -91q-120 -120 -120 -290q0 -172 121 -293t293 -121q169 0 290.5 120t121.5 294q0 167 -120 288.5t-292 121.5z" />
    <glyph glyph-name="yen" unicode="&#xa5;" 
d="M926 814h424v-100h-460l-18 -52v-180h478v-100h-478v-58q0 -120 11 -153t24.5 -54.5t35.5 -36.5t59 -23.5t84 -8.5h48v-48h-938v48h46q110 0 158 28q50 24 68 67t18 185v54h-486v100h486v180l-18 52h-468v100h432l-242 672q-58 162 -106 210q-27 30 -84 36v58h650v-58
q-78 0 -102.5 -18.5t-27.5 -41.5q0 -29 38 -134l264 -724l216 628q52 153 52 214q0 39 -24 54q-11 9 -38.5 15.5t-65.5 6.5v58h388v-58q-57 -14 -104 -64q-18 -21 -42 -72.5t-52 -125.5z" />
    <glyph glyph-name="brokenbar" unicode="&#xa6;" horiz-adv-x="596" 
d="M210 868v964h172v-964h-172zM210 -584v966h172v-966h-172z" />
    <glyph glyph-name="section" unicode="&#xa7;" 
d="M404 1066q-54 46 -91.5 90t-62.5 88q-46 86 -46 180q0 160 134 282q138 126 350 126q197 0 320.5 -101t123.5 -219q0 -69 -43.5 -115.5t-108.5 -46.5q-64 0 -105 41t-41 99q0 23 6 62q8 35 8 66q0 52 -40.5 88t-121.5 36q-100 0 -167 -61t-67 -135q0 -45 12.5 -81.5
t41.5 -72.5q24 -34 87 -83t163 -113q474 -294 474 -590q0 -61 -15.5 -113.5t-48.5 -102.5q-63 -100 -220 -206q56 -53 97 -104q38 -48 61 -90q42 -81 42 -178q0 -110 -56.5 -201t-168.5 -143t-259 -52q-208 0 -321 96.5t-113 221.5q0 70 44.5 116t111.5 46q61 0 105.5 -43
t44.5 -93q0 -31 -18 -76q-16 -51 -16 -78q0 -35 41 -66.5t121 -31.5q113 0 178.5 56.5t65.5 135.5q0 86 -42 146q-59 76 -252 194q-237 147 -378 312q-112 136 -112 260q0 116 64 221t218 233zM476 1008q-126 -108 -126 -230q0 -62 38 -132q40 -64 130 -140l362 -268
q35 32 58.5 60t39.5 58q15 32 22.5 58t7.5 54q0 61 -32 116q-46 83 -144 160z" />
    <glyph glyph-name="dieresis" unicode="&#xa8;" horiz-adv-x="900" 
d="M698 1806q72 0 124 -52q26 -26 39 -56t13 -68q0 -69 -52 -124q-26 -26 -56 -39t-68 -13q-69 0 -122.5 52t-53.5 124q0 69 52 122.5t124 53.5zM204 1806q72 0 124 -50.5t52 -125.5q0 -72 -52 -124q-26 -26 -56 -39t-68 -13q-69 0 -121.5 51t-52.5 125q0 71 51 123.5
t123 52.5z" />
    <glyph glyph-name="copyright" unicode="&#xa9;" horiz-adv-x="2020" 
d="M1014 1832q237 0 461 -121t350.5 -348.5t126.5 -466.5t-123.5 -463.5t-348.5 -350.5q-220 -122 -466 -122q-243 0 -466 122q-113 62 -197.5 147t-148.5 201q-124 221 -124 466q0 125 30.5 239.5t95.5 228.5q127 227 350 346q229 122 460 122zM1014 1714q-104 0 -204 -26
t-198 -80q-195 -105 -308 -304q-108 -195 -108 -408t108 -408q103 -191 304 -304q96 -53 198 -80.5t208 -27.5q211 0 405.5 107.5t303.5 302t109 410.5q0 212 -110 408q-54 98 -130 174t-176 130q-194 106 -402 106zM1456 1460v-348h-50q-27 131 -116 208q-44 38 -95 57
t-113 19q-146 0 -244 -116t-98 -364q0 -266 96 -380t238 -114q191 0 346 182v-92q-80 -83 -185 -125.5t-235 -42.5q-248 0 -402 151t-154 387q0 252 165.5 416t414.5 164q113 0 260 -54q45 -16 62 -16q22 0 38 16t22 52h50z" />
    <glyph glyph-name="ordfeminine" unicode="&#xaa;" horiz-adv-x="810" 
d="M484 1174q-147 -120 -262 -120q-73 0 -117.5 43t-44.5 105q0 67 58 128q74 80 366 202v74q0 81 -10 104q-8 22 -38 40q-24 18 -64 18q-55 0 -90 -26q-19 -11 -22 -32q0 -14 26 -40q30 -33 30 -64q0 -43 -30 -68q-31 -28 -82 -28q-53 0 -92 30q-34 34 -34 74
q0 38 18.5 69.5t59.5 62.5q109 82 276 82q57 0 100 -9.5t80 -30.5q71 -32 91.5 -83t20.5 -173v-288v-35.5t4 -28.5q3 -12 12 -18q6 -6 20 -6q24 0 46 28l26 -18q-43 -56 -90.5 -84t-103.5 -28q-37 0 -62.5 6.5t-45.5 21.5q-34 28 -46 92zM484 1232v246q-52 -27 -90 -56
t-66 -64q-15 -21 -23.5 -42t-8.5 -40q0 -37 24 -64q26 -26 62 -26q41 0 102 46z" />
    <glyph glyph-name="guillemotleft" unicode="&#xab;" 
d="M1202 10l-554 610l560 604h94l-310 -604l310 -610h-100zM606 10l-558 610l558 604h104l-316 -598l316 -616h-104z" />
    <glyph glyph-name="logicalnot" unicode="&#xac;" horiz-adv-x="1540" 
d="M54 1190h1444v-600h-170v434l-1274 -2v168z" />
    <glyph glyph-name="uni00AD" unicode="&#xad;" horiz-adv-x="900" 
d="M836 484h-770v274h770v-274z" />
    <glyph glyph-name="registered" unicode="&#xae;" horiz-adv-x="2020" 
d="M1014 1832q237 0 461 -121t350.5 -348.5t126.5 -466.5t-123.5 -463.5t-348.5 -350.5q-220 -122 -466 -122q-243 0 -466 122q-113 62 -197.5 147t-148.5 201q-124 221 -124 466q0 125 30.5 239.5t95.5 228.5q127 227 350 346q229 122 460 122zM1014 1714q-104 0 -204 -26
t-198 -80q-195 -105 -308 -304q-108 -195 -108 -408t108 -408q103 -191 304 -304q96 -53 198 -80.5t208 -27.5q211 0 405.5 107.5t303.5 302t109 410.5q0 212 -110 408q-54 98 -130 174t-176 130q-194 106 -402 106zM514 1438h478q122 0 205 -14t129 -44q134 -80 134 -230
q0 -93 -60 -168q-55 -70 -176 -106l180 -330q21 -35 41.5 -62t40.5 -44q22 -16 58 -24v-46h-320l-270 486h-62v-260q0 -111 30 -144q15 -17 47 -26.5t81 -9.5v-46h-558v46q78 0 106 28q34 37 34 152v622q0 105 -24 138q-23 29 -94 38v44zM892 924q45 -6 76 -6q44 0 80 15.5
t66 48.5q62 62 62 174q0 111 -58 166q-52 58 -176 58h-50v-456z" />
    <glyph glyph-name="macron" unicode="&#xaf;" 
d="M-26 2102h1402v-172h-1402v172z" />
    <glyph glyph-name="degree" unicode="&#xb0;" horiz-adv-x="1082" 
d="M534 1828q115 0 226 -60q107 -57 170 -170q30 -55 46 -112t16 -116q0 -185 -136 -324q-132 -132 -322 -132q-187 0 -321.5 133t-134.5 323q0 117 61.5 228t170 170.5t224.5 59.5zM534 1656q-118 0 -201 -84.5t-83 -199.5t84.5 -199.5t199.5 -84.5q114 0 202 82
q82 85 82 202q0 115 -83 199.5t-201 84.5z" />
    <glyph glyph-name="plusminus" unicode="&#xb1;" horiz-adv-x="1484" 
d="M22 982h634v634h174v-634h634v-174h-634v-454h634v-174h-1442l-2 172h636v456h-634v174z" />
    <glyph glyph-name="uni00B2" unicode="&#xb2;" horiz-adv-x="810" 
d="M686 876h-654v24q148 152 238 257q87 101 116 153q54 99 54 184q0 66 -44.5 112t-113.5 46q-109 0 -178 -108l-56 16q42 131 132 199.5t210 68.5q134 0 220 -77t86 -165q0 -80 -68 -192q-36 -56 -114.5 -135.5t-207.5 -188.5h200q95 0 122 12q11 6 23 21t23 37l12 18h60z
" />
    <glyph glyph-name="uni00B3" unicode="&#xb3;" horiz-adv-x="810" 
d="M232 1338v34q119 31 144 56q60 48 60 118q0 53 -40 91.5t-108 38.5q-96 0 -178 -106l-54 20q121 238 356 238q120 0 195 -63t75 -141q0 -110 -128 -178q178 -84 178 -238q0 -138 -120.5 -245t-333.5 -107q-142 0 -214 44q-44 31 -44 72q0 16 6.5 29.5t21.5 30.5
q15 11 34 17.5t40 6.5q28 0 58 -12q7 -2 27.5 -15.5t58.5 -42.5q70 -52 134 -52q53 0 88 38q17 18 26.5 42t9.5 52q0 86 -70.5 162.5t-221.5 109.5z" />
    <glyph glyph-name="acute" unicode="&#xb4;" horiz-adv-x="900" 
d="M852 1850l-438 -458h-114l154 458h398z" />
    <glyph glyph-name="mu" unicode="&#xb5;" horiz-adv-x="1558" 
d="M200 1234h368v-916q0 -104 28 -140q31 -34 84 -34q120 0 218 160v930h366v-824v-70q0 -109 25.5 -143.5t64.5 -34.5q31 0 54 32q34 45 46 158h58q0 -91 -26.5 -162.5t-77.5 -125.5q-94 -100 -238 -100q-50 0 -88.5 11.5t-73.5 38.5q-33 23 -58.5 62t-43.5 94
q-53 -58 -96 -94q-48 -40 -94 -64q-90 -48 -194 -48q-33 0 -52 2.5t-40 11.5q-35 11 -104 58q0 -78 6 -126q5 -24 20 -83q10 -38 20 -77q15 -51 23.5 -93t8.5 -65q0 -81 -43.5 -127.5t-114.5 -46.5q-64 0 -104 40q-19 22 -28.5 49.5t-9.5 64.5q0 33 7 73.5t25 108.5
q38 151 51 253.5t13 334.5v892z" />
    <glyph glyph-name="paragraph" unicode="&#xb6;" horiz-adv-x="1460" 
d="M844 1690v-2274h-132v1150q-117 0 -217 22t-179 59t-136.5 90.5t-99.5 126.5q-78 147 -78 328q0 138 32 222q16 43 42 85.5t63 83t72.5 71t74.5 52.5q75 42 174 60q126 24 424 24h580v-58h-58q-76 0 -117.5 -24.5t-58.5 -67.5q-16 -35 -16 -176v-2048h-130v2274h-240z
" />
    <glyph glyph-name="periodcentered" unicode="&#xb7;" horiz-adv-x="676" 
d="M340 1116q90 0 155 -65t65 -157q0 -89 -64 -156q-67 -64 -156 -64q-91 0 -156.5 64t-65.5 156q0 47 15.5 85t48.5 71q63 66 158 66z" />
    <glyph glyph-name="periodcentered" unicode="&#x2219;" horiz-adv-x="676" 
d="M340 1116q90 0 155 -65t65 -157q0 -89 -64 -156q-67 -64 -156 -64q-91 0 -156.5 64t-65.5 156q0 47 15.5 85t48.5 71q63 66 158 66z" />
    <glyph glyph-name="cedilla" unicode="&#xb8;" horiz-adv-x="900" 
d="M452 16h88l-62 -96q77 -12 119.5 -63.5t42.5 -128.5q0 -35 -9.5 -65.5t-30.5 -60.5q-42 -55 -104 -78q-48 -16 -124.5 -24t-179.5 -8v62q128 0 178 44q48 36 48 102q0 37 -30.5 64.5t-89.5 27.5z" />
    <glyph glyph-name="uni00B9" unicode="&#xb9;" horiz-adv-x="810" 
d="M546 1828v-758q0 -82 10 -112q7 -17 28 -28.5t78 -11.5h40v-42h-588v42h44q69 0 94 14q15 9 24 24q12 27 12 114v474q0 61 -6 76q-2 12 -20 24q-5 3 -16 5.5t-20 2.5q-18 0 -43.5 -6t-60.5 -20l-24 42l402 160h46z" />
    <glyph glyph-name="ordmasculine" unicode="&#xba;" horiz-adv-x="892" 
d="M448 1828q162 0 270 -109.5t108 -284.5q0 -178 -104 -285t-270 -107q-167 0 -272.5 108.5t-105.5 281.5q0 175 106 285.5t268 110.5zM452 1770q-40 0 -70 -24q-26 -23 -36.5 -66.5t-16 -127t-5.5 -188.5q0 -165 36 -216q32 -52 88 -52q40 0 70 24q28 25 40 70
q8 39 12 111t4 189q0 183 -32 231.5t-90 48.5z" />
    <glyph glyph-name="guillemotright" unicode="&#xbb;" 
d="M152 1224l552 -608l-558 -606h-96l310 606l-310 608h102zM748 1224l558 -608l-558 -606h-106l316 598l-316 616h106z" />
    <glyph glyph-name="onequarter" unicode="&#xbc;" horiz-adv-x="2028" 
d="M544 1828v-758q0 -89 10 -112q7 -17 26 -28q24 -12 80 -12h40v-42h-590v42h44q71 0 96 14q15 9 24 24q12 27 12 114v474q0 61 -6 76q-1 7 -7 13q-2 2 -13 11q-2 1 -13 4.5t-23 3.5q-19 0 -43.5 -6t-62.5 -20l-22 42l402 160h46zM1768 1828l-1270 -1906h-174l1266 1906
h178zM1248 292l508 600h120v-600h98v-150h-98v-204h-238v204h-390v150zM1358 292h280v328z" />
    <glyph glyph-name="onehalf" unicode="&#xbd;" horiz-adv-x="2028" 
d="M544 1828v-758q0 -89 10 -112q7 -17 26 -28q24 -12 80 -12h40v-42h-590v42h44q71 0 96 14q15 9 24 24q12 27 12 114v474q0 61 -6 76q-1 7 -7 13q-2 2 -13 11q-2 1 -13 4.5t-23 3.5q-19 0 -43.5 -6t-62.5 -20l-22 42l402 160h46zM1738 1828l-1272 -1906h-180l1272 1906
h180zM1900 -62h-654v26q299 305 353.5 405t54.5 185q0 67 -44 112.5t-114 45.5q-114 0 -178 -108l-54 20q21 65 53 114.5t77 83.5q87 66 210 66q136 0 221 -74.5t85 -165.5q0 -80 -68 -192q-35 -56 -115.5 -137.5t-206.5 -186.5h202q93 0 120 12q25 13 48 58q8 16 10 18h60z
" />
    <glyph glyph-name="threequarters" unicode="&#xbe;" horiz-adv-x="2028" 
d="M228 1338v34q60 16 95 29t51 27q60 48 60 118q0 53 -40 90q-43 40 -108 40q-96 0 -178 -106l-54 20q121 238 356 238q120 0 195 -64.5t75 -139.5q0 -110 -128 -178q176 -84 176 -238q0 -70 -29.5 -131t-90.5 -115q-118 -106 -332 -106q-74 0 -126.5 11t-87.5 33
q-44 31 -44 72q0 32 28 60q14 11 32.5 17.5t41.5 6.5q29 0 56 -12q17 -3 86 -58q73 -52 136 -52q51 0 87.5 38t36.5 94q0 86 -70.5 162.5t-223.5 109.5zM1768 1828l-1270 -1906h-174l1266 1906h178zM1248 292l508 600h120v-600h98v-150h-98v-204h-238v204h-390v150z
M1358 292h280v328z" />
    <glyph glyph-name="questiondown" unicode="&#xbf;" 
d="M724 1284q90 0 152 -62q31 -32 46.5 -69.5t15.5 -82.5q0 -86 -63 -149t-151 -63q-87 0 -152 62q-62 65 -62 150q0 87 62 152q32 31 69.5 46.5t82.5 15.5zM710 664h54q0 -90 -2.5 -135t-11.5 -83q-15 -73 -86 -200q-33 -63 -57 -116.5t-35 -89.5q-9 -36 -14.5 -87
t-5.5 -103q0 -175 68.5 -258.5t161.5 -83.5q74 0 120 40q35 26 38 60q0 20 -26.5 68.5t-41 93t-14.5 78.5q0 64 42.5 108t111.5 44t121.5 -51t52.5 -139q0 -158 -134.5 -276t-375.5 -118q-254 0 -389 123t-135 295q0 126 67 231t267 237q130 87 171 153.5t53 208.5z" />
    <glyph glyph-name="Agrave" unicode="&#xc0;" horiz-adv-x="1952" 
d="M1125 510h-633l-75 -175q-37 -86 -37 -144q0 -57 37 -94.5t199 -47.5v-49h-595v49q97 15 161 85t151 265l640 1428h25l645 -1468q81 -184 134 -243.5t145 -66.5v-49h-866v49h36q175 0 175 90q0 36 -47 147zM1080 607l-267 617l-274 -617h541zM471 2391h397l154 -458h-113
z" />
    <glyph glyph-name="Aacute" unicode="&#xc1;" horiz-adv-x="1952" 
d="M1125 510h-633l-75 -175q-37 -86 -37 -144q0 -57 37 -94.5t199 -47.5v-49h-595v49q97 15 161 85t151 265l640 1428h25l645 -1468q81 -184 134 -243.5t145 -66.5v-49h-866v49h36q175 0 175 90q0 36 -47 147zM1080 607l-267 617l-274 -617h541zM1332 2370l-438 -458h-114
l154 458h398z" />
    <glyph glyph-name="Acircumflex" unicode="&#xc2;" horiz-adv-x="1952" 
d="M1125 510h-633l-75 -175q-37 -86 -37 -144q0 -57 37 -94.5t199 -47.5v-49h-595v49q97 15 161 85t151 265l640 1428h25l645 -1468q81 -184 134 -243.5t145 -66.5v-49h-866v49h36q175 0 175 90q0 36 -47 147zM1080 607l-267 617l-274 -617h541zM1118 2404l268 -504h-102
l-314 272l-324 -264h-108l280 496h300z" />
    <glyph glyph-name="Atilde" unicode="&#xc3;" horiz-adv-x="1952" 
d="M1125 510h-633l-75 -175q-37 -86 -37 -144q0 -57 37 -94.5t199 -47.5v-49h-595v49q97 15 161 85t151 265l640 1428h25l645 -1468q81 -184 134 -243.5t145 -66.5v-49h-866v49h36q175 0 175 90q0 36 -47 147zM1080 607l-267 617l-274 -617h541zM1310 2326h70v-44
q0 -149 -82 -234q-41 -44 -90.5 -67t-107.5 -23q-86 0 -216.5 63t-171.5 63t-66 -28q-26 -23 -38 -94h-76q0 88 18.5 154t59.5 114q83 98 206 98q14 0 30 -0.5t36 -7.5q29 -7 128 -52q133 -62 194 -62q26 0 56 24q22 22 50 96z" />
    <glyph glyph-name="Adieresis" unicode="&#xc4;" horiz-adv-x="1952" 
d="M1125 510h-633l-75 -175q-37 -86 -37 -144q0 -57 37 -94.5t199 -47.5v-49h-595v49q97 15 161 85t151 265l640 1428h25l645 -1468q81 -184 134 -243.5t145 -66.5v-49h-866v49h36q175 0 175 90q0 36 -47 147zM1080 607l-267 617l-274 -617h541zM1218 2326q72 0 124 -52
q26 -26 39 -56t13 -68q0 -69 -52 -124q-26 -26 -56 -39t-68 -13q-69 0 -122.5 52t-53.5 124q0 69 52 122.5t124 53.5zM724 2326q72 0 124 -50.5t52 -125.5q0 -72 -52 -124q-26 -26 -56 -39t-68 -13q-69 0 -121.5 51t-52.5 125q0 71 51 123.5t123 52.5z" />
    <glyph glyph-name="Aring" unicode="&#xc5;" horiz-adv-x="1952" 
d="M1125 510h-633l-75 -175q-37 -86 -37 -144q0 -57 37 -94.5t199 -47.5v-49h-595v49q97 15 161 85t151 265l640 1428h25l645 -1468q81 -184 134 -243.5t145 -66.5v-49h-866v49h36q175 0 175 90q0 36 -47 147zM1080 607l-267 617l-274 -617h541zM950 2438q114 0 196 -80.5
t82 -195.5q0 -113 -82 -198q-40 -39 -90 -59.5t-106 -20.5q-113 0 -194.5 81.5t-81.5 196.5q0 114 80 194q40 40 89 61t107 21zM952 2336q-71 0 -126 -52q-50 -53 -50 -122q0 -72 52 -124q26 -26 56 -39t68 -13q73 0 122 52q26 26 39 56t13 68q0 70 -50.5 122t-123.5 52z
" />
    <glyph glyph-name="AE" unicode="&#xc6;" horiz-adv-x="2704" 
d="M2456 1790v-530h-52q-32 170 -102 264q-66 90 -163 126t-317 36h-140v-724h48q121 0 203 86.5t115 331.5h48v-936h-48q-9 80 -26.5 145.5t-43.5 118.5q-35 70 -103 115t-145 45h-48v-546q0 -112 6 -142q12 -39 46 -62q40 -20 146 -20h106q126 0 246 60
q114 55 181.5 148.5t118.5 257.5h50l-82 -564h-1570v48h100q116 0 158 30.5t58 83.5q2 16 4 71.5t2 80.5v456h-580l-252 -404q-60 -93 -68 -120q-16 -35 -16 -70q0 -48 46 -88q25 -19 67.5 -29.5t100.5 -10.5v-48h-580v48q68 8 130 52q31 23 69.5 71.5t86.5 126.5l724 1152
q90 144 90 180q0 32 -21 59t-57 41q-36 12 -160 12v48h1624zM1252 868v818l-520 -818h520z" />
    <glyph glyph-name="Ccedilla" unicode="&#xc7;" horiz-adv-x="1952" 
d="M1804 1831v-621h-51q-55 232 -209 367t-367 135q-262 0 -428.5 -207.5t-166.5 -584.5q0 -837 586 -837q323 0 606 329v-155q-286 -298 -694 -298q-481 0 -727 274t-246 629q0 396 286.5 682.5t692.5 286.5q188 0 399 -82q121 -47 154 -47q96 0 114 129h51zM1009 16h88
l-62 -96q77 -12 119.5 -63.5t42.5 -128.5q0 -35 -9.5 -65.5t-30.5 -60.5q-42 -55 -104 -78q-48 -16 -124.5 -24t-179.5 -8v62q128 0 178 44q48 36 48 102q0 37 -30.5 64.5t-89.5 27.5z" />
    <glyph glyph-name="Egrave" unicode="&#xc8;" horiz-adv-x="1803" 
d="M737 1687v-729h35q302 0 345 423h50v-937h-50q-24 233 -110.5 324t-269.5 91v-504q0 -184 41 -220t236 -36q488 0 619 470h49l-81 -569h-1547v49h60q118 0 155 52t37 205v1178q0 111 -6 153t-53.5 73t-132.5 31h-60v49h1498v-529h-50q-42 219 -129 301.5t-181.5 103.5
t-270.5 21h-184zM491 2371h397l154 -458h-113z" />
    <glyph glyph-name="Eacute" unicode="&#xc9;" horiz-adv-x="1803" 
d="M737 1687v-729h35q302 0 345 423h50v-937h-50q-24 233 -110.5 324t-269.5 91v-504q0 -184 41 -220t236 -36q488 0 619 470h49l-81 -569h-1547v49h60q118 0 155 52t37 205v1178q0 111 -6 153t-53.5 73t-132.5 31h-60v49h1498v-529h-50q-42 219 -129 301.5t-181.5 103.5
t-270.5 21h-184zM1293 2370l-438 -458h-114l154 458h398z" />
    <glyph glyph-name="Ecircumflex" unicode="&#xca;" horiz-adv-x="1803" 
d="M737 1687v-729h35q302 0 345 423h50v-937h-50q-24 233 -110.5 324t-269.5 91v-504q0 -184 41 -220t236 -36q488 0 619 470h49l-81 -569h-1547v49h60q118 0 155 52t37 205v1178q0 111 -6 153t-53.5 73t-132.5 31h-60v49h1498v-529h-50q-42 219 -129 301.5t-181.5 103.5
t-270.5 21h-184zM1047 2404l268 -504h-102l-314 272l-324 -264h-108l280 496h300z" />
    <glyph glyph-name="Edieresis" unicode="&#xcb;" horiz-adv-x="1803" 
d="M737 1687v-729h35q302 0 345 423h50v-937h-50q-24 233 -110.5 324t-269.5 91v-504q0 -184 41 -220t236 -36q488 0 619 470h49l-81 -569h-1547v49h60q118 0 155 52t37 205v1178q0 111 -6 153t-53.5 73t-132.5 31h-60v49h1498v-529h-50q-42 219 -129 301.5t-181.5 103.5
t-270.5 21h-184zM1141 2326q72 0 124 -52q26 -26 39 -56t13 -68q0 -69 -52 -124q-26 -26 -56 -39t-68 -13q-69 0 -122.5 52t-53.5 124q0 69 52 122.5t124 53.5zM647 2326q72 0 124 -50.5t52 -125.5q0 -72 -52 -124q-26 -26 -56 -39t-68 -13q-69 0 -121.5 51t-52.5 125
q0 71 51 123.5t123 52.5z" />
    <glyph glyph-name="Igrave" unicode="&#xcc;" horiz-adv-x="1052" 
d="M990 49v-49h-936v49h60q118 0 155 52t37 205v1178q0 106 -7.5 149t-54.5 75.5t-130 32.5h-60v49h936v-49h-59q-120 0 -157 -52.5t-37 -204.5v-1178q0 -107 7 -149.5t55 -75t132 -32.5h59zM50 2371h397l154 -458h-113z" />
    <glyph glyph-name="Iacute" unicode="&#xcd;" horiz-adv-x="1052" 
d="M990 49v-49h-936v49h60q118 0 155 52t37 205v1178q0 106 -7.5 149t-54.5 75.5t-130 32.5h-60v49h936v-49h-59q-120 0 -157 -52.5t-37 -204.5v-1178q0 -107 7 -149.5t55 -75t132 -32.5h59zM935 2370l-438 -458h-114l154 458h398z" />
    <glyph glyph-name="Icircumflex" unicode="&#xce;" horiz-adv-x="1052" 
d="M990 49v-49h-936v49h60q118 0 155 52t37 205v1178q0 106 -7.5 149t-54.5 75.5t-130 32.5h-60v49h936v-49h-59q-120 0 -157 -52.5t-37 -204.5v-1178q0 -107 7 -149.5t55 -75t132 -32.5h59zM679 2404l268 -504h-102l-314 272l-324 -264h-108l280 496h300z" />
    <glyph glyph-name="Idieresis" unicode="&#xcf;" horiz-adv-x="1052" 
d="M990 49v-49h-936v49h60q118 0 155 52t37 205v1178q0 106 -7.5 149t-54.5 75.5t-130 32.5h-60v49h936v-49h-59q-120 0 -157 -52.5t-37 -204.5v-1178q0 -107 7 -149.5t55 -75t132 -32.5h59zM753 2326q72 0 124 -52q26 -26 39 -56t13 -68q0 -69 -52 -124q-26 -26 -56 -39
t-68 -13q-69 0 -122.5 52t-53.5 124q0 69 52 122.5t124 53.5zM259 2326q72 0 124 -50.5t52 -125.5q0 -72 -52 -124q-26 -26 -56 -39t-68 -13q-69 0 -121.5 51t-52.5 125q0 71 51 123.5t123 52.5z" />
    <glyph glyph-name="Eth" unicode="&#xd0;" horiz-adv-x="1952" 
d="M46 0v48h60q76 0 117.5 24t62.5 68q6 14 10 56.5t4 109.5v590h-254v96h254v492q0 134 -16 172q-16 34 -60 58q-44 28 -118 28h-60v48h802q324 0 518 -88q236 -105 360 -322q62 -109 93 -230t31 -260q0 -192 -59.5 -349.5t-158.5 -262.5t-223.5 -165.5t-308.5 -96.5
q-83 -16 -252 -16h-802zM730 1688l-2 -696h398v-96h-398l2 -604q0 -59 2 -92t8 -44q12 -24 34 -38q34 -20 104 -20q218 0 338 150q156 201 156 632q0 174 -26 310t-82 240q-82 160 -218 218q-46 20 -126.5 30t-189.5 10z" />
    <glyph glyph-name="Ntilde" unicode="&#xd1;" horiz-adv-x="1952" 
d="M673 1790l883 -1110v769q0 183 -63.5 237.5t-194.5 54.5v49h591v-49q-142 -13 -188.5 -69t-46.5 -223v-1490h-45l-1210 1490v-1137q0 -263 232 -263h42v-49h-635v49q145 1 204.5 59.5t59.5 203.5v1263l-38 47q-93 115 -226 119v49h635zM1349 2326h70v-44q0 -149 -82 -234
q-41 -44 -90.5 -67t-107.5 -23q-86 0 -216.5 63t-171.5 63t-66 -28q-26 -23 -38 -94h-76q0 88 18.5 154t59.5 114q83 98 206 98q14 0 30 -0.5t36 -7.5q29 -7 128 -52q133 -62 194 -62q26 0 56 24q22 22 50 96z" />
    <glyph glyph-name="Ograve" unicode="&#xd2;" horiz-adv-x="2103" 
d="M1044 1815q291 0 497 -106t335.5 -317t129.5 -490q0 -390 -254.5 -666.5t-690.5 -276.5q-476 0 -715.5 289t-239.5 652q0 238 103 441t313.5 338.5t521.5 135.5zM1060 1731q-478 0 -478 -843q0 -830 475 -830q473 0 473 820q0 853 -470 853zM577 2371h397l154 -458h-113z
" />
    <glyph glyph-name="Oacute" unicode="&#xd3;" horiz-adv-x="2103" 
d="M1044 1815q291 0 497 -106t335.5 -317t129.5 -490q0 -390 -254.5 -666.5t-690.5 -276.5q-476 0 -715.5 289t-239.5 652q0 238 103 441t313.5 338.5t521.5 135.5zM1060 1731q-478 0 -478 -843q0 -830 475 -830q473 0 473 820q0 853 -470 853zM1452 2370l-438 -458h-114
l154 458h398z" />
    <glyph glyph-name="Ocircumflex" unicode="&#xd4;" horiz-adv-x="2103" 
d="M1044 1815q291 0 497 -106t335.5 -317t129.5 -490q0 -390 -254.5 -666.5t-690.5 -276.5q-476 0 -715.5 289t-239.5 652q0 238 103 441t313.5 338.5t521.5 135.5zM1060 1731q-478 0 -478 -843q0 -830 475 -830q473 0 473 820q0 853 -470 853zM1198 2404l268 -504h-102
l-314 272l-324 -264h-108l280 496h300z" />
    <glyph glyph-name="Otilde" unicode="&#xd5;" horiz-adv-x="2103" 
d="M1044 1815q291 0 497 -106t335.5 -317t129.5 -490q0 -390 -254.5 -666.5t-690.5 -276.5q-476 0 -715.5 289t-239.5 652q0 238 103 441t313.5 338.5t521.5 135.5zM1060 1731q-478 0 -478 -843q0 -830 475 -830q473 0 473 820q0 853 -470 853zM1400 2326h70v-44
q0 -149 -82 -234q-41 -44 -90.5 -67t-107.5 -23q-86 0 -216.5 63t-171.5 63t-66 -28q-26 -23 -38 -94h-76q0 88 18.5 154t59.5 114q83 98 206 98q14 0 30 -0.5t36 -7.5q29 -7 128 -52q133 -62 194 -62q26 0 56 24q22 22 50 96z" />
    <glyph glyph-name="Odieresis" unicode="&#xd6;" horiz-adv-x="2103" 
d="M1044 1815q291 0 497 -106t335.5 -317t129.5 -490q0 -390 -254.5 -666.5t-690.5 -276.5q-476 0 -715.5 289t-239.5 652q0 238 103 441t313.5 338.5t521.5 135.5zM1060 1731q-478 0 -478 -843q0 -830 475 -830q473 0 473 820q0 853 -470 853zM1288 2326q72 0 124 -52
q26 -26 39 -56t13 -68q0 -69 -52 -124q-26 -26 -56 -39t-68 -13q-69 0 -122.5 52t-53.5 124q0 69 52 122.5t124 53.5zM794 2326q72 0 124 -50.5t52 -125.5q0 -72 -52 -124q-26 -26 -56 -39t-68 -13q-69 0 -121.5 51t-52.5 125q0 71 51 123.5t123 52.5z" />
    <glyph glyph-name="multiply" unicode="&#xd7;" horiz-adv-x="1540" 
d="M326 1468l448 -448l450 446l122 -120l-448 -450l448 -448l-122 -124l-450 450l-446 -446l-120 122l444 446l-448 450z" />
    <glyph glyph-name="Oslash" unicode="&#xd8;" horiz-adv-x="2104" 
d="M1928 1810l-204 -236q282 -273 282 -676q0 -138 -31 -258.5t-97 -233.5q-129 -218 -355 -332t-457 -114q-143 0 -304.5 44.5t-287.5 129.5l-208 -236l-72 66l206 236q-141 129 -220 318q-37 95 -55.5 190t-18.5 192q0 251 123 472t346 340.5t487 119.5q340 0 586 -192
l204 234zM1454 1416q-69 165 -150 228q-105 84 -248 84q-198 0 -320 -164q-152 -203 -152 -684q0 -213 44 -418zM666 354q74 -162 168 -232q45 -32 100 -49t124 -17q142 0 244 84q51 41 94.5 116t79.5 184q26 83 39 187.5t13 240.5q0 134 -10 244q-5 60 -28 190z" />
    <glyph glyph-name="Ugrave" unicode="&#xd9;" horiz-adv-x="1952" 
d="M63 1790h924v-49h-46q-136 0 -175.5 -48t-39.5 -225v-877q0 -171 19.5 -268.5t107.5 -164t239 -66.5q139 0 236 55.5t156 173t59 417.5v730q0 141 -46 207t-210 66v49h619v-49h-37q-86 0 -150.5 -45.5t-64.5 -227.5v-680q0 -210 -15.5 -338.5t-90.5 -247t-221 -181.5
t-357 -63q-674 0 -674 633v877q0 129 -12 175.5t-56.5 72t-164.5 25.5v49zM571 2371h397l154 -458h-113z" />
    <glyph glyph-name="Uacute" unicode="&#xda;" horiz-adv-x="1952" 
d="M63 1790h924v-49h-46q-136 0 -175.5 -48t-39.5 -225v-877q0 -171 19.5 -268.5t107.5 -164t239 -66.5q139 0 236 55.5t156 173t59 417.5v730q0 141 -46 207t-210 66v49h619v-49h-37q-86 0 -150.5 -45.5t-64.5 -227.5v-680q0 -210 -15.5 -338.5t-90.5 -247t-221 -181.5
t-357 -63q-674 0 -674 633v877q0 129 -12 175.5t-56.5 72t-164.5 25.5v49zM1392 2370l-438 -458h-114l154 458h398z" />
    <glyph glyph-name="Ucircumflex" unicode="&#xdb;" horiz-adv-x="1952" 
d="M63 1790h924v-49h-46q-136 0 -175.5 -48t-39.5 -225v-877q0 -171 19.5 -268.5t107.5 -164t239 -66.5q139 0 236 55.5t156 173t59 417.5v730q0 141 -46 207t-210 66v49h619v-49h-37q-86 0 -150.5 -45.5t-64.5 -227.5v-680q0 -210 -15.5 -338.5t-90.5 -247t-221 -181.5
t-357 -63q-674 0 -674 633v877q0 129 -12 175.5t-56.5 72t-164.5 25.5v49zM1168 2404l268 -504h-102l-314 272l-324 -264h-108l280 496h300z" />
    <glyph glyph-name="Udieresis" unicode="&#xdc;" horiz-adv-x="1952" 
d="M63 1790h924v-49h-46q-136 0 -175.5 -48t-39.5 -225v-877q0 -171 19.5 -268.5t107.5 -164t239 -66.5q139 0 236 55.5t156 173t59 417.5v730q0 141 -46 207t-210 66v49h619v-49h-37q-86 0 -150.5 -45.5t-64.5 -227.5v-680q0 -210 -15.5 -338.5t-90.5 -247t-221 -181.5
t-357 -63q-674 0 -674 633v877q0 129 -12 175.5t-56.5 72t-164.5 25.5v49zM1258 2326q72 0 124 -52q26 -26 39 -56t13 -68q0 -69 -52 -124q-26 -26 -56 -39t-68 -13q-69 0 -122.5 52t-53.5 124q0 69 52 122.5t124 53.5zM764 2326q72 0 124 -50.5t52 -125.5q0 -72 -52 -124
q-26 -26 -56 -39t-68 -13q-69 0 -121.5 51t-52.5 125q0 71 51 123.5t123 52.5z" />
    <glyph glyph-name="Yacute" unicode="&#xdd;" horiz-adv-x="1952" 
d="M1922 1790v-49q-71 -8 -124.5 -41t-220.5 -313l-388 -648v-433q0 -106 7 -149t53 -75.5t126 -32.5h101v-49h-1005v49h94q84 0 122 25.5t55 59t17 172.5v359l-421 767q-108 196 -162 251.5t-152 57.5v49h858v-49h-38q-140 0 -140 -70q0 -47 105 -239l324 -592l322 539
q120 201 120 263q0 88 -200 99v49h547zM1431 2370l-438 -458h-114l154 458h398z" />
    <glyph glyph-name="Thorn" unicode="&#xde;" horiz-adv-x="1652" 
d="M716 1392h94q240 0 376 -34q169 -42 271.5 -165.5t102.5 -290.5q0 -139 -74 -260q-38 -60 -91 -104t-125 -74q-143 -58 -460 -58h-94v-82q0 -157 11.5 -188.5t50.5 -55.5q51 -32 124 -32h56v-48h-904v48h64q84 0 132 36q32 25 46 74q6 21 6 140v1170q0 158 -14 192
q-12 36 -48 54q-48 30 -126 30h-60v46h904v-46h-58q-43 0 -75.5 -8t-56.5 -26q-31 -22 -46 -72q-6 -24 -6 -166v-80zM716 1288v-780q93 0 155.5 8t96.5 26q65 32 104 102q48 96 48 258q0 139 -48 232q-44 88 -124 128q-55 26 -200 26h-32z" />
    <glyph glyph-name="germandbls" unicode="&#xdf;" horiz-adv-x="1504" 
d="M572 0h-496v48q35 0 60.5 12.5t41.5 35.5q30 39 30 172v1054q0 183 64.5 288.5t194.5 163.5t289 58q273 0 404.5 -112t131.5 -282q0 -159 -90 -246q-67 -61 -222 -88q132 -26 210 -87t128 -182.5t50 -268.5q0 -177 -54 -312q-27 -67 -64.5 -115.5t-89.5 -86.5
q-51 -33 -105 -49.5t-115 -16.5q-124 0 -193 61.5t-69 144.5q0 56 34 96q36 36 94 36q38 0 60.5 -12t43.5 -42q10 -13 16 -23t8 -15l-10 -120q0 -5 20 -22q7 -5 18 -10.5t26 -5.5q25 0 48.5 26.5t23.5 61.5q0 30 -48 174q-8 24 -16.5 52t-9.5 36q-6 42 -6 118v190
q0 150 -18 198q-15 50 -60 80q-23 16 -59.5 26t-80.5 10v80q74 0 110 30q33 25 48 88q2 25 4 86t2 86q0 183 -30 240q-43 86 -148 86q-52 0 -90 -26q-25 -19 -41 -37.5t-25 -44.5q-20 -53 -20 -208v-1426z" />
    <glyph glyph-name="agrave" unicode="&#xe0;" 
d="M772 182q-226 -199 -405 -199q-93 0 -169.5 61.5t-76.5 181.5q0 143 131 259t520 295v124q0 267 -167 267q-176 0 -176 -94q0 -22 43 -77q44 -54 44 -101q0 -156 -174 -156q-81 0 -138 47.5t-57 120.5q0 171 175 265.5t390 94.5q160 0 261.5 -56t134.5 -142.5t33 -292.5
v-479q0 -149 56 -149q35 0 70 49l40 -32q-126 -186 -297 -186q-212 0 -238 199zM772 279v413q-289 -171 -289 -345q0 -52 35.5 -97t100.5 -45q66 0 153 74zM220 1851h397l154 -458h-113z" />
    <glyph glyph-name="aacute" unicode="&#xe1;" 
d="M772 182q-226 -199 -405 -199q-93 0 -169.5 61.5t-76.5 181.5q0 143 131 259t520 295v124q0 267 -167 267q-176 0 -176 -94q0 -22 43 -77q44 -54 44 -101q0 -156 -174 -156q-81 0 -138 47.5t-57 120.5q0 171 175 265.5t390 94.5q160 0 261.5 -56t134.5 -142.5t33 -292.5
v-479q0 -149 56 -149q35 0 70 49l40 -32q-126 -186 -297 -186q-212 0 -238 199zM772 279v413q-289 -171 -289 -345q0 -52 35.5 -97t100.5 -45q66 0 153 74zM1122 1850l-438 -458h-114l154 458h398z" />
    <glyph glyph-name="acircumflex" unicode="&#xe2;" 
d="M772 182q-226 -199 -405 -199q-93 0 -169.5 61.5t-76.5 181.5q0 143 131 259t520 295v124q0 267 -167 267q-176 0 -176 -94q0 -22 43 -77q44 -54 44 -101q0 -156 -174 -156q-81 0 -138 47.5t-57 120.5q0 171 175 265.5t390 94.5q160 0 261.5 -56t134.5 -142.5t33 -292.5
v-479q0 -149 56 -149q35 0 70 49l40 -32q-126 -186 -297 -186q-212 0 -238 199zM772 279v413q-289 -171 -289 -345q0 -52 35.5 -97t100.5 -45q66 0 153 74zM836 1884l268 -504h-102l-314 272l-324 -264h-108l280 496h300z" />
    <glyph glyph-name="atilde" unicode="&#xe3;" 
d="M772 182q-226 -199 -405 -199q-93 0 -169.5 61.5t-76.5 181.5q0 143 131 259t520 295v124q0 267 -167 267q-176 0 -176 -94q0 -22 43 -77q44 -54 44 -101q0 -156 -174 -156q-81 0 -138 47.5t-57 120.5q0 171 175 265.5t390 94.5q160 0 261.5 -56t134.5 -142.5t33 -292.5
v-479q0 -149 56 -149q35 0 70 49l40 -32q-126 -186 -297 -186q-212 0 -238 199zM772 279v413q-289 -171 -289 -345q0 -52 35.5 -97t100.5 -45q66 0 153 74zM1035 1808h70v-44q0 -149 -82 -234q-41 -44 -90.5 -67t-107.5 -23q-86 0 -216.5 63t-171.5 63t-66 -28
q-26 -23 -38 -94h-76q0 88 18.5 154t59.5 114q83 98 206 98q14 0 30 -0.5t36 -7.5q29 -7 128 -52q133 -62 194 -62q26 0 56 24q22 22 50 96z" />
    <glyph glyph-name="adieresis" unicode="&#xe4;" 
d="M772 182q-226 -199 -405 -199q-93 0 -169.5 61.5t-76.5 181.5q0 143 131 259t520 295v124q0 267 -167 267q-176 0 -176 -94q0 -22 43 -77q44 -54 44 -101q0 -156 -174 -156q-81 0 -138 47.5t-57 120.5q0 171 175 265.5t390 94.5q160 0 261.5 -56t134.5 -142.5t33 -292.5
v-479q0 -149 56 -149q35 0 70 49l40 -32q-126 -186 -297 -186q-212 0 -238 199zM772 279v413q-289 -171 -289 -345q0 -52 35.5 -97t100.5 -45q66 0 153 74zM900 1806q72 0 124 -52q26 -26 39 -56t13 -68q0 -69 -52 -124q-26 -26 -56 -39t-68 -13q-69 0 -122.5 52t-53.5 124
q0 69 52 122.5t124 53.5zM406 1806q72 0 124 -50.5t52 -125.5q0 -72 -52 -124q-26 -26 -56 -39t-68 -13q-69 0 -121.5 51t-52.5 125q0 71 51 123.5t123 52.5z" />
    <glyph glyph-name="aring" unicode="&#xe5;" 
d="M772 182q-226 -199 -405 -199q-93 0 -169.5 61.5t-76.5 181.5q0 143 131 259t520 295v124q0 267 -167 267q-176 0 -176 -94q0 -22 43 -77q44 -54 44 -101q0 -156 -174 -156q-81 0 -138 47.5t-57 120.5q0 171 175 265.5t390 94.5q160 0 261.5 -56t134.5 -142.5t33 -292.5
v-479q0 -149 56 -149q35 0 70 49l40 -32q-126 -186 -297 -186q-212 0 -238 199zM772 279v413q-289 -171 -289 -345q0 -52 35.5 -97t100.5 -45q66 0 153 74zM670 1898q114 0 196 -80.5t82 -195.5q0 -113 -82 -198q-40 -39 -90 -59.5t-106 -20.5q-113 0 -194.5 81.5
t-81.5 196.5q0 114 80 194q40 40 89 61t107 21zM672 1796q-71 0 -126 -52q-50 -53 -50 -122q0 -72 52 -124q26 -26 56 -39t68 -13q73 0 122 52q26 26 39 56t13 68q0 70 -50.5 122t-123.5 52z" />
    <glyph glyph-name="ae" unicode="&#xe6;" horiz-adv-x="1952" 
d="M1874 658h-712q14 -136 45.5 -230.5t84.5 -153.5q102 -114 228 -114q185 0 312 202l42 -30q-116 -209 -238 -292q-61 -38 -136.5 -57t-171.5 -19q-73 0 -133.5 15t-118.5 49q-86 49 -156 148q-141 -107 -269.5 -159.5t-248.5 -52.5q-133 0 -206 70q-39 37 -58.5 78
t-19.5 88q0 118 108 239.5t582 334.5v102q0 133 -18 180t-71 78.5t-125 31.5q-78 0 -132 -40q-40 -31 -40 -64q0 -6 6 -18q3 -9 38 -44q48 -48 48 -108q0 -63 -46 -100q-60 -54 -138 -54q-73 0 -127.5 53t-54.5 123q0 147 170.5 252.5t359.5 105.5q134 0 240 -50
q64 -29 128 -102q77 77 152 114.5t182 37.5q210 0 346 -148q71 -77 109.5 -193t38.5 -273zM1552 746v64q0 207 -66 306q-46 64 -120 64q-46 0 -78 -26q-55 -43 -88 -134q-21 -60 -31.5 -127t-10.5 -147h394zM808 694q-100 -67 -166 -119t-96 -87q-62 -71 -62 -164
q0 -64 48 -112q52 -46 118 -46q25 0 46.5 4t55.5 16q60 21 132 60q-41 88 -58.5 180.5t-17.5 267.5z" />
    <glyph glyph-name="ccedilla" unicode="&#xe7;" horiz-adv-x="1200" 
d="M1098 318l41 -32q-172 -323 -494 -323q-244 0 -393 182t-149 452q0 253 148 463.5t434 210.5q151 0 284 -81t133 -230q0 -165 -165 -165q-170 0 -191 235q-14 149 -110 149q-177 0 -177 -379q0 -261 99 -444t280 -183q124 0 260 145zM609 16h88l-62 -96
q77 -12 119.5 -63.5t42.5 -128.5q0 -35 -9.5 -65.5t-30.5 -60.5q-42 -55 -104 -78q-48 -16 -124.5 -24t-179.5 -8v62q128 0 178 44q48 36 48 102q0 37 -30.5 64.5t-89.5 27.5z" />
    <glyph glyph-name="egrave" unicode="&#xe8;" horiz-adv-x="1200" 
d="M1137 661h-678q11 -220 108.5 -358.5t241.5 -138.5q152 0 283 203l45 -29q-184 -375 -503 -375q-264 0 -397 184.5t-133 449.5q0 280 154.5 477t404.5 197q221 0 343 -176t131 -434zM812 750q0 435 -169 435q-86 0 -138 -111.5t-52 -277.5v-46h359zM207 1851h397
l154 -458h-113z" />
    <glyph glyph-name="eacute" unicode="&#xe9;" horiz-adv-x="1200" 
d="M1137 661h-678q11 -220 108.5 -358.5t241.5 -138.5q152 0 283 203l45 -29q-184 -375 -503 -375q-264 0 -397 184.5t-133 449.5q0 280 154.5 477t404.5 197q221 0 343 -176t131 -434zM812 750q0 435 -169 435q-86 0 -138 -111.5t-52 -277.5v-46h359zM1049 1850l-438 -458
h-114l154 458h398z" />
    <glyph glyph-name="ecircumflex" unicode="&#xea;" horiz-adv-x="1200" 
d="M1137 661h-678q11 -220 108.5 -358.5t241.5 -138.5q152 0 283 203l45 -29q-184 -375 -503 -375q-264 0 -397 184.5t-133 449.5q0 280 154.5 477t404.5 197q221 0 343 -176t131 -434zM812 750q0 435 -169 435q-86 0 -138 -111.5t-52 -277.5v-46h359zM793 1884l268 -504
h-102l-314 272l-324 -264h-108l280 496h300z" />
    <glyph glyph-name="edieresis" unicode="&#xeb;" horiz-adv-x="1200" 
d="M1137 661h-678q11 -220 108.5 -358.5t241.5 -138.5q152 0 283 203l45 -29q-184 -375 -503 -375q-264 0 -397 184.5t-133 449.5q0 280 154.5 477t404.5 197q221 0 343 -176t131 -434zM812 750q0 435 -169 435q-86 0 -138 -111.5t-52 -277.5v-46h359zM871 1806
q72 0 124 -52q26 -26 39 -56t13 -68q0 -69 -52 -124q-26 -26 -56 -39t-68 -13q-69 0 -122.5 52t-53.5 124q0 69 52 122.5t124 53.5zM377 1806q72 0 124 -50.5t52 -125.5q0 -72 -52 -124q-26 -26 -56 -39t-68 -13q-69 0 -121.5 51t-52.5 125q0 71 51 123.5t123 52.5z" />
    <glyph glyph-name="igrave" unicode="&#xec;" horiz-adv-x="752" 
d="M572 1234v-978q0 -130 32 -168q16 -19 45.5 -29.5t72.5 -10.5v-48h-666v48q81 0 120 48q28 28 28 160v720q0 133 -32 168q-27 33 -116 42v48h516zM-33 1851h397l154 -458h-113z" />
    <glyph glyph-name="iacute" unicode="&#xed;" horiz-adv-x="752" 
d="M572 1234v-978q0 -130 32 -168q16 -19 45.5 -29.5t72.5 -10.5v-48h-666v48q81 0 120 48q28 28 28 160v720q0 133 -32 168q-27 33 -116 42v48h516zM779 1850l-438 -458h-114l154 458h398z" />
    <glyph glyph-name="icircumflex" unicode="&#xee;" horiz-adv-x="752" 
d="M572 1234v-978q0 -130 32 -168q16 -19 45.5 -29.5t72.5 -10.5v-48h-666v48q81 0 120 48q28 28 28 160v720q0 133 -32 168q-27 33 -116 42v48h516zM522 1884l268 -504h-102l-314 272l-324 -264h-108l280 496h300z" />
    <glyph glyph-name="idieresis" unicode="&#xef;" horiz-adv-x="752" 
d="M572 1234v-978q0 -130 32 -168q16 -19 45.5 -29.5t72.5 -10.5v-48h-666v48q81 0 120 48q28 28 28 160v720q0 133 -32 168q-27 33 -116 42v48h516zM616 1807q72 0 124 -52q26 -26 39 -56t13 -68q0 -69 -52 -124q-26 -26 -56 -39t-68 -13q-69 0 -122.5 52t-53.5 124
q0 69 52 122.5t124 53.5zM122 1807q72 0 124 -50.5t52 -125.5q0 -72 -52 -124q-26 -26 -56 -39t-68 -13q-69 0 -121.5 51t-52.5 125q0 71 51 123.5t123 52.5z" />
    <glyph glyph-name="eth" unicode="&#xf0;" 
d="M622 1508l-332 -186l-44 76l318 178q-47 49 -108.5 101t-137.5 107l30 48q51 -20 98 -41t76 -37q38 -20 78 -44.5t94 -63.5l312 176l40 -76l-276 -154q243 -195 366 -418q59 -110 89.5 -230.5t30.5 -251.5q0 -222 -68.5 -389.5t-204.5 -253t-305 -85.5q-85 0 -160 20.5
t-144 63.5q-134 82 -205 231.5t-71 330.5q0 234 110 406q136 214 392 214q43 0 89.5 -9.5t104.5 -30.5q-42 111 -78 174q-19 39 -50 83q-4 5 -44 61zM678 1140q-59 0 -102 -34q-41 -29 -66.5 -110.5t-25.5 -313.5q0 -188 6 -303.5t20 -172.5q15 -75 60 -114
q23 -19 48.5 -28.5t55.5 -9.5q55 0 99.5 35.5t62.5 118.5q12 54 19 166t7 280q0 131 -5 214t-17 124q-20 82 -63 115t-99 33z" />
    <glyph glyph-name="ntilde" unicode="&#xf1;" horiz-adv-x="1504" 
d="M595 1234v-159q182 196 370 196q123 0 200 -60t101.5 -157.5t24.5 -303.5v-481q0 -126 21 -169t112 -52v-48h-624v48q78 10 99.5 56.5t21.5 164.5v549q0 275 -114 275t-212 -162v-662q0 -121 20.5 -166t101.5 -55v-48h-625v48q69 6 101.5 39t32.5 182v697
q0 122 -20.5 164.5t-113.5 54.5v49h503zM1128 1808h70v-44q0 -149 -82 -234q-41 -44 -90.5 -67t-107.5 -23q-86 0 -216.5 63t-171.5 63t-66 -28q-26 -23 -38 -94h-76q0 88 18.5 154t59.5 114q83 98 206 98q14 0 30 -0.5t36 -7.5q29 -7 128 -52q133 -62 194 -62q26 0 56 24
q22 22 50 96z" />
    <glyph glyph-name="ograve" unicode="&#xf2;" 
d="M673 1271q277 0 429.5 -189t152.5 -466q0 -288 -157 -470.5t-421 -182.5q-288 0 -433.5 196.5t-145.5 451.5q0 283 158 471.5t417 188.5zM678 1177q-106 0 -150 -120t-44 -547q0 -234 40 -345t149 -111q120 0 157 118.5t37 546.5q0 458 -189 458zM219 1851h397l154 -458
h-113z" />
    <glyph glyph-name="oacute" unicode="&#xf3;" 
d="M673 1271q277 0 429.5 -189t152.5 -466q0 -288 -157 -470.5t-421 -182.5q-288 0 -433.5 196.5t-145.5 451.5q0 283 158 471.5t417 188.5zM678 1177q-106 0 -150 -120t-44 -547q0 -234 40 -345t149 -111q120 0 157 118.5t37 546.5q0 458 -189 458zM1122 1850l-438 -458
h-114l154 458h398z" />
    <glyph glyph-name="ocircumflex" unicode="&#xf4;" 
d="M673 1271q277 0 429.5 -189t152.5 -466q0 -288 -157 -470.5t-421 -182.5q-288 0 -433.5 196.5t-145.5 451.5q0 283 158 471.5t417 188.5zM678 1177q-106 0 -150 -120t-44 -547q0 -234 40 -345t149 -111q120 0 157 118.5t37 546.5q0 458 -189 458zM825 1884l268 -504h-102
l-314 272l-324 -264h-108l280 496h300z" />
    <glyph glyph-name="otilde" unicode="&#xf5;" 
d="M673 1271q277 0 429.5 -189t152.5 -466q0 -288 -157 -470.5t-421 -182.5q-288 0 -433.5 196.5t-145.5 451.5q0 283 158 471.5t417 188.5zM678 1177q-106 0 -150 -120t-44 -547q0 -234 40 -345t149 -111q120 0 157 118.5t37 546.5q0 458 -189 458zM1004 1808h70v-44
q0 -149 -82 -234q-41 -44 -90.5 -67t-107.5 -23q-86 0 -216.5 63t-171.5 63t-66 -28q-26 -23 -38 -94h-76q0 88 18.5 154t59.5 114q83 98 206 98q14 0 30 -0.5t36 -7.5q29 -7 128 -52q133 -62 194 -62q26 0 56 24q22 22 50 96z" />
    <glyph glyph-name="odieresis" unicode="&#xf6;" 
d="M673 1271q277 0 429.5 -189t152.5 -466q0 -288 -157 -470.5t-421 -182.5q-288 0 -433.5 196.5t-145.5 451.5q0 283 158 471.5t417 188.5zM678 1177q-106 0 -150 -120t-44 -547q0 -234 40 -345t149 -111q120 0 157 118.5t37 546.5q0 458 -189 458zM907 1807q72 0 124 -52
q26 -26 39 -56t13 -68q0 -69 -52 -124q-26 -26 -56 -39t-68 -13q-69 0 -122.5 52t-53.5 124q0 69 52 122.5t124 53.5zM413 1807q72 0 124 -50.5t52 -125.5q0 -72 -52 -124q-26 -26 -56 -39t-68 -13q-69 0 -121.5 51t-52.5 125q0 71 51 123.5t123 52.5z" />
    <glyph glyph-name="divide" unicode="&#xf7;" horiz-adv-x="1484" 
d="M744 1474q56 0 96 -38.5t40 -97.5q0 -57 -40 -95.5t-96 -38.5q-54 0 -94 40t-40 94q0 56 40 96t94 40zM22 982h1442v-174h-1442v174zM744 600q54 0 95 -41t41 -95q0 -55 -39 -95.5t-97 -40.5q-57 0 -98 38q-38 41 -38 98q0 56 38 94q23 21 45.5 31.5t52.5 10.5z" />
    <glyph glyph-name="oslash" unicode="&#xf8;" 
d="M1264 1248l-150 -174q84 -117 114 -198q36 -108 36 -250q0 -189 -70.5 -344.5t-206.5 -236.5t-295 -81q-60 0 -110.5 8.5t-96 27.5t-92 49t-99.5 77l-142 -162l-62 58l146 170q-65 107 -92 190q-16 50 -24 109t-8 121q0 265 151 462.5t429 197.5q55 0 100.5 -8t91.5 -24
q81 -30 170 -104l146 170zM868 924q0 68 -16 117t-42 81q-47 56 -110 56q-28 0 -47.5 -5t-38 -16.5t-35.5 -34.5t-33 -56q-16 -37 -26 -94t-10 -138l-4 -340zM506 368q0 -88 15 -149t42.5 -95.5t56.5 -51t66 -16.5q61 0 92 28q21 15 39 45.5t31 70.5q15 53 23.5 140.5
t8.5 193.5l-4 264z" />
    <glyph glyph-name="ugrave" unicode="&#xf9;" horiz-adv-x="1504" 
d="M1283 1234v-966q0 -122 21.5 -166t111.5 -54v-48h-503v165q-169 -202 -374 -202q-113 0 -197.5 71.5t-105 168.5t-20.5 274v489q0 125 -20.5 166t-112.5 53v49h503v-887q0 -204 115 -204q98 0 212 163v660q0 125 -20.5 166t-112.5 53v49h503zM271 1851h397l154 -458h-113
z" />
    <glyph glyph-name="uacute" unicode="&#xfa;" horiz-adv-x="1504" 
d="M1283 1234v-966q0 -122 21.5 -166t111.5 -54v-48h-503v165q-169 -202 -374 -202q-113 0 -197.5 71.5t-105 168.5t-20.5 274v489q0 125 -20.5 166t-112.5 53v49h503v-887q0 -204 115 -204q98 0 212 163v660q0 125 -20.5 166t-112.5 53v49h503zM1136 1850l-438 -458h-114
l154 458h398z" />
    <glyph glyph-name="ucircumflex" unicode="&#xfb;" horiz-adv-x="1504" 
d="M1283 1234v-966q0 -122 21.5 -166t111.5 -54v-48h-503v165q-169 -202 -374 -202q-113 0 -197.5 71.5t-105 168.5t-20.5 274v489q0 125 -20.5 166t-112.5 53v49h503v-887q0 -204 115 -204q98 0 212 163v660q0 125 -20.5 166t-112.5 53v49h503zM870 1884l268 -504h-102
l-314 272l-324 -264h-108l280 496h300z" />
    <glyph glyph-name="udieresis" unicode="&#xfc;" horiz-adv-x="1504" 
d="M1283 1234v-966q0 -122 21.5 -166t111.5 -54v-48h-503v165q-169 -202 -374 -202q-113 0 -197.5 71.5t-105 168.5t-20.5 274v489q0 125 -20.5 166t-112.5 53v49h503v-887q0 -204 115 -204q98 0 212 163v660q0 125 -20.5 166t-112.5 53v49h503zM954 1807q72 0 124 -52
q26 -26 39 -56t13 -68q0 -69 -52 -124q-26 -26 -56 -39t-68 -13q-69 0 -122.5 52t-53.5 124q0 69 52 122.5t124 53.5zM460 1807q72 0 124 -50.5t52 -125.5q0 -72 -52 -124q-26 -26 -56 -39t-68 -13q-69 0 -121.5 51t-52.5 125q0 71 51 123.5t123 52.5z" />
    <glyph glyph-name="yacute" unicode="&#xfd;" 
d="M657 -50l-398 915q-76 175 -119.5 236.5t-117.5 83.5v49h656v-49q-117 -4 -117 -79q0 -47 66 -198l211 -483l144 374q78 203 78 277q0 105 -147 109v49h414v-49q-44 -4 -81.5 -34.5t-54.5 -62.5t-91 -223l-353 -915q-153 -396 -236 -464.5t-190 -68.5q-93 0 -169.5 55.5
t-76.5 157.5q0 177 163 177q144 0 147 -173q2 -79 43 -79q83 0 191 292zM1092 1850l-438 -458h-114l154 458h398z" />
    <glyph glyph-name="thorn" unicode="&#xfe;" horiz-adv-x="1504" 
d="M568 126v-460q0 -100 16 -132q14 -33 48 -52q32 -16 124 -16v-50h-704v50q80 0 120 46q28 31 28 162v1900q0 133 -32 168q-30 40 -116 40v50h516v-760q65 94 132 138q99 62 210 62q135 0 247 -86.5t170.5 -238.5t58.5 -323q0 -185 -60 -344q-30 -78 -72.5 -135.5
t-101.5 -100.5q-113 -80 -254 -80q-105 0 -190 44q-67 34 -140 118zM568 258q115 -160 244 -160q71 0 118 74q68 114 68 424q0 317 -76 436q-48 78 -134 78q-130 0 -220 -192v-660z" />
    <glyph glyph-name="ydieresis" unicode="&#xff;" 
d="M657 -50l-398 915q-76 175 -119.5 236.5t-117.5 83.5v49h656v-49q-117 -4 -117 -79q0 -47 66 -198l211 -483l144 374q78 203 78 277q0 105 -147 109v49h414v-49q-44 -4 -81.5 -34.5t-54.5 -62.5t-91 -223l-353 -915q-153 -396 -236 -464.5t-190 -68.5q-93 0 -169.5 55.5
t-76.5 157.5q0 177 163 177q144 0 147 -173q2 -79 43 -79q83 0 191 292zM925 1807q72 0 124 -52q26 -26 39 -56t13 -68q0 -69 -52 -124q-26 -26 -56 -39t-68 -13q-69 0 -122.5 52t-53.5 124q0 69 52 122.5t124 53.5zM431 1807q72 0 124 -50.5t52 -125.5q0 -72 -52 -124
q-26 -26 -56 -39t-68 -13q-69 0 -121.5 51t-52.5 125q0 71 51 123.5t123 52.5z" />
    <glyph glyph-name="dotlessi" unicode="&#x131;" horiz-adv-x="752" 
d="M572 1234v-978q0 -130 32 -168q16 -19 45.5 -29.5t72.5 -10.5v-48h-666v48q81 0 120 48q28 28 28 160v720q0 133 -32 168q-27 33 -116 42v48h516z" />
    <glyph glyph-name="OE" unicode="&#x152;" horiz-adv-x="2704" 
d="M2444 1790v-534h-52q-13 83 -33.5 141.5t-56.5 108.5q-65 96 -164 134q-49 21 -109 32.5t-123 11.5h-212v-728h42q60 0 124 32q45 21 84 70q32 41 60 124q22 67 29 108t7 88h52v-936h-52q-39 246 -117 330t-187 84h-42v-452q0 -203 10 -236q12 -34 38 -48q34 -20 130 -20
h80q109 0 200 29.5t166 90.5q152 119 206 346h50l-82 -566h-994q-37 0 -55.5 -1t-82.5 -7q-61 0 -177 -8t-171 -8q-252 0 -438 96q-235 124 -355.5 346.5t-120.5 477.5q0 347 210 608q126 155 293 233.5t375 78.5q167 0 330 -20q69 -6 180 -6h958zM1264 1356q0 145 -8 180
q-12 71 -62 112q-68 56 -170 56q-188 0 -304 -160q-73 -103 -110.5 -281t-37.5 -427q0 -412 144 -604q113 -152 300 -152q134 0 191 63t57 255v958z" />
    <glyph glyph-name="oe" unicode="&#x153;" horiz-adv-x="1952" 
d="M1878 654h-650q24 -266 119.5 -381t208.5 -115q38 0 74.5 11.5t69 35t66 63.5t68.5 96l44 -32q-103 -200 -224 -288q-113 -80 -268 -80q-53 0 -97 8t-82 27t-75.5 49t-81.5 78q-94 -91 -174 -128q-38 -18 -86 -26t-106 -8q-307 0 -468 226q-62 86 -93 189t-31 227
q0 183 74.5 338t215.5 242q72 43 146.5 64.5t155.5 21.5q116 0 207 -44t175 -140q79 98 160 138q83 46 186 46q187 0 326.5 -159t139.5 -459zM686 1178q-56 0 -98 -30q-50 -44 -79 -157.5t-29 -416.5q0 -132 6 -217.5t20 -136.5q27 -95 74 -136q37 -28 94 -28q67 0 110 34.5
t69.5 144t26.5 441.5q0 257 -28 344q-13 46 -30 76.5t-44 51.5q-33 30 -92 30zM1554 744v59t2 41q0 195 -48.5 264.5t-107.5 69.5q-38 0 -74 -30q-23 -17 -40.5 -45t-29.5 -65q-16 -53 -25 -128t-9 -166h332z" />
    <glyph glyph-name="Scaron" unicode="&#x160;" horiz-adv-x="1504" 
d="M1270 1831l14 -597h-54q-36 210 -180 354t-332 144q-109 0 -200.5 -60.5t-91.5 -177.5q0 -96 83 -172.5t354 -210.5q333 -163 432.5 -303t99.5 -302q0 -238 -181.5 -393t-437.5 -155q-151 0 -348 82q-62 26 -105 26q-87 0 -134 -107h-49v676h49q53 -258 209 -421.5
t372 -163.5q123 0 223 70t100 198q0 105 -80.5 186.5t-298.5 188.5q-310 153 -441.5 289t-131.5 334q0 220 159.5 367.5t393.5 147.5q116 0 266 -62q150 -61 179 -61q65 0 91 123h40zM574 1940l-266 504h100l316 -272l322 264h110l-284 -496h-298z" />
    <glyph glyph-name="scaron" unicode="&#x161;" horiz-adv-x="1052" 
d="M871 1269l20 -422h-45q-139 325 -339 325q-131 0 -131 -120q0 -84 273 -264q307 -201 307 -418q0 -192 -121 -299.5t-283 -107.5q-63 0 -165 35t-126 35q-43 0 -72 -66h-44l-21 444h45q50 -148 148.5 -248.5t210.5 -100.5q144 0 144 133q0 59 -37.5 105.5t-179.5 144.5
q-232 160 -290 255t-58 198q0 185 118.5 279t264.5 94q70 0 153 -34t99 -34q39 0 84 66h45zM342 1380l-266 504h100l316 -272l322 264h110l-284 -496h-298z" />
    <glyph glyph-name="Ydieresis" unicode="&#x178;" horiz-adv-x="1952" 
d="M1922 1790v-49q-71 -8 -124.5 -41t-220.5 -313l-388 -648v-433q0 -106 7 -149t53 -75.5t126 -32.5h101v-49h-1005v49h94q84 0 122 25.5t55 59t17 172.5v359l-421 767q-108 196 -162 251.5t-152 57.5v49h858v-49h-38q-140 0 -140 -70q0 -47 105 -239l324 -592l322 539
q120 201 120 263q0 88 -200 99v49h547zM1278 2346q72 0 124 -52q26 -26 39 -56t13 -68q0 -69 -52 -124q-26 -26 -56 -39t-68 -13q-69 0 -122.5 52t-53.5 124q0 69 52 122.5t124 53.5zM784 2346q72 0 124 -50.5t52 -125.5q0 -72 -52 -124q-26 -26 -56 -39t-68 -13
q-69 0 -121.5 51t-52.5 125q0 71 51 123.5t123 52.5z" />
    <glyph glyph-name="Zcaron" unicode="&#x17d;" horiz-adv-x="1803" 
d="M1650 1790l-1052 -1690h341q208 0 345.5 32t256.5 163.5t163 351.5h52l-73 -647h-1639l1053 1692h-265q-176 0 -278.5 -27t-189.5 -125.5t-128 -273.5h-49l49 524h1414zM775 1910l-266 504h100l316 -272l322 264h110l-284 -496h-298z" />
    <glyph glyph-name="zcaron" unicode="&#x17e;" horiz-adv-x="1200" 
d="M1102 0h-1074v29l678 1125h-198q-112 0 -200 -31t-144 -248h-47v359h1039v-35l-673 -1115h85q221 0 346 61.5t188 276.5h37zM450 1380l-266 504h100l316 -272l322 264h110l-284 -496h-298z" />
    <glyph glyph-name="florin" unicode="&#x192;" 
d="M938 1034l-132 -660q-49 -233 -86 -373q-41 -154 -76 -233q-70 -158 -192 -256q-59 -47 -121 -71.5t-127 -24.5q-95 0 -152 48q-27 24 -40.5 49t-13.5 57q0 50 38.5 90t97.5 40q56 0 94 -32q15 -13 22.5 -29.5t7.5 -40.5q0 -17 -6 -32q-12 -33 -12 -40q0 -12 10.5 -20
t27.5 -8q36 0 70 40q15 19 23.5 50.5t8.5 71.5q0 33 -3 71t-5 63q0 19 -2 55t-2 53q0 112 7 168.5t16.5 108t30.5 149.5l144 706h-188l32 162q129 0 194.5 52.5t138 243.5t166 265.5t231.5 74.5q101 0 157.5 -49t56.5 -119q0 -66 -41.5 -109t-102.5 -43q-48 0 -82 34
q-34 31 -34 76q0 28 36 100q6 12 6 20q0 10 -10 20q-7 5 -26 8q-47 0 -85.5 -46t-38.5 -138q0 -17 2 -63.5t2 -58.5l8 -104q0 -64 -20 -164h204l-32 -162h-202z" />
    <glyph glyph-name="circumflex" unicode="&#x2c6;" horiz-adv-x="900" 
d="M608 1884l268 -504h-102l-314 272l-324 -264h-108l280 496h300z" />
    <glyph glyph-name="caron" unicode="&#x2c7;" horiz-adv-x="900" 
d="M294 1380l-266 504h100l316 -272l322 264h110l-284 -496h-298z" />
    <glyph glyph-name="ring" unicode="&#x2da;" horiz-adv-x="900" 
d="M450 1898q114 0 196 -80.5t82 -195.5q0 -113 -82 -198q-40 -39 -90 -59.5t-106 -20.5q-113 0 -194.5 81.5t-81.5 196.5q0 114 80 194q40 40 89 61t107 21zM452 1796q-71 0 -126 -52q-50 -53 -50 -122q0 -72 52 -124q26 -26 56 -39t68 -13q73 0 122 52q26 26 39 56t13 68
q0 70 -50.5 122t-123.5 52z" />
    <glyph glyph-name="ring" unicode="&#x25e6;" horiz-adv-x="900" 
d="M450 1898q114 0 196 -80.5t82 -195.5q0 -113 -82 -198q-40 -39 -90 -59.5t-106 -20.5q-113 0 -194.5 81.5t-81.5 196.5q0 114 80 194q40 40 89 61t107 21zM452 1796q-71 0 -126 -52q-50 -53 -50 -122q0 -72 52 -124q26 -26 56 -39t68 -13q73 0 122 52q26 26 39 56t13 68
q0 70 -50.5 122t-123.5 52z" />
    <glyph glyph-name="tilde" unicode="&#x2dc;" horiz-adv-x="900" 
d="M810 1806h70v-44q0 -149 -82 -234q-41 -44 -90.5 -67t-107.5 -23q-86 0 -216.5 63t-171.5 63t-66 -28q-26 -23 -38 -94h-76q0 88 18.5 154t59.5 114q83 98 206 98q14 0 30 -0.5t36 -7.5q29 -7 128 -52q133 -62 194 -62q26 0 56 24q22 22 50 96z" />
    <glyph glyph-name="uni0E01" unicode="&#xe01;" horiz-adv-x="1569" 
d="M283 0v1049h-123q0 236 154 412.5t448 176.5q328 0 504 -190.5t176 -390.5v-819q0 -23 -87 -130.5t-110 -107.5h-131v1073q0 182 -125 283.5t-268 101.5q-317 0 -373 -250h447v-147h-185v-1061h-327z" />
    <glyph glyph-name="uni0E02" unicode="&#xe02;" horiz-adv-x="1700" 
d="M302 1317q58 10 99 10q100 0 150.5 -70.5t50.5 -158.5q0 -100 -78.5 -164t-158.5 -64q-242 0 -242 314q0 190 113.5 322t291.5 132q218 0 342.5 -101.5t124.5 -209.5v-1061q0 -110 106 -110q103 0 103 94v1130q27 90 180 254h152v-1249q0 -162 -134.5 -273.5
t-315.5 -111.5q-155 0 -286.5 104t-131.5 224v934q-14 183 -156 180q-194 0 -210 -125zM500 1104q0 131 -127 131q-128 0 -128 -131q0 -132 128 -132q120 2 127 132z" />
    <glyph glyph-name="uni0E03" unicode="&#xe03;" horiz-adv-x="1855" 
d="M605 1399l96 125q70 118 114 118q163 0 249.5 -105t86.5 -210v-1061q0 -110 105 -110q104 0 104 94v1130q0 130 180 254h152v-1249q0 -171 -131 -278t-308 -107q-181 0 -305.5 109.5t-124.5 218.5v934q0 98 -28 98q-29 0 -99 -104l-98 -113l-80 113q-80 114 -92 114
q-55 0 -105 -91.5t-50 -177.5q0 -107 50 -186t134 -79q77 0 77 94l-5 73q0 48 52 48q130 0 130 -158q0 -89 -72 -155t-162 -66q-158 0 -252.5 123.5t-94.5 299.5q0 209 129 376t185 167q33 3 104 -137z" />
    <glyph glyph-name="uni0E04" unicode="&#xe04;" horiz-adv-x="1655" 
d="M1491 0h-328v1102q0 111 -132 218t-295 107q-183 0 -322.5 -94t-139.5 -224q0 -33 26 -90q28 44 107 129q107 84 270 84q123 0 212.5 -82t89.5 -208q0 -129 -82.5 -203.5t-216.5 -74.5q-25 0 -90 8v-672h-328v643q0 91 -71 214q-68 118 -68 224q0 255 208.5 406
t463.5 151q303 0 499.5 -162t196.5 -386v-1090zM866 934q0 65 -48.5 111.5t-117.5 46.5q-59 0 -112 -42t-53 -116t52.5 -116t112.5 -42t113 41.5t53 116.5z" />
    <glyph glyph-name="uni0E05" unicode="&#xe05;" horiz-adv-x="1716" 
d="M1552 0h-327v1155q0 79 -37.5 172.5t-134.5 97.5q-106 0 -212 -201q-137 187 -237 187q-138 0 -236 -115.5t-98 -222.5q0 -146 70 -270q93 324 372 324q112 0 189.5 -82t77.5 -209q0 -113 -77.5 -189t-192.5 -76q-46 0 -123 35v-606h-328v541q0 52 -68 215
q-67 163 -67 231q0 287 158 467t370 180q44 0 190 -161q131 165 154 165q269 0 413 -129.5t144 -296.5v-1212zM869 846q0 65 -48.5 111.5t-116.5 46.5q-60 0 -113 -42t-53 -116t52.5 -116t113.5 -42q60 0 112.5 42t52.5 116z" />
    <glyph glyph-name="uni0E06" unicode="&#xe06;" horiz-adv-x="2044" 
d="M1880 0h-188q-69 122 -234 315q-150 131 -323 131q0 -479 -347 -479q-141 0 -249.5 82t-108.5 250q0 324 377 324v639q0 63 -49 86q-89 -100 -197 -201q-25 0 -162 182q-104 -91 -104 -215q0 -201 106 -201q40 0 79 49q39 50 57 50q90 0 90 -107q0 -77 -58 -134.5
t-135 -57.5q-117 0 -214 86.5t-97 285.5q0 160 127 346.5t158 186.5q19 1 90 -105l80 -104l96 113q83 114 98 114q112 0 237.5 -107t125.5 -206v-700q166 0 417 -168v921q0 90 221 263l107 -1v-1638zM807 221v225q-221 0 -221 -143q0 -188 127 -188q94 0 94 106z" />
    <glyph glyph-name="uni0E07" unicode="&#xe07;" horiz-adv-x="1327" 
d="M1163 0h-323l-717 791v127l717 -553v696l-78 -4q-127 0 -211 71t-84 187q0 134 100 228.5t236 94.5q172 0 266 -117t94 -264v-1257zM926 1338q0 65 -50.5 110t-122.5 45q-68 0 -116 -49.5t-48 -117.5t51 -113t122 -45q58 0 111 44.5t53 125.5z" />
    <glyph glyph-name="uni0E08" unicode="&#xe08;" horiz-adv-x="1556" 
d="M483 688q-55 -6 -76 -6q-143 0 -213.5 88.5t-70.5 200.5q0 128 90 209.5t223 81.5q168 0 271.5 -107.5t103.5 -232.5v-672q0 -119 127 -119q131 0 131 115v819q0 163 -119.5 268t-261.5 105q-155 0 -317 -65l-84 -34l-70 50q230 249 578 249q192 0 395 -140t203 -408
v-762q0 -328 -480 -328q-177 0 -303.5 71.5t-126.5 215.5v401zM566 954q0 66 -43.5 112t-121.5 46q-76 0 -121 -41.5t-45 -116.5q0 -74 53 -116t113 -42q68 0 116.5 46.5t48.5 111.5z" />
    <glyph glyph-name="uni0E09" unicode="&#xe09;" horiz-adv-x="1745" 
d="M1120 354q-56 -3 -110 -8.5t-104.5 -42t-120 -116.5t-134.5 -187h-213v733q-315 0 -315 283q0 127 92 207t227 80q118 0 221 -82.5t103 -233.5v-594q68 41 205 82l200 33v639q0 143 -131.5 225t-265.5 82q-177 0 -446 -106l-41 86q104 75 283 139.5t302 64.5
q91 0 261 -52.5t268 -168.5t98 -270v-516l-48 -137q24 -19 76 -82q54 -87 54 -170q0 -108 -65.5 -178t-175.5 -70q-255 0 -255 234q0 52 35 126zM543 1019q0 64 -46.5 108t-111.5 44q-62 0 -104.5 -45.5t-42.5 -109.5q-1 -63 36.5 -110.5t104.5 -47.5q82 4 123 49t41 112z
M1460 237q-12 136 -126 129q-116 -3 -126 -129q3 -128 126 -129q118 11 126 129z" />
    <glyph glyph-name="uni0E0A" unicode="&#xe0a;" horiz-adv-x="1651" 
d="M889 1253h69q70 0 126.5 62.5t111.5 322.5h291v-41q0 -77 -16.5 -132t-83.5 -121l-170 -164q115 -209 143.5 -296.5t28.5 -211.5q0 -251 -107 -461.5t-209 -210.5h-594v172h82v1057q0 209 -151 209q-181 0 -181 -197q0 -164 86 -164q45 0 45 45q0 25 -14 74t-14 74
q0 37 24 37q63 0 99.5 -62t36.5 -147q0 -209 -177 -209q-192 0 -192 356q0 135 92.5 264t247.5 129q161 0 258 -102.5t168 -282.5zM889 1073v-848q0 -53 74 -53q104 0 110 135v668q0 135 -127 135q-57 0 -57 -37z" />
    <glyph glyph-name="uni0E0B" unicode="&#xe0b;" horiz-adv-x="1925" 
d="M1782 1638v-57q0 -115 -60 -198t-211 -199q73 -116 129 -222t56 -307q0 -303 -109 -479t-223 -176h-627v184h86v1028q0 109 -42 149q-112 -132 -184 -205l-81 109l-82 99q-145 -129 -145 -257q0 -271 157 -271q81 0 81 89v106q9 26 35 26q143 0 143 -160
q0 -94 -71 -159.5t-160 -65.5q-153 0 -249.5 126t-96.5 300q0 182 139 353t163 171q38 0 161 -214q187 229 214 229q154 0 249 -114.5t105 -295.5q84 0 121 20t82.5 89.5t86.5 183.5l46 118h287zM1331 287v696q-30 118 -116 118q-56 0 -56 -32v-807q0 -82 74 -82
q98 0 98 107z" />
    <glyph glyph-name="uni0E0C" unicode="&#xe0c;" horiz-adv-x="2159" 
d="M1672 412l-1 989q0 81 212 236l116 1v-1638h-160q-23 25 -107 151q-157 260 -311 267v-150q0 -268 -237 -268q-271 0 -271 274q0 197 183 279v628q-2 117 -102.5 189t-239.5 72q-125 0 -240 -59.5t-145 -178.5h430v-155h-181v-558q140 -81 140 -223q0 -110 -79 -193
t-179 -83q-140 -2 -205.5 87t-65.5 187q0 50 31 123q19 44 31 103v557h-168q0 138 76.5 266.5t220 225.5t375.5 97q240 0 433 -117.5t191 -308.5l1 -656q150 -49 252 -144zM638 268q0 55 -38.5 104t-107.5 49q-60 0 -102.5 -45t-42.5 -108t42.5 -108t102.5 -45
q61 0 103.5 45t42.5 108zM1098 139v279q-53 0 -75 -32.5t-22 -120.5q0 -69 24 -101t73 -25z" />
    <glyph glyph-name="uni0E0D" unicode="&#xe0d;" horiz-adv-x="2232" 
d="M338 1204h440v-151l-182 -1l-1 -502q64 18 122 18q88 0 170.5 -71.5t82.5 -193.5q0 -124 -100 -213.5t-223 -89.5q-138 0 -257.5 94.5t-119.5 265.5v693h-147q0 224 171 404.5t472 180.5q280 0 465.5 -121.5t185.5 -299.5v-844q0 -57 44.5 -105.5t127.5 -48.5
q145 0 152 158v1024q0 29 213 226h114v-1234q0 -189 -152 -291t-330 -102q-138 0 -242 49.5t-179 142t-75 209.5v795q0 114 -105 180t-252 66q-311 0 -395 -238zM854 299q0 66 -46.5 113t-113.5 47q-40 0 -75.5 -18.5t-60 -56t-24.5 -85.5q0 -46 22 -81.5t57.5 -57
t80.5 -21.5q76 0 118 51t42 109zM1232 -392q-7 -15 -4 -38q0 -156 255 -156q246 0 246 299v115h315v-66q0 -253 -128.5 -388t-374.5 -135q-204 0 -338 92.5t-134 242.5q0 128 74.5 214t195.5 86q47 0 107.5 -49.5t60.5 -123.5q0 -164 -143 -164q-84 0 -132 71z" />
    <glyph glyph-name="uni0E0E" unicode="&#xe0e;" horiz-adv-x="1819" 
d="M1655 -754h-287q-76 0 -130 124q-68 156 -94.5 189.5t-82 76.5t-98.5 43q-10 -76 -20 -122q-27 -83 -79 -131.5t-135 -48.5q-236 0 -236 241q0 141 85.5 200t265.5 59q85 183 139 239t143 56l50 -86q-183 -138 -183 -227q26 -7 130 -77q67 -62 204 -183v1597
q0 146 -124 231t-293 85q-116 0 -234 -67.5t-144 -170.5h480v-160h-205v-774q0 -116 -100 -228t-296 -112q-131 0 -217 93t-86 233q0 116 74 205t180 89h113v498h-143q0 208 169 380.5t474 172.5q196 0 341.5 -51.5t242 -157t96.5 -258.5v-1958zM559 321q0 45 -21.5 81
t-57.5 57.5t-81 21.5q-67 0 -113.5 -47t-46.5 -113t46.5 -113t113.5 -47q45 0 81 21.5t57.5 57.5t21.5 81zM824 -288q-54 33 -90 33q-128 0 -128 -126q0 -111 111 -111q64 0 84.5 33.5t22.5 170.5z" />
    <glyph glyph-name="uni0E0F" unicode="&#xe0f;" horiz-adv-x="1839" 
d="M942 -471q121 89 178 89q79 0 153 -30t75 -30v1605q0 145 -124.5 229t-273.5 84q-308 0 -401 -236l483 1v-160h-206v-673q0 -163 -121.5 -287.5t-267.5 -124.5q-154 0 -232 98.5t-78 222.5q0 95 78 188.5t199 93.5q62 0 91 -13v499h-143q0 135 69 254t203.5 209t357.5 90
q279 0 486 -118.5t207 -348.5v-1957h-286q-59 230 -240 230q-127 0 -212 -145l-96 1q-41 278 -104 278q-21 -158 -75.5 -216.5t-178.5 -58.5q-90 0 -151 70.5t-61 169.5q0 100 58.5 174.5t148.5 74.5q51 0 148 11q50 180 147.5 237.5t156.5 57.5l24 -118q-142 -31 -186 -230
q115 -113 174 -221zM588 312q0 66 -46.5 113t-113.5 47q-40 0 -75.5 -18.5t-60 -56t-24.5 -85.5q0 -45 21.5 -81t57.5 -57.5t81 -21.5q76 0 118 51t42 109zM487 -337q-104 0 -104 -128q0 -103 104 -103q32 0 65 23t44 196q-73 12 -109 12z" />
    <glyph glyph-name="uni0E10" unicode="&#xe10;" horiz-adv-x="1581" 
d="M381 1237q181 57 340 57q198 0 381.5 -114.5t183.5 -339.5v-578q0 -262 -397 -262q-189 0 -313.5 79.5t-124.5 174.5v168q-129 0 -179.5 18t-99.5 85.5t-49 174.5q0 143 97 217t214 74q148 0 248 -91t100 -245v-299q0 -118 99 -118q94 0 94 106v430q0 344 -409 344
q-111 0 -337 -82q-12 29 -12 66q0 193 69.5 308t166.5 171.5t223 56.5q84 0 236 -61q155 -61 212 -61q63 0 123 60q70 60 88 62q40 -2 37 -57q0 -98 -95 -194.5t-241 -96.5q-76 0 -236 80t-259 80q-61 0 -110.5 -75.5t-49.5 -137.5zM556 706q0 67 -47 113.5t-113 46.5
q-41 0 -76 -18.5t-59.5 -55.5t-24.5 -86q0 -58 42 -109t118 -51q46 0 81.5 22t57 57.5t21.5 80.5zM973 -502q-52 0 -110.5 58t-58.5 138q0 103 61 171.5t167 68.5q254 0 254 -355q4 -224 -6.5 -254.5t-48 -66.5t-84.5 -36h-369q-73 0 -90 164q-5 48 -11.5 93t-66.5 112
q-55 -242 -243 -242q-97 0 -152 73t-55 156q0 221 237 221q27 0 143 -26l87 156h123l-49 -101l-42 -86q41 -61 104 -147q32 -36 58 -219h152l5 62zM1167 -293q0 132 -128 132t-128 -132t128 -132t128 132zM503 -339q-74 42 -124 42q-54 0 -87 -39.5t-33 -81.5
q0 -111 108 -111q90 0 136 190z" />
    <glyph glyph-name="uni0E11" unicode="&#xe11;" horiz-adv-x="2154" 
d="M504 1040l114 45q25 -53 25 -127q0 -261 -211 -261q-149 0 -229.5 129.5t-80.5 300.5q0 192 122 351.5t178 159.5q39 0 105 -139l59 -94l55 85q73 152 107 152q165 0 284.5 -97t133.5 -446q3 -82 14 -132q80 410 175 540.5t259 130.5q377 0 377 -516v-1122h-312v1180
q0 286 -117 286q-190 0 -374 -1204q-24 -155 -45 -262h-320l-1 1169q-4 215 -81 215q-22 0 -77 -93q-36 -61 -91 -120l-83 121q-60 87 -84 87q-46 2 -93.5 -91.5t-47.5 -175.5q0 -105 47 -186.5t114 -81.5q85 0 85 104q8 32 -7 92z" />
    <glyph glyph-name="uni0E12" unicode="&#xe12;" horiz-adv-x="2298" 
d="M700 779h-103q-24 50 -24 134q0 88 75.5 146.5t170.5 58.5q242 0 242 -258q0 -98 -46 -174.5t-228 -257.5q-144 -143 -144 -203v-225h-344v451q0 117 -87 295q-89 182 -89 311q0 138 69 258t200 223.5t255 103.5q25 0 126 -152l75 -106l134 207q30 47 58 47
q98 0 301 -150t203 -329v-606q140 -22 262 -86l1 947q67 101 234 219l90 1l3 -1634h-168q-229 406 -410 406v-70q0 -336 -266 -336q-97 0 -188.5 76.5t-91.5 193.5q0 215 201 283v684q1 54 -51.5 121t-115.5 67q-41 0 -122 -131l-79 -111l-66 90q-94 135 -126 136
q-57 0 -143 -119.5t-86 -240.5q0 -335 217 -541q44 30 141 137q84 125 84 182q0 136 -106 136q-42 0 -63 -49q-10 -58 5 -135zM1221 142v264q-62 0 -85 -24t-23 -99q0 -76 27 -111.5t81 -29.5z" />
    <glyph glyph-name="uni0E13" unicode="&#xe13;" horiz-adv-x="2224" 
d="M1393 0h-312v1090q0 150 -115 255t-282 105q-118 0 -224 -59t-157 -211h475v-131h-180v-512q145 0 189.5 -10t100.5 -80t56 -172q0 -110 -77 -194.5t-212 -84.5q-385 0 -385 504v549h-147q0 145 72.5 274t210.5 222t364 93q265 0 454 -154.5t189 -340.5v-694
q171 83 316 124v779q123 185 221 286h110v-999l-45 -139q112 -116 112 -268q0 -107 -70 -187.5t-169 -80.5q-267 -1 -270 259q0 125 -37 125q-54 0 -144 -244zM840 265q0 57 -39.5 107.5t-109.5 50.5q-71 0 -111.5 -49t-40.5 -106q0 -61 45 -105t107 -44q53 0 101 38.5
t48 107.5zM2020 224q0 64 -43 111t-106 47q-64 0 -108 -45.5t-44 -109.5q0 -53 40 -101t112 -48q53 0 101 38.5t48 107.5z" />
    <glyph glyph-name="uni0E14" unicode="&#xe14;" horiz-adv-x="1683" 
d="M672 759l-117 -1q-10 34 -10 90q0 242 246 242q96 0 164.5 -69t68.5 -165q0 -212 -213 -389q-114 -95 -159.5 -138.5t-45.5 -127.5v-201h-319v369q0 126 -85 321q-79 182 -79 301q0 273 206 460t494 187q265 0 481 -118.5t216 -356.5v-1163h-324v1155q0 148 -127.5 231.5
t-298.5 83.5q-148 0 -279 -115.5t-131 -305.5q0 -108 72.5 -299t140.5 -283q47 25 158 148q100 156 100 212q0 103 -93 103q-74 0 -74 -82q0 -21 4 -54.5t4 -34.5z" />
    <glyph glyph-name="uni0E15" unicode="&#xe15;" horiz-adv-x="1712" 
d="M831 1224q-122 206 -193 206q-92 0 -168.5 -118t-73.5 -235q0 -110 67.5 -279.5t129.5 -240.5q46 17 144 104q85 112 85 177q0 141 -78 141q-77 0 -77 -131h-101q-9 109 10 163t79.5 101t154.5 47q64 0 113.5 -29.5t78.5 -79t29 -112.5q0 -168 -220 -399
q-214 -225 -214 -338v-201h-307v369q0 84 -85 312q-83 226 -83 308q-3 300 145.5 474.5t374.5 174.5q11 0 193 -168q115 172 155 172q247 0 402 -121.5t155 -303.5v-1217h-327v1159q0 80 -42 176t-130 95q-108 0 -217 -206z" />
    <glyph glyph-name="uni0E16" unicode="&#xe16;" horiz-adv-x="1630" 
d="M1139 0v1188q0 89 -41.5 146t-137.5 92.5t-227 35.5q-349 0 -396 -258h441v-147h-180v-492l86 8q128 0 205.5 -71.5t77.5 -193.5q0 -126 -92 -217t-220 -91q-385 0 -385 500v557h-147q0 186 163.5 383.5t491.5 197.5q186 0 331.5 -45t251 -134.5t105.5 -217.5v-971
q0 -71 -86.5 -170.5t-117.5 -99.5h-123zM844 301q0 67 -45 115.5t-111 48.5q-65 0 -110 -47.5t-45 -113.5q0 -56 42 -107t116 -51q63 0 108 45.5t45 109.5z" />
    <glyph glyph-name="uni0E17" unicode="&#xe17;" horiz-adv-x="1831" 
d="M1665 0h-324v1262q0 200 -131 200q-97 0 -134.5 -122.5t-205.5 -919.5q-81 -399 -94 -420h-323v1095q-51 -6 -72 -6q-260 0 -260 263q0 128 92 207t236 79q139 0 221 -67.5t105.5 -226t45.5 -340.5l49 145q42 188 74 272.5t118 150t209 65.5q198 0 296 -113t98 -254
v-1270zM531 1347q0 63 -45 107.5t-108 44.5q-56 0 -105 -40t-49 -112q0 -55 40.5 -104t113.5 -49q43 0 77 21t55 55t21 77z" />
    <glyph glyph-name="uni0E18" unicode="&#xe18;" horiz-adv-x="1569" 
d="M1044 0h-843v164h221v889l-299 45q12 169 116.5 354.5t297.5 185.5q94 0 273 -61q180 -61 251 -61q168 0 250 90h94q0 -105 -110.5 -235t-233.5 -130q-72 0 -248 112q-184 117 -264 117q0 -24 98 -118l103 -99v-114l602 -148v-733q0 -90 -82.5 -174t-225.5 -84zM258 1217
l164 -29v252q-56 0 -110 -85.5t-54 -137.5zM750 983v-819h106q110 0 135 31t25 84v647z" />
    <glyph glyph-name="uni0E19" unicode="&#xe19;" horiz-adv-x="1884" 
d="M1335 474q-81 -2 -156.5 -7t-157.5 -42t-140.5 -94t-85.5 -132v-199h-328v1100q-57 -13 -125 -13q-91 0 -152.5 72.5t-61.5 190.5q0 139 97 215.5t209 76.5q153 0 257 -112t104 -260v-832q58 47 183 118q136 50 225 50h132v729q0 27 88 153t152 146h96v-905
q0 -83 -32 -152q-11 -24 -25 -61q119 -102 114 -276q0 -112 -80 -176t-170 -64q-92 0 -174.5 63t-82.5 174q0 174 114 237zM542 1345q4 73 -36.5 118.5t-109.5 45.5q-74 0 -121 -44.5t-47 -110.5q6 -146 143 -159q168 16 171 150zM1475 412q-62 0 -102.5 -51.5t-40.5 -117.5
q0 -58 45.5 -96.5t106.5 -38.5q69 0 108 47t39 99q0 65 -45.5 111.5t-110.5 46.5z" />
    <glyph glyph-name="uni0E1A" unicode="&#xe1a;" horiz-adv-x="1810" 
d="M332 0v184h131v916l-92 -5q-125 0 -186.5 82t-61.5 191q0 122 90 196t233 74q141 0 243 -96.5t102 -234.5v-1123h335q116 0 152.5 19t36.5 174v1261h332v-1331q0 -70 -49 -142.5t-133.5 -118.5t-252.5 -46h-880zM527 1347q0 52 -38 99t-106 47q-60 0 -102.5 -43
t-42.5 -103q0 -61 42.5 -104t102.5 -43t102 43t42 104z" />
    <glyph glyph-name="uni0E1B" unicode="&#xe1b;" horiz-adv-x="1819" 
d="M365 0v183h98v917q-56 -8 -143 0q-83 6 -139 78t-56 181q0 124 87 201.5t234 77.5q141 0 243 -96.5t102 -234.5v-1124h335q208 -9 205 194v2031q0 42 75.5 161.5t104.5 125.5h144v-2388q0 -94 -106 -200.5t-337 -106.5h-847zM527 1347q0 52 -38 99t-106 47
q-60 0 -102.5 -43t-42.5 -103q0 -61 42.5 -104t102.5 -43t102 43t42 104z" />
    <glyph glyph-name="uni0E1C" unicode="&#xe1c;" horiz-adv-x="1696" 
d="M1200 0v197l-377 594l-372 -590v-201h-328v1204q0 117 47 210.5t137 158t186 64.5q129 0 224 -83t95 -207t-79 -203.5t-164 -79.5q-73 0 -118 7v-612l372 573l377 -573v1179h332v-1278q0 -120 -88 -238.5t-121 -121.5h-123zM679 1344q0 72 -48.5 112t-102.5 40
q-71 0 -111 -48.5t-40 -103.5q0 -63 44 -108t107 -45q62 0 106.5 45t44.5 108z" />
    <glyph glyph-name="uni0E1D" unicode="&#xe1d;" horiz-adv-x="1696" 
d="M1315 0h-115v197l-377 594l-372 -590v-201h-328v1204q0 178 109.5 303.5t277.5 125.5q107 0 204 -76t97 -209q0 -113 -74.5 -197t-181.5 -84q-38 0 -104 4v-612l372 573l377 -573v1921q0 45 77.5 127t168.5 130l86 1v-2278q0 -180 -217 -360zM679 1344q0 72 -48.5 112
t-102.5 40q-71 0 -111 -48.5t-40 -103.5q0 -63 44 -108t107 -45q62 0 106.5 45t44.5 108z" />
    <glyph glyph-name="uni0E1E" unicode="&#xe1e;" horiz-adv-x="2023" 
d="M1860 1h-316l-377 1416l-372 -1416h-328v1113q-66 -10 -103 -10q-116 2 -182.5 73t-60.5 184q0 125 96 200.5t211 75.5q171 0 269 -96.5t98 -225.5v-733l303 1056h123l319 -1056v1056h320v-1637zM526 1355q0 64 -44 108.5t-107 44.5q-62 0 -106 -44.5t-44 -108.5
q0 -55 39.5 -103.5t110.5 -48.5q63 0 107 44.5t44 107.5z" />
    <glyph glyph-name="uni0E1F" unicode="&#xe1f;" horiz-adv-x="2023" 
d="M1834 2633v-2633h-315l-377 1425l-373 -1425h-328v1104q-134 0 -179 14t-96 77t-51 156q0 120 84 204.5t204 84.5q163 0 264.5 -94t101.5 -223v-733l303 1048h123l320 -1048v1798q0 102 244 247zM521 1355q0 64 -44 108.5t-107 44.5q-62 0 -106 -44.5t-44 -108.5
q0 -55 39.5 -103.5t110.5 -48.5q63 0 107 44.5t44 107.5z" />
    <glyph glyph-name="uni0E20" unicode="&#xe20;" horiz-adv-x="1774" 
d="M1397 0h-115v1176q0 136 -112 211t-244 75q-96 0 -177 -29t-139.5 -80.5t-85.5 -148.5h447v-147h-180l-1 -645q0 -134 -47.5 -227t-122.5 -139t-223 -46q-127 0 -200 91.5t-73 195.5q0 72 33.5 130.5t84.5 95t82 43t140 6.5l1 496l-121 -1q0 228 161.5 404.5t452.5 176.5
q166 0 301.5 -52t243 -164t107.5 -251v-905q0 -59 -213 -266zM558 294q0 71 -49.5 111t-106.5 40q-56 0 -105.5 -40t-49.5 -111q0 -64 45.5 -109t109.5 -45q57 0 106.5 40.5t49.5 113.5z" />
    <glyph glyph-name="uni0E21" unicode="&#xe21;" horiz-adv-x="1782" 
d="M803 645q117 -63 214 -137l154 -117q57 -43 86 -43q33 0 33 53v979q0 88 56.5 163t140.5 95h131v-1392q0 -69 -33 -124t-88 -88.5t-125 -33.5q-51 0 -255 237q-178 208 -319 278q0 -225 -25.5 -309.5t-93.5 -145t-167 -60.5q-133 0 -230.5 100t-97.5 236q0 110 75.5 215
t181.5 105l34 -1v442q-63 -17 -99 -17q-125 0 -191 72.5t-61 197.5q0 130 104 211t214 77q137 0 249 -89t112 -263v-641zM531 1345q0 64 -45 107.5t-110 43.5q-56 0 -105.5 -39.5t-49.5 -111.5q0 -63 45.5 -108t109.5 -45t109.5 45t45.5 108zM475 535h-40q-44 0 -76.5 -66.5
t-32.5 -135.5q0 -57 33 -111.5t73 -54.5h43v368z" />
    <glyph glyph-name="uni0E22" unicode="&#xe22;" horiz-adv-x="1516" 
d="M262 795l-49 63q-67 78 -78.5 101t-11.5 69v291q0 135 107 227t257 92q124 0 226 -74.5t102 -220.5q0 -117 -71 -191.5t-191 -74.5q-58 0 -123 14v-137q0 -54 37 -75.5t242 -63.5v-94q-61 -11 -189 -57q-90 -48 -90 -132v-208q0 -76 83.5 -122t190.5 -46q128 0 224 52.5
t96 156.5v970q0 60 28.5 120t77.5 111.5t131 74.5h91v-1346q0 -106 -78 -200.5t-246 -94.5h-606q-144 0 -230 99t-86 212v242q0 81 104 183zM690 1342q0 64 -45 107.5t-110 43.5t-110 -43.5t-45 -107.5q0 -63 45.5 -108t109.5 -45t109.5 45t45.5 108z" />
    <glyph glyph-name="uni0E23" unicode="&#xe23;" horiz-adv-x="1430" 
d="M400 1306q264 -42 294 -52q3 -1 228 -65q249 -71 249 -243v-659q0 -122 -96.5 -204.5t-234.5 -82.5q-164 0 -248 78t-84 200q0 106 76 180.5t182 74.5q23 0 76 -6l2 403q0 66 -62 101t-258 67l-247 38q-134 20 -144 28t-10 32q0 117 175 279.5t382 162.5q59 0 167 -49
t165 -49q41 0 251 49q10 -2 11 -12q0 -85 -113 -167.5t-215 -82.5q-71 0 -180 48q-147 65 -191 65q-108 0 -175 -134zM921 278q0 71 -49.5 111t-105.5 40q-65 0 -110 -44t-45 -107q0 -64 45 -109t110 -45q56 0 105.5 40.5t49.5 113.5z" />
    <glyph glyph-name="uni0E24" unicode="&#xe24;" horiz-adv-x="1585" 
d="M1421 -881h-327v2069q0 82 -39 137t-132.5 98t-213.5 43q-355 0 -385 -258h430v-143h-181v-496q43 9 86 9q287 1 283 -266q0 -116 -79 -213.5t-234 -97.5q-383 0 -383 503v565h-123q0 569 618 569q306 0 493 -143t187 -307v-2069zM822 309q0 64 -45 107.5t-110 43.5
q-56 0 -105.5 -39.5t-49.5 -111.5q0 -63 45.5 -108t109.5 -45t109.5 45t45.5 108z" />
    <glyph glyph-name="uni0E25" unicode="&#xe25;" horiz-adv-x="1569" 
d="M1405 0h-328v885q0 98 -78.5 180t-196.5 82q-88 0 -152 -71.5t-64 -166.5l1 -370q62 17 135 13q130 -12 182.5 -88t52.5 -169q0 -126 -96.5 -210.5t-233.5 -84.5q-135 0 -252 91t-117 253v574q0 155 153 261t286 106q250 0 366 -88q-18 294 -408 294q-108 0 -190 -25
t-272 -198l-76 79q63 75 252 211q146 81 328 80q288 0 498 -111.5t210 -359.5v-1167zM823 300q0 71 -49.5 111t-106.5 40q-56 0 -105.5 -40t-49.5 -111q0 -73 49.5 -113.5t105.5 -40.5q57 0 106.5 40.5t49.5 113.5z" />
    <glyph glyph-name="uni0E26" unicode="&#xe26;" horiz-adv-x="1790" 
d="M1622 -840h-328v2016q0 86 -42.5 144t-125.5 100t-188 42q-339 0 -401 -258h446v-147h-180v-660q0 -124 -60 -227.5t-137 -136t-188 -32.5q-114 0 -204.5 72.5t-90.5 223.5q0 93 52 160t105.5 87.5t153.5 19.5l41 1v492h-119q0 244 160 412.5t455 168.5q309 0 480 -141.5
t171 -325.5v-2011zM574 305q0 62 -49 102.5t-115 40.5q-55 0 -103.5 -38t-48.5 -105q0 -68 45 -116.5t111 -48.5q67 0 113.5 48.5t46.5 116.5z" />
    <glyph glyph-name="uni0E27" unicode="&#xe27;" horiz-adv-x="1475" 
d="M983 562v687q0 230 -360 230q-180 0 -447 -217l-63 106q303 270 624 270q252 0 413 -113.5t161 -287.5v-889q0 -159 -120 -253.5t-251 -94.5q-126 0 -232 80.5t-106 234.5q0 259 279 259q31 0 102 -12zM1033 306q0 63 -45.5 106.5t-109.5 43.5q-57 0 -106.5 -39.5
t-49.5 -110.5q0 -64 45.5 -109t110.5 -45q56 0 105.5 40.5t49.5 113.5z" />
    <glyph glyph-name="uni0E28" unicode="&#xe28;" horiz-adv-x="1708" 
d="M1544 1638q-42 -169 -131 -327q53 -106 53 -221v-1090h-327v1044q-105 -62 -168 -86q3 -106 -45.5 -174t-107.5 -89.5t-191 -21.5v-673h-328v664q0 67 -85 184q-91 126 -91 233q0 259 204.5 408t458.5 149q275 0 471 -151q35 75 62 151h225zM1105 1235q-110 229 -363 229
q-232 0 -340 -111.5t-108 -266.5q0 -38 41 -120q11 61 47.5 121.5t81.5 102.5t187 42q185 0 279 -155q101 77 175 158zM846 938q0 74 -51 115.5t-109 41.5q-66 0 -113 -46t-47 -111t47 -111t113 -46q58 0 109 41.5t51 115.5z" />
    <glyph glyph-name="uni0E29" unicode="&#xe29;" horiz-adv-x="1810" 
d="M332 0v164h131v936q-57 -6 -80 -6q-261 10 -260 274q0 135 99 202.5t224 67.5q141 0 243 -96.5t102 -234.5v-336q94 73 184 73q146 0 233 -163l-102 -82q-70 90 -135 90q-86 0 -86 -90q0 -135 159 -135q171 0 271 184v500q0 81 65 167.5t123 122.5h144v-1331
q0 -125 -115.5 -216t-245.5 -91h-954zM544 1357q0 63 -45.5 107t-110.5 44q-56 0 -105.5 -40t-49.5 -111q0 -73 49.5 -113.5t105.5 -40.5q57 0 106.5 40.5t49.5 113.5zM1315 377v241q-154 -114 -262 -114q-145 0 -262 86v-426h335q132 0 160.5 45t28.5 168z" />
    <glyph glyph-name="uni0E2A" unicode="&#xe2a;" horiz-adv-x="1720" 
d="M1679 1638l-2 -38q-4 -70 -70 -176.5t-211 -157.5l12 -166v-1100h-330v934q0 77 -83.5 143.5t-187.5 66.5q-97 0 -159 -65t-62 -170v-362q35 15 107 15q121 0 189.5 -89.5t68.5 -184.5q0 -134 -95.5 -218.5t-234.5 -84.5q-175 0 -269 106t-94 253v574q0 164 148 268
t311 104q194 0 367 -110q-73 311 -429 311q-304 0 -458 -229l-77 70q235 309 589 309q418 0 630 -252q74 92 74 199v50h266zM820 286q0 72 -49 111.5t-106 39.5q-56 0 -105.5 -39.5t-49.5 -111.5q0 -63 45.5 -108.5t109.5 -45.5t109.5 45.5t45.5 108.5z" />
    <glyph glyph-name="uni0E2B" unicode="&#xe2b;" horiz-adv-x="1892" 
d="M1585 1149q16 -45 64 -139q47 -69 47 -117v-893h-328v1008q0 49 -70 49q-115 0 -305 -224t-190 -317v-516h-328v1079q-83 -10 -115 -10q-115 0 -176 81.5t-61 197.5q0 136 96.5 213t206.5 77q156 0 266.5 -96t110.5 -235v-471q248 256 467 394q-52 63 -52 166
q0 102 80 171.5t189 69.5q115 0 180.5 -80t65.5 -169q0 -172 -148 -239zM1637 1390q-12 75 -58 109.5t-107 34.5q-54 0 -103 -38t-49 -106q0 -66 45 -115t115 -49q65 0 111 48.5t46 115.5zM545 1344q-5 76 -52 109.5t-113 33.5q-55 0 -103.5 -38t-48.5 -105
q-1 -82 45 -123.5t111 -41.5q76 0 122 43.5t39 121.5z" />
    <glyph glyph-name="uni0E2C" unicode="&#xe2c;" horiz-adv-x="2327" 
d="M2163 1638q0 -142 -89.5 -259t-189.5 -154v-1225h-315l-389 1241l-361 -1241h-327v1100q-42 -14 -94 -14q-266 0 -266 258q0 138 92.5 216t246.5 78q111 0 229.5 -90.5t118.5 -227.5v-742l365 1060l381 -1060v593q-230 39 -230 233q0 94 59.5 164.5t172.5 70.5
q208 0 252 -172q22 4 70 38q31 34 32 133h242zM1712 1413q0 127 -133 127t-133 -127q0 -128 133 -128t133 128zM562 1352q0 46 -21.5 81.5t-57 56.5t-80.5 21q-57 0 -107.5 -42t-50.5 -117q0 -40 18.5 -74.5t55 -59t84.5 -24.5q66 0 112.5 46.5t46.5 111.5z" />
    <glyph glyph-name="uni0E2D" unicode="&#xe2d;" horiz-adv-x="1569" 
d="M549 739v-411q0 -176 258 -176q266 0 266 208v721q0 178 -114.5 294t-274.5 116q-254 0 -441 -183l-75 -71l-53 90q253 310 617 310q298 0 485.5 -177t187.5 -411v-537q0 -236 -178 -374t-436 -138q-259 0 -418.5 143t-159.5 332v459q0 140 97 244t269 104
q145 0 235.5 -83t90.5 -208q0 -119 -71 -193.5t-190 -74.5q-71 0 -95 16zM793 982q0 72 -49 111.5t-106 39.5t-106 -39.5t-49 -111.5q0 -64 45.5 -109t109.5 -45t109.5 45t45.5 109z" />
    <glyph glyph-name="uni0E2E" unicode="&#xe2e;" horiz-adv-x="1532" 
d="M1384 1633q-60 -223 -127 -298q82 -105 82 -205v-614q0 -241 -192.5 -378.5t-421.5 -137.5q-236 0 -419 96.5t-183 292.5v246q0 161 121.5 250.5t272.5 89.5q106 0 199.5 -78.5t93.5 -223.5q0 -126 -77.5 -199t-179.5 -73q-36 0 -98 14v-104q0 -184 274 -184
q126 0 202.5 63.5t76.5 174.5v794q-199 -57 -406 -57q-193 0 -328 75.5t-135 170.5q0 98 176.5 192t339.5 94q148 0 384 -135q44 59 65 134h280zM904 1347q-124 140 -322 140q-96 0 -200.5 -48.5t-104.5 -94.5t92.5 -80t218.5 -34q234 0 316 117zM696 672q0 63 -45.5 106.5
t-109.5 43.5q-65 0 -110 -43.5t-45 -106.5q0 -73 49.5 -113.5t105.5 -40.5t105.5 40.5t49.5 113.5z" />
    <glyph glyph-name="uni0E2F" unicode="&#xe2f;" horiz-adv-x="1802" 
d="M808 1274l-1 -164q-108 33 -156 33q-139 0 -139 -123q0 -78 53 -135.5t131 -57.5q116 0 180.5 89t102.5 266q60 300 99 378t130 78h430v-1638h-327v1356q0 45 -58 45q-52 0 -74.5 -34.5t-69.5 -207.5q-50 -173 -84.5 -260t-120.5 -157t-240 -70q-140 0 -238 103t-98 257
q0 97 81 200t201 103q142 0 198 -61z" />
    <glyph glyph-name="uni0E30" unicode="&#xe30;" horiz-adv-x="1434" 
d="M1270 1556q0 -224 -192.5 -427t-467.5 -203q-177 0 -331.5 90t-154.5 257q0 104 73.5 193t213.5 89q103 0 193.5 -66t90.5 -183q0 -123 -60 -176q32 -8 62 -8q80 0 191 95.5t128.5 180t23.5 158.5h230zM566 1274q0 76 -53.5 119t-114.5 43t-115 -43t-54 -119
q0 -66 49.5 -113.5t119.5 -47.5q60 0 114 43t54 118zM1272 630q0 -223 -192 -426.5t-468 -203.5q-177 0 -331.5 90t-154.5 257q0 119 81.5 200t205.5 81q116 0 200 -71.5t84 -177.5q0 -122 -60 -175q31 -8 61 -8q72 0 184 87t132.5 180t27.5 167h230zM568 348
q0 67 -49.5 114t-119.5 47q-61 0 -114.5 -42.5t-53.5 -118.5t53.5 -118.5t114.5 -42.5t115 42.5t54 118.5z" />
    <glyph glyph-name="uni0E31" unicode="&#xe31;" horiz-adv-x="0" 
d="M266 2580q0 -206 -191.5 -455t-594.5 -249q-260 0 -417 139t-157 287q0 101 74.5 194t204.5 93q116 0 193 -81t77 -198q0 -116 -116 -210q59 -40 145 -40q210 0 367 140.5t157 379.5h258zM-662 2315q0 65 -46 111.5t-111 46.5q-66 0 -112 -46.5t-46 -111.5t46 -111
t112 -46q44 0 79 21t56.5 56.5t21.5 79.5z" />
    <glyph glyph-name="uni0E32" unicode="&#xe32;" horiz-adv-x="1163" 
d="M999 0h-327v1249q0 117 -76.5 177.5t-165.5 60.5q-147 0 -255 -102l-53 64q165 188 404 188q195 0 333.5 -97t138.5 -305z" />
    <glyph glyph-name="uni0E33" unicode="&#xe33;" horiz-adv-x="1163" 
d="M-934 2156q0 113 82 213t227 100q111 0 209.5 -77.5t98.5 -216.5q0 -149 -101.5 -232.5t-215.5 -83.5q-146 0 -223 94t-77 203zM-625 2343q-74 0 -123 -53t-49 -123q0 -72 52 -124.5t125 -52.5q70 0 119.5 57t49.5 132q0 74 -57.5 119t-116.5 45zM999 0h-327v1249
q0 117 -76.5 177.5t-165.5 60.5q-147 0 -255 -102l-53 64q165 188 404 188q195 0 333.5 -97t138.5 -305z" />
    <glyph glyph-name="uni0E34" unicode="&#xe34;" horiz-adv-x="0" 
d="M-188 1809q-526 219 -769 219q-193 0 -370 -13q-105 -10 -223 -19q102 589 701 589q266 0 460.5 -208.5t200.5 -567.5zM-360 2008q-34 98 -179 243q-150 119 -325 127q-138 4 -264 -30.5t-235 -206.5q242 26 418 26q219 -3 585 -159z" />
    <glyph glyph-name="uni0E35" unicode="&#xe35;" horiz-adv-x="0" 
d="M-515 2467v265h254v-555q57 -145 65 -207t8 -161q-526 219 -769 219q-191 0 -365 -13q-85 -5 -228 -19q102 589 701 589q159 0 334 -118zM-360 2008q-38 94 -179 243q-152 119 -338 123q-142 4 -259.5 -36.5t-226.5 -196.5q242 26 418 26q222 4 585 -159z" />
    <glyph glyph-name="uni0E36" unicode="&#xe36;" horiz-adv-x="0" 
d="M-362 2335q174 -241 174 -526q-526 219 -769 219q-192 0 -370 -13q-85 -5 -223 -19q102 589 701 589q112 0 202 -30l-4 30q0 72 58.5 134t162.5 62q91 0 166.5 -62.5t75.5 -199.5q0 -143 -174 -184zM-307 2567q0 107 -115 107q-120 0 -120 -112q0 -111 128 -111
q107 0 107 116zM-360 2008q-38 94 -179 243q-150 119 -313 127q-150 12 -286 -28.5t-225 -208.5q242 26 418 26q216 -3 585 -159z" />
    <glyph glyph-name="uni0E37" unicode="&#xe37;" horiz-adv-x="0" 
d="M-375 2556v317h254v-635q57 -145 65 -207t8 -161q-526 219 -769 219q-191 0 -365 -13q-85 -5 -228 -19q94 544 615 587v229h263v-254q51 -15 157 -63zM-220 2069q-32 98 -179 243q-152 119 -318 119q-160 12 -277.5 -26.5t-228.5 -202.5q242 26 418 26q218 4 585 -159z
" />
    <glyph glyph-name="uni0E38" unicode="&#xe38;" horiz-adv-x="0" 
d="M-184 -844h-324v209q-61 -6 -86 -6q-287 0 -287 289q0 118 97 191.5t232 73.5q168 0 268 -107t100 -240v-410zM-456 -383q0 62 -45.5 105t-109.5 43q-56 0 -105 -39t-49 -109q0 -69 49 -108.5t105 -39.5q64 0 109.5 43.5t45.5 104.5z" />
    <glyph glyph-name="uni0E39" unicode="&#xe39;" horiz-adv-x="0" 
d="M-872 -844v275l-46 -4q-125 0 -188 67.5t-63 169.5q0 108 82.5 181t173.5 73q114 0 177.5 -78.5t63.5 -167.5v-327l62 -11q62 -4 78 26t16 177v373h328v-488q0 -107 -53 -186.5t-234 -79.5h-397zM-783 -332q0 127 -140 127q-126 0 -126 -135q0 -123 131 -123
q135 0 135 131z" />
    <glyph glyph-name="uni0E3A" unicode="&#xe3a;" horiz-adv-x="0" 
d="M-605 -452q0 105 71 179.5t172 74.5q113 0 177.5 -81t64.5 -173q0 -106 -71 -180.5t-171 -74.5q-101 0 -172 74.5t-71 180.5z" />
    <glyph glyph-name="uni0E3F" unicode="&#xe3f;" horiz-adv-x="1803" 
d="M853 -178v178h-796v49q90 0 146.5 18.5t79 56t22.5 190.5v1162q0 118 -10.5 162t-57 73.5t-180.5 29.5v49h796v266h161v-268q335 -14 473.5 -144t138.5 -304q0 -284 -423 -391q505 -107 505 -455q0 -216 -179.5 -349t-514.5 -144v-179h-161zM853 993v696q-86 1 -131 1
v-705q71 0 131 8zM1014 1645v-600q169 90 169 296q0 213 -169 304zM853 98v780q-59 4 -131 4l-1 -640q0 -138 132 -144zM1014 873v-748q229 88 229 354q0 302 -229 394z" />
    <glyph glyph-name="uni0E40" unicode="&#xe40;" horiz-adv-x="713" 
d="M348 1638h152v-1106q101 -122 120 -165.5t19 -108.5q0 -92 -66.5 -175t-183.5 -83q-133 0 -199.5 85t-66.5 194q0 30 24 119q25 90 25 110v848q0 84 58 168t118 114zM546 270q0 69 -45.5 117.5t-109.5 48.5q-73 0 -114.5 -52.5t-41.5 -113.5q0 -68 45.5 -116.5
t110.5 -48.5q64 0 109.5 48.5t45.5 116.5z" />
    <glyph glyph-name="uni0E41" unicode="&#xe41;" horiz-adv-x="1458" 
d="M348 1638h152v-1106q101 -122 120 -165.5t19 -108.5q0 -92 -66.5 -175t-183.5 -83q-133 0 -199.5 85t-66.5 194q0 30 24 119q25 90 25 110v848q0 84 58 168t118 114zM546 270q0 69 -45.5 117.5t-109.5 48.5q-73 0 -114.5 -52.5t-41.5 -113.5q0 -68 45.5 -116.5
t110.5 -48.5q64 0 109.5 48.5t45.5 116.5zM1118 1638h152v-1106q101 -122 120 -165.5t19 -108.5q0 -105 -73 -181.5t-177 -76.5q-133 0 -199.5 85t-66.5 194q0 30 24 119q25 90 25 110v848q0 84 58 168t118 114zM1316 270q0 60 -41 113t-114 53t-114.5 -52.5t-41.5 -113.5
q0 -68 45.5 -116.5t110.5 -48.5q64 0 109.5 48.5t45.5 116.5z" />
    <glyph glyph-name="uni0E42" unicode="&#xe42;" horiz-adv-x="1028" 
d="M729 532q7 -14 57 -73t66 -106t16 -95q0 -105 -72.5 -181.5t-183.5 -76.5q-112 0 -184 78t-72 201q0 30 22 119q23 90 23 110l-1 1418q0 69 -55.5 124.5t-355.5 263.5l-116 82q0 61 157 225t261 164q55 0 207 -63q145 -60 243 -60q145 0 193 65l86 1q0 -120 -108.5 -228
t-227.5 -108q-62 0 -207 72q-178 88 -223 88q-32 0 -92 -39.5t-60 -71.5l114 -67q163 -86 338 -202t175 -232v-1408zM771 270q0 69 -45.5 117.5t-109.5 48.5q-65 0 -110.5 -48.5t-45.5 -117.5q0 -60 41.5 -112.5t114.5 -52.5q72 0 113.5 52.5t41.5 112.5z" />
    <glyph glyph-name="uni0E43" unicode="&#xe43;" horiz-adv-x="950" 
d="M713 528q7 -16 73 -101.5t66 -172.5q0 -106 -72 -180t-178 -74q-118 0 -190 75.5t-72 198.5q0 28 22 117q23 90 23 113v1741q0 215 -62.5 275t-142.5 60q-94 0 -168.5 -79t-74.5 -176q0 -209 154 -209q25 0 48.5 32t23.5 63q0 71 -90 146l65 103q162 -120 162 -240
q0 -108 -52.5 -191t-157.5 -83q-135 0 -210 111t-75 253q0 189 137 328t346 139q425 0 425 -565v-1684zM751 260q0 69 -45.5 117.5t-109.5 48.5q-73 0 -114.5 -52.5t-41.5 -113.5q0 -68 45.5 -116.5t110.5 -48.5q72 0 113.5 52.5t41.5 112.5z" />
    <glyph glyph-name="uni0E44" unicode="&#xe44;" horiz-adv-x="1192" 
d="M-201 2753l41 90q48 -10 164 -57q81 -46 117 -88.5t58 -82.5t22 -129v-454q0 -140 82 -140q65 0 65 123v484q0 106 76 200t211 94q311 0 311 -397v-1864q7 -15 49 -64q90 -105 90 -210q0 -106 -72 -182t-183 -76q-116 0 -188.5 78.5t-72.5 200.5q0 30 24 119
q25 90 26 120v1980q0 107 -51 107q-60 0 -60 -102v-463q0 -122 -80 -200.5t-201 -78.5q-98 0 -185 79.5t-87 211.5v528q0 86 -156 173zM991 270q0 69 -45.5 117.5t-109.5 48.5q-65 0 -110.5 -48.5t-45.5 -117.5q0 -68 45.5 -116.5t110.5 -48.5q72 0 113.5 52.5t41.5 112.5z
" />
    <glyph glyph-name="uni0E45" unicode="&#xe45;" horiz-adv-x="1229" 
d="M172 1384l-61 56q200 198 381 198q152 0 259 -47t177.5 -140t70.5 -214v-2052h-327l-1 2069q0 84 -56.5 158.5t-196.5 74.5q-120 0 -246 -103z" />
    <glyph glyph-name="uni0E46" unicode="&#xe46;" horiz-adv-x="1384" 
d="M618 1176l-81 95q-91 120 -109 120q-35 0 -86.5 -114t-51.5 -217q0 -252 159 -252q75 0 75 66l-4 85q0 67 59 67q88 0 88 -163q0 -93 -62.5 -149.5t-155.5 -56.5q-171 0 -250.5 131.5t-79.5 288.5q0 122 52 238.5t144 215.5t119 99q28 0 104 -118l76 -95l92 105
q91 118 117 116q158 0 278 -128.5t120 -297.5v-2031h-324v2031q0 185 -82 185q-22 0 -105 -103z" />
    <glyph glyph-name="uni0E47" unicode="&#xe47;" horiz-adv-x="0" 
d="M-316 2648h204q-23 -175 -145 -255t-207 -77q-73 0 -169.5 15t-147.5 15q-196 0 -196 -175q0 -127 49 -127q24 -2 35.5 33t25.5 56t45 21q51 0 310 -142q84 -47 129 -47q47 0 47 42q0 33 -74 33q-81 0 -81 102q0 133 149 133q79 0 124 -65t45 -137q0 -89 -52.5 -169
t-135.5 -80q-71 0 -139 28.5t-167 83.5t-130 55q-37 0 -37 -61q0 -34 24 -78h-53q-96 0 -174.5 94t-74.5 225q-4 302 233 322l168 -6l150 -6q175 0 245 167z" />
    <glyph glyph-name="uni0E48" unicode="&#xe48;" horiz-adv-x="0" 
d="M-471 2761h422l-131 -815h-164z" />
    <glyph glyph-name="uni0E49" unicode="&#xe49;" horiz-adv-x="0" 
d="M-517 2053q259 101 355 299t96 352v77h222v-86q0 -122 -84.5 -338t-344.5 -386.5t-548 -170.5q-44 0 -105 6v152q52 3 165 78q72 60 119 205q-65 -7 -90 -7q-82 0 -162.5 68t-80.5 176q-10 114 65.5 206.5t204.5 92.5q295 0 295 -287q0 -174 -76 -361zM-571 2507
q0 128 -135 128t-135 -128q0 -129 135 -129t135 129z" />
    <glyph glyph-name="uni0E4A" unicode="&#xe4a;" horiz-adv-x="0" 
d="M-573 2283q-106 166 -164 166q-63 0 -115.5 -78t-52.5 -151q0 -69 37 -126.5t74.5 -76t93.5 -18.5q-9 33 -9 86q0 115 95 115q127 0 127 -144q0 -84 -58 -132t-123 -48q-149 0 -252.5 117t-103.5 272q0 121 69.5 257t163.5 136q93 0 214 -155q102 172 171 172
q238 0 238 -358v-101q66 22 126 173q27 63 32 257l2 90h221v-69q0 -246 -194 -500.5t-416 -278.5q114 219 114 344q0 217 -118 217q-70 0 -172 -166z" />
    <glyph glyph-name="uni0E4B" unicode="&#xe4b;" horiz-adv-x="0" 
d="M-360 2494v287h225v-287h323v-229h-323v-336h-225v336h-336v229h336z" />
    <glyph glyph-name="uni0E4C" unicode="&#xe4c;" horiz-adv-x="0" 
d="M-296 2515l57 467l209 -33l-77 -221l-124 -352q-116 49 -151 49q-70 0 -125.5 -60.5t-55.5 -128.5q0 -197 111 -197q50 0 50 46l-4 96q0 83 101 83q107 0 107 -101q0 -106 -78 -182t-184 -76q-312 0 -312 299q0 141 93.5 230t238.5 89q53 0 144 -8z" />
    <glyph glyph-name="uni0E4D" unicode="&#xe4d;" horiz-adv-x="0" 
d="M-222 2164q0 -129 -89.5 -221t-215.5 -92q-143 0 -225 95.5t-80 217.5q0 129 89.5 220.5t215.5 91.5q143 0 224 -99.5t81 -212.5zM-355 2164q0 83 -56 129t-120 46q-63 0 -119 -46t-56 -129q0 -73 51.5 -124t123.5 -51q64 0 120 46t56 129z" />
    <glyph glyph-name="uni0E4E" unicode="&#xe4e;" horiz-adv-x="0" 
d="M-82 2478l-45 -94q-141 0 -238.5 -53.5t-97.5 -151.5q0 -115 131 -115q110 0 160 58l90 -74q-109 -94 -332 -94q-282 0 -282 205q0 98 91.5 196.5t309.5 98.5q-188 12 -188 172q0 91 134 155t311 64q122 0 194 -31l-103 -78q-53 13 -130 13q-80 0 -141 -40.5t-61 -103.5
q0 -127 197 -127z" />
    <glyph glyph-name="uni0E4F" unicode="&#xe4f;" horiz-adv-x="1462" 
d="M1368 645q0 -186 -86 -331t-226 -231.5t-318 -86.5q-262 0 -446 189.5t-184 459.5q0 185 86 330t226.5 231.5t317.5 86.5q178 0 318.5 -87.5t226 -232.5t85.5 -328zM1278 645q0 232 -159 395t-381 163q-224 0 -382 -162.5t-158 -395.5t158.5 -396t381.5 -163t381.5 162.5
t158.5 396.5zM1029 639q0 -128 -86.5 -218.5t-210.5 -90.5q-139 0 -218 98.5t-79 210.5q0 127 87 218t210 91q139 0 218 -98.5t79 -210.5z" />
    <glyph glyph-name="uni0E50" unicode="&#xe50;" horiz-adv-x="1556" 
d="M1393 590q0 -272 -195 -431t-428 -159q-282 0 -464.5 180t-182.5 418q0 260 189 425t442 165q287 0 463 -183t176 -415zM750 164q192 0 309 131.5t117 289.5q0 203 -121 329.5t-296 115.5q-217 5 -336.5 -130t-103.5 -311q5 -185 124.5 -304.5t306.5 -120.5z" />
    <glyph glyph-name="uni0E51" unicode="&#xe51;" horiz-adv-x="1466" 
d="M783 377q-118 23 -184.5 48.5t-66.5 143.5q0 65 52 114.5t112 49.5q107 0 176.5 -81.5t69.5 -196.5q0 -373 -364 -373q-219 0 -337 155.5t-118 356.5q0 150 68 278t208 218t326 90q222 0 400 -166.5t178 -382.5q0 -250 -106.5 -440.5t-176.5 -190.5h-135q0 68 80 152
q101 106 137.5 181t36.5 216q0 171 -125 278t-309 107q-138 0 -257.5 -92t-119.5 -260q0 -322 263 -322q64 0 125 32t67 85z" />
    <glyph glyph-name="uni0E52" unicode="&#xe52;" horiz-adv-x="2167" 
d="M1445 963q159 225 275 225q283 0 283 -492q0 -299 -166.5 -497.5t-402.5 -198.5h-844q-150 0 -267.5 104.5t-117.5 354.5v950q0 162 -82 369q0 24 64 55t104 31q99 0 158 -77t59 -169v-1143q0 -130 9.5 -192t66.5 -92.5t170 -30.5h745q142 0 222.5 135t80.5 319
q0 122 -51.5 213t-132.5 91q-25 0 -68 -32.5t-43 -62.5q2 -12 12.5 -100t10.5 -147q0 -135 -38 -237q-6 -34 -48 -85q-21 -10 -49 -10t-61 7q65 227 65 320q0 318 -273 318q-114 0 -202 -65t-88 -201q0 -72 48 -147t119 -75q18 0 18 26q0 25 -28 62t-28 85q0 135 157 135
q159 0 159 -209q0 -99 -89 -164.5t-176 -65.5q-157 0 -242.5 139.5t-85.5 311.5q0 175 110.5 321t266.5 146q218 0 380 -225z" />
    <glyph glyph-name="uni0E53" unicode="&#xe53;" horiz-adv-x="2040" 
d="M1454 33q175 287 202 366t27 125q0 158 -62.5 276t-174.5 118q-113 0 -205 -148q29 -90 29 -205q0 -187 -99.5 -374t-150.5 -187q-41 0 -86 70l65 96q103 152 103 362q0 137 -102.5 266.5t-272.5 129.5q-187 0 -307.5 -116t-120.5 -297q0 -174 80 -268t178 -101
q-111 130 -111 227q0 81 54.5 140.5t134.5 59.5q217 0 217 -254q0 -122 -88.5 -220.5t-206.5 -98.5q-193 0 -313.5 157t-120.5 375q0 302 167.5 483t389.5 181q316 0 471 -238q109 238 287 238q210 0 324 -171t114 -386q0 -217 -295 -639q-56 -3 -127 33z" />
    <glyph glyph-name="uni0E54" unicode="&#xe54;" horiz-adv-x="2032" 
d="M1794 0q-29 46 -229.5 80.5t-331.5 34.5q-119 0 -322 -58q-203 -57 -301 -57q-210 0 -348.5 171.5t-138.5 385.5q0 235 197 398.5t633 295.5q279 84 444 152.5t209 116t52 141.5q6 162 14 186.5t52 24.5q60 0 106 -52t46 -112q0 -184 -192 -332.5t-603 -269.5
q-635 -187 -635 -541q0 -130 73.5 -230.5t230.5 -100.5q324 0 375 56q-228 162 -228 369q0 147 119 235.5t287 88.5q110 0 204.5 -63.5t94.5 -182.5q0 -78 -60.5 -134t-138.5 -56q-84 0 -137 57.5t-53 112.5l8 76q0 41 -17 41q-20 0 -47 -65t-27 -105q0 -114 89 -209
t243.5 -147.5t442.5 -155.5q6 -14 6 -29q0 -38 -41.5 -80.5t-75.5 -42.5z" />
    <glyph glyph-name="uni0E55" unicode="&#xe55;" horiz-adv-x="2081" 
d="M1221 1114q-274 -178 -530.5 -294.5t-256.5 -307.5q0 -324 377 -324q81 0 214 26t159 60q0 13 -82 132q-82 120 -82 221q0 158 118.5 254.5t303.5 96.5q98 0 197 -77t99 -199q0 -86 -60 -148t-148 -62q-77 0 -132 60.5t-55 147.5q0 39 9 70q-12 16 -25 16
q-26 0 -50 -53.5t-24 -101.5q0 -121 55 -205.5t167 -128t323 -141.5q6 -68 -46 -112t-85 -44q-178 106 -378 106q-112 0 -304 -55q-181 -51 -280 -51q-214 0 -399 123.5t-185 365.5q0 179 134 307.5t414 233.5l304 118q-222 79 -222 269q0 109 76 205.5t211 96.5
q123 0 213.5 -77t90.5 -190q0 -111 -47 -202q262 68 342 182.5t80 338.5q0 76 70 76q55 0 96.5 -37t41.5 -91q0 -145 -36 -233t-125.5 -172.5t-221 -142t-321.5 -57.5zM1196 1417q0 160 -156 160q-139 0 -139 -139q0 -160 160 -160q135 0 135 139z" />
    <glyph glyph-name="uni0E56" unicode="&#xe56;" horiz-adv-x="1458" 
d="M418 287q0 -53 96.5 -94t169.5 -41q154 0 257 129t103 297q0 176 -109 290.5t-284 114.5q-68 0 -238 -70q-170 -69 -249 -69q-21 7 -21 41t35 191q35 158 35 210q0 150 -147 279q-107 94 -107 155q0 37 19.5 83t50.5 52q76 0 168.5 -97t136 -211.5t43.5 -248.5l-12 -217
l137 42q123 32 182 32q248 0 429 -146t181 -424q0 -247 -177.5 -416t-428.5 -169q-242 0 -391.5 144t-149.5 307q0 254 205 254q213 0 213 -181q0 -98 -71 -163z" />
    <glyph glyph-name="uni0E57" unicode="&#xe57;" horiz-adv-x="2109" 
d="M926 958q129 148 172.5 191t122.5 43q178 0 277 -142t99 -309q0 -294 -85 -481q21 3 79 41q173 160 173 574q0 117 -40.5 238.5t-106.5 213.5t-257 221q-79 53 -79 238q0 65 144 65q89 0 307.5 -300.5t218.5 -628.5q0 -365 -172.5 -643.5t-418.5 -278.5q-39 0 -87 19.5
t-48 46.5q48 59 123 185q53 132 53 249q0 364 -189 364q-114 0 -221 -167l-65 -83l-68 85q-76 101 -111 127t-108 26q-109 0 -196 -91t-87 -211q0 -366 196 -366q58 0 58 32q0 1 -12 31t-12 64q0 65 43 120.5t125 55.5q103 0 156 -68.5t53 -152.5q0 -266 -357 -266
q-221 0 -352 165t-131 408q0 223 122 423t341 200q58 0 110 -15.5t73.5 -36t156.5 -186.5z" />
    <glyph glyph-name="uni0E58" unicode="&#xe58;" horiz-adv-x="2060" 
d="M1604 1806q0 78 49 78q233 0 233 -241q0 -301 -56.5 -480.5t-169 -294t-267.5 -114.5q-88 0 -304 63q-215 64 -327 64q-418 0 -418 -324q0 -116 57 -220q0 87 66 146.5t145 59.5q167 0 408 -187q270 -209 356 -209q54 0 54 25q0 42 -86 139q-51 57 -69.5 81t-18.5 50
q0 168 157 168q84 0 151 -41.5t107.5 -108t40.5 -149.5q0 -146 -106.5 -228.5t-274.5 -82.5q-218 0 -469 187q-111 83 -162 83q-41 0 -77.5 -38t-36.5 -79q0 -46 47 -150q-61 -7 -96 -7q-194 0 -304 176t-110 418q0 279 145 438.5t404 159.5q151 0 381 -79t328 -79
q305 0 305 505q-2 34 -82 271z" />
    <glyph glyph-name="uni0E59" unicode="&#xe59;" horiz-adv-x="1589" 
d="M1225 1147q28 -11 28 -64q0 -78 -24 -120t-67 -54.5t-196 -12.5q-565 0 -565 -298q0 -151 89 -278t256 -127q114 0 196 48.5t82 135.5q-233 57 -233 213q0 69 43 126.5t124 57.5q283 0 283 -319q0 -216 -172.5 -335.5t-367.5 -119.5q-204 0 -391 146.5t-187 410.5
q0 107 41.5 177t262.5 301q-157 117 -157 251q0 130 104 208.5t253 78.5q62 0 199 -21q131 -20 198 -20q76 0 130.5 32.5t68.5 165t68 132.5q129 0 129 -126q0 -171 -100.5 -306.5t-303.5 -135.5q-57 0 -170 24q-113 25 -170 25q-160 0 -160 -90q0 -44 36 -78.5t222.5 -53.5
t242.5 -20z" />
    <glyph glyph-name="uni0E5A" unicode="&#xe5a;" horiz-adv-x="2011" 
d="M1380 1638v-1638h-311v1360q0 70 -61 70q-79 0 -95 -82q-22 -139 -98 -402q-119 -274 -385 -274q-145 0 -238.5 103.5t-93.5 256.5q0 108 86 203.5t193 95.5q147 0 196 -61v-160q-74 37 -151 37q-140 -6 -148 -127q0 -80 52.5 -138.5t132.5 -58.5q105 0 180 90t122.5 344
t87.5 317.5t109 63.5h422zM1851 1634v-1633h-249v1633h249z" />
    <glyph glyph-name="uni0E5B" unicode="&#xe5b;" horiz-adv-x="3363" 
d="M3061 834h147l-25 -122q-89 -435 -396 -435q-214 0 -404 314q-104 -174 -253 -275q-135 156 -210 289q-141 -182 -247 -275q-121 139 -174 222q-155 -329 -323 -436t-377 -107q-170 0 -317 79t-252 240t-105 370q0 241 81.5 415.5t234.5 279t362 104.5q166 0 417 -125
l-10 -182q-179 132 -418 132q-250 0 -369.5 -177t-119.5 -429q0 -220 145.5 -378t357.5 -158q142 0 288 87t355 556q129 -191 239 -303l117 142q71 84 143 168l118 -186q27 -43 82 -121l100 121q66 79 152 179l101 -139l103 -143q46 -64 91.5 -89t91.5 -25q75 0 152.5 84.5
t111.5 240.5z" />
    <glyph glyph-name="uni200B" unicode="&#x200b;" horiz-adv-x="0" 
 />
    <glyph glyph-name="endash" unicode="&#x2013;" 
d="M1373 545h-1395v160h1395v-160z" />
    <glyph glyph-name="emdash" unicode="&#x2014;" horiz-adv-x="2703" 
d="M2729 544h-2755v161h2755v-161z" />
    <glyph glyph-name="quoteleft" unicode="&#x2018;" horiz-adv-x="900" 
d="M653 1831v-58q-291 -126 -291 -386q-3 -37 27 -45q79 33 119 32q89 0 141 -65.5t52 -137.5q0 -102 -72.5 -160.5t-153.5 -58.5q-133 0 -203.5 99t-70.5 229q0 412 452 551z" />
    <glyph glyph-name="quoteright" unicode="&#x2019;" horiz-adv-x="900" 
d="M248 952v58q292 126 292 387q0 43 -28 43q-15 0 -49.5 -16t-69.5 -16q-80 0 -136 61.5t-56 142.5q0 102 72 160.5t153 58.5q136 0 205.5 -100t69.5 -229q0 -412 -453 -550z" />
    <glyph glyph-name="quotesinglbase" unicode="&#x201a;" horiz-adv-x="900" 
d="M248 -474v58q79 34 133 76t89 96q70 103 70 214q0 21 -8.5 32.5t-19.5 11.5q-8 0 -24 -8q-36 -24 -94 -24q-77 0 -135.5 61.5t-58.5 142.5q0 85 66 154q69 66 160 66q113 0 193.5 -88t80.5 -242q0 -187 -114 -334t-338 -216z" />
    <glyph glyph-name="quotedblleft" unicode="&#x201c;" 
d="M1197 1831v-65q-130 -48 -211.5 -153t-81.5 -228q0 -45 20 -45l43 19q36 20 84 20q81 0 136 -62.5t55 -144.5q0 -104 -73 -163.5t-155 -59.5q-120 0 -196 96t-76 239q0 382 455 547zM562 1831v-65q-130 -48 -211.5 -153t-81.5 -228q0 -45 20 -45l43 19q36 20 84 20
q81 0 136 -62.5t55 -144.5q0 -92 -67.5 -157.5t-160.5 -65.5q-130 0 -201 102t-71 233q0 382 455 547z" />
    <glyph glyph-name="quotedblright" unicode="&#x201d;" 
d="M154 949v66q115 43 203.5 143.5t88.5 238.5q0 44 -18 44l-43 -20q-37 -20 -84 -20q-80 0 -135.5 62t-55.5 145q0 94 67 158.5t161 64.5q129 0 200.5 -102t71.5 -232q0 -380 -456 -548zM789 949v66q130 48 211 153t81 229q0 44 -18 44l-43 -20q-37 -20 -84 -20
q-80 0 -135.5 62t-55.5 145q0 94 67 158.5t161 64.5q119 0 195.5 -96t76.5 -238q0 -380 -456 -548z" />
    <glyph glyph-name="quotedblbase" unicode="&#x201e;" 
d="M154 -474v64q138 52 215 158.5t77 223.5q0 25 -8 38q-4 8 -10 8q-2 0 -22 -10q-42 -30 -106 -30q-74 0 -134 60q-27 32 -41.5 68.5t-14.5 77.5q0 45 15.5 83t50.5 73q65 68 162 68q110 0 191 -91.5t81 -244.5q0 -175 -109 -316.5t-347 -229.5zM790 -474v64
q134 51 214 160q39 54 58.5 109t19.5 113q0 12 -1.5 19t-6.5 19q-8 8 -12 8q-3 0 -20 -10q-42 -30 -106 -30q-77 0 -134.5 62t-57.5 144q0 87 65.5 155.5t162.5 68.5q109 0 192 -92q80 -89 80 -244q0 -88 -26.5 -167t-81.5 -151q-112 -142 -346 -228z" />
    <glyph glyph-name="dagger" unicode="&#x2020;" 
d="M704 -530h-66v120q0 255 -11 458t-35 360q-14 99 -36 193t-56 189q31 26 55 58q21 27 41 66q18 44 28 80q14 52 14 100q-20 -2 -44 -5t-44 -11q-47 -16 -127.5 -62t-132.5 -46q-68 0 -114 44.5t-46 109.5q0 61 46 110q45 42 108 42q51 0 156 -54q49 -26 101 -44.5
t97 -25.5q0 56 -18 117t-52 133q-38 84 -50 122t-12 78q0 83 49.5 135.5t114.5 52.5q70 0 120 -51.5t50 -136.5q0 -25 -1.5 -39t-8.5 -43q-7 -22 -18 -46q-14 -31 -33 -68.5t-33 -72.5t-23.5 -66.5t-12.5 -48.5q-6 -32 -6 -66q20 2 46.5 5t51.5 13q33 11 120 62l74 38
q12 4 27.5 6t34.5 2q69 0 115.5 -45t46.5 -111t-46 -106q-44 -44 -110 -44q-18 0 -34.5 2t-36 8.5t-105 54.5t-184.5 57q18 -198 142 -304q-40 -120 -66 -227.5t-40 -214.5q-36 -270 -36 -758v-120z" />
    <glyph glyph-name="daggerdbl" unicode="&#x2021;" 
d="M854 978q-78 -72 -109 -141.5t-31 -190.5q0 -172 38 -260q23 -59 102 -116q-80 -77 -106 -120q-13 -20 -22.5 -46.5t-17.5 -63.5q93 12 180.5 52.5t105 46t33.5 7.5t31 2q65 0 106 -38q21 -19 31.5 -41.5t10.5 -52.5q0 -56 -40.5 -95t-103.5 -39q-61 0 -166 48
q-67 31 -110 44q-15 3 -33 6t-45 6q4 -27 8.5 -49t9.5 -39q13 -37 26 -68q7 -18 26 -58q52 -107 52 -162q0 -64 -41 -105t-107 -41q-65 0 -108 40q-21 22 -30.5 45.5t-9.5 56.5q0 60 51.5 170.5t66.5 209.5q-21 -2 -41 -5t-31 -7q-36 -9 -108 -42q-58 -25 -102 -37.5
t-78 -12.5q-63 0 -103.5 37.5t-40.5 94.5q0 53 40 96q43 40 96 40q21 0 31 -1t31 -7q32 -10 125.5 -51.5t180.5 -50.5q-8 40 -18.5 70.5t-25.5 53.5q-28 44 -102 106q35 27 62 57t44 61q18 41 28 95t10 119q0 157 -30 232q-15 38 -42 71.5t-72 72.5q73 55 103 104t43 124
q-40 0 -86 -14.5t-108 -43.5q-107 -52 -172 -52q-62 0 -101 39t-39 97q0 52 42.5 93t97.5 41q26 0 66 -10q26 -8 62 -23q16 -7 62 -29q90 -39 176 -48q-8 44 -24.5 90t-44 104.5t-42.5 105.5t-15 78q0 63 45 109.5t103 46.5q65 0 106 -44q44 -41 44 -106q0 -18 -2 -34.5
t-8 -31.5q-3 -14 -15 -44.5t-34 -82t-35.5 -97t-21.5 -94.5q42 5 58 8t32 8q35 13 63 25q11 5 61 29q93 42 134 42q58 0 110 -46q19 -19 28.5 -41t9.5 -51q0 -54 -39.5 -92t-104.5 -38q-37 0 -64 8q-13 0 -76 30q-85 38 -118 48q-15 4 -39 9q-38 8 -55 11q0 -35 9 -63.5
t29 -58.5q15 -23 41.5 -49t66.5 -57z" />
    <glyph glyph-name="bullet" unicode="&#x2022;" horiz-adv-x="946" 
d="M479 1270q160 0 268 -109t108 -269q0 -138 -98 -257.5t-278 -119.5q-109 0 -193 50.5t-134 135t-50 191.5q0 160 108 269t269 109z" />
    <glyph glyph-name="ellipsis" unicode="&#x2026;" horiz-adv-x="2703" 
d="M450 407q63 0 112.5 -29.5t79 -79t29.5 -112.5q0 -93 -64 -156t-157 -63q-57 0 -105 25t-81 75.5t-33 118.5q0 93 63 157t156 64zM1352 405q56 0 104.5 -25t81.5 -76t33 -118q0 -63 -29 -111.5t-78 -78t-112 -29.5q-57 0 -105 25t-81 75.5t-33 118.5q0 57 25 105t75.5 81
t118.5 33zM2253 403q107 0 163 -69t56 -151q0 -63 -29 -111.5t-78 -78t-112 -29.5t-111.5 29t-78 78t-29.5 112q0 80 57 150t162 70z" />
    <glyph glyph-name="perthousand" unicode="&#x2030;" horiz-adv-x="2704" 
d="M1618 1832l-1244 -1908h-178l1248 1908h174zM484 1832q104 0 199.5 -60t146 -169.5t50.5 -242.5q0 -234 -115 -361t-285 -127q-166 0 -284 131.5t-118 350.5q0 138 54.5 250t155.5 170t196 58zM482 1766q-19 0 -40 -18q-29 -26 -38 -84q-18 -135 -18 -404q0 -162 20 -242
q9 -42 40 -74q14 -11 40 -14q20 0 34 14q27 27 38 78q14 87 14 316q0 243 -14 330q-9 56 -38 82q-13 13 -38 16zM1324 886q106 0 202 -60q46 -29 83.5 -72.5t64 -100t39.5 -115t13 -126.5q0 -238 -124 -362t-276 -124q-143 0 -272.5 120.5t-129.5 361.5q0 141 51.5 253
t149.5 168.5t199 56.5zM1326 822q-25 0 -40 -12q-25 -22 -34.5 -84t-15.5 -152.5t-6 -187.5q0 -207 18 -306q5 -49 34 -74q13 -13 42 -16q26 0 42 16q12 12 19.5 30t14.5 46q8 62 12 147.5t4 214.5q0 190 -20 296q-6 44 -32 70q-15 12 -38 12zM2224 884q106 0 201 -58
t147 -168q26 -51 39 -113t13 -127q0 -257 -128 -376q-131 -116 -272 -116q-152 0 -276 124t-124 356q0 136 52.5 249.5t149 171t198.5 57.5zM2224 822q-24 0 -40 -16q-25 -22 -34 -79t-14.5 -151.5t-5.5 -193.5t5 -168.5t14.5 -129.5t34.5 -82q14 -11 42 -14q26 0 40 14
q23 20 32 74q18 150 18 368q0 202 -18 292q-6 48 -36 72q-11 11 -38 14z" />
    <glyph glyph-name="guilsinglleft" unicode="&#x2039;" horiz-adv-x="900" 
d="M676 10l-554 606l560 606h94l-308 -606l308 -606h-100z" />
    <glyph glyph-name="guilsinglright" unicode="&#x203a;" horiz-adv-x="900" 
d="M226 1222l552 -606l-558 -606h-94l308 606l-308 606h100z" />
    <glyph glyph-name="Euro" unicode="&#x20ac;" 
d="M1147 973h-613q-4 -56 -4 -110h588l-30 -103h-556q24 -673 337 -673q150 0 251 96q52 50 153 213l60 -46q-104 -186 -184 -259q-141 -128 -359 -128q-313 0 -490 255q-147 211 -172 542h-133l30 103h98v21q0 40 3 89h-131l30 103h111q45 306 235 516q213 235 519 235
q144 0 252 -40q30 -11 157 -76v-395h-51q-32 403 -332 403q-165 0 -266 -210q-81 -167 -109 -433h637z" />
    <glyph glyph-name="trademark" unicode="&#x2122;" horiz-adv-x="2704" 
d="M-4 1790h1026v-298h-46q0 56 -16.5 99.5t-49.5 72.5q-58 58 -190 58h-50v-776q0 -110 25.5 -143t110.5 -33v-46h-600v46q36 0 61 4.5t35 11.5q18 8 30 38q10 30 10 126v772h-46q-125 0 -188 -54q-32 -29 -50 -72.5t-18 -103.5h-44v298zM1166 1790h486l306 -654l302 654
h458v-50q-66 0 -86 -14q-25 -12 -36.5 -38.5t-11.5 -123.5v-624q0 -96 20 -126q18 -21 45.5 -32.5t68.5 -11.5v-46h-608v46q93 0 122 32q28 28 28 138v668l-422 -884h-32l-420 884v-662q0 -93 8 -112q8 -23 40 -46q17 -8 42 -13t62 -5v-46h-372v46q35 0 61 4.5t39 11.5
q23 11 34 40q12 27 12 122v618q0 93 -12.5 120.5t-35.5 39.5q-13 6 -37.5 10t-60.5 4v50z" />
    <glyph glyph-name="uni25CC" unicode="&#x25cc;" horiz-adv-x="2040" 
d="M1676 1513q0 -81 -81 -81q-91 0 -91 81q0 87 91 87q81 0 81 -87zM1419 1684q0 -84 -81 -84q-90 0 -90 84q0 90 90 90q81 0 81 -90zM1850 1257q0 -89 -89 -89q-85 0 -85 89q0 85 89 85q85 0 85 -85zM1912 954q0 -86 -82 -86q-90 0 -90 86t90 86q82 0 82 -86zM1117 1750
q0 -91 -87 -91q-85 0 -85 91q0 85 85 85q87 0 87 -85zM817 1684q0 -84 -89 -84q-85 0 -85 84q0 90 85 90q89 0 89 -90zM1850 652q0 -86 -89 -86q-85 0 -85 86q0 88 85 88q89 0 89 -88zM556 1513q0 -81 -85 -81q-86 0 -86 79q0 89 86 89q85 0 85 -87zM1676 390q0 -85 -81 -85
q-87 0 -87 85q0 90 87 90q81 0 81 -90zM1419 219q0 -81 -81 -81q-86 0 -86 81q0 90 86 90q81 0 81 -90zM385 1257q0 -89 -82 -89q-88 0 -88 89q0 85 85 85t85 -85zM326 954q0 -86 -86 -86q-90 0 -90 86t90 86q86 0 86 -86zM1117 163q0 -90 -87 -90q-85 0 -85 90q0 86 85 86
q87 0 87 -86zM385 652q0 -86 -85 -86t-85 86q0 88 85 88t85 -88zM817 226q0 -88 -89 -88q-85 0 -85 81q0 90 85 90q89 0 89 -83zM556 390q0 -85 -85 -85q-86 0 -86 85q0 90 86 90q85 0 85 -90z" />
    <glyph glyph-name="glyph99" horiz-adv-x="1581" 
d="M381 1237q178 57 356 57q185 0 367 -115.5t182 -338.5v-578q0 -262 -397 -262q-189 0 -313.5 79.5t-124.5 174.5v177q-138 3 -184.5 19.5t-95 82t-48.5 167.5q0 129 92 210t219 81q148 0 248 -91t100 -245v-299q0 -118 99 -118q94 0 94 106v430q0 344 -402 344
q-120 0 -344 -82q-12 6 -12 66q0 193 69.5 308t166.5 171.5t223 56.5q65 0 242 -61t206 -61q74 0 141 78q38 44 70 44q37 0 37 -57q0 -89 -95.5 -190t-240.5 -101q-53 0 -235 80t-260 80q-51 0 -105.5 -71t-54.5 -142zM530 697q0 64 -46 100.5t-98 36.5q-56 0 -105.5 -37
t-49.5 -103q-5 -71 37 -110.5t112 -39.5t110 49t40 104z" />
    <glyph glyph-name="glyph115" horiz-adv-x="2212" 
d="M250 1053h-127q0 148 68 274.5t201 218.5t353 92q170 0 306.5 -45t241 -143t104.5 -233v-844q0 -61 52.5 -108.5t115.5 -47.5q65 0 110 47t45 113v1024q0 79 233 236h93l-1 -1247q3 -185 -148 -287.5t-341 -102.5q-146 0 -253.5 61t-170.5 148t-63 192v795
q0 112 -105 179t-251 67q-140 0 -241 -49.5t-144 -188.5h430v-151h-182v-503l106 18q260 0 260 -265q0 -138 -101 -218.5t-214 -80.5q-134 0 -255.5 95t-121.5 261v693zM518 305q0 -66 45 -114t110 -48q57 0 107.5 40t50.5 110q0 59 -40.5 112t-111.5 53q-65 0 -113 -45
t-48 -108z" />
    <glyph glyph-name="glyph201" horiz-adv-x="0" 
d="M-614 3613h323l-82 -561h-143z" />
    <glyph glyph-name="glyph202" horiz-adv-x="0" 
d="M-57 3637v-75q0 -222 -193.5 -405t-535.5 -183l3 101q53 24 57 57q6 47 -20 49q-79 0 -132 77.5t-53 146.5q0 97 67 164.5t164 67.5q120 0 182.5 -78t62.5 -167q0 -127 -62 -239q57 0 108 63.5t74 125t32 295.5h246zM-584 3390q0 109 -109 109t-109 -109t109 -109
t109 109z" />
    <glyph glyph-name="glyph203" horiz-adv-x="0" 
d="M50 4076l214 -1l-1 -93q-149 -582 -602 -743q113 237 113 353q0 69 -35 132t-85 63q-99 0 -175 -169q-89 163 -176 163q-157 0 -157 -239q0 -65 51.5 -133t99.5 -68q20 0 56 13q-19 51 -19 81q0 101 107 101q119 0 119 -138q0 -75 -58 -125.5t-136 -50.5
q-149 0 -247.5 120t-98.5 232q0 164 66.5 302t166.5 138q116 0 219 -170q102 169 195 169q94 0 147.5 -89t53.5 -219q0 -58 6 -163q58 37 119 151q53 98 57 301v82z" />
    <glyph glyph-name="glyph204" horiz-adv-x="0" 
d="M-635 3699v250h225v-250h250v-230h-250v-254h-225v254h-246v230h246z" />
    <glyph glyph-name="glyph205" horiz-adv-x="0" 
d="M-202 3742l127 -2l-17 -102l-58 -219q-24 -92 -57 -92t-77 17t-73 17q-104 0 -104 -121t63 -121q64 0 64 87q0 52 75 52q85 0 85 -116q0 -81 -61.5 -130t-127.5 -49q-108 0 -187 78t-79 188q0 97 64 169.5t156 72.5q54 0 150 -6l23 81z" />
    <glyph glyph-name="zero.ccmp" 
d="M1196 805q0 -191 -38.5 -346t-107.5 -264.5t-164.5 -168.5t-210.5 -59q-243 0 -381 235t-138 585q0 198 37.5 357t105.5 270t164 170.5t212 59.5q117 0 213 -59t164.5 -168t106 -264t37.5 -348zM829 808q0 193 -1 314.5t-3 174.5q-2 51 -11 98.5t-28 84.5t-47 59.5
t-67 22.5q-105 0 -131 -125q-13 -63 -19 -258t-6 -526q0 -123 2.5 -215.5t8.5 -159t17.5 -110t29.5 -69t43.5 -36t60.5 -10.5q146 0 147 244z" />
    <glyph glyph-name="one.ccmp" 
d="M873 1644v-1317q0 -64 1 -104.5t6 -67t17 -44t34 -34.5q43 -33 144 -33h36v-44h-848v44h42q97 0 146 25t63 70q13 42 13 188v835q0 64 -8 104.5t-23 63t-37 31t-49 8.5q-62 0 -147 -39l-22 43l593 271h39z" />
    <glyph glyph-name="two.ccmp" 
d="M1104 0h-948v26q422 488 522 691q101 207 101 358q0 61 -20.5 114t-56.5 92t-84.5 61.5t-104.5 22.5q-184 0 -284 -183l-44 16q125 446 496 446q153 0 296 -108t143 -291q0 -146 -93 -333t-519 -601h349q141 0 192 23q50 24 103 131h43z" />
    <glyph glyph-name="three.ccmp" 
d="M478 808v42q316 75 316 316q0 59 -22.5 104t-58.5 75.5t-80.5 46t-88.5 15.5q-167 0 -284 -176l-43 15q171 398 517 398q140 0 262 -89t122 -252q0 -195 -209 -317q285 -140 285 -415q0 -134 -49.5 -245t-138 -191t-212 -124.5t-271.5 -44.5q-365 0 -365 190q0 22 9 45.5
t25.5 42.5t40 31t53.5 12q65 0 238 -138q95 -76 188 -76q52 0 92 21.5t67 56t41 78.5t14 90q0 193 -132 319q-133 127 -316 170z" />
    <glyph glyph-name="four.ccmp" 
d="M147 607l765 1037h145v-1037h148v-246h-148v-361h-327v361h-583v246zM262 607h468v636z" />
    <glyph glyph-name="five.ccmp" 
d="M443 1611h754l-120 -307h-634l-61 -160q187 -8 337.5 -53t256 -121.5t162 -182t56.5 -234.5q0 -119 -48.5 -225t-135.5 -186.5t-208 -127.5t-266 -47q-87 0 -157 15t-118.5 41t-74.5 61t-26 75q0 22 9 45t25.5 42t40 31t53.5 12q86 0 256 -119q120 -84 208 -84
q57 0 100.5 22t73 56.5t45 78t15.5 86.5q0 162 -112 268q-112 108 -281 154q-170 47 -439 47z" />
    <glyph glyph-name="six.ccmp" 
d="M1202 1644v-33q-272 -68 -436 -212q-165 -145 -232 -442q104 70 242 70q95 0 172.5 -36.5t133 -101.5t86 -155t30.5 -197q0 -274 -155 -423q-155 -147 -352 -147q-260 0 -401 198q-141 199 -141 462q0 420 291 716q291 295 762 301zM519 860q-5 -82 -7.5 -142t-2.5 -98
q0 -281 56 -428.5t155 -147.5q140 0 140 322q0 533 -218 533q-48 0 -123 -39z" />
    <glyph glyph-name="seven.ccmp" 
d="M487 -33l438 1329h-334q-157 0 -257 -36q-102 -37 -151 -149h-45l116 500h960l-541 -1644h-186z" />
    <glyph glyph-name="eight.ccmp" 
d="M897 910q302 -222 302 -479q0 -106 -41.5 -191.5t-114.5 -146t-172.5 -93.5t-216.5 -33q-195 0 -348 99q-153 100 -153 306q0 255 327 405q-197 148 -249 246q-26 49 -38.5 100.5t-12.5 107.5q0 93 41 168t111 128.5t163.5 82t198.5 28.5q188 0 333 -91q146 -92 146 -278
q0 -223 -276 -359zM807 970q86 119 86 295q0 299 -204 299q-47 0 -82.5 -17.5t-59.5 -46t-36.5 -64.5t-12.5 -73q0 -191 309 -393zM569 720q-114 -104 -114 -348q0 -329 219 -329q47 0 85 18t65 50t41.5 75.5t14.5 94.5q0 230 -311 439z" />
    <glyph glyph-name="nine.ccmp" 
d="M149 -33v33q567 126 664 649q-132 -69 -234 -69q-97 0 -176 36t-134.5 101.5t-86 156t-30.5 200.5q0 269 153 419q154 151 356 151q247 0 394 -195q148 -196 148 -469q0 -410 -280 -702q-280 -291 -774 -311zM831 749q12 132 12 234q0 117 -12.5 222t-38.5 184.5
t-66 126.5t-95 47q-139 0 -139 -318q0 -535 216 -535q46 0 123 39z" />
    <glyph glyph-name="glyph354" horiz-adv-x="0" 
d="M-216 3691h204q-22 -175 -145 -255q-62 -41 -112.5 -59t-94.5 -18q-34 0 -79.5 4.5t-91 10.5t-85 10.5t-61.5 4.5q-196 0 -196 -175q0 -66 12.5 -96.5t38.5 -30.5q23 0 34 33q11 35 25 56t45 21q51 0 310 -142q85 -47 129 -47q47 0 47 42q0 33 -74 33q-81 0 -81 102
q0 133 149 133q40 0 71.5 -18.5t53 -48t33 -65.5t11.5 -70q0 -43 -13.5 -87t-38 -80t-59.5 -59t-77 -23q-73 0 -139 28q-20 8 -47 21.5t-57.5 29t-61 31.5t-57 28.5t-74.5 28.5q-37 0 -37 -61q0 -35 24 -78h-53q-46 0 -90.5 24.5t-80 66t-57 97t-21.5 117.5q0 158 54 241.5
t179 94.5l318 -12q174 0 245 167z" />
    <glyph glyph-name="glyph360" horiz-adv-x="0" 
d="M-74 3266q0 -65 -24.5 -121.5t-66 -99.5t-97 -67.5t-117.5 -24.5q-73 0 -129.5 26.5t-95.5 70.5t-59.5 100t-20.5 116q0 63 24 119.5t65.5 99.5t97 68t118.5 25q72 0 128.5 -28t95.5 -73t60 -100.5t21 -110.5zM-207 3266q0 42 -15.5 74.5t-41 55t-57 34t-62.5 11.5
t-62 -11.5t-56 -34t-41 -55t-16 -74.5q0 -36 14 -68t37.5 -55.5t55.5 -37.5t68 -14q31 0 62.5 11.5t57 34t41 55t15.5 74.5z" />
    <glyph glyph-name="glyph361" horiz-adv-x="0" 
d="M94 3399l-38 -79q-57 0 -108 -11t-90 -33t-61.5 -54t-22.5 -74q0 -96 110 -96q92 0 134 48l76 -62q-91 -79 -279 -79q-237 0 -237 172q0 82 77 165t260 83q-158 11 -158 145q0 38 31.5 71.5t83.5 58.5t119.5 39.5t139.5 14.5q100 0 163 -26l-87 -66q-46 11 -109 11
q-33 0 -64 -9t-54.5 -25t-37.5 -38.5t-14 -48.5q0 -107 166 -107z" />
  </font>
</defs>
</svg>
