<?xml version="1.0" standalone="no"?>
<!DOCTYPE svg PUBLIC "-//W3C//DTD SVG 1.1//EN" "http://www.w3.org/Graphics/SVG/1.1/DTD/svg11.dtd" >
<svg xmlns="http://www.w3.org/2000/svg" xmlns:xlink="http://www.w3.org/1999/xlink" version="1.1">
<metadata>
Created by FontForge 20170910 at Thu Aug  4 18:32:36 2016
 By Jimmy Wärting
(c) 1992 Unity Progress. Portions (c) 2004 The Monotype Corporation. Portions (c) 2015 Microsoft Corporation. All Rights Reserved.
</metadata>
<defs>
<font id="CordiaUPC-Bold" horiz-adv-x="1493" >
  <font-face 
    font-family="CordiaUPC"
    font-weight="700"
    font-stretch="normal"
    units-per-em="4096"
    panose-1="2 11 6 4 2 2 2 2 2 4"
    ascent="3276"
    descent="-820"
    x-height="1392"
    cap-height="1921"
    bbox="-1728 -1069 3238 3412"
    underline-thickness="102"
    underline-position="-256"
    unicode-range="U+0020-25CC"
  />
    <missing-glyph />
    <glyph glyph-name="space" unicode=" " horiz-adv-x="918" 
 />
    <glyph glyph-name="space" unicode="&#xa0;" horiz-adv-x="918" 
 />
    <glyph glyph-name="exclam" unicode="!" horiz-adv-x="746" 
d="M303 477l-72 1018v426h292v-426l-68 -1018h-152zM241 0v269h271v-269h-271z" />
    <glyph glyph-name="quotedbl" unicode="&#x22;" horiz-adv-x="953" 
d="M189 1241l-66 366v314h269v-314l-59 -366h-144zM622 1241l-64 366v314h269v-314l-63 -366h-142z" />
    <glyph glyph-name="numbersign" unicode="#" 
d="M135 -33l114 558h-221v196h260l97 475h-357v196h397l114 562h196l-114 -562h413l114 562h198l-114 -562h226v-196h-266l-98 -475h364v-196h-403l-114 -558h-197l113 558h-411l-114 -558h-197zM485 721h411l99 475h-413z" />
    <glyph glyph-name="dollar" unicode="$" 
d="M668 -276v235q-536 68 -572 574l237 45q48 -379 335 -419v750q-532 120 -532 540q0 216 131 364t401 172v113h139v-113q445 -41 513 -473l-244 -37q-40 264 -269 311v-680q560 -111 560 -560q0 -280 -172 -427t-388 -157v-238h-139zM668 1789q-118 -19 -207 -99.5
t-89 -221.5q0 -243 296 -332v653zM807 159q142 17 229.5 120.5t87.5 251.5q0 125 -62.5 204.5t-254.5 141.5v-718z" />
    <glyph glyph-name="percent" unicode="%" horiz-adv-x="2386" 
d="M156 1460q0 199 100 346.5t304 147.5q212 0 315 -148.5t103 -360.5q0 -228 -112.5 -367.5t-303.5 -139.5q-207 0 -306.5 150.5t-99.5 371.5zM566 1791q-204 0 -204 -355q0 -335 204 -335q206 0 206 354q0 336 -206 336zM567 -71l1051 2025h192l-1047 -2025h-196z
M1398 451q0 223 109.5 358.5t295.5 135.5q213 0 315.5 -148.5t102.5 -360.5q0 -199 -101.5 -353t-315.5 -154q-207 0 -306.5 151t-99.5 371zM1810 782q-206 0 -206 -355q0 -335 204 -335q207 0 207 354q0 336 -205 336z" />
    <glyph glyph-name="ampersand" unicode="&#x26;" horiz-adv-x="1790" 
d="M1275 227q-233 -260 -552 -260q-275 0 -441.5 171t-166.5 391q0 356 458 574q-217 249 -217 422q0 181 139.5 305t337.5 124q190 0 318.5 -117t128.5 -293q0 -274 -363 -468l345 -439q59 115 92 267l245 -52q-63 -252 -171 -414q133 -176 300 -295l-158 -188
q-143 92 -295 272zM795 1228q244 144 244 309q0 85 -55 154t-162 69q-95 0 -159 -60.5t-64 -151.5q0 -90 92 -198zM1127 413l-433 536q-324 -194 -324 -405q0 -147 105 -257.5t251 -110.5q247 0 401 237z" />
    <glyph glyph-name="quotesingle" unicode="'" horiz-adv-x="512" 
d="M178 1241l-60 359v321h269v-321l-63 -359h-146z" />
    <glyph glyph-name="parenleft" unicode="(" horiz-adv-x="894" 
d="M622 -432q-466 587 -466 1261q0 637 466 1258h169q-259 -431 -325.5 -718.5t-66.5 -541.5q0 -630 392 -1259h-169z" />
    <glyph glyph-name="parenright" unicode=")" horiz-adv-x="894" 
d="M335 -432h-170q392 629 392 1259q0 631 -392 1260h170q465 -621 465 -1258q0 -670 -465 -1261z" />
    <glyph glyph-name="asterisk" unicode="*" horiz-adv-x="1044" 
d="M84 1569l60 186q208 -74 303 -128q-25 238 -26 327h190q-4 -130 -31 -325q135 68 310 126l60 -186q-166 -56 -326 -74q80 -69 225 -248l-157 -111q-76 104 -180 282q-97 -185 -170 -282l-155 111q152 188 218 248q-169 33 -321 74z" />
    <glyph glyph-name="plus" unicode="+" horiz-adv-x="1567" 
d="M672 311v526h-523v220h523v523h223v-523h523v-220h-523v-526h-223z" />
    <glyph glyph-name="comma" unicode="," horiz-adv-x="746" 
d="M238 0v269h269v-269q0 -284 -219 -380l-65 101q142 62 149 279h-134z" />
    <glyph glyph-name="hyphen" unicode="-" horiz-adv-x="894" 
d="M85 705v237h725v-237h-725z" />
    <glyph glyph-name="period" unicode="." horiz-adv-x="746" 
d="M244 0v269h268v-269h-268z" />
    <glyph glyph-name="slash" unicode="/" horiz-adv-x="746" 
d="M0 -33l557 1987h189l-556 -1987h-190z" />
    <glyph glyph-name="zero" unicode="0" 
d="M111 947q0 982 627 982q626 0 626 -982q0 -980 -626 -980q-627 0 -627 980zM354 947q0 -786 384 -786t384 786q0 787 -387 787q-188 0 -284.5 -180.5t-96.5 -606.5z" />
    <glyph glyph-name="one" unicode="1" 
d="M1000 0h-236v1503q-189 -180 -472 -284v228q413 194 556 482h152v-1929z" />
    <glyph glyph-name="two" unicode="2" 
d="M1349 227v-227h-1270q0 307 492 710q339 278 436 427t97 264q0 162 -111.5 247.5t-250.5 85.5q-195 0 -285 -115t-91 -271l-242 25q51 556 624 556q265 0 431.5 -146.5t166.5 -386.5q0 -144 -83 -303t-484 -497l-201 -171q-103 -87 -171 -198h942z" />
    <glyph glyph-name="three" unicode="3" 
d="M113 507l236 32q76 -378 376 -378q169 0 282 115.5t113 285.5q0 164 -106 269t-270 105q-67 0 -166 -27l26 207q135 0 218 26.5t147.5 101.5t64.5 191q0 133 -89 216.5t-226 83.5q-294 0 -347 -346l-236 42q44 235 195.5 366.5t382.5 131.5q270 0 416 -153.5t146 -345.5
q0 -268 -264 -390q359 -82 359 -473q0 -289 -202 -445t-446 -156q-249 0 -417.5 148t-192.5 393z" />
    <glyph glyph-name="four" unicode="4" 
d="M867 0v460h-833v216l877 1245h192v-1245h260v-216h-260v-460h-236zM867 676v866l-601 -866h601z" />
    <glyph glyph-name="five" unicode="5" 
d="M111 503l248 21q55 -363 370 -363q197 0 301.5 143t104.5 326q0 199 -110.5 317t-299.5 118q-232 0 -350 -186l-222 29l186 987h956v-226h-767l-103 -516q173 121 363 121q260 0 428.5 -176.5t168.5 -446.5q0 -187 -82 -345t-228.5 -248.5t-345.5 -90.5
q-261 0 -427 144.5t-191 391.5z" />
    <glyph glyph-name="six" unicode="6" 
d="M1335 1451l-234 -19q-62 303 -325 303q-193 0 -315 -190t-126 -554q168 255 467 255q274 0 420.5 -192.5t146.5 -429.5q0 -310 -176 -483.5t-425 -173.5q-667 0 -667 932q0 1030 689 1030q227 0 371.5 -126.5t173.5 -351.5zM372 622q0 -217 118 -339t274 -122
q177 0 270.5 136.5t93.5 311.5q0 191 -102 310t-271 119q-167 0 -275 -118t-108 -298z" />
    <glyph glyph-name="seven" unicode="7" 
d="M127 1669v227h1244v-183q-306 -324 -505.5 -795t-227.5 -918h-242q9 450 209.5 909.5t462.5 759.5h-941z" />
    <glyph glyph-name="eight" unicode="8" 
d="M474 1042q-288 105 -288 392q0 219 155 357t397 138q213 0 385.5 -128t172.5 -374q0 -279 -283 -385q362 -118 362 -493q0 -257 -178 -419.5t-455 -162.5q-191 0 -332.5 76t-221 206.5t-79.5 306.5q0 390 365 486zM427 1441q0 -138 88 -223.5t228 -85.5q116 0 213.5 76
t97.5 220q0 149 -98.5 228t-215.5 79q-132 0 -222.5 -84.5t-90.5 -209.5zM351 554q0 -190 119.5 -291.5t273.5 -101.5q148 0 268.5 96.5t120.5 288.5q0 172 -112.5 283t-284.5 111q-144 0 -264.5 -98t-120.5 -288z" />
    <glyph glyph-name="nine" unicode="9" 
d="M147 444l226 21q55 -304 319 -304q199 0 323 175.5t124 567.5q-159 -253 -459 -253q-277 0 -423 193t-146 436q0 287 167.5 468t436.5 181q660 0 660 -929q0 -530 -183.5 -781.5t-504.5 -251.5q-228 0 -370 125.5t-170 351.5zM1112 1292q0 191 -102 316.5t-266 125.5
q-172 0 -281 -136.5t-109 -325.5q0 -179 107.5 -295.5t276.5 -116.5q171 0 272.5 118.5t101.5 313.5z" />
    <glyph glyph-name="colon" unicode=":" horiz-adv-x="746" 
d="M242 1123v269h269v-269h-269zM242 0v269h269v-269h-269z" />
    <glyph glyph-name="semicolon" unicode=";" horiz-adv-x="746" 
d="M238 1123v269h269v-269h-269zM238 0v269h269v-269q0 -284 -219 -380l-65 101q142 62 149 279h-134z" />
    <glyph glyph-name="less" unicode="&#x3c;" horiz-adv-x="1567" 
d="M147 840v220l1272 537v-234l-1009 -414l1009 -418v-235z" />
    <glyph glyph-name="equal" unicode="=" horiz-adv-x="1567" 
d="M1418 1130h-1269v220h1269v-220zM1418 546h-1269v221h1269v-221z" />
    <glyph glyph-name="greater" unicode="&#x3e;" horiz-adv-x="1567" 
d="M1419 840l-1272 -544v235l1007 418l-1007 414v234l1272 -537v-220z" />
    <glyph glyph-name="question" unicode="?" 
d="M618 473q0 179 25 272.5t107 191.5q131 111 328 337q37 64 37 140q0 144 -109.5 245t-261.5 101q-323 0 -384 -389l-242 28q68 555 622 555q233 0 425.5 -133t192.5 -391q0 -233 -290 -490q-141 -125 -180 -202.5t-43 -264.5h-227zM604 0v269h269v-269h-269z" />
    <glyph glyph-name="at" unicode="@" horiz-adv-x="2724" 
d="M1521 214q-188 -218 -402 -218q-217 0 -345.5 177t-128.5 411q0 324 208 580t472 256q248 0 396 -241l44 203h235l-189 -879q-39 -181 -39 -203q0 -86 91 -86q116 0 311 190.5t195 533.5q0 386 -280.5 606.5t-656.5 220.5q-487 0 -790 -323.5t-303 -805.5
q0 -519 318 -763t811 -244q646 0 922 396h237q-115 -247 -416 -418.5t-739 -171.5q-632 0 -979.5 318.5t-347.5 861.5q0 364 170.5 690.5t452.5 488.5t676 162q532 0 825.5 -306t293.5 -716q0 -367 -246.5 -653t-542.5 -286q-109 0 -176.5 45t-76.5 174zM887 569
q0 -157 76 -268t205 -111q101 0 210 78.5t188.5 228t79.5 353.5q0 166 -83 270.5t-221 104.5q-191 0 -323 -208.5t-132 -447.5z" />
    <glyph glyph-name="A" unicode="A" horiz-adv-x="1790" 
d="M-4 0l738 1921h274l786 -1921h-290l-224 582h-803l-211 -582h-270zM550 789h652l-201 532q-92 243 -136 398q-38 -190 -104 -367z" />
    <glyph glyph-name="B" unicode="B" horiz-adv-x="1790" 
d="M197 0v1921h720q326 0 481.5 -142.5t155.5 -348.5q0 -275 -269 -408q362 -106 362 -465q0 -557 -718 -557h-732zM451 1114h415q219 0 328.5 59.5t109.5 225.5q0 126 -68 210.5t-401 84.5h-384v-580zM451 227h478q229 0 342 78t113 252q0 157 -101 243.5t-388 86.5h-444
v-660z" />
    <glyph glyph-name="C" unicode="C" horiz-adv-x="1938" 
d="M1578 674l254 -65q-164 -642 -796 -642q-465 0 -683.5 292t-218.5 716q0 487 264 733t642 246q597 0 759 -560l-250 -59q-128 401 -514 401q-341 0 -490 -217t-149 -543q0 -417 177 -604t443 -187q456 0 562 489z" />
    <glyph glyph-name="D" unicode="D" horiz-adv-x="1938" 
d="M207 0v1921h662q293 0 478 -73t316.5 -298t131.5 -579q0 -438 -207.5 -704.5t-687.5 -266.5h-693zM461 227h410q237 0 373.5 67t212.5 240.5t76 440.5q0 265 -79 433t-213 227t-376 59h-404v-1467z" />
    <glyph glyph-name="E" unicode="E" horiz-adv-x="1790" 
d="M212 0v1921h1389v-227h-1135v-588h1063v-225h-1063v-654h1180v-227h-1434z" />
    <glyph glyph-name="F" unicode="F" horiz-adv-x="1639" 
d="M220 0v1921h1296v-227h-1042v-595h902v-226h-902v-873h-254z" />
    <glyph glyph-name="G" unicode="G" horiz-adv-x="2087" 
d="M1106 753v226h814v-712q-377 -300 -796 -300q-444 0 -712.5 268t-268.5 716q0 422 240.5 712.5t721.5 290.5q644 0 786 -570l-229 -63q-120 415 -556 415q-334 0 -517.5 -203.5t-183.5 -565.5q0 -405 203.5 -587.5t501.5 -182.5q336 0 561 199v357h-565z" />
    <glyph glyph-name="H" unicode="H" horiz-adv-x="1938" 
d="M215 0v1921h254v-789h999v789h254v-1921h-254v905h-999v-905h-254z" />
    <glyph glyph-name="I" unicode="I" horiz-adv-x="746" 
d="M250 0v1921h254v-1921h-254z" />
    <glyph glyph-name="J" unicode="J" horiz-adv-x="1342" 
d="M72 545l230 32q16 -383 285 -383q157 0 222 90t65 314v1323h254v-1309q0 -645 -539 -645q-263 0 -392.5 144.5t-124.5 433.5z" />
    <glyph glyph-name="K" unicode="K" horiz-adv-x="1790" 
d="M197 0v1921h254v-953l954 953h344l-806 -778l842 -1143h-336l-684 972l-314 -306v-666h-254z" />
    <glyph glyph-name="L" unicode="L" 
d="M197 0v1921h254v-1694h946v-227h-1200z" />
    <glyph glyph-name="M" unicode="M" horiz-adv-x="2235" 
d="M199 0v1921h383l454 -1360l92 -285q37 120 102 308l460 1337h342v-1921h-245v1608l-558 -1608h-229l-556 1635v-1635h-245z" />
    <glyph glyph-name="N" unicode="N" horiz-adv-x="1938" 
d="M204 0v1921h261l1009 -1508v1508h244v-1921h-261l-1009 1510v-1510h-244z" />
    <glyph glyph-name="O" unicode="O" horiz-adv-x="2087" 
d="M130 936q0 315 114.5 542t318 352t487.5 125q403 0 660 -272.5t257 -724.5q0 -493 -273.5 -742t-645.5 -249q-410 0 -664 279.5t-254 689.5zM392 932q0 -329 177 -538t478 -209q329 0 493.5 225.5t164.5 548.5q0 384 -189 580.5t-465 196.5q-345 0 -502 -229.5
t-157 -574.5z" />
    <glyph glyph-name="P" unicode="P" horiz-adv-x="1790" 
d="M207 0v1921h725q237 0 387 -40.5t252 -180t102 -335.5q0 -584 -719 -584h-493v-781h-254zM461 1008h497q453 0 453 350q0 125 -51.5 203.5t-137 105.5t-269.5 27h-492v-686z" />
    <glyph glyph-name="Q" unicode="Q" horiz-adv-x="2087" 
d="M1663 206q177 -122 326 -178l-75 -177q-207 74 -412 235q-214 -119 -472 -119q-426 0 -670.5 282.5t-244.5 710.5q0 485 267.5 740t652.5 255q402 0 659.5 -268t257.5 -725q0 -477 -289 -756zM1103 531q220 -62 363 -184q224 205 224 615q0 380 -188 577t-466 197
q-310 0 -484.5 -207.5t-174.5 -568.5q0 -311 158 -543t501 -232q137 0 257 51q-119 77 -251 110z" />
    <glyph glyph-name="R" unicode="R" horiz-adv-x="1938" 
d="M211 0v1921h852q203 0 341 -35t240.5 -167.5t102.5 -321.5q0 -449 -541 -523q193 -83 364 -351l334 -523h-320l-254 400q-141 223 -220.5 309.5t-149.5 115t-200 28.5h-295v-853h-254zM465 1073h547q473 0 473 324q0 312 -412 312h-608v-636z" />
    <glyph glyph-name="S" unicode="S" horiz-adv-x="1790" 
d="M121 617l239 21q29 -228 184 -335.5t384 -107.5q240 0 358.5 96.5t118.5 230.5q0 136 -110.5 210t-476.5 158q-368 85 -496 220t-128 314q0 260 197.5 395t478.5 135q356 0 534.5 -163t187.5 -411l-244 -19q-39 369 -467 369q-442 0 -442 -289q0 -116 92 -181t366 -126
q270 -61 415 -117t241.5 -178.5t96.5 -296.5q0 -271 -209.5 -423t-500.5 -152q-409 0 -610.5 185t-208.5 465z" />
    <glyph glyph-name="T" unicode="T" horiz-adv-x="1639" 
d="M696 0v1694h-633v227h1523v-227h-636v-1694h-254z" />
    <glyph glyph-name="U" unicode="U" horiz-adv-x="1938" 
d="M1468 1921h254v-1110q0 -239 -51 -423t-227.5 -302.5t-472.5 -118.5q-405 0 -582.5 198.5t-177.5 645.5v1110h254v-1109q0 -190 30 -320t144.5 -212.5t309.5 -82.5q275 0 397 127t122 488v1109z" />
    <glyph glyph-name="V" unicode="V" horiz-adv-x="1790" 
d="M756 0l-744 1921h275l499 -1396q63 -177 101 -314q41 143 104 314l519 1396h259l-752 -1921h-261z" />
    <glyph glyph-name="W" unicode="W" horiz-adv-x="2533" 
d="M542 0l-509 1921h261l292 -1259q51 -220 81 -393l86 355l366 1297h307l275 -972q105 -370 149 -680q27 136 96 418l301 1234h256l-527 -1921h-245l-405 1464l-60 225q-27 -116 -57 -225l-407 -1464h-260z" />
    <glyph glyph-name="X" unicode="X" horiz-adv-x="1790" 
d="M12 0l743 1001l-655 920h302l349 -493q110 -156 154 -236q60 98 152 219l387 510h277l-675 -905l727 -1016h-315l-483 685q-34 48 -84 129q-69 -112 -92 -144l-482 -670h-305z" />
    <glyph glyph-name="Y" unicode="Y" horiz-adv-x="1790" 
d="M748 0v814l-740 1107h309l379 -579q100 -154 195 -325q89 155 210 339l372 565h296l-767 -1107v-814h-254z" />
    <glyph glyph-name="Z" unicode="Z" horiz-adv-x="1639" 
d="M54 0v236l1183 1458h-1072v227h1376v-227l-1195 -1467h1226v-227h-1518z" />
    <glyph glyph-name="bracketleft" unicode="[" horiz-adv-x="746" 
d="M183 -400v2454h520v-195h-284v-2064h284v-195h-520z" />
    <glyph glyph-name="backslash" unicode="\" horiz-adv-x="746" 
d="M557 -33l-557 1987h190l556 -1987h-189z" />
    <glyph glyph-name="bracketright" unicode="]" horiz-adv-x="746" 
d="M571 -400h-520v195h284v2064h-284v195h520v-2454z" />
    <glyph glyph-name="asciicircum" unicode="^" horiz-adv-x="1259" 
d="M313 904h-242l462 1050h190l465 -1050h-237l-323 782z" />
    <glyph glyph-name="underscore" unicode="_" 
d="M-41 -533v170h1564v-170h-1564z" />
    <glyph glyph-name="grave" unicode="`" horiz-adv-x="894" 
d="M609 1565h-190l-302 366h315z" />
    <glyph glyph-name="a" unicode="a" 
d="M1085 172q-239 -203 -512 -203q-195 0 -335.5 96.5t-140.5 301.5q0 139 72 232t178.5 137t297.5 66q286 34 420 81q0 137 -17.5 193.5t-93.5 104t-223 47.5q-144 0 -232 -50t-131 -215l-230 32q87 428 627 428q227 0 345.5 -63t156 -162.5t37.5 -299.5l1 -613
q0 -150 74 -285h-247q-37 73 -47 172zM1065 698q-130 -53 -385 -89q-227 -31 -279 -97.5t-52 -138.5q0 -220 280 -220q436 0 436 459v86z" />
    <glyph glyph-name="b" unicode="b" 
d="M394 0h-218v1921h235v-685q150 187 382 187q270 0 429.5 -195t159.5 -511q0 -325 -162 -536.5t-439 -211.5q-246 0 -387 205v-174zM392 706q0 -208 45.5 -316t132 -168t191.5 -60q185 0 282.5 155t97.5 380q0 216 -88 374t-281 158q-178 0 -279 -149.5t-101 -373.5z" />
    <glyph glyph-name="c" unicode="c" horiz-adv-x="1342" 
d="M1085 510l232 -30q-37 -238 -192.5 -374.5t-386.5 -136.5q-299 0 -466 192t-167 530q0 380 181.5 556t452.5 176q471 0 556 -440l-230 -36q-66 282 -317 282q-401 0 -401 -532q0 -535 388 -535q301 0 350 348z" />
    <glyph glyph-name="d" unicode="d" 
d="M1080 0v176q-133 -207 -389 -207q-280 0 -439.5 207.5t-159.5 517.5q0 362 169 545.5t419 183.5q246 0 384 -191v689h235v-1921h-219zM334 694q0 -234 100 -383t279 -149q183 0 277 146t94 367q0 251 -98 402t-284 151q-368 0 -368 -534z" />
    <glyph glyph-name="e" unicode="e" 
d="M1130 448l243 -30q-121 -449 -612 -449q-187 0 -332 72.5t-238 233t-93 409.5q0 213 72 378t218.5 263t359.5 98q224 0 368.5 -109.5t204 -268t59.5 -409.5h-1038q13 -220 125 -347t296 -127q264 0 367 286zM355 829h777q-16 200 -122 300t-259 100q-167 0 -276 -110.5
t-120 -289.5z" />
    <glyph glyph-name="f" unicode="f" horiz-adv-x="746" 
d="M233 0v1208h-208v184h208v148q0 123 25 210t116 145.5t244 58.5q100 0 221 -24l-36 -206q-73 14 -139 14q-109 0 -152.5 -46.5t-43.5 -171.5v-128h271v-184h-271v-1208h-235z" />
    <glyph glyph-name="g" unicode="g" 
d="M134 -115l229 -34q29 -221 320 -221q154 0 247.5 63t118 157.5t24.5 331.5q-154 -182 -385 -182q-276 0 -439 198.5t-163 505.5q0 341 170 530t433 189q247 0 406 -199v168h218v-1203q0 -234 -38.5 -386t-190 -260t-400.5 -108q-276 0 -416 122.5t-134 327.5zM329 721
q0 -526 381 -526q186 0 284.5 141t98.5 377q0 225 -101.5 370t-285.5 145q-185 0 -281 -146.5t-96 -360.5z" />
    <glyph glyph-name="h" unicode="h" 
d="M177 0v1921h236v-689q165 191 416 191q223 0 352 -112t129 -429v-882h-236v882q0 338 -293 338q-368 0 -368 -459v-761h-236z" />
    <glyph glyph-name="i" unicode="i" horiz-adv-x="596" 
d="M178 1650v271h236v-271h-236zM178 0v1392h236v-1392h-236z" />
    <glyph glyph-name="j" unicode="j" horiz-adv-x="596" 
d="M176 1647v274h235v-274h-235zM-123 -540l44 201q71 -19 112 -19q81 0 112 58.5t31 228.5v1463h235v-1468q0 -243 -70 -366t-279 -123q-96 0 -185 25z" />
    <glyph glyph-name="k" unicode="k" horiz-adv-x="1342" 
d="M178 0v1921h236v-1095l558 566h306l-532 -517l585 -875h-291l-460 712l-166 -160v-552h-236z" />
    <glyph glyph-name="l" unicode="l" horiz-adv-x="596" 
d="M172 0v1921h236v-1921h-236z" />
    <glyph glyph-name="m" unicode="m" horiz-adv-x="2235" 
d="M177 0v1392h211v-196q145 227 422 227q307 0 393 -244q165 244 430 244q430 0 430 -468v-955h-235v877q0 342 -248 342q-340 0 -340 -411v-808h-236v904q0 315 -247 315q-163 0 -253.5 -108t-90.5 -389v-722h-236z" />
    <glyph glyph-name="n" unicode="n" 
d="M177 0v1392h212v-198q153 229 443 229q188 0 295 -73.5t144 -182.5t37 -311v-856h-236v846q0 373 -290 373q-369 0 -369 -459v-760h-236z" />
    <glyph glyph-name="o" unicode="o" 
d="M89 696q0 391 199.5 559t453.5 168q298 0 474.5 -193.5t176.5 -514.5q0 -383 -188 -564.5t-463 -181.5q-340 0 -496.5 213t-156.5 514zM332 696q0 -245 106.5 -389.5t303.5 -144.5q206 0 307 153.5t101 388.5q0 210 -98 367t-310 157q-207 0 -308.5 -151t-101.5 -381z
" />
    <glyph glyph-name="p" unicode="p" 
d="M177 -533v1925h215v-181q152 212 403 212q293 0 441.5 -207.5t148.5 -509.5q0 -368 -184.5 -552.5t-422.5 -184.5q-226 0 -365 175v-677h-236zM390 688q0 -236 96.5 -381t276.5 -145q189 0 285 154.5t96 391.5q0 233 -96.5 381.5t-274.5 148.5q-182 0 -282.5 -162
t-100.5 -388z" />
    <glyph glyph-name="q" unicode="q" 
d="M1064 -533v681q-128 -179 -364 -179q-293 0 -449.5 223.5t-156.5 516.5q0 355 170.5 534.5t416.5 179.5q259 0 407 -217v186h212v-1925h-236zM337 700q0 -235 100 -386.5t282 -151.5q180 0 274.5 148t94.5 369q0 238 -101 398t-283 160t-274.5 -151t-92.5 -386z" />
    <glyph glyph-name="r" unicode="r" horiz-adv-x="894" 
d="M174 0v1392h213v-211q133 242 301 242q119 0 242 -76l-81 -219q-86 51 -173 51q-266 0 -266 -450v-729h-236z" />
    <glyph glyph-name="s" unicode="s" horiz-adv-x="1342" 
d="M83 415l233 37q40 -290 360 -290t320 222q0 78 -57.5 117t-253.5 89q-214 54 -316.5 92t-174.5 127t-72 213q0 176 138 288.5t374 112.5q498 0 552 -390l-231 -32q-33 228 -304 228q-301 0 -301 -179q0 -73 52.5 -109.5t274.5 -96.5q244 -67 332.5 -101t158.5 -122.5
t70 -211.5q0 -201 -157 -320.5t-404 -119.5q-515 0 -594 446z" />
    <glyph glyph-name="t" unicode="t" horiz-adv-x="746" 
d="M692 211l34 -208q-100 -21 -178 -21q-111 0 -184 33t-108.5 100.5t-35.5 292.5v800h-173v184h173v344l235 142v-486h237v-184h-237v-814q0 -107 23 -149.5t110 -42.5q40 0 104 9z" />
    <glyph glyph-name="u" unicode="u" 
d="M1089 0v204q-163 -235 -442 -235q-186 0 -293.5 74.5t-144.5 184t-37 301.5v863h236v-772q0 -167 14 -251t82.5 -140.5t189.5 -56.5q173 0 271.5 103t98.5 371v746h236v-1392h-211z" />
    <glyph glyph-name="v" unicode="v" horiz-adv-x="1342" 
d="M563 0l-529 1392h249l299 -834q51 -141 89 -280q29 101 88 264l309 850h242l-526 -1392h-221z" />
    <glyph glyph-name="w" unicode="w" horiz-adv-x="1938" 
d="M434 0l-426 1392h244l304 -1102l293 1102h243l277 -1074l319 1074h229l-435 -1392h-245l-275 1071l-282 -1071h-246z" />
    <glyph glyph-name="x" unicode="x" horiz-adv-x="1342" 
d="M20 0l508 723l-470 669h294l214 -327q55 -84 97 -156q56 84 106 154l235 329h281l-480 -656l517 -736h-289l-362 549l-366 -549h-285z" />
    <glyph glyph-name="y" unicode="y" horiz-adv-x="1342" 
d="M166 -536l-26 222q78 -21 135 -21q113 0 164.5 52.5t127.5 268.5l4 11l-528 1395h254l290 -806q61 -169 101 -323q39 160 97 317l297 812h236l-529 -1416q-118 -315 -211.5 -428t-259.5 -113q-68 0 -152 29z" />
    <glyph glyph-name="z" unicode="z" horiz-adv-x="1342" 
d="M52 0v191l886 1017q-150 -8 -266 -8h-567v192h1137v-156l-899 -1045q159 12 298 12h643v-203h-1232z" />
    <glyph glyph-name="braceleft" unicode="{" horiz-adv-x="896" 
d="M83 936q154 4 212.5 105t58.5 401q0 307 32.5 419t121.5 169.5t260 57.5h73v-206h-40q-148 0 -187 -57.5t-39 -211.5q0 -282 -10 -402.5t-74.5 -221.5t-188.5 -161q123 -49 198 -167.5t75 -421.5q0 -224 5.5 -302.5t47.5 -120t173 -41.5h40v-206h-73q-198 0 -269.5 61.5
t-106.5 142t-36 425.5q-1 292 -52.5 406t-220.5 118v214z" />
    <glyph glyph-name="bar" unicode="|" horiz-adv-x="697" 
d="M246 -565v2519h206v-2519h-206z" />
    <glyph glyph-name="braceright" unicode="}" horiz-adv-x="896" 
d="M820 936v-214q-123 -3 -197 -76t-74 -429q0 -312 -33.5 -425t-126.5 -168t-254 -55h-73v206h40q147 0 186.5 58t39.5 212q0 287 9.5 406t75.5 222.5t188 154.5q-161 78 -217 205.5t-56 385.5q0 262 -9 323.5t-45 100.5t-172 39h-40v206h73q154 0 244 -47t128.5 -153.5
t38.5 -376.5q0 -325 48.5 -448t225.5 -127z" />
    <glyph glyph-name="asciitilde" unicode="~" horiz-adv-x="1567" 
d="M114 730v268q139 158 364 158q144 0 412 -114q146 -62 226 -62q174 0 339 180v-278q-160 -150 -363 -150q-139 0 -377 107q-154 69 -259 69q-157 0 -342 -178z" />
    <glyph glyph-name="glyph99" horiz-adv-x="1618" 
d="M721 352q-47 -43 -150 -43q-297 0 -297 308q0 110 81.5 197t216.5 87q256 0 317 -270l90 -398h90l57 496q0 108 -16.5 156.5t-66.5 88.5t-182.5 71.5t-323.5 31.5q-222 0 -402 -41q0 320 122 463t390 143q44 0 198 -12q155 -12 199 -12q108 0 134 19.5t26 115.5h266
q0 -182 -58 -265t-282 -83q-13 0 -237 12l-242 13q-225 0 -225 -156h-1q109 16 222 16q349 0 551.5 -114.5t202.5 -339.5q0 -57 -8 -115l-99 -721h-491zM565 721q-114 0 -114 -119t114 -119q119 0 119 119t-119 119z" />
    <glyph glyph-name="ellipsis" unicode="&#x2026;" horiz-adv-x="2684" 
d="M313 0v269h269v-269h-269zM1208 0v269h269v-269h-269zM2102 0v269h270v-269h-270z" />
    <glyph glyph-name="uni0E48" unicode="&#xe48;" horiz-adv-x="0" 
d="M-500 1962v594h271v-594h-271z" />
    <glyph glyph-name="uni0E49" unicode="&#xe49;" horiz-adv-x="0" 
d="M-631 2253q-132 0 -209.5 63.5t-77.5 177.5q0 126 80.5 192.5t202.5 66.5q136 0 206 -74.5t70 -200.5q0 -178 -141 -299q98 0 252.5 85.5t246 201.5t91.5 229l209 -102q-69 -298 -399 -462.5t-752 -164.5v160q50 0 121.5 35.5t99.5 91.5zM-643 2601q-107 0 -107 -107
q0 -106 107 -106q102 0 102 106q0 107 -102 107z" />
    <glyph glyph-name="uni0E4A" unicode="&#xe4a;" horiz-adv-x="0" 
d="M-778 2367l-180 119q-46 -9 -76.5 -53t-30.5 -86q0 -38 12 -53q56 49 137 49q187 0 187 -184q0 -209 -217 -209q-147 0 -227 97.5t-80 238.5q0 136 87.5 245t215.5 115l176 -123l188 123q119 0 184.5 -79t65.5 -220q0 -111 -41 -201q68 0 202 135.5t134 348.5l184 -99
q-42 -266 -248 -417.5t-534 -151.5q117 109 117 296q0 149 -88 216zM-926 2236q-86 0 -86 -86t86 -86t86 86t-86 86z" />
    <glyph glyph-name="uni0E4B" unicode="&#xe4b;" horiz-adv-x="0" 
d="M-799 2265v209h303v303h271v-303h303v-209h-303v-303h-271v303h-303z" />
    <glyph glyph-name="uni0E4C" unicode="&#xe4c;" horiz-adv-x="0" 
d="M-434 2433q35 -9 66.5 -70t31.5 -127q0 -126 -80 -206t-205 -80q-123 0 -201.5 83t-78.5 199q0 252 346 341l143 38q114 30 158.5 94.5t44.5 161.5l234 -82q-11 -161 -145.5 -256.5t-313.5 -95.5zM-618 2351q-119 0 -119 -119q0 -118 119 -118q114 0 114 118
q0 119 -114 119z" />
    <glyph glyph-name="glyph115" horiz-adv-x="2560" 
d="M1290 0v1122q0 308 -397 308q-204 0 -315 -87q26 0 119.5 -57t138.5 -106q-119 -41 -197 -148.5t-78 -220.5v-221q160 0 235 -31.5t116.5 -104t41.5 -163.5q0 -132 -87 -219.5t-232 -87.5q-143 0 -243.5 82.5t-100.5 265.5v504q0 237 188 331q-128 97 -348 144
q0 46 217.5 193t528.5 147q684 0 684 -545v-873h491v1405h270v-1638h-1032zM635 184q110 0 110 115q0 111 -110 111q-111 0 -111 -111q0 -115 111 -115z" />
    <glyph glyph-name="quoteleft" unicode="&#x2018;" horiz-adv-x="596" 
d="M421 1599v-274h-253v216q0 159 42.5 256t173.5 157l58 -92q-137 -57 -145 -263h124z" />
    <glyph glyph-name="quoteright" unicode="&#x2019;" horiz-adv-x="596" 
d="M162 1667v274h253v-217q0 -161 -41.5 -256.5t-174.5 -155.5l-57 93q144 58 144 262h-124z" />
    <glyph glyph-name="quotedblleft" unicode="&#x201c;" horiz-adv-x="894" 
d="M362 1599v-274h-253v216q0 159 42.5 256t173.5 157l58 -92q-137 -57 -145 -263h124zM768 1599v-274h-253v216q0 203 65 290t151 123l58 -92q-137 -57 -144 -263h123z" />
    <glyph glyph-name="quotedblright" unicode="&#x201d;" horiz-adv-x="894" 
d="M114 1667v274h253v-217q0 -159 -42 -255t-174 -157l-58 93q137 55 144 262h-123zM520 1667v274h253v-217q0 -159 -42 -255t-174 -157l-58 93q137 55 144 262h-123z" />
    <glyph glyph-name="bullet" unicode="&#x2022;" horiz-adv-x="940" 
d="M143 941q0 94 44.5 168t118.5 118.5t168 44.5q139 0 236 -96.5t97 -234.5q0 -95 -44.5 -169t-119 -119t-169.5 -45q-156 0 -243.5 106.5t-87.5 226.5z" />
    <glyph glyph-name="endash" unicode="&#x2013;" 
d="M0 600v190h1492v-190h-1492z" />
    <glyph glyph-name="emdash" unicode="&#x2014;" horiz-adv-x="2684" 
d="M0 600v190h2684v-190h-2684z" />
    <glyph glyph-name="uni0E01" unicode="&#xe01;" horiz-adv-x="1806" 
d="M1565 0h-271v1122q0 308 -397 308q-204 0 -315 -87q160 -60 258 -163q-119 -41 -197 -148.5t-78 -220.5v-811h-270v836q0 237 188 331q-131 104 -348 144q271 340 746 340q684 0 684 -545v-1106z" />
    <glyph glyph-name="uni0E02" unicode="&#xe02;" horiz-adv-x="1774" 
d="M566 0v233h147v545q0 91 88 275q60 127 60 186q0 221 -221 221q-93 0 -148 -18q61 -2 129 -69t68 -185q0 -146 -98.5 -225t-210.5 -79q-323 0 -323 342q0 218 165.5 329.5t380.5 111.5q228 0 372 -114.5t144 -307.5q0 -64 -68 -231t-68 -244v-537h271v1405h270v-1638
h-958zM377 1069q115 0 115 115q0 114 -115 114q-114 0 -114 -114q0 -115 114 -115z" />
    <glyph glyph-name="uni0E03" unicode="&#xe03;" horiz-adv-x="1806" 
d="M848 1393l-164 -115l-188 127q-52 0 -94 -32t-42 -66q145 0 214 -72.5t69 -181.5q0 -119 -76.5 -193t-197.5 -74q-119 0 -209 86.5t-90 253.5q0 185 116.5 341.5t325.5 179.5l168 -131l184 131q307 -106 307 -396q0 -76 -24 -129q-86 -175 -106.5 -230t-20.5 -122v-537
h270v1405h271v-1638h-959v233h148v545q0 92 88 265q31 60 63 161q3 108 -53 189zM369 1151q-99 0 -99 -98q0 -103 99 -103q98 0 98 103q0 98 -98 98z" />
    <glyph glyph-name="uni0E04" unicode="&#xe04;" horiz-adv-x="1847" 
d="M758 672l-221 -672h-287v1090q0 264 187.5 410.5t492.5 146.5q680 0 680 -557v-1090h-271v1081q0 349 -413 349q-183 0 -294.5 -93.5t-111.5 -255.5v-331l-16 -172l135 393q80 233 314 233q129 0 207 -80t78 -185q0 -151 -84.5 -236t-219.5 -85q-115 0 -176 54zM946 1032
q-123 0 -123 -123q0 -127 123 -127t123 127q0 123 -123 123z" />
    <glyph glyph-name="uni0E05" unicode="&#xe05;" horiz-adv-x="1872" 
d="M512 631l-16 -176l163 442q86 233 319 233q115 0 200 -73.5t85 -191.5q0 -158 -88.5 -239t-216.5 -81q-105 0 -176 53l-229 -598h-311v1147q0 187 115.5 336.5t301.5 171.5l291 -139l291 139q196 -9 307 -140.5t111 -367.5v-1147h-270v1171q0 211 -164 242l-275 -143
l-270 143q-168 -31 -168 -242v-540zM971 958q-123 0 -123 -122q0 -127 123 -127t123 127q0 122 -123 122z" />
    <glyph glyph-name="uni0E06" unicode="&#xe06;" horiz-adv-x="2068" 
d="M1036 705q110 -4 305.5 -133.5t251.5 -256.5v1323h271v-1638h-308q-97 193 -266 328t-254 135v-197q0 -291 -299 -291q-175 0 -263.5 97.5t-88.5 267.5q0 365 381 365v270q0 103 119 236q39 37 78 92q0 26 -31.5 57.5t-67.5 40.5l-164 -115l-188 127q-47 0 -91 -29
t-44 -69q144 0 213 -71.5t69 -182.5q0 -134 -83.5 -200t-190.5 -66q-103 0 -201 77.5t-98 262.5q0 183 116 340t326 180l168 -131l185 131q80 -11 222 -118t142 -172q0 -59 -102 -175q-107 -122 -107 -223v-262zM385 1159q-98 0 -98 -98q0 -103 98 -103t98 103q0 98 -98 98z
M631 360q0 -92 15 -127.5t59 -35.5q61 0 61 118v160q-128 0 -135 -115z" />
    <glyph glyph-name="uni0E07" unicode="&#xe07;" horiz-adv-x="1364" 
d="M860 0l-835 852l176 156l684 -701v737q-187 0 -290 62.5t-103 232.5q0 113 76 210.5t243 97.5q129 0 236.5 -77t107.5 -272v-1298h-295zM811 1446q-111 0 -111 -111q0 -114 111 -114t111 114q0 111 -111 111z" />
    <glyph glyph-name="uni0E08" unicode="&#xe08;" horiz-adv-x="1716" 
d="M106 860v205q0 284 213 433t508 149q345 0 506.5 -162t161.5 -395v-1090h-287l-233 635q-77 -53 -180 -53q-135 0 -217.5 76t-82.5 204q0 305 291 305q243 0 320 -233l135 -406l-16 222v331q0 162 -113 255.5t-301 93.5q-446 0 -446 -373v-197h-259zM786 745
q123 0 123 127q0 123 -123 123q-122 0 -122 -123q0 -127 122 -127z" />
    <glyph glyph-name="uni0E09" unicode="&#xe09;" horiz-adv-x="1925" 
d="M1212 279q-230 -177 -294 -279h-291v406q0 75 41 126q-82 0 -178.5 64t-96.5 219q0 137 92.5 216t219.5 79q131 0 217 -81.5t86 -204.5q0 -91 -57 -195q-54 -98 -54 -170v-189q229 229 487 348v357q0 212 -140 331t-376 119q-138 0 -239.5 -31.5t-160.5 -90.5
t-101.5 -170t-42.5 -211h-242q36 725 789 725q307 0 545.5 -151t238.5 -452v-426l-33 -49q201 -72 201 -286q0 -135 -74 -223.5t-229 -88.5q-117 0 -212.5 72t-95.5 236zM696 934q-114 0 -114 -115q0 -119 114 -119q119 0 119 119q0 115 -119 115zM1516 393
q-115 0 -115 -119q0 -118 115 -118q118 0 118 118q0 119 -118 119z" />
    <glyph glyph-name="uni0E0A" unicode="&#xe0a;" horiz-adv-x="1778" 
d="M490 1442q77 0 137 -78t60 -176q0 -150 -101 -226.5t-218 -76.5q-313 0 -313 337q0 208 162.5 326.5t395.5 118.5q269 0 469 -119l47 -28l336 356l180 -156l-311 -319l188 -160v-1241h-958v233h147v676q0 158 62 226l196 213q-131 110 -335 110q-70 0 -144 -16zM372 1069
q115 0 115 115q0 114 -115 114q-114 0 -114 -114q0 -115 114 -115zM981 897v-664h271v947l-74 53l-119 -135q-78 -88 -78 -201z" />
    <glyph glyph-name="uni0E0B" unicode="&#xe0b;" horiz-adv-x="1786" 
d="M901 1409l-184 -127l-230 152q-49 0 -92 -30t-43 -69q145 0 214 -72t69 -182q0 -119 -77 -192.5t-198 -73.5q-120 0 -209.5 88t-89.5 252q0 189 119.5 343t323.5 169l205 -147l213 151l241 -151l336 356l180 -156l-311 -319l188 -160v-1241h-958v233h147v676
q0 159 62 226l197 213zM1016 897v-664h270v947l-74 53l-118 -135q-28 -33 -74 -145q-4 -17 -4 -56zM360 1180q-98 0 -98 -99q0 -102 98 -102q99 0 99 102q0 99 -99 99z" />
    <glyph glyph-name="uni0E0C" unicode="&#xe0c;" horiz-adv-x="2564" 
d="M1286 565v557q0 308 -397 308q-205 0 -316 -87q147 -47 258 -163q-118 -42 -196 -149.5t-78 -219.5v-221q241 0 317 -90.5t76 -208.5q0 -113 -77 -210t-242 -97q-143 0 -243.5 82.5t-100.5 265.5v504q0 237 188 331q-128 97 -348 144q267 340 745 340q684 0 684 -545
v-463q300 -37 492 -266v1261h270v-1638h-270q-14 90 -127.5 222.5t-216.5 174.5q16 -49 16 -123q0 -128 -81 -213.5t-222 -85.5q-126 0 -220.5 69.5t-94.5 225.5q0 97 45.5 181.5t138.5 113.5zM631 184q110 0 110 115q0 111 -110 111q-111 0 -111 -111q0 -115 111 -115z
M1409 168q111 0 111 115q0 110 -111 110t-111 -110q0 -115 111 -115z" />
    <glyph glyph-name="uni0E0D" unicode="&#xe0d;" horiz-adv-x="2564" 
d="M1286 0v1122q0 308 -397 308q-205 0 -316 -87q147 -47 258 -163q-104 -37 -189 -137t-85 -232v-221q241 0 317 -90.5t76 -208.5q0 -113 -77 -210t-242 -97q-143 0 -243.5 82.5t-100.5 265.5v504q0 237 188 331q-128 97 -348 144q64 106 267.5 223t477.5 117
q684 0 684 -545v-873h492v1405h270v-1638h-1032zM631 184q110 0 110 115q0 111 -110 111q-111 0 -111 -111q0 -115 111 -115zM2060 -168h250q0 -232 -198.5 -396.5t-469.5 -164.5q-163 0 -280 71t-117 232q0 127 82.5 200.5t204.5 73.5q135 0 206.5 -79t71.5 -179
q0 -54 -20 -86q107 0 188.5 86.5t81.5 241.5zM1528 -311q-111 0 -111 -111q0 -110 111 -110q110 0 110 110q0 111 -110 111z" />
    <glyph glyph-name="uni0E0E" unicode="&#xe0e;" horiz-adv-x="1987" 
d="M1483 -369v1491q0 308 -398 308q-204 0 -315 -87q147 -49 258 -163q-242 -80 -242 -369v-496q0 -184 -102.5 -266t-241.5 -82q-146 0 -232.5 88.5t-86.5 218.5q0 118 75 208.5t318 90.5v263q0 262 156 331q-128 97 -348 144q49 94 257 217t488 123q684 0 684 -545v-1565
l-369 -409l-516 278q-49 -287 -348 -287q-162 0 -253 97t-91 239q0 158 94.5 243t241.5 85q102 0 172 -37l12 111h260v-23q0 -71 -30 -194l389 -213zM442 168q111 0 111 115q0 110 -111 110q-110 0 -110 -110q0 -115 110 -115zM508 -422q-119 0 -119 -123q0 -119 119 -119
t119 119q0 123 -119 123z" />
    <glyph glyph-name="uni0E0F" unicode="&#xe0f;" horiz-adv-x="2003" 
d="M1520 -377v1499q0 308 -398 308q-204 0 -315 -87q144 -46 258 -163q-242 -81 -242 -369v-496q0 -182 -100 -265t-244 -83t-231.5 87.5t-87.5 219.5q0 118 75 208.5t318 90.5v263q0 262 156 331q-131 104 -349 144q270 340 746 340q684 0 684 -545v-1565l-369 -413
l-250 254l-233 -254l-205 237q-13 -95 -104 -162t-211 -67q-129 0 -234.5 83t-105.5 244q0 159 96.5 245.5t247.5 86.5q98 0 164 -37l12 111h258v-29q0 -85 -19 -172l-10 -45l127 -127l209 201l221 -225zM479 168q111 0 111 115q0 110 -111 110q-110 0 -110 -110
q0 -115 110 -115zM410 -414q-119 0 -119 -123q0 -118 119 -118q118 0 118 118q0 123 -118 123z" />
    <glyph glyph-name="uni0E10" unicode="&#xe10;" horiz-adv-x="1634" 
d="M750 352q-47 -43 -150 -43q-297 0 -297 310q0 124 88.5 203t208.5 79q257 0 318 -270l90 -398h90l57 496q0 101 -13 149t-64.5 91.5t-185 75.5t-327.5 32q-221 0 -401 -41q0 322 121.5 464t390.5 142q44 0 198 -12q155 -12 199 -12q108 0 134 19.5t26 115.5h266
q0 -182 -58 -265t-282 -83q-13 0 -237 12l-74 4q-168 9 -178 9q-215 0 -215 -156h-1q109 16 222 16q350 0 552 -115t202 -339q0 -49 -9 -115l-98 -721h-492zM594 721q-115 0 -115 -119t115 -119q119 0 119 119t-119 119zM606 -1044l-221 196q-19 -81 -109.5 -151t-189.5 -70
q-113 0 -200 81.5t-87 233.5q0 157 94.5 234.5t204.5 77.5q73 0 131 -25q17 124 17 148v135h258q0 -183 -26 -315l-15 -74q64 -67 143 -168l123 118l197 -151q34 -26 80 -26q63 0 63 55v90q-307 0 -307 258q0 90 66 180t208 90q128 0 211.5 -89.5t83.5 -258.5v-234
q0 -317 -297 -317q-80 0 -132 34l-152 99zM1036 -291q-102 0 -102 -102q0 -103 102 -103q103 0 103 103q0 102 -103 102zM-25 -762q0 -115 111 -115q127 0 127 132q0 118 -110 118q-128 0 -128 -135z" />
    <glyph glyph-name="uni0E11" unicode="&#xe11;" horiz-adv-x="2228" 
d="M926 1323q0 26 -27 52t-51 26l-168 -119l-188 127q-116 0 -136 -98q145 0 214 -72.5t69 -181.5q0 -119 -76 -192.5t-198 -73.5q-125 0 -212 88t-87 251q0 194 120.5 347t321.5 174l168 -131l184 131q67 0 191 -87t174 -200q0 -13 -75 -118q-88 -122 -111 -166.5
t-23 -116.5v-271l-12 -143l495 1089h172q149 0 238.5 -104t89.5 -272v-1262h-270v1286q0 119 -78 119l-635 -1405h-271v971q0 45 17 105.5t164 246.5zM365 1155q-99 0 -99 -98q0 -103 99 -103q98 0 98 103q0 98 -98 98z" />
    <glyph glyph-name="uni0E12" unicode="&#xe12;" horiz-adv-x="2568" 
d="M1245 1413l-274 -143l-271 143q-66 -6 -117 -71.5t-51 -170.5v-880l336 319q-204 49 -204 258q0 140 91.5 221.5t216.5 81.5q115 0 208.5 -73.5t93.5 -225.5q0 -140 -127 -270l-590 -602h-295v1147q0 187 115.5 336.5t302.5 171.5l291 -139l291 139q203 -9 310 -143.5
t107 -364.5v-561q112 0 233 -67.5t177 -141.5v1261h270v-1638h-282q-15 85 -121 204t-195 140v1q17 -31 17 -103q0 -91 -76 -187t-232 -96q-118 0 -216.5 79t-98.5 232q0 123 64.5 214t189.5 102v585q0 211 -164 242zM967 1004q-123 0 -123 -123q0 -127 123 -127t123 127
q0 123 -123 123zM1466 156q111 0 111 114q0 111 -111 111q-110 0 -110 -111q0 -114 110 -114z" />
    <glyph glyph-name="uni0E13" unicode="&#xe13;" horiz-adv-x="2556" 
d="M2294 1638v-925l-103 -74q118 -8 190.5 -107t72.5 -225q0 -144 -96 -238t-240 -94q-129 0 -235.5 71.5t-113.5 219.5q-28 -14 -117 -127t-100 -139h-270v1122q0 308 -397 308q-205 0 -316 -87q141 -42 258 -163q-133 -47 -203.5 -159t-70.5 -210v-221q241 0 317 -90.5
t76 -208.5q0 -113 -77 -210t-242 -97q-143 0 -243.5 82.5t-100.5 265.5v504q0 237 188 331q-128 97 -348 144q65 109 269 224.5t476 115.5q684 0 684 -545v-733q237 237 471 372v893h271zM2109 442q-127 0 -127 -127q0 -131 127 -131q132 0 132 131q0 127 -132 127zM627 184
q110 0 110 115q0 111 -110 111q-111 0 -111 -111q0 -115 111 -115z" />
    <glyph glyph-name="uni0E14" unicode="&#xe14;" horiz-adv-x="1876" 
d="M848 680q-201 45 -201 266q0 133 85.5 216t223.5 83q124 0 212.5 -75t88.5 -220q0 -129 -127 -274l-589 -676h-295v1090q0 260 198.5 408.5t505.5 148.5q362 0 537.5 -153t175.5 -404v-1090h-270v1081q0 349 -439 349q-178 0 -308 -86.5t-130 -262.5v-766zM950 1077
q-123 0 -123 -123q0 -127 123 -127t123 127q0 123 -123 123z" />
    <glyph glyph-name="uni0E15" unicode="&#xe15;" horiz-adv-x="1876" 
d="M1229 1413l-275 -143l-270 143q-168 -31 -168 -242v-880l336 319q-205 47 -205 258q0 130 87 216.5t222 86.5q119 0 210 -74.5t91 -224.5q0 -140 -127 -270l-589 -602h-295v1147q0 189 116 338t302 170l290 -139l291 139q196 -9 307 -140.5t111 -367.5v-1147h-270v1171
q0 211 -164 242zM950 1004q-123 0 -123 -123q0 -127 123 -127t123 127q0 123 -123 123z" />
    <glyph glyph-name="uni0E16" unicode="&#xe16;" horiz-adv-x="1798" 
d="M483 1167q-131 104 -348 144q39 78 245 209t501 131q684 0 684 -545v-1106h-271v1122q0 308 -397 308q-204 0 -315 -87q146 -47 258 -163q-119 -41 -197 -148.5t-78 -220.5v-221q160 0 235 -31.5t116.5 -104t41.5 -163.5q0 -112 -75.5 -209.5t-243.5 -97.5
q-143 0 -243.5 82.5t-100.5 265.5v504q0 237 188 331zM639 184q111 0 111 115q0 111 -111 111t-111 -111q0 -115 111 -115z" />
    <glyph glyph-name="uni0E17" unicode="&#xe17;" horiz-adv-x="1978" 
d="M1343 1405l-565 -1405h-270v1040q-130 0 -210.5 22.5t-131.5 98t-51 178.5q0 113 77 210.5t242 97.5q130 0 237 -77t107 -272v-471l-24 -254l426 1065h204q377 0 377 -376v-1262h-270v1286q0 119 -148 119zM434 1446q-110 0 -110 -111q0 -114 110 -114q111 0 111 114
q0 111 -111 111z" />
    <glyph glyph-name="uni0E18" unicode="&#xe18;" horiz-adv-x="1712" 
d="M430 930h-225v94q0 182 89 323.5t243.5 220.5t368.5 79q523 0 700 -312l-217 -123q-142 213 -458 213q-373 0 -419 -262h586q356 0 356 -377v-786h-1155v233h131v697zM700 930v-697h484v545q0 82 -24 117t-116 35h-344z" />
    <glyph glyph-name="uni0E19" unicode="&#xe19;" horiz-adv-x="1978" 
d="M1434 836v802h270v-938l-102 -73q87 -6 156 -91.5t69 -240.5q0 -145 -97 -238.5t-239 -93.5t-243 82.5t-101 269.5q-81 -40 -216.5 -170t-135.5 -145h-279v1044q-160 0 -235 31.5t-116.5 104t-41.5 163.5q0 132 87 220t232 88q130 0 237 -77t107 -271v-984
q146 140 549 336q99 48 99 181zM442 1450q-110 0 -110 -111q0 -114 110 -114q111 0 111 114q0 111 -111 111zM1483 430q-127 0 -127 -127q0 -131 127 -131q131 0 131 131q0 127 -131 127z" />
    <glyph glyph-name="uni0E1A" unicode="&#xe1a;" horiz-adv-x="1995" 
d="M1761 1638v-1638h-1384v233h131v807q-130 0 -210.5 22.5t-131.5 98t-51 178.5q0 113 77 210.5t242 97.5q130 0 237 -77t107 -272v-1065h713v1405h270zM434 1446q-110 0 -110 -111q0 -114 110 -114q111 0 111 114q0 111 -111 111z" />
    <glyph glyph-name="uni0E1B" unicode="&#xe1b;" horiz-adv-x="1995" 
d="M1761 2556v-2556h-1384v233h131v807q-130 0 -210.5 22.5t-131.5 98t-51 178.5q0 113 77 210.5t242 97.5q130 0 237 -77t107 -272v-1065h713v2323h270zM434 1446q-110 0 -110 -111q0 -114 110 -114q111 0 111 114q0 111 -111 111z" />
    <glyph glyph-name="uni0E1C" unicode="&#xe1c;" horiz-adv-x="1802" 
d="M1294 385v1253h271v-1638h-271l-393 524l-393 -524h-270v1298q0 185 102.5 267t241.5 82q150 0 234.5 -90.5t84.5 -217.5q0 -118 -75.5 -208.5t-317.5 -90.5v-655l307 389h184zM582 1446q-111 0 -111 -111q0 -114 111 -114q110 0 110 114q0 111 -110 111z" />
    <glyph glyph-name="uni0E1D" unicode="&#xe1d;" horiz-adv-x="1798" 
d="M1294 385v2171h271v-2556h-271l-393 524l-393 -524h-270v1298q0 185 102.5 267t241.5 82q150 0 234.5 -90.5t84.5 -217.5q0 -118 -75.5 -208.5t-317.5 -90.5v-655l307 389h184zM582 1446q-111 0 -111 -111q0 -114 111 -114q110 0 110 114q0 111 -110 111z" />
    <glyph glyph-name="uni0E1E" unicode="&#xe1e;" horiz-adv-x="2130" 
d="M1606 0l-398 1221l-397 -1221h-303v1040q-130 0 -210.5 22.5t-131.5 98t-51 178.5q0 113 77 210.5t242 97.5q130 0 237 -77t107 -272v-536l-16 -148l336 1024h213l348 -1024l-21 148v876h271v-1638h-303zM434 1446q-110 0 -110 -111q0 -114 110 -114q111 0 111 114
q0 111 -111 111z" />
    <glyph glyph-name="uni0E1F" unicode="&#xe1f;" horiz-adv-x="2142" 
d="M1606 0l-398 1221l-397 -1221h-303v1040q-130 0 -210.5 22.5t-131.5 98t-51 178.5q0 113 77 210.5t242 97.5q130 0 237 -77t107 -272v-536l-16 -148l336 1024h213l348 -1024l-21 148v1794h271v-2556h-303zM434 1446q-110 0 -110 -111q0 -114 110 -114q111 0 111 114
q0 111 -111 111z" />
    <glyph glyph-name="uni0E20" unicode="&#xe20;" horiz-adv-x="1962" 
d="M672 1167q-128 97 -348 144q66 110 270 225t475 115q684 0 684 -545v-1106h-270v1122q0 308 -398 308q-204 0 -315 -87q148 -49 258 -163q-242 -80 -242 -369v-496q0 -184 -102.5 -266t-241.5 -82q-146 0 -232.5 88.5t-86.5 218.5q0 118 75 208.5t318 90.5v263
q0 262 156 331zM442 168q111 0 111 115q0 110 -111 110q-110 0 -110 -110q0 -115 110 -115z" />
    <glyph glyph-name="uni0E21" unicode="&#xe21;" horiz-adv-x="1933" 
d="M1401 0q-133 194 -301 328.5t-252 134.5v-197q0 -291 -299 -291q-352 0 -352 365q0 148 87.5 254t293.5 106v340q-240 0 -317 89.5t-77 209.5q0 132 86.5 220t233.5 88q138 0 241 -81.5t103 -267.5v-598q110 0 304 -126.5t286 -258.5v1323h270v-1638h-307zM504 1446
q-111 0 -111 -111q0 -114 111 -114q110 0 110 114q0 111 -110 111zM442 360q0 -92 15 -127.5t59 -35.5q62 0 62 118v160q-128 0 -136 -115z" />
    <glyph glyph-name="uni0E22" unicode="&#xe22;" horiz-adv-x="1761" 
d="M418 1290v1q-12 0 -12 -111q0 -287 344 -287h274v-197h-135q-150 0 -226.5 -72t-76.5 -182v-209h680v1405h270v-1638h-1221v377q0 230 87.5 309.5t125.5 79.5q-126 0 -245 109t-119 317q0 217 155.5 340t352.5 123q179 0 273.5 -91.5t94.5 -220.5q0 -153 -99.5 -230
t-219.5 -77q-123 0 -213 81t-90 173zM721 1450q-111 0 -111 -111q0 -114 111 -114q110 0 110 114q0 111 -110 111z" />
    <glyph glyph-name="uni0E23" unicode="&#xe23;" horiz-adv-x="1487" 
d="M1118 1126v-798q0 -183 -100.5 -265.5t-243.5 -82.5q-146 0 -232.5 88t-86.5 219q0 90 41 162.5t115.5 104.5t236.5 32v319h-735q0 159 20 256t98 220t216.5 200.5t355.5 77.5q227 0 410 -99.5t221 -318.5h-283q-87 190 -359 190q-191 0 -276.5 -99t-101.5 -206h704z
M774 180q111 0 111 115q0 111 -111 111q-110 0 -110 -111q0 -115 110 -115z" />
    <glyph glyph-name="uni0E24" unicode="&#xe24;" horiz-adv-x="1794" 
d="M483 1167q-131 104 -348 144q53 91 255.5 215.5t490.5 124.5q684 0 684 -545v-1696h-271v1712q0 308 -397 308q-204 0 -315 -87q147 -48 258 -163q-119 -41 -197 -148.5t-78 -220.5v-221q160 0 235 -31.5t116.5 -104t41.5 -163.5q0 -112 -75.5 -209.5t-243.5 -97.5
q-143 0 -243.5 82.5t-100.5 265.5v504q0 237 188 331zM639 184q111 0 111 115q0 111 -111 111t-111 -111q0 -115 111 -115z" />
    <glyph glyph-name="uni0E25" unicode="&#xe25;" horiz-adv-x="1819" 
d="M618 569q139 0 221.5 -76t82.5 -219q0 -128 -83.5 -215.5t-232.5 -87.5q-319 0 -319 353q0 280 177.5 565t375.5 373q306 -249 467 -639v352q0 450 -471 450q-480 0 -480 -507h-258q0 304 170.5 516.5t578.5 212.5q229 0 390.5 -72t250.5 -207t89 -324v-1044h-283
q-32 146 -165.5 447t-301.5 475q-29 0 -119 -140.5t-90 -212.5zM610 160q111 0 111 114q0 111 -111 111q-110 0 -110 -111q0 -114 110 -114z" />
    <glyph glyph-name="uni0E26" unicode="&#xe26;" horiz-adv-x="1974" 
d="M672 1167q-128 97 -348 144q64 108 268.5 224t476.5 116q684 0 684 -545v-1696h-270v1712q0 308 -398 308q-204 0 -315 -87q147 -49 258 -163q-242 -80 -242 -369v-496q0 -184 -102.5 -266t-241.5 -82q-146 0 -232.5 88.5t-86.5 218.5q0 118 75 208.5t318 90.5v263
q0 262 156 331zM442 168q111 0 111 115q0 110 -111 110q-110 0 -110 -110q0 -115 110 -115z" />
    <glyph glyph-name="uni0E27" unicode="&#xe27;" horiz-adv-x="1528" 
d="M1049 586v495q0 349 -349 349q-352 0 -352 -345v-147h-250v131q0 248 156 413t451 165q614 0 614 -557v-762q0 -183 -100.5 -265.5t-243.5 -82.5q-154 0 -237 91.5t-83 215.5q0 90 41 162.5t116 104.5t237 32zM975 180q110 0 110 115q0 111 -110 111q-111 0 -111 -111
q0 -115 111 -115z" />
    <glyph glyph-name="uni0E28" unicode="&#xe28;" horiz-adv-x="1835" 
d="M1307 1225q-84 -75 -156 -107q82 -52 82 -166q0 -169 -88.5 -251.5t-214.5 -82.5q-103 0 -176 54l-222 -672h-286v1090q0 254 178 405.5t502 151.5q287 0 426 -91q90 107 90 275h287q0 -313 -209 -430q86 -130 86 -311v-1090h-271v1081q0 83 -28 144zM1184 1376
q-116 54 -245 54q-176 0 -299.5 -84.5t-123.5 -264.5v-331l-16 -172l123 348q68 191 128.5 224t231.5 92q116 41 201 134zM942 1032q-123 0 -123 -123q0 -127 123 -127t123 127q0 123 -123 123z" />
    <glyph glyph-name="uni0E29" unicode="&#xe29;" horiz-adv-x="2023" 
d="M1761 680v-680h-1384v233h131v807q-130 0 -210.5 22.5t-131.5 98t-51 178.5q0 113 77 210.5t242 97.5q130 0 237 -77t107 -272v-1065h713v365q-84 -16 -193 -16q-438 0 -438 303q0 124 78.5 187t180.5 63q135 0 208.5 -72t73.5 -191q0 -52 -17 -86q68 0 107 21v831h270
v-675q7 0 55 46t64 97l156 -180q-59 -95 -159 -170.5t-116 -75.5zM434 1446q-110 0 -110 -111q0 -114 110 -114q111 0 111 114q0 111 -111 111zM1126 983q-102 0 -102 -106q0 -107 102 -107q107 0 107 107q0 106 -107 106z" />
    <glyph glyph-name="uni0E2A" unicode="&#xe2a;" horiz-adv-x="1819" 
d="M1266 1573q69 86 69 250h299q0 -83 -43.5 -213t-124.5 -197q67 -70 93 -187.5t26 -181.5v-1044h-282q-170 600 -467 922q-25 -16 -75.5 -81t-92 -154t-41.5 -118q138 0 220.5 -75.5t82.5 -219.5q0 -130 -85 -216.5t-231 -86.5q-319 0 -319 353q0 279 184.5 576t589.5 493
q-60 32 -225 32q-479 0 -479 -507h-259q0 353 198 541t573 188q276 0 389 -74zM1315 623v352q0 163 -53 257l-17 30q-82 -73 -237 -160q72 -54 173 -217.5t134 -261.5zM618 160q111 0 111 114q0 111 -111 111q-110 0 -110 -111q0 -114 110 -114z" />
    <glyph glyph-name="uni0E2B" unicode="&#xe2b;" horiz-adv-x="1978" 
d="M1466 926l-680 -926h-278v1040q-130 0 -210.5 22.5t-131.5 98t-51 178.5q0 113 77 210.5t242 97.5q130 0 237 -77t107 -272v-925l545 717q-49 4 -102.5 75t-53.5 174q0 133 84.5 220.5t242.5 87.5q120 0 214 -78t94 -254q0 -140 -143 -230q61 -30 85.5 -92.5t24.5 -206.5
v-786h-270v877zM1487 1458q-111 0 -111 -110q0 -115 111 -115q110 0 110 115q0 110 -110 110zM434 1446q-110 0 -110 -111q0 -114 110 -114q111 0 111 114q0 111 -111 111z" />
    <glyph glyph-name="uni0E2C" unicode="&#xe2c;" horiz-adv-x="2171" 
d="M1901 1434v-1434h-304l-397 926l-397 -926h-303v1040q-162 0 -237.5 32.5t-116 104.5t-40.5 162q0 132 86.5 220t233.5 88q129 0 236.5 -77t107.5 -272v-634l-16 -148l336 762h213l348 -762l-21 148v614q-340 0 -340 278q0 136 85.5 220t205.5 84q163 0 250 -119
q82 61 180 209l160 -221q-169 -234 -270 -295zM1585 1667q-110 0 -110 -111q0 -114 110 -114q111 0 111 114q0 111 -111 111zM426 1446q-111 0 -111 -111q0 -114 111 -114t111 114q0 111 -111 111z" />
    <glyph glyph-name="uni0E2D" unicode="&#xe2d;" horiz-adv-x="1847" 
d="M434 0v786q0 171 97 270t255 99q140 0 226 -84t86 -219q0 -133 -77 -216t-316 -83v-320h647v742q0 217 -134.5 333.5t-366.5 116.5q-312 0 -422 -159.5t-110 -343.5h-258q69 726 794 726q299 0 533 -148.5t234 -455.5v-1044h-1188zM782 958q-110 0 -110 -110
q0 -115 110 -115q111 0 111 115q0 110 -111 110z" />
    <glyph glyph-name="uni0E2E" unicode="&#xe2e;" horiz-adv-x="1704" 
d="M1177 1196q-217 -111 -477 -111q-231 0 -399.5 73t-168.5 215q0 294 626 294q387 0 509 -135q119 105 168 254l213 -139q-77 -188 -217 -304l10 -30q8 -20 18 -64q6 -69 9 -139v-1110h-1221v631q0 190 106.5 279t245.5 89q145 0 228.5 -87t83.5 -216q0 -136 -80 -217.5
t-314 -81.5v-164h680v840q0 76 -20 123zM1083 1384q-129 74 -356 74q-292 0 -292 -79q0 -81 279 -81q189 0 369 86zM595 803q-110 0 -110 -111q0 -114 110 -114q111 0 111 114q0 111 -111 111z" />
    <glyph glyph-name="uni0E2F" unicode="&#xe2f;" horiz-adv-x="1700" 
d="M1212 1638h271v-1638h-271v1176q-44 -70 -209 -144t-356 -74q-192 0 -346 88t-154 289q0 152 85 232t239 80q315 0 315 -305q0 -101 -49 -154q191 0 327 133.5t148 316.5zM467 1458q-123 0 -123 -123t123 -123t123 123t-123 123z" />
    <glyph glyph-name="uni0E30" unicode="&#xe30;" horiz-adv-x="1520" 
d="M1151 1573l213 -103q0 -117 -84.5 -251.5t-271.5 -201.5t-383 -67q-506 0 -506 336q0 145 91 218t212 73q160 0 227.5 -87.5t67.5 -203.5q0 -77 -29 -123q463 0 463 410zM418 1405q-123 0 -123 -123t123 -123t123 123t-123 123zM1151 672l213 -103q0 -212 -193.5 -366
t-546.5 -154q-246 0 -375.5 86t-129.5 250q0 146 91 218.5t212 72.5q158 0 226.5 -87.5t68.5 -203.5q0 -77 -29 -125q463 0 463 412zM418 504q-123 0 -123 -123t123 -123t123 123t-123 123z" />
    <glyph glyph-name="uni0E31" unicode="&#xe31;" horiz-adv-x="0" 
d="M242 2638l204 -107q-63 -226 -303 -387.5t-562 -161.5q-300 0 -462.5 93.5t-162.5 267.5q0 131 85.5 217t228.5 86q134 0 211 -86.5t77 -203.5q0 -114 -62 -148q0 -13 135 -13q204 0 378 120.5t233 322.5zM-745 2470q-115 0 -115 -115q0 -114 115 -114q114 0 114 114
q0 115 -114 115z" />
    <glyph glyph-name="uni0E32" unicode="&#xe32;" horiz-adv-x="1438" 
d="M274 1135h-249q0 125 65.5 243.5t184.5 193.5t339 75q615 0 615 -557v-1090h-271v1081q0 349 -340 349q-139 0 -241.5 -72t-102.5 -223z" />
    <glyph glyph-name="uni0E33" unicode="&#xe33;" horiz-adv-x="1438" 
d="M-369 2011q-91 0 -165.5 38t-124.5 116t-50 186q0 101 43.5 177t119.5 119.5t177 43.5q151 0 243.5 -94.5t92.5 -245.5q0 -131 -83.5 -235.5t-252.5 -104.5zM-369 2499q-147 0 -147 -148q0 -151 147 -151q148 0 148 151q0 148 -148 148zM279 1135h-250q0 189 143 350.5
t446 161.5q615 0 615 -557v-1090h-270v1081q0 349 -340 349q-154 0 -249 -78.5t-95 -216.5z" />
    <glyph glyph-name="uni0E34" unicode="&#xe34;" horiz-adv-x="0" 
d="M-197 1884q-680 172 -1245 172q-137 0 -264 -8q26 187 205 380t506 193q190 0 330 -76.5t247.5 -203.5t164 -275t56.5 -182zM-1348 2241q84 4 140 4q287 0 639 -95q-179 259 -436 259q-121 0 -222 -47.5t-121 -120.5z" />
    <glyph glyph-name="uni0E35" unicode="&#xe35;" horiz-adv-x="0" 
d="M-483 2392v274h271v-782q-583 172 -1246 172q-70 0 -166 -4l-96 -4q0 151 188.5 362t532.5 211q342 0 516 -229zM-1363 2241q49 4 153 4q274 0 625 -95q-21 62 -146.5 160.5t-288.5 98.5q-135 0 -230.5 -51.5t-112.5 -116.5z" />
    <glyph glyph-name="uni0E36" unicode="&#xe36;" horiz-adv-x="0" 
d="M-655 2482q59 164 262 164q144 0 213 -81.5t69 -192.5q0 -194 -176 -238q57 -102 90 -250q-600 172 -1245 172l-262 -6q23 223 203 393t428 170q205 0 418 -131zM-393 2499q-119 0 -119 -119q0 -123 119 -123t119 123q0 119 -119 119zM-1348 2241q84 4 140 4
q237 0 498 -60l21 -5l120 -30q-14 44 -139 151.5t-294 107.5q-125 0 -225 -46.5t-121 -121.5z" />
    <glyph glyph-name="uni0E37" unicode="&#xe37;" horiz-adv-x="0" 
d="M-810 2589v77h237v-200l115 -119v319h237v-782q-680 172 -1245 172q-70 0 -166 -4l-96 -4q0 141 170.5 357t509.5 216q128 0 238 -32zM-1372 2241q29 4 140 4h37q247 0 602 -95q-161 259 -439 259q-136 0 -229.5 -53.5t-110.5 -114.5z" />
    <glyph glyph-name="uni0E38" unicode="&#xe38;" horiz-adv-x="0" 
d="M-463 -954v196q-356 0 -356 279q0 110 71 204.5t232 94.5q323 0 323 -434v-340h-270zM-520 -360q-119 0 -119 -119t119 -119q114 0 114 119t-114 119z" />
    <glyph glyph-name="uni0E39" unicode="&#xe39;" horiz-adv-x="0" 
d="M-729 -528v-209h229v524h271v-741h-770v196h2q-16 -1 -43 -1q-111 0 -176 31t-102.5 95.5t-37.5 153.5q0 299 303 299q164 0 244 -105t80 -243zM-1057 -360q-119 0 -119 -119t119 -119q115 0 115 119t-115 119z" />
    <glyph glyph-name="uni0E3A" unicode="&#xe3a;" horiz-adv-x="0" 
d="M-578 -416q0 83 59.5 142t142.5 59q84 0 143 -59t59 -142t-59 -141.5t-143 -58.5q-83 0 -142.5 58.5t-59.5 141.5z" />
    <glyph glyph-name="uni0E3F" unicode="&#xe3f;" horiz-adv-x="1791" 
d="M775 -292v292h-578v1921h578v305h206v-306q301 -14 437.5 -159t136.5 -331q0 -274 -269 -408q362 -107 362 -465q0 -538 -667 -557v-292h-206zM775 1114v580h-324v-580h324zM981 1690v-574q323 19 323 283q0 142 -75 211t-248 80zM775 227v660h-324v-660h324zM981 886
v-659q403 9 403 330q0 316 -403 329z" />
    <glyph glyph-name="uni0E40" unicode="&#xe40;" horiz-adv-x="1012" 
d="M528 1638v-1048q162 0 237.5 -32.5t116 -104.5t40.5 -162q0 -132 -87 -219.5t-233 -87.5q-131 0 -237.5 76.5t-106.5 271.5v1306h270zM602 184q111 0 111 115q0 111 -111 111q-110 0 -110 -111q0 -115 110 -115z" />
    <glyph glyph-name="uni0E41" unicode="&#xe41;" horiz-adv-x="1798" 
d="M532 1638v-1048q160 0 235.5 -31.5t117 -104t41.5 -163.5q0 -133 -86.5 -220t-233.5 -87q-143 0 -243.5 82.5t-100.5 265.5v1306h270zM606 184q111 0 111 115q0 111 -111 111q-110 0 -110 -111q0 -115 110 -115zM1319 1638v-1048q241 0 317 -90.5t76 -208.5
q0 -113 -77 -210t-242 -97q-131 0 -237.5 76.5t-106.5 271.5v1306h270zM1393 184q110 0 110 115q0 111 -110 111q-111 0 -111 -111q0 -115 111 -115z" />
    <glyph glyph-name="uni0E42" unicode="&#xe42;" horiz-adv-x="1118" 
d="M647 2023v-1433q160 0 235 -31.5t116.5 -104t41.5 -163.5q0 -132 -87 -219.5t-232 -87.5q-131 0 -237.5 76.5t-106.5 271.5v1593l-533 254q2 249 180.5 395t434.5 146q296 0 440.5 -160.5t144.5 -429.5h-241q0 199 -103.5 292t-240.5 93q-256 0 -344 -221zM721 184
q110 0 110 115q0 111 -110 111q-111 0 -111 -111q0 -115 111 -115z" />
    <glyph glyph-name="uni0E43" unicode="&#xe43;" horiz-adv-x="1303" 
d="M324 2507q106 -68 106 -248q0 -147 -80 -242.5t-207 -95.5q-136 0 -231.5 91t-95.5 257q0 447 491 447q529 0 529 -545v-1581q240 0 316.5 -90.5t76.5 -208.5q0 -135 -88 -221t-232 -86q-143 0 -243.5 82.5t-100.5 265.5v1855q0 132 -17.5 191.5t-77 94t-146.5 34.5z
M4 2261q0 -143 114 -143q128 0 128 143q0 156 -122 156q-120 0 -120 -156zM909 184q111 0 111 115q0 111 -111 111q-110 0 -110 -111q0 -115 110 -115z" />
    <glyph glyph-name="uni0E44" unicode="&#xe44;" horiz-adv-x="1225" 
d="M299 1982h-332q4 37 4 127q0 484 -128 714l259 -1v1q99 -195 99 -472q0 -35 -8 -127l253 492h304v-2126q161 0 235.5 -32t116 -104.5t41.5 -162.5q0 -132 -87 -219.5t-233 -87.5q-131 0 -237.5 76.5t-106.5 271.5v2023zM823 184q111 0 111 115q0 111 -111 111
q-110 0 -110 -111q0 -115 110 -115z" />
    <glyph glyph-name="uni0E45" unicode="&#xe45;" horiz-adv-x="1430" 
d="M250 1135h-250q0 262 174 387t416 125q614 0 614 -557v-1680h-270v1671q0 349 -340 349q-154 0 -249 -78.5t-95 -216.5z" />
    <glyph glyph-name="uni0E46" unicode="&#xe46;" horiz-adv-x="2163" 
d="M860 1323q332 0 332 -287q0 -159 -91 -229t-204 -70q-157 0 -236 113.5t-79 269.5q0 188 110 355t291 167q225 0 344 -180q123 185 262 185q279 0 279 -377v-1475q0 -402 -254 -557l-188 172q172 115 172 385v1442q0 135 -48 135q-37 0 -102.5 -50.5t-112.5 -121.5
q-174 218 -317 218q-115 0 -158 -95zM901 1155q-114 0 -114 -119q0 -118 114 -118q119 0 119 118q0 119 -119 119z" />
    <glyph glyph-name="uni0E47" unicode="&#xe47;" horiz-adv-x="0" 
d="M-336 2978l246 -123q-112 -234 -467 -234q-352 0 -449.5 -9.5t-160 -64.5t-62.5 -192q0 -79 16 -142q80 113 177 187h180q0 -83 78.5 -160t150.5 -77q-53 63 -53 131q0 237 246 237q111 0 184.5 -67t73.5 -187q0 -109 -83 -212t-282 -103q-292 0 -438 213
q-99 -68 -147 -209h-123q-221 0 -221 365q0 479 499 479l103 -2q116 -2 130 -2q377 0 402 172zM-430 2388q-102 0 -102 -102q0 -103 102 -103t102 103q0 102 -102 102z" />
    <glyph glyph-name="glyph201" horiz-adv-x="0" 
d="M-512 2765v479h270v-479h-270z" />
    <glyph glyph-name="glyph202" horiz-adv-x="0" 
d="M-586 2978q-118 0 -184 58t-66 151q0 106 68.5 165.5t177.5 59.5q122 0 184 -66t62 -172q0 -155 -127 -262q88 0 220 74.5t212 179t80 197.5l180 -90q-61 -261 -349 -403t-650 -142v139q34 0 103 29t89 82zM-594 3281q-94 0 -94 -90q0 -94 94 -94q90 0 90 94q0 90 -90 90
z" />
    <glyph glyph-name="glyph203" horiz-adv-x="0" 
d="M-745 3006q37 37 107 37q138 0 138 -143q0 -164 -164 -164q-92 0 -164.5 58.5t-72.5 199.5q0 159 79.5 223t153.5 64l140 -98l147 98q193 -21 193 -234q0 -85 -33 -155q103 7 182.5 128.5t79.5 248.5l139 -78q-60 -443 -606 -443q91 82 91 234q0 127 -62 160l-135 -78
l-140 90q-34 0 -60 -34.5t-26 -67.5q0 -23 13 -46zM-647 2961q-70 0 -70 -65q0 -70 70 -70q65 0 65 70q0 65 -65 65z" />
    <glyph glyph-name="glyph204" horiz-adv-x="0" 
d="M-778 2920v185h258v172h270v-172h258v-185h-258v-172h-270v172h-258z" />
    <glyph glyph-name="glyph205" horiz-adv-x="0" 
d="M-229 2888q77 -45 77 -156q0 -112 -68.5 -166.5t-156.5 -54.5q-106 0 -161.5 69t-55.5 152q0 195 231 255q210 52 260 94t50 147l184 -66q-11 -135 -119.5 -204.5t-240.5 -69.5zM-373 2822q-94 0 -94 -90q0 -94 94 -94q90 0 90 94q0 90 -90 90z" />
    <glyph glyph-name="uni0E4D" unicode="&#xe4d;" horiz-adv-x="0" 
d="M-479 1868q-91 0 -166 37.5t-124.5 115.5t-49.5 187q0 102 43.5 177.5t119 119t177.5 43.5q170 0 253 -104t83 -236q0 -131 -83.5 -235.5t-252.5 -104.5zM-479 2355q-148 0 -148 -147q0 -152 148 -152q147 0 147 152q0 147 -147 147z" />
    <glyph glyph-name="uni0E4E" unicode="&#xe4e;" horiz-adv-x="0" 
d="M-168 2048q-115 -94 -332 -94q-282 0 -282 205q0 98 91.5 196.5t309.5 98.5q-188 26 -188 172q0 87 130 154t312 67q129 0 197 -33l-103 -78q-49 21 -98 21q-45 0 -91 -6q-143 -40 -143 -154q0 -119 197 -119l-45 -94q-145 0 -242.5 -56t-97.5 -149q0 -115 135 -115
q102 0 160 58z" />
    <glyph glyph-name="uni0E4F" unicode="&#xe4f;" horiz-adv-x="2062" 
d="M1864 823q0 -233 -111 -417t-294 -295t-415 -111t-414.5 111.5t-293.5 295t-111 416.5q0 341 240 582t579 241q208 0 388 -95t306 -286.5t126 -441.5zM1751 825q0 294 -207.5 502.5t-500.5 208.5q-294 0 -501.5 -208.5t-207.5 -502.5q0 -296 207 -504t502 -208
q202 0 360.5 97t253 255.5t94.5 359.5zM1511 825q0 -195 -137 -332t-331 -137t-331.5 137t-137.5 332q0 221 150 344.5t319 123.5q134 0 238.5 -63.5t167 -168t62.5 -236.5z" />
    <glyph glyph-name="uni0E50" unicode="&#xe50;" horiz-adv-x="1741" 
d="M1548 573q0 -273 -181 -431t-490 -158q-303 0 -487.5 160t-184.5 429q0 253 187.5 421.5t484.5 168.5q324 0 497.5 -174.5t173.5 -415.5zM1286 569q0 188 -123 278.5t-291 90.5q-188 0 -298.5 -100.5t-110.5 -274.5q0 -165 109.5 -259.5t299.5 -94.5q414 0 414 360z" />
    <glyph glyph-name="uni0E51" unicode="&#xe51;" horiz-adv-x="1786" 
d="M1159 -213l-147 127q167 121 245 283.5t78 306.5q0 164 -108.5 299t-345.5 135q-127 0 -217.5 -45.5t-149.5 -134.5t-59 -205q0 -125 37 -184q32 217 257 217q135 0 219.5 -82t84.5 -209q0 -159 -103 -233t-254 -74q-246 0 -374.5 164.5t-128.5 384.5q0 195 89 333.5
t243.5 211.5t371.5 73q317 0 508.5 -169t191.5 -454q0 -247 -134 -454t-304 -291zM762 418q-119 0 -119 -123q0 -115 115 -115q119 0 119 123q0 115 -115 115z" />
    <glyph glyph-name="uni0E52" unicode="&#xe52;" horiz-adv-x="1909" 
d="M1221 1036q20 46 86 84.5t128 38.5q142 0 215.5 -94.5t73.5 -249.5v-815h-1413v1348q0 238 -209 290l222 172q258 -78 258 -475v-1102h872v562q0 172 -86 172q-88 0 -151 -127q-69 127 -154 127q-121 0 -121 -201q63 25 150 25q83 0 142.5 -61t59.5 -169q0 -117 -78 -177
t-176 -60q-315 0 -315 413q0 187 83 304.5t226 117.5q114 0 187 -123zM1057 655q-90 0 -90 -94t90 -94q94 0 94 94t-94 94z" />
    <glyph glyph-name="uni0E53" unicode="&#xe53;" horiz-adv-x="1835" 
d="M520 352q37 176 242 176q130 0 202 -74.5t72 -195.5q0 -274 -315 -274q-252 0 -374 166t-122 444q0 235 110 402t346 167q240 0 282 -221q55 221 310 221q154 0 237 -102t83 -275v-786h-270v795q0 168 -95 168q-146 0 -163 -267h-205q0 267 -176 267q-103 0 -150 -124.5
t-47 -252.5q0 -127 33 -234zM762 365q-103 0 -103 -103q0 -106 107 -106q102 0 102 102q0 107 -106 107z" />
    <glyph glyph-name="uni0E54" unicode="&#xe54;" horiz-adv-x="1884" 
d="M1455 229h160v-229h-819q-277 0 -446 160t-169 429q0 264 185 411t508 147h258q217 0 342 160.5t125 429.5l245 -99q0 -285 -182 -498.5t-506 -213.5h-328q-160 0 -260 -104t-100 -267q0 -135 84.5 -230.5t210.5 -95.5h221q-61 12 -143 99.5t-82 205.5q0 111 70.5 196
t196.5 85q106 0 196 -62t90 -192q0 -195 -164 -242q114 -90 307 -90zM1041 664q-114 0 -114 -115t114 -115q115 0 115 115t-115 115z" />
    <glyph glyph-name="uni0E55" unicode="&#xe55;" horiz-adv-x="1884" 
d="M1081 1155q271 0 394 161t123 421l245 -99q0 -285 -182 -498.5t-506 -213.5h-328q-160 0 -260 -104t-100 -267q0 -135 84.5 -230.5t210.5 -95.5h221q-69 15 -147 97.5t-78 207.5q0 113 71 196t205 83q107 0 192 -58.5t85 -193.5q0 -89 -46 -157.5t-118 -84.5
q96 -90 307 -90h160v-229h-819q-242 0 -428.5 143.5t-186.5 442.5q0 422 418 528q-123 59 -123 208q0 127 90.5 217.5t235.5 90.5q179 0 256.5 -94.5t77.5 -220.5q0 -106 -54 -160zM807 1466q-147 0 -147 -147q0 -148 147 -148t147 148q0 147 -147 147zM1040 664
q-114 0 -114 -115t114 -115q115 0 115 115t-115 115z" />
    <glyph glyph-name="uni0E56" unicode="&#xe56;" horiz-adv-x="1901" 
d="M434 819h-229q8 33 8 230q0 511 -172 589l201 160q135 -93 177 -251.5t42 -418.5l-2 -34q94 53 303 53h323q273 0 442 -157.5t169 -414.5q0 -211 -130.5 -393t-385.5 -182h-369q-504 0 -504 377q0 121 84.5 208t210.5 87q149 0 234.5 -65.5t85.5 -180.5q0 -144 -50 -197
h250q148 0 225.5 108.5t77.5 249.5q0 153 -119 246t-282 93h-319q-194 0 -271 -107zM618 492q-126 0 -126 -127t126 -127q127 0 127 127t-127 127z" />
    <glyph glyph-name="uni0E57" unicode="&#xe57;" horiz-adv-x="2253" 
d="M1507 213q267 0 267 303v746q0 394 225 561l209 -176q-164 -103 -164 -410v-713q0 -236 -142.5 -380t-426.5 -144h-271v213q115 17 115 238v344q0 168 -97 168q-143 0 -161 -267h-205q0 267 -176 267q-100 0 -148.5 -124t-48.5 -253q0 -127 33 -234q35 176 242 176
q129 0 201.5 -75t72.5 -195q0 -139 -92 -213t-219 -74q-247 0 -373.5 176t-126.5 443q0 234 107.5 403.5t348.5 169.5q235 0 281 -221q36 221 316 221q151 0 233 -107t82 -270v-335q0 -181 -82 -238zM758 365q-103 0 -103 -103q0 -106 107 -106q102 0 102 102
q0 107 -106 107z" />
    <glyph glyph-name="uni0E58" unicode="&#xe58;" horiz-adv-x="2032" 
d="M870 217q-73 -103 -90 -233q-545 26 -545 567q0 290 174 443t493 153h258q271 0 414.5 134.5t143.5 504.5l221 -148q0 -333 -189 -522.5t-524 -189.5h-344q-199 0 -288 -109t-89 -265q0 -314 139 -314q142 277 222 327q12 -26 162 -182t253 -156q-84 90 -84 207
q0 93 70.5 190t220.5 97q158 0 243 -103.5t85 -224.5q0 -214 -140 -313.5t-335 -99.5q-113 0 -216 40.5t-255 196.5zM1505 541q-127 0 -127 -127t127 -127q126 0 126 127t-126 127z" />
    <glyph glyph-name="uni0E59" unicode="&#xe59;" horiz-adv-x="2114" 
d="M463 393q3 99 86 158t188 59q148 0 223.5 -89t75.5 -206q0 -120 -88.5 -219.5t-291.5 -99.5q-215 0 -355.5 140.5t-140.5 380.5q0 186 76 328t204 226t294 84q228 0 364 -116.5t151 -202.5q0 323 189 323q31 0 125 -29q94 -28 117 -28q114 0 114 418q0 158 -20 249
l246 -131q8 -42 8 -98q0 -283 -68 -471t-181 -188q-35 0 -126 24q-91 25 -123 25q-72 0 -72 -197q0 -187 66 -345.5t262 -158.5q47 0 90 9v-238q-260 0 -391.5 80t-244.5 330q-128 285 -178 341.5t-129 117.5t-183 61q-140 0 -228 -94t-88 -263q0 -122 29 -180zM742 442
q-115 0 -115 -114q0 -115 115 -115q114 0 114 115q0 114 -114 114z" />
    <glyph glyph-name="uni0E5A" unicode="&#xe5a;" horiz-adv-x="1995" 
d="M1126 1638h271v-1638h-271v1176q-44 -83 -212 -150.5t-353 -67.5q-204 0 -352 88t-148 289q0 152 85 232t239 80q169 0 241 -91t72 -215q0 -99 -45 -155q185 0 323 134t150 318zM381 1458q-123 0 -123 -123t123 -123t123 123t-123 123zM1597 1638h234v-1638h-234v1638z
" />
    <glyph glyph-name="uni0E5B" unicode="&#xe5b;" horiz-adv-x="3301" 
d="M2419 604q-204 -278 -248 -278t-219 278q-192 -278 -240 -278q-45 0 -203 239q-220 -565 -671 -565q-289 0 -486.5 188t-197.5 570q0 324 182.5 530.5t480.5 206.5q203 0 439 -127l-13 -180q-206 143 -432 143q-208 0 -342.5 -168t-134.5 -416q0 -245 123 -412t385 -167
q183 0 311.5 117.5t323.5 535.5q213 -307 243 -307q12 0 115 153q103 154 131 154q38 0 207 -307q206 307 250 307q11 0 141 -197q129 -196 234 -196q224 0 290 408h150q-78 -557 -432 -557q-232 0 -387 325z" />
    <glyph glyph-name="exclamdown" unicode="&#xa1;" horiz-adv-x="894" 
d="M584 1392v-268h-272v268h272zM522 914l72 -1018v-426h-292v426l68 1018h152z" />
    <glyph glyph-name="cent" unicode="&#xa2;" horiz-adv-x="1494" 
d="M976 1172l-292 -1004q42 -12 80 -12q119 0 224 81.5t132 272.5l236 -26q-45 -242 -206.5 -381t-381.5 -139q-71 0 -134 18l-156 -518l-146 42l150 522q-342 173 -342 662q0 363 178.5 548.5t439.5 185.5q54 0 130 -10l148 508l144 -42l-146 -508q241 -99 296 -390
l-230 -34q-33 145 -124 224zM836 1232l-66 4q-170 0 -279 -132.5t-109 -401.5q0 -345 162 -470z" />
    <glyph glyph-name="sterling" unicode="&#xa3;" horiz-adv-x="1494" 
d="M520 1060h412v-194h-372q24 -57 24 -116q0 -251 -232 -500q111 30 188 30q104 0 246 -34q235 -54 304 -54q98 0 252 74l76 -216q-192 -82 -318 -82q-90 0 -275 55q-208 63 -303 63q-208 0 -396 -122l-90 226q300 175 300 514q0 82 -22 162h-256v194h202q-68 221 -68 346
q0 247 167 397.5t429 150.5q204 0 371.5 -116.5t208.5 -379.5l-234 -36q-21 159 -118.5 248.5t-233.5 89.5q-127 0 -232.5 -85t-105.5 -235q0 -140 76 -380z" />
    <glyph glyph-name="currency" unicode="&#xa4;" horiz-adv-x="1494" 
d="M280 1260l-184 178l152 156l182 -182q139 94 310 94q173 0 312 -94l182 182l152 -156l-182 -178q92 -148 92 -308q0 -165 -92 -310l182 -178l-152 -156l-182 184q-138 -96 -312 -96q-172 0 -310 96l-182 -184l-152 156l184 178q-94 146 -94 310t94 308zM400 952
q0 -142 98.5 -242t241.5 -100q124 0 231 91.5t107 250.5q0 142 -98 240t-240 98q-161 0 -250.5 -108t-89.5 -230z" />
    <glyph glyph-name="yen" unicode="&#xa5;" horiz-adv-x="1494" 
d="M626 0v426h-544v182h544v188h-544v194h446l-532 932h262l380 -676q47 -84 100 -202q31 74 108 212l358 666h280l-530 -932h448v-194h-540v-188h540v-182h-540v-426h-236z" />
    <glyph glyph-name="brokenbar" unicode="&#xa6;" horiz-adv-x="698" 
d="M452 1954v-1036h-206v1036h206zM452 472v-1036h-206v1036h206z" />
    <glyph glyph-name="section" unicode="&#xa7;" horiz-adv-x="1494" 
d="M188 -92l236 34q59 -308 334 -308q136 0 211 68.5t75 159.5q0 62 -60 139.5t-434 304.5q-184 115 -263 179.5t-130 163t-51 195.5q0 110 71.5 218.5t224.5 151.5q-170 163 -170 326q0 167 131 290.5t347 123.5q488 0 548 -454l-244 -26q-46 286 -282 286q-120 0 -195 -65
t-75 -143q0 -82 77.5 -158t370.5 -256q270 -166 365 -273t95 -257q0 -261 -298 -374q208 -160 208 -368q0 -184 -144 -307t-376 -123q-501 0 -572 472zM954 320q192 97 192 244q0 76 -66 155.5t-296 224.5q-155 95 -268 180q-196 -106 -196 -254q0 -83 59 -156t273 -200
q176 -103 302 -194z" />
    <glyph glyph-name="dieresis" unicode="&#xa8;" horiz-adv-x="894" 
d="M80 1664v270h246v-270h-246zM568 1664v270h248v-270h-248z" />
    <glyph glyph-name="copyright" unicode="&#xa9;" horiz-adv-x="1978" 
d="M994 1954q248 0 484.5 -127.5t370 -365.5t133.5 -497q0 -413 -291 -700.5t-697 -287.5q-252 0 -490.5 129.5t-369 367t-130.5 491.5q0 301 161 542.5t391 344.5t438 103zM994 1790q-347 0 -586.5 -240.5t-239.5 -585.5q0 -338 241.5 -581t584.5 -243q202 0 405 106.5
t311 312t108 405.5q0 344 -242.5 585t-581.5 241zM1310 804l162 -46q-38 -163 -167.5 -261.5t-310.5 -98.5q-231 0 -374.5 149.5t-143.5 414.5q0 263 143.5 410.5t386.5 147.5q348 0 446 -308l-156 -40q-83 202 -296 202q-146 0 -246 -103.5t-100 -312.5q0 -201 92.5 -303.5
t239.5 -102.5q110 0 201.5 64.5t122.5 187.5z" />
    <glyph glyph-name="ordfeminine" unicode="&#xaa;" horiz-adv-x="994" 
d="M718 1118q-158 -140 -336 -140q-127 0 -223.5 71.5t-96.5 214.5q0 126 75.5 188.5t244.5 93.5l192 28q45 7 126 26q0 108 -42.5 154t-163.5 46q-193 0 -218 -164l-180 46q54 272 400 272q234 0 313 -90t79 -228v-394q0 -177 54 -240h-194q-30 56 -30 116zM698 1446
q-79 -17 -252 -46q-190 -30 -190 -136q0 -49 45 -89.5t127 -40.5q93 0 160.5 49t88.5 100.5t21 162.5z" />
    <glyph glyph-name="guillemotleft" unicode="&#xab;" horiz-adv-x="1494" 
d="M446 692l340 -598h-192l-418 598l418 598h194zM952 692l346 -598h-198l-410 598l410 598h198z" />
    <glyph glyph-name="logicalnot" unicode="&#xac;" horiz-adv-x="1568" 
d="M1418 556h-222v574h-1046v220h1268v-794z" />
    <glyph glyph-name="uni00AD" unicode="&#xad;" horiz-adv-x="894" 
d="M86 576v238h724v-238h-724z" />
    <glyph glyph-name="registered" unicode="&#xae;" horiz-adv-x="1978" 
d="M994 1954q248 0 484.5 -127.5t370 -365.5t133.5 -497q0 -413 -291 -700.5t-697 -287.5q-252 0 -490.5 129.5t-369 367t-130.5 491.5q0 301 161 542.5t391 344.5t438 103zM994 1790q-347 0 -586.5 -240.5t-239.5 -585.5q0 -338 241.5 -581t584.5 -243q202 0 405 106.5
t311 312t108 405.5q0 344 -242.5 585t-581.5 241zM560 418v1064h366q245 0 349.5 -71.5t104.5 -216.5q0 -114 -82.5 -201t-221.5 -99q95 -29 248 -268l130 -208h-210l-94 168q-98 175 -158 229.5t-160 54.5h-100v-452h-172zM732 1018h208q258 0 258 162q0 83 -63 120.5
t-209 37.5h-194v-320z" />
    <glyph glyph-name="macron" unicode="&#xaf;" horiz-adv-x="1482" 
d="M-40 2052v170h1562v-170h-1562z" />
    <glyph glyph-name="degree" unicode="&#xb0;" horiz-adv-x="1074" 
d="M168 1592q0 147 106 254.5t256 107.5q131 0 248.5 -96t117.5 -266q0 -91 -43 -171.5t-128.5 -137.5t-194.5 -57q-128 0 -245 97.5t-117 268.5zM310 1592q0 -94 64 -158t158 -64q105 0 162.5 70.5t57.5 151.5q0 62 -30 111t-79 79t-111 30q-81 0 -151.5 -58t-70.5 -162z
" />
    <glyph glyph-name="plusminus" unicode="&#xb1;" horiz-adv-x="1474" 
d="M626 340v528h-524v220h524v522h222v-522h522v-220h-522v-528h-222zM1370 0h-1268v220h1268v-220z" />
    <glyph glyph-name="uni00B2" unicode="&#xb2;" horiz-adv-x="894" 
d="M32 960q10 161 334 400q171 122 221.5 173.5t50.5 112.5q0 144 -180 144q-158 0 -200 -150l-198 22q67 282 402 282q197 0 289.5 -77.5t92.5 -188.5t-67 -194t-279 -238q-111 -80 -154 -126h506v-160h-818z" />
    <glyph glyph-name="uni00B3" unicode="&#xb3;" horiz-adv-x="894" 
d="M44 1218l190 20q44 -148 202 -148q95 0 150.5 52.5t55.5 121.5q0 144 -208 144l-44 -2q-24 -1 -28 -2l28 146q206 0 206 132q0 47 -40 82.5t-116 35.5q-137 0 -188 -134l-186 30q50 135 134 191.5t240 56.5q360 0 360 -244q0 -152 -180 -210q226 -52 226 -250
q0 -122 -103.5 -212t-294.5 -90q-348 0 -404 280z" />
    <glyph glyph-name="acute" unicode="&#xb4;" horiz-adv-x="894" 
d="M290 1564l176 368h308l-288 -368h-196z" />
    <glyph glyph-name="mu" unicode="&#xb5;" horiz-adv-x="1546" 
d="M1334 1392v-1392h-210v166q-120 -198 -350 -198q-205 0 -332 172v-674h-232v1926h232v-590q0 -326 33.5 -414t105 -148t183.5 -60q102 0 183 55t118 146.5t37 416.5v594h232z" />
    <glyph glyph-name="paragraph" unicode="&#xb6;" horiz-adv-x="1442" 
d="M530 -534v1370q-133 0 -251 57.5t-197.5 178t-79.5 296.5q0 258 160 406t460 148h828v-228h-188v-2228h-222v2228h-292v-2228h-218z" />
    <glyph glyph-name="periodcentered" unicode="&#xb7;" horiz-adv-x="746" 
d="M242 812v268h270v-268h-270z" />
    <glyph glyph-name="periodcentered" unicode="&#x2219;" horiz-adv-x="746" 
d="M242 812v268h270v-268h-270z" />
    <glyph glyph-name="cedilla" unicode="&#xb8;" horiz-adv-x="894" 
d="M284 -202l68 232h174l-42 -140q109 -12 166.5 -68t57.5 -124q0 -95 -92 -172.5t-288 -77.5q-94 0 -188 16l14 154l124 -6q210 0 210 98q0 88 -204 88z" />
    <glyph glyph-name="uni00B9" unicode="&#xb9;" horiz-adv-x="894" 
d="M434 960v726q-133 -103 -294 -148v162q189 62 342 244h142v-984h-190z" />
    <glyph glyph-name="ordmasculine" unicode="&#xba;" horiz-adv-x="980" 
d="M488 1954q187 0 308.5 -130.5t121.5 -361.5q0 -203 -106.5 -347.5t-321.5 -144.5q-194 0 -313 130t-119 356q0 237 120 367.5t310 130.5zM488 1780q-236 0 -236 -318q0 -169 67 -244.5t169 -75.5q236 0 236 326q0 158 -66.5 235t-169.5 77z" />
    <glyph glyph-name="guillemotright" unicode="&#xbb;" horiz-adv-x="1494" 
d="M1036 692l-342 598h194l418 -598l-418 -598h-192zM530 692l-346 598h198l410 -598l-410 -598h-198z" />
    <glyph glyph-name="onequarter" unicode="&#xbc;" horiz-adv-x="2238" 
d="M330 -74l1444 2028h206l-1444 -2028h-206zM434 960v726q-133 -103 -294 -148v162q189 62 342 244h142v-984h-190zM1874 -40v202h-502v160l532 622h158v-642h138v-140h-138v-202h-188zM1874 302v346l-302 -346h302z" />
    <glyph glyph-name="onehalf" unicode="&#xbd;" horiz-adv-x="2238" 
d="M298 -74l1444 2028h206l-1444 -2028h-206zM434 960v726q-133 -103 -294 -148v162q189 62 342 244h142v-984h-190zM1374 -40q21 172 334 398q171 122 221.5 173.5t50.5 112.5q0 144 -180 144q-157 0 -200 -148l-198 20q74 284 402 284q194 0 288 -77.5t94 -188.5
q0 -103 -59.5 -186.5t-286.5 -247.5q-109 -78 -154 -126h506v-158h-818z" />
    <glyph glyph-name="threequarters" unicode="&#xbe;" horiz-adv-x="2238" 
d="M330 -74l1444 2028h206l-1444 -2028h-206zM44 1218l190 20q44 -148 202 -148q95 0 150.5 52.5t55.5 121.5q0 144 -204 144l-76 -4l28 146q206 0 206 132q0 47 -40 82.5t-116 35.5q-137 0 -188 -134l-186 30q50 135 134 191.5t240 56.5q360 0 360 -244q0 -152 -180 -210
q226 -52 226 -250q0 -122 -103.5 -212t-294.5 -90q-348 0 -404 280zM1872 -40v202h-500v160l530 622h160v-642h138v-140h-138v-202h-190zM1872 302v346l-300 -346h300z" />
    <glyph glyph-name="questiondown" unicode="&#xbf;" horiz-adv-x="1640" 
d="M960 1392v-268h-268v268h268zM944 918q0 -52 2 -66q0 -185 -61 -293t-241 -269q-129 -114 -161.5 -175.5t-32.5 -136.5q0 -141 109 -243.5t261 -102.5q326 0 384 388l242 -28q-34 -270 -198 -412t-424 -142q-285 0 -450.5 154t-165.5 370q0 129 58 233t230 255
q148 136 185 209.5t37 258.5h226z" />
    <glyph glyph-name="Agrave" unicode="&#xc0;" horiz-adv-x="1790" 
d="M-4 0l738 1921h274l786 -1921h-290l-224 582h-803l-211 -582h-270zM550 789h652l-201 532q-92 243 -136 398q-38 -190 -104 -367zM964 2101h-190l-302 366h315z" />
    <glyph glyph-name="Aacute" unicode="&#xc1;" horiz-adv-x="1790" 
d="M-4 0l738 1921h274l786 -1921h-290l-224 582h-803l-211 -582h-270zM550 789h652l-201 532q-92 243 -136 398q-38 -190 -104 -367zM725 2100l176 368h308l-288 -368h-196z" />
    <glyph glyph-name="Acircumflex" unicode="&#xc2;" horiz-adv-x="1790" 
d="M-4 0l738 1921h274l786 -1921h-290l-224 582h-803l-211 -582h-270zM550 789h652l-201 532q-92 243 -136 398q-38 -190 -104 -367zM870 2324l-148 -224h-270l284 368h252l294 -368h-266z" />
    <glyph glyph-name="Atilde" unicode="&#xc3;" horiz-adv-x="1790" 
d="M-4 0l738 1921h274l786 -1921h-290l-224 582h-803l-211 -582h-270zM550 789h652l-201 532q-92 243 -136 398q-38 -190 -104 -367zM410 2078q0 139 75 218.5t191 79.5q77 0 220 -70q80 -40 124 -40q83 0 96 114h170q0 -148 -75 -223t-181 -75q-83 0 -218 72
q-87 48 -128 48q-100 0 -100 -124h-174z" />
    <glyph glyph-name="Adieresis" unicode="&#xc4;" horiz-adv-x="1790" 
d="M-4 0l738 1921h274l786 -1921h-290l-224 582h-803l-211 -582h-270zM550 789h652l-201 532q-92 243 -136 398q-38 -190 -104 -367zM490 2100v270h246v-270h-246zM978 2100v270h248v-270h-248z" />
    <glyph glyph-name="Aring" unicode="&#xc5;" horiz-adv-x="1790" 
d="M-4 0l738 1921h274l786 -1921h-290l-224 582h-803l-211 -582h-270zM550 789h652l-201 532q-92 243 -136 398q-38 -190 -104 -367zM632 2290q0 97 70 165.5t166 68.5q84 0 160 -63.5t76 -176.5q0 -100 -70 -170t-164 -70q-103 0 -170.5 72.5t-67.5 173.5zM732 2288
q0 -54 37 -100t101 -46q56 0 98 42t42 102q0 50 -37.5 96t-102.5 46q-58 0 -98 -42t-40 -98z" />
    <glyph glyph-name="AE" unicode="&#xc6;" horiz-adv-x="2684" 
d="M2 0l924 1922h1576v-228h-966v-590h898v-226h-898v-652h1002v-226h-1258v554h-742l-262 -554h-274zM646 780h634v914h-190z" />
    <glyph glyph-name="Ccedilla" unicode="&#xc7;" horiz-adv-x="1938" 
d="M1578 674l254 -65q-164 -642 -796 -642q-465 0 -683.5 292t-218.5 716q0 487 264 733t642 246q597 0 759 -560l-250 -59q-128 401 -514 401q-341 0 -490 -217t-149 -543q0 -417 177 -604t443 -187q456 0 562 489zM831 -202l68 232h174l-42 -140q109 -12 166.5 -68
t57.5 -124q0 -95 -92 -172.5t-288 -77.5q-94 0 -188 16l14 154l124 -6q210 0 210 98q0 88 -204 88z" />
    <glyph glyph-name="Egrave" unicode="&#xc8;" horiz-adv-x="1790" 
d="M212 0v1921h1389v-227h-1135v-588h1063v-225h-1063v-654h1180v-227h-1434zM1069 2105h-190l-302 366h315z" />
    <glyph glyph-name="Eacute" unicode="&#xc9;" horiz-adv-x="1790" 
d="M212 0v1921h1389v-227h-1135v-588h1063v-225h-1063v-654h1180v-227h-1434zM750 2104l176 368h308l-288 -368h-196z" />
    <glyph glyph-name="Ecircumflex" unicode="&#xca;" horiz-adv-x="1790" 
d="M212 0v1921h1389v-227h-1135v-588h1063v-225h-1063v-654h1180v-227h-1434zM910 2328l-148 -224h-270l284 368h252l294 -368h-266z" />
    <glyph glyph-name="Edieresis" unicode="&#xcb;" horiz-adv-x="1790" 
d="M212 0v1921h1389v-227h-1135v-588h1063v-225h-1063v-654h1180v-227h-1434zM540 2100v270h246v-270h-246zM1028 2100v270h248v-270h-248z" />
    <glyph glyph-name="Igrave" unicode="&#xcc;" horiz-adv-x="746" 
d="M250 0v1921h254v-1921h-254zM529 2105h-190l-302 366h315z" />
    <glyph glyph-name="Iacute" unicode="&#xcd;" horiz-adv-x="746" 
d="M250 0v1921h254v-1921h-254zM210 2104l176 368h308l-288 -368h-196z" />
    <glyph glyph-name="Icircumflex" unicode="&#xce;" horiz-adv-x="746" 
d="M250 0v1921h254v-1921h-254zM370 2328l-148 -224h-270l284 368h252l294 -368h-266z" />
    <glyph glyph-name="Idieresis" unicode="&#xcf;" horiz-adv-x="746" 
d="M250 0v1921h254v-1921h-254zM0 2100v270h246v-270h-246zM488 2100v270h248v-270h-248z" />
    <glyph glyph-name="Eth" unicode="&#xd0;" horiz-adv-x="1938" 
d="M208 0v874h-212v174h212v874h662q305 0 481.5 -75t310.5 -294t134 -581q0 -417 -200 -694.5t-696 -277.5h-692zM462 226h410q213 0 351.5 56.5t224.5 233.5t86 458q0 259 -79 427t-209.5 230.5t-379.5 62.5h-404v-646h528v-174h-528v-648z" />
    <glyph glyph-name="Ntilde" unicode="&#xd1;" horiz-adv-x="1938" 
d="M204 0v1921h261l1009 -1508v1508h244v-1921h-261l-1009 1510v-1510h-244zM550 2118q0 139 75 218.5t191 79.5q77 0 220 -70q80 -40 124 -40q83 0 96 114h170q0 -148 -75 -223t-181 -75q-83 0 -218 72q-87 48 -128 48q-100 0 -100 -124h-174z" />
    <glyph glyph-name="Ograve" unicode="&#xd2;" horiz-adv-x="2087" 
d="M130 936q0 315 114.5 542t318 352t487.5 125q403 0 660 -272.5t257 -724.5q0 -493 -273.5 -742t-645.5 -249q-410 0 -664 279.5t-254 689.5zM392 932q0 -329 177 -538t478 -209q329 0 493.5 225.5t164.5 548.5q0 384 -189 580.5t-465 196.5q-345 0 -502 -229.5
t-157 -574.5zM1169 2105h-190l-302 366h315z" />
    <glyph glyph-name="Oacute" unicode="&#xd3;" horiz-adv-x="2087" 
d="M130 936q0 315 114.5 542t318 352t487.5 125q403 0 660 -272.5t257 -724.5q0 -493 -273.5 -742t-645.5 -249q-410 0 -664 279.5t-254 689.5zM392 932q0 -329 177 -538t478 -209q329 0 493.5 225.5t164.5 548.5q0 384 -189 580.5t-465 196.5q-345 0 -502 -229.5
t-157 -574.5zM910 2104l176 368h308l-288 -368h-196z" />
    <glyph glyph-name="Ocircumflex" unicode="&#xd4;" horiz-adv-x="2087" 
d="M130 936q0 315 114.5 542t318 352t487.5 125q403 0 660 -272.5t257 -724.5q0 -493 -273.5 -742t-645.5 -249q-410 0 -664 279.5t-254 689.5zM392 932q0 -329 177 -538t478 -209q329 0 493.5 225.5t164.5 548.5q0 384 -189 580.5t-465 196.5q-345 0 -502 -229.5
t-157 -574.5zM1050 2348l-148 -224h-270l284 368h252l294 -368h-266z" />
    <glyph glyph-name="Otilde" unicode="&#xd5;" horiz-adv-x="2087" 
d="M130 936q0 315 114.5 542t318 352t487.5 125q403 0 660 -272.5t257 -724.5q0 -493 -273.5 -742t-645.5 -249q-410 0 -664 279.5t-254 689.5zM392 932q0 -329 177 -538t478 -209q329 0 493.5 225.5t164.5 548.5q0 384 -189 580.5t-465 196.5q-345 0 -502 -229.5
t-157 -574.5zM610 2138q0 139 75 218.5t191 79.5q77 0 220 -70q80 -40 124 -40q83 0 96 114h170q0 -148 -75 -223t-181 -75q-83 0 -218 72q-87 48 -128 48q-100 0 -100 -124h-174z" />
    <glyph glyph-name="Odieresis" unicode="&#xd6;" horiz-adv-x="2087" 
d="M130 936q0 315 114.5 542t318 352t487.5 125q403 0 660 -272.5t257 -724.5q0 -493 -273.5 -742t-645.5 -249q-410 0 -664 279.5t-254 689.5zM392 932q0 -329 177 -538t478 -209q329 0 493.5 225.5t164.5 548.5q0 384 -189 580.5t-465 196.5q-345 0 -502 -229.5
t-157 -574.5zM680 2104v270h246v-270h-246zM1168 2104v270h248v-270h-248z" />
    <glyph glyph-name="multiply" unicode="&#xd7;" horiz-adv-x="1568" 
d="M212 536l412 412l-412 412l160 160l412 -412l410 410l158 -158l-410 -410l412 -412l-160 -160l-412 412l-412 -412z" />
    <glyph glyph-name="Oslash" unicode="&#xd8;" horiz-adv-x="2088" 
d="M1638 1746l220 246l130 -110l-230 -260q204 -292 204 -662q0 -456 -260 -724t-652 -268q-338 0 -592 202l-220 -248l-130 110l232 258q-118 177 -167 318.5t-49 347.5q0 442 251.5 720t672.5 278q326 0 590 -208zM1480 1568q-197 168 -432 168q-271 0 -466.5 -186
t-195.5 -590q0 -281 118 -486zM1588 1434l-974 -1090q187 -160 428 -160q286 0 472 202.5t186 565.5q0 279 -112 482z" />
    <glyph glyph-name="Ugrave" unicode="&#xd9;" horiz-adv-x="1938" 
d="M1468 1921h254v-1110q0 -239 -51 -423t-227.5 -302.5t-472.5 -118.5q-405 0 -582.5 198.5t-177.5 645.5v1110h254v-1109q0 -190 30 -320t144.5 -212.5t309.5 -82.5q275 0 397 127t122 488v1109zM1069 2105h-190l-302 366h315z" />
    <glyph glyph-name="Uacute" unicode="&#xda;" horiz-adv-x="1938" 
d="M1468 1921h254v-1110q0 -239 -51 -423t-227.5 -302.5t-472.5 -118.5q-405 0 -582.5 198.5t-177.5 645.5v1110h254v-1109q0 -190 30 -320t144.5 -212.5t309.5 -82.5q275 0 397 127t122 488v1109zM750 2104l176 368h308l-288 -368h-196z" />
    <glyph glyph-name="Ucircumflex" unicode="&#xdb;" horiz-adv-x="1938" 
d="M1468 1921h254v-1110q0 -239 -51 -423t-227.5 -302.5t-472.5 -118.5q-405 0 -582.5 198.5t-177.5 645.5v1110h254v-1109q0 -190 30 -320t144.5 -212.5t309.5 -82.5q275 0 397 127t122 488v1109zM950 2328l-148 -224h-270l284 368h252l294 -368h-266z" />
    <glyph glyph-name="Udieresis" unicode="&#xdc;" horiz-adv-x="1938" 
d="M1468 1921h254v-1110q0 -239 -51 -423t-227.5 -302.5t-472.5 -118.5q-405 0 -582.5 198.5t-177.5 645.5v1110h254v-1109q0 -190 30 -320t144.5 -212.5t309.5 -82.5q275 0 397 127t122 488v1109zM580 2104v270h246v-270h-246zM1068 2104v270h248v-270h-248z" />
    <glyph glyph-name="Yacute" unicode="&#xdd;" horiz-adv-x="1790" 
d="M748 0v814l-740 1107h309l379 -579q100 -154 195 -325q89 155 210 339l372 565h296l-767 -1107v-814h-254zM750 2104l176 368h308l-288 -368h-196z" />
    <glyph glyph-name="Thorn" unicode="&#xde;" horiz-adv-x="1790" 
d="M208 0v1922h254v-392h470q249 0 395.5 -42t246.5 -180.5t100 -333.5q0 -228 -148.5 -406t-571.5 -178h-492v-390h-254zM462 618h496q454 0 454 348q0 127 -64 211t-143 105.5t-253 21.5h-490v-686z" />
    <glyph glyph-name="germandbls" unicode="&#xdf;" horiz-adv-x="1640" 
d="M200 0v1310q0 196 40.5 325.5t176.5 224t343 94.5q225 0 355.5 -111t130.5 -265q0 -135 -108 -314q-90 -163 -90 -220q0 -49 34 -90.5t152 -119.5q221 -142 271.5 -234.5t50.5 -191.5q0 -159 -122 -299.5t-356 -140.5q-167 0 -290 87.5t-186 228.5l202 94
q114 -216 270 -216q99 0 169.5 67.5t70.5 160.5q0 71 -33 114.5t-155 125.5q-230 159 -276 235t-46 143q0 94 103 271q111 192 111 275q0 79 -71.5 142.5t-192.5 63.5q-139 0 -228.5 -86.5t-89.5 -375.5v-1298h-236z" />
    <glyph glyph-name="agrave" unicode="&#xe0;" 
d="M1085 172q-239 -203 -512 -203q-195 0 -335.5 96.5t-140.5 301.5q0 139 72 232t178.5 137t297.5 66q286 34 420 81q0 137 -17.5 193.5t-93.5 104t-223 47.5q-144 0 -232 -50t-131 -215l-230 32q87 428 627 428q227 0 345.5 -63t156 -162.5t37.5 -299.5l1 -613
q0 -150 74 -285h-247q-37 73 -47 172zM1065 698q-130 -53 -385 -89q-227 -31 -279 -97.5t-52 -138.5q0 -220 280 -220q436 0 436 459v86zM869 1565h-190l-302 366h315z" />
    <glyph glyph-name="aacute" unicode="&#xe1;" 
d="M1085 172q-239 -203 -512 -203q-195 0 -335.5 96.5t-140.5 301.5q0 139 72 232t178.5 137t297.5 66q286 34 420 81q0 137 -17.5 193.5t-93.5 104t-223 47.5q-144 0 -232 -50t-131 -215l-230 32q87 428 627 428q227 0 345.5 -63t156 -162.5t37.5 -299.5l1 -613
q0 -150 74 -285h-247q-37 73 -47 172zM1065 698q-130 -53 -385 -89q-227 -31 -279 -97.5t-52 -138.5q0 -220 280 -220q436 0 436 459v86zM610 1564l176 368h308l-288 -368h-196z" />
    <glyph glyph-name="acircumflex" unicode="&#xe2;" 
d="M1085 172q-239 -203 -512 -203q-195 0 -335.5 96.5t-140.5 301.5q0 139 72 232t178.5 137t297.5 66q286 34 420 81q0 137 -17.5 193.5t-93.5 104t-223 47.5q-144 0 -232 -50t-131 -215l-230 32q87 428 627 428q227 0 345.5 -63t156 -162.5t37.5 -299.5l1 -613
q0 -150 74 -285h-247q-37 73 -47 172zM1065 698q-130 -53 -385 -89q-227 -31 -279 -97.5t-52 -138.5q0 -220 280 -220q436 0 436 459v86zM750 1788l-148 -224h-270l284 368h252l294 -368h-266z" />
    <glyph glyph-name="atilde" unicode="&#xe3;" 
d="M1085 172q-239 -203 -512 -203q-195 0 -335.5 96.5t-140.5 301.5q0 139 72 232t178.5 137t297.5 66q286 34 420 81q0 137 -17.5 193.5t-93.5 104t-223 47.5q-144 0 -232 -50t-131 -215l-230 32q87 428 627 428q227 0 345.5 -63t156 -162.5t37.5 -299.5l1 -613
q0 -150 74 -285h-247q-37 73 -47 172zM1065 698q-130 -53 -385 -89q-227 -31 -279 -97.5t-52 -138.5q0 -220 280 -220q436 0 436 459v86zM300 1598q0 139 75 218.5t191 79.5q77 0 220 -70q80 -40 124 -40q83 0 96 114h170q0 -148 -75 -223t-181 -75q-83 0 -218 72
q-87 48 -128 48q-100 0 -100 -124h-174z" />
    <glyph glyph-name="adieresis" unicode="&#xe4;" 
d="M1085 172q-239 -203 -512 -203q-195 0 -335.5 96.5t-140.5 301.5q0 139 72 232t178.5 137t297.5 66q286 34 420 81q0 137 -17.5 193.5t-93.5 104t-223 47.5q-144 0 -232 -50t-131 -215l-230 32q87 428 627 428q227 0 345.5 -63t156 -162.5t37.5 -299.5l1 -613
q0 -150 74 -285h-247q-37 73 -47 172zM1065 698q-130 -53 -385 -89q-227 -31 -279 -97.5t-52 -138.5q0 -220 280 -220q436 0 436 459v86zM380 1664v270h246v-270h-246zM868 1664v270h248v-270h-248z" />
    <glyph glyph-name="aring" unicode="&#xe5;" 
d="M1085 172q-239 -203 -512 -203q-195 0 -335.5 96.5t-140.5 301.5q0 139 72 232t178.5 137t297.5 66q286 34 420 81q0 137 -17.5 193.5t-93.5 104t-223 47.5q-144 0 -232 -50t-131 -215l-230 32q87 428 627 428q227 0 345.5 -63t156 -162.5t37.5 -299.5l1 -613
q0 -150 74 -285h-247q-37 73 -47 172zM1065 698q-130 -53 -385 -89q-227 -31 -279 -97.5t-52 -138.5q0 -220 280 -220q436 0 436 459v86zM502 1754q0 97 70 165.5t166 68.5q84 0 160 -63.5t76 -176.5q0 -100 -70 -170t-164 -70q-103 0 -170.5 72.5t-67.5 173.5zM602 1752
q0 -54 37 -100t101 -46q56 0 98 42t42 102q0 50 -37.5 96t-102.5 46q-58 0 -98 -42t-40 -98z" />
    <glyph glyph-name="ae" unicode="&#xe6;" horiz-adv-x="2386" 
d="M2272 426q-65 -224 -226 -341t-386 -117q-323 0 -518 260q-259 -260 -578 -260q-246 0 -360 126t-114 272q0 147 109 271.5t507 174.5q212 29 330 64v54q0 165 -68 231.5t-240 66.5q-137 0 -236.5 -45.5t-135.5 -222.5l-228 28q83 436 602 436q361 0 482 -188
q174 188 448 188q311 0 464.5 -216t153.5 -492l-2 -80h-1006q0 -177 42 -266.5t142.5 -148.5t213.5 -59q281 0 358 296zM1270 830h766q-35 398 -378 398q-180 0 -284 -117.5t-104 -280.5zM1040 698q-218 -70 -459 -104.5t-241 -219.5q0 -94 69 -157t201 -63q157 0 266.5 79
t136.5 162t27 303z" />
    <glyph glyph-name="ccedilla" unicode="&#xe7;" horiz-adv-x="1342" 
d="M1085 510l232 -30q-37 -238 -192.5 -374.5t-386.5 -136.5q-299 0 -466 192t-167 530q0 380 181.5 556t452.5 176q471 0 556 -440l-230 -36q-66 282 -317 282q-401 0 -401 -532q0 -535 388 -535q301 0 350 348zM571 -202l68 232h174l-42 -140q109 -12 166.5 -68t57.5 -124
q0 -95 -92 -172.5t-288 -77.5q-94 0 -188 16l14 154l124 -6q210 0 210 98q0 88 -204 88z" />
    <glyph glyph-name="egrave" unicode="&#xe8;" 
d="M1130 448l243 -30q-121 -449 -612 -449q-187 0 -332 72.5t-238 233t-93 409.5q0 213 72 378t218.5 263t359.5 98q224 0 368.5 -109.5t204 -268t59.5 -409.5h-1038q13 -220 125 -347t296 -127q264 0 367 286zM355 829h777q-16 200 -122 300t-259 100q-167 0 -276 -110.5
t-120 -289.5zM856 1565h-190l-302 366h315z" />
    <glyph glyph-name="eacute" unicode="&#xe9;" 
d="M1130 448l243 -30q-121 -449 -612 -449q-187 0 -332 72.5t-238 233t-93 409.5q0 213 72 378t218.5 263t359.5 98q224 0 368.5 -109.5t204 -268t59.5 -409.5h-1038q13 -220 125 -347t296 -127q264 0 367 286zM355 829h777q-16 200 -122 300t-259 100q-167 0 -276 -110.5
t-120 -289.5zM597 1564l176 368h308l-288 -368h-196z" />
    <glyph glyph-name="ecircumflex" unicode="&#xea;" 
d="M1130 448l243 -30q-121 -449 -612 -449q-187 0 -332 72.5t-238 233t-93 409.5q0 213 72 378t218.5 263t359.5 98q224 0 368.5 -109.5t204 -268t59.5 -409.5h-1038q13 -220 125 -347t296 -127q264 0 367 286zM355 829h777q-16 200 -122 300t-259 100q-167 0 -276 -110.5
t-120 -289.5zM747 1788l-148 -224h-270l284 368h252l294 -368h-266z" />
    <glyph glyph-name="edieresis" unicode="&#xeb;" 
d="M1130 448l243 -30q-121 -449 -612 -449q-187 0 -332 72.5t-238 233t-93 409.5q0 213 72 378t218.5 263t359.5 98q224 0 368.5 -109.5t204 -268t59.5 -409.5h-1038q13 -220 125 -347t296 -127q264 0 367 286zM355 829h777q-16 200 -122 300t-259 100q-167 0 -276 -110.5
t-120 -289.5zM367 1664v270h246v-270h-246zM855 1664v270h248v-270h-248z" />
    <glyph glyph-name="igrave" unicode="&#xec;" horiz-adv-x="746" 
d="M260 0v1392h236v-1392h-236zM529 1565h-190l-302 366h315z" />
    <glyph glyph-name="iacute" unicode="&#xed;" horiz-adv-x="746" 
d="M260 0v1392h236v-1392h-236zM210 1564l176 368h308l-288 -368h-196z" />
    <glyph glyph-name="icircumflex" unicode="&#xee;" horiz-adv-x="746" 
d="M260 0v1392h236v-1392h-236zM370 1788l-148 -224h-270l284 368h252l294 -368h-266z" />
    <glyph glyph-name="idieresis" unicode="&#xef;" horiz-adv-x="746" 
d="M260 0v1392h236v-1392h-236zM0 1664v270h246v-270h-246zM488 1664v270h248v-270h-248z" />
    <glyph glyph-name="eth" unicode="&#xf0;" horiz-adv-x="1494" 
d="M404 1922h284q94 -73 164 -134l280 134l60 -134l-226 -110q420 -480 420 -996q0 -334 -181.5 -524t-464.5 -190q-174 0 -312 70.5t-235 220t-97 419.5q0 346 169.5 530t422.5 184q138 0 278 -78q-84 170 -186 280l-360 -166l-58 134l312 144q-116 110 -270 216zM1140 694
q0 274 -130 396t-280 122q-164 0 -279 -130.5t-115 -409.5q0 -255 115 -383.5t287 -128.5q168 0 285 136t117 398z" />
    <glyph glyph-name="ntilde" unicode="&#xf1;" 
d="M177 0v1392h212v-198q153 229 443 229q188 0 295 -73.5t144 -182.5t37 -311v-856h-236v846q0 373 -290 373q-369 0 -369 -459v-760h-236zM310 1598q0 139 75 218.5t191 79.5q77 0 220 -70q80 -40 124 -40q83 0 96 114h170q0 -148 -75 -223t-181 -75q-83 0 -218 72
q-87 48 -128 48q-100 0 -100 -124h-174z" />
    <glyph glyph-name="ograve" unicode="&#xf2;" 
d="M89 696q0 391 199.5 559t453.5 168q298 0 474.5 -193.5t176.5 -514.5q0 -383 -188 -564.5t-463 -181.5q-340 0 -496.5 213t-156.5 514zM332 696q0 -245 106.5 -389.5t303.5 -144.5q206 0 307 153.5t101 388.5q0 210 -98 367t-310 157q-207 0 -308.5 -151t-101.5 -381z
M809 1565h-190l-302 366h315z" />
    <glyph glyph-name="oacute" unicode="&#xf3;" 
d="M89 696q0 391 199.5 559t453.5 168q298 0 474.5 -193.5t176.5 -514.5q0 -383 -188 -564.5t-463 -181.5q-340 0 -496.5 213t-156.5 514zM332 696q0 -245 106.5 -389.5t303.5 -144.5q206 0 307 153.5t101 388.5q0 210 -98 367t-310 157q-207 0 -308.5 -151t-101.5 -381z
M620 1564l176 368h308l-288 -368h-196z" />
    <glyph glyph-name="ocircumflex" unicode="&#xf4;" 
d="M89 696q0 391 199.5 559t453.5 168q298 0 474.5 -193.5t176.5 -514.5q0 -383 -188 -564.5t-463 -181.5q-340 0 -496.5 213t-156.5 514zM332 696q0 -245 106.5 -389.5t303.5 -144.5q206 0 307 153.5t101 388.5q0 210 -98 367t-310 157q-207 0 -308.5 -151t-101.5 -381z
M750 1788l-148 -224h-270l284 368h252l294 -368h-266z" />
    <glyph glyph-name="otilde" unicode="&#xf5;" 
d="M89 696q0 391 199.5 559t453.5 168q298 0 474.5 -193.5t176.5 -514.5q0 -383 -188 -564.5t-463 -181.5q-340 0 -496.5 213t-156.5 514zM332 696q0 -245 106.5 -389.5t303.5 -144.5q206 0 307 153.5t101 388.5q0 210 -98 367t-310 157q-207 0 -308.5 -151t-101.5 -381z
M300 1598q0 139 75 218.5t191 79.5q77 0 220 -70q80 -40 124 -40q83 0 96 114h170q0 -148 -75 -223t-181 -75q-83 0 -218 72q-87 48 -128 48q-100 0 -100 -124h-174z" />
    <glyph glyph-name="odieresis" unicode="&#xf6;" 
d="M89 696q0 391 199.5 559t453.5 168q298 0 474.5 -193.5t176.5 -514.5q0 -383 -188 -564.5t-463 -181.5q-340 0 -496.5 213t-156.5 514zM332 696q0 -245 106.5 -389.5t303.5 -144.5q206 0 307 153.5t101 388.5q0 210 -98 367t-310 157q-207 0 -308.5 -151t-101.5 -381z
M380 1664v270h246v-270h-246zM868 1664v270h248v-270h-248z" />
    <glyph glyph-name="divide" unicode="&#xf7;" horiz-adv-x="1474" 
d="M602 1208v270h268v-270h-268zM1370 838h-1268v220h1268v-220zM602 418v268h268v-268h-268z" />
    <glyph glyph-name="oslash" unicode="&#xf8;" horiz-adv-x="1640" 
d="M1212 1310l128 168l126 -92l-140 -182q154 -188 154 -510q0 -227 -75 -386t-229 -249.5t-350 -90.5q-214 0 -368 106l-138 -178l-124 94l142 184q-162 183 -162 502q0 407 200 577.5t444 170.5q191 0 392 -114zM1078 1136q-121 92 -250 92q-173 0 -291.5 -133
t-118.5 -399q0 -197 68 -330zM1176 1010l-588 -764q102 -84 232 -84q158 0 288 120.5t130 415.5q0 179 -62 312z" />
    <glyph glyph-name="ugrave" unicode="&#xf9;" 
d="M1089 0v204q-163 -235 -442 -235q-186 0 -293.5 74.5t-144.5 184t-37 301.5v863h236v-772q0 -167 14 -251t82.5 -140.5t189.5 -56.5q173 0 271.5 103t98.5 371v746h236v-1392h-211zM849 1565h-190l-302 366h315z" />
    <glyph glyph-name="uacute" unicode="&#xfa;" 
d="M1089 0v204q-163 -235 -442 -235q-186 0 -293.5 74.5t-144.5 184t-37 301.5v863h236v-772q0 -167 14 -251t82.5 -140.5t189.5 -56.5q173 0 271.5 103t98.5 371v746h236v-1392h-211zM570 1564l176 368h308l-288 -368h-196z" />
    <glyph glyph-name="ucircumflex" unicode="&#xfb;" 
d="M1089 0v204q-163 -235 -442 -235q-186 0 -293.5 74.5t-144.5 184t-37 301.5v863h236v-772q0 -167 14 -251t82.5 -140.5t189.5 -56.5q173 0 271.5 103t98.5 371v746h236v-1392h-211zM730 1788l-148 -224h-270l284 368h252l294 -368h-266z" />
    <glyph glyph-name="udieresis" unicode="&#xfc;" 
d="M1089 0v204q-163 -235 -442 -235q-186 0 -293.5 74.5t-144.5 184t-37 301.5v863h236v-772q0 -167 14 -251t82.5 -140.5t189.5 -56.5q173 0 271.5 103t98.5 371v746h236v-1392h-211zM360 1664v270h246v-270h-246zM848 1664v270h248v-270h-248z" />
    <glyph glyph-name="yacute" unicode="&#xfd;" horiz-adv-x="1342" 
d="M166 -536l-26 222q78 -21 135 -21q113 0 164.5 52.5t127.5 268.5l4 11l-528 1395h254l290 -806q61 -169 101 -323q39 160 97 317l297 812h236l-529 -1416q-118 -315 -211.5 -428t-259.5 -113q-68 0 -152 29zM530 1564l176 368h308l-288 -368h-196z" />
    <glyph glyph-name="thorn" unicode="&#xfe;" horiz-adv-x="1494" 
d="M176 -534v2456h236v-676q161 178 384 178q272 0 431 -199t159 -519q0 -334 -171.5 -536t-434.5 -202q-95 0 -178.5 32.5t-189.5 143.5v-678h-236zM390 688q0 -267 110 -396.5t262 -129.5q138 0 260 122.5t122 423.5q0 290 -118 410t-252 120t-259 -128.5t-125 -421.5z
" />
    <glyph glyph-name="ydieresis" unicode="&#xff;" horiz-adv-x="1342" 
d="M166 -536l-26 222q78 -21 135 -21q113 0 164.5 52.5t127.5 268.5l4 11l-528 1395h254l290 -806q61 -169 101 -323q39 160 97 317l297 812h236l-529 -1416q-118 -315 -211.5 -428t-259.5 -113q-68 0 -152 29zM320 1664v270h246v-270h-246zM808 1664v270h248v-270h-248z
" />
    <glyph glyph-name="OE" unicode="&#x152;" horiz-adv-x="2684" 
d="M2598 226v-226h-1128v278q-176 -310 -526 -310q-373 0 -573.5 272.5t-200.5 723.5q0 426 187 708t587 282q347 0 526 -292v260h1088v-228h-852v-586h786v-226h-786v-656h892zM944 1748q-205 0 -358.5 -180t-153.5 -624q0 -407 153 -589.5t359 -182.5q187 0 348.5 170.5
t161.5 633.5q0 399 -150 585.5t-360 186.5z" />
    <glyph glyph-name="oe" unicode="&#x153;" horiz-adv-x="2534" 
d="M1282 230q-196 -262 -520 -262q-179 0 -324 73t-237.5 230.5t-92.5 406.5q0 365 180 555.5t478 190.5q347 0 516 -266q185 266 510 266q287 0 464.5 -197t177.5 -593h-1028q0 -189 106 -330.5t308 -141.5q270 0 360 292l236 -34q-121 -452 -600 -452q-365 0 -534 262z
M350 698q0 -274 117.5 -405t288.5 -131q168 0 289 138.5t121 401.5q0 264 -121 396t-289 132q-167 0 -286.5 -136t-119.5 -396zM1416 826h768q0 171 -106 287.5t-272 116.5q-179 0 -284.5 -124.5t-105.5 -279.5z" />
    <glyph glyph-name="Scaron" unicode="&#x160;" horiz-adv-x="1790" 
d="M121 617l239 21q29 -228 184 -335.5t384 -107.5q240 0 358.5 96.5t118.5 230.5q0 136 -110.5 210t-476.5 158q-368 85 -496 220t-128 314q0 260 197.5 395t478.5 135q356 0 534.5 -163t187.5 -411l-244 -19q-39 369 -467 369q-442 0 -442 -289q0 -116 92 -181t366 -126
q270 -61 415 -117t241.5 -178.5t96.5 -296.5q0 -271 -209.5 -423t-500.5 -152q-409 0 -610.5 185t-208.5 465zM890 2250l144 222h268l-294 -368h-252l-284 368h270z" />
    <glyph glyph-name="scaron" unicode="&#x161;" horiz-adv-x="1342" 
d="M83 415l233 37q40 -290 360 -290t320 222q0 78 -57.5 117t-253.5 89q-214 54 -316.5 92t-174.5 127t-72 213q0 176 138 288.5t374 112.5q498 0 552 -390l-231 -32q-33 228 -304 228q-301 0 -301 -179q0 -73 52.5 -109.5t274.5 -96.5q244 -67 332.5 -101t158.5 -122.5
t70 -211.5q0 -201 -157 -320.5t-404 -119.5q-515 0 -594 446zM630 1710l144 222h268l-294 -368h-252l-284 368h270z" />
    <glyph glyph-name="Ydieresis" unicode="&#x178;" horiz-adv-x="1790" 
d="M748 0v814l-740 1107h309l379 -579q100 -154 195 -325q89 155 210 339l372 565h296l-767 -1107v-814h-254zM520 2100v270h246v-270h-246zM1008 2100v270h248v-270h-248z" />
    <glyph glyph-name="florin" unicode="&#x192;" horiz-adv-x="1494" 
d="M60 -530l46 202q140 -28 200 -28q77 0 111 39t57 159l232 1366h-264l32 184h262l32 174q27 145 56.5 214t109 122.5t206.5 53.5q106 0 282 -50l-46 -200q-132 30 -202 30q-71 0 -108 -35.5t-64 -174.5l-24 -134h268l-34 -184h-268l-250 -1430q-35 -197 -114.5 -269.5
t-225.5 -72.5q-126 0 -294 34z" />
    <glyph glyph-name="circumflex" unicode="&#x2c6;" horiz-adv-x="894" 
d="M450 1788l-148 -224h-270l284 368h252l294 -368h-266z" />
    <glyph glyph-name="tilde" unicode="&#x2dc;" horiz-adv-x="894" 
d="M10 1598q0 139 75 218.5t191 79.5q77 0 220 -70q80 -40 124 -40q83 0 96 114h170q0 -148 -75 -223t-181 -75q-83 0 -218 72q-87 48 -128 48q-100 0 -100 -124h-174z" />
    <glyph glyph-name="quotesinglbase" unicode="&#x201a;" horiz-adv-x="596" 
d="M162 0v274h254v-216q0 -158 -41 -254t-175 -160l-58 94q144 59 144 262h-124z" />
    <glyph glyph-name="quotedblbase" unicode="&#x201e;" horiz-adv-x="894" 
d="M114 0v274h252v-216q0 -164 -41 -258t-175 -156l-56 94q144 59 144 262h-124zM520 0v274h254v-216q0 -158 -41 -254t-175 -160l-58 94q144 59 144 262h-124z" />
    <glyph glyph-name="dagger" unicode="&#x2020;" horiz-adv-x="1494" 
d="M618 -454v1588h-522v210h522v532h236v-532h528v-210h-528v-1588h-236z" />
    <glyph glyph-name="daggerdbl" unicode="&#x2021;" horiz-adv-x="1494" 
d="M622 -454v486h-526v210h526v950h-526v212h526v492h236v-492h528v-212h-528v-950h528v-210h-528v-486h-236z" />
    <glyph glyph-name="perthousand" unicode="&#x2030;" horiz-adv-x="2684" 
d="M420 -70l788 2024h170l-786 -2024h-172zM48 1440q0 498 376 498q148 0 262 -106.5t114 -385.5q0 -518 -374 -518q-148 0 -263 110.5t-115 401.5zM242 1430q0 -338 190 -338q174 0 174 340q0 344 -180 344q-184 0 -184 -346zM1000 440q0 498 374 498q170 0 274 -119
t104 -373q0 -516 -374 -516q-170 0 -274 122t-104 388zM1194 430q0 -338 188 -338q176 0 176 340q0 344 -180 344q-184 0 -184 -346zM1884 440q0 498 374 498q169 0 273.5 -119.5t104.5 -372.5q0 -516 -376 -516t-376 510zM2078 430q0 -338 188 -338q176 0 176 340
q0 344 -182 344t-182 -346z" />
    <glyph glyph-name="guilsinglleft" unicode="&#x2039;" horiz-adv-x="894" 
d="M382 690l346 -596h-194l-414 596l414 600h194z" />
    <glyph glyph-name="guilsinglright" unicode="&#x203a;" horiz-adv-x="894" 
d="M514 694l-348 596h196l398 -588l-398 -608h-196z" />
    <glyph glyph-name="trademark" unicode="&#x2122;" horiz-adv-x="2684" 
d="M640 854v908h-346v160h874v-160h-348v-908h-180zM1288 854v1068h262l270 -854l260 854h256v-1068h-162v896l-274 -896h-162l-288 908v-908h-162z" />
    <glyph glyph-name="ring" unicode="&#x2da;" horiz-adv-x="894" 
d="M212 1754q0 97 70 165.5t166 68.5q84 0 160 -63.5t76 -176.5q0 -100 -70 -170t-164 -70q-103 0 -170.5 72.5t-67.5 173.5zM312 1752q0 -54 37 -100t101 -46q56 0 98 42t42 102q0 50 -37.5 96t-102.5 46q-58 0 -98 -42t-40 -98z" />
    <glyph glyph-name="ring" unicode="&#x25e6;" horiz-adv-x="894" 
d="M212 1754q0 97 70 165.5t166 68.5q84 0 160 -63.5t76 -176.5q0 -100 -70 -170t-164 -70q-103 0 -170.5 72.5t-67.5 173.5zM312 1752q0 -54 37 -100t101 -46q56 0 98 42t42 102q0 50 -37.5 96t-102.5 46q-58 0 -98 -42t-40 -98z" />
    <glyph glyph-name="dotlessi" unicode="&#x131;" horiz-adv-x="746" 
d="M260 0v1392h236v-1392h-236z" />
    <glyph glyph-name="caron" unicode="&#x2c7;" horiz-adv-x="894" 
d="M470 1710l144 222h268l-294 -368h-252l-284 368h270z" />
    <glyph glyph-name="Euro" unicode="&#x20ac;" 
d="M999 1746q-274 0 -444 -171q-152 -153 -182 -400h886l-35 -134h-872q-1 -27 -1 -72q0 -30 7 -139h830l-36 -135h-773q48 -264 164 -387q144 -155 437 -155q254 0 379 118v-228q-162 -76 -358 -76q-588 0 -795 489q-41 98 -71 239h-199l36 135h144l-10 138q0 46 1 73h-171
l36 134h152q69 360 294 559q231 204 587 204q241 0 406 -105l-52 -198q-134 111 -360 111z" />
    <glyph glyph-name="uni007F" horiz-adv-x="2048" 
 />
    <glyph glyph-name="Zcaron" unicode="&#x17d;" horiz-adv-x="1639" 
d="M54 0v236l1183 1458h-1072v227h1376v-227l-1195 -1467h1226v-227h-1518zM907 2245l144 222h268l-294 -368h-252l-284 368h270z" />
    <glyph glyph-name="zcaron" unicode="&#x17e;" horiz-adv-x="1342" 
d="M52 0v191l886 1017q-150 -8 -266 -8h-567v192h1137v-156l-899 -1045q159 12 298 12h643v-203h-1232zM660 1710l144 222h268l-294 -368h-252l-284 368h270z" />
    <glyph glyph-name="uni200B" unicode="&#x200b;" horiz-adv-x="0" 
 />
    <glyph glyph-name="uni25CC" unicode="&#x25cc;" horiz-adv-x="2040" 
d="M1676 1513q0 -81 -81 -81q-91 0 -91 81q0 87 91 87q81 0 81 -87zM1419 1684q0 -84 -81 -84q-90 0 -90 84q0 90 90 90q81 0 81 -90zM1850 1257q0 -89 -89 -89q-85 0 -85 89q0 85 89 85q85 0 85 -85zM1912 954q0 -86 -82 -86q-90 0 -90 86t90 86q82 0 82 -86zM1117 1750
q0 -91 -87 -91q-85 0 -85 91q0 85 85 85q87 0 87 -85zM817 1684q0 -84 -89 -84q-85 0 -85 84q0 90 85 90q89 0 89 -90zM1850 652q0 -86 -89 -86q-85 0 -85 86q0 88 85 88q89 0 89 -88zM556 1513q0 -81 -85 -81q-86 0 -86 79q0 89 86 89q85 0 85 -87zM1676 390q0 -85 -81 -85
q-87 0 -87 85q0 90 87 90q81 0 81 -90zM1419 219q0 -81 -81 -81q-86 0 -86 81q0 90 86 90q81 0 81 -90zM385 1257q0 -89 -82 -89q-88 0 -88 89q0 85 85 85t85 -85zM326 954q0 -86 -86 -86q-90 0 -90 86t90 86q86 0 86 -86zM1117 163q0 -90 -87 -90q-85 0 -85 90q0 86 85 86
q87 0 87 -86zM385 652q0 -86 -85 -86t-85 86q0 88 85 88t85 -88zM817 226q0 -88 -89 -88q-85 0 -85 81q0 90 85 90q89 0 89 -83zM556 390q0 -85 -85 -85q-86 0 -86 85q0 90 86 90q85 0 85 -90z" />
    <glyph glyph-name="zero.ccmp" 
d="M442 811q0 -643 305 -643t305 643q0 642 -308 642q-149 0 -224 -142q-40 -74 -59 -198.5t-19 -301.5zM204 811q0 840 543 840q541 0 541 -840q0 -839 -541 -839q-543 0 -543 839z" />
    <glyph glyph-name="one.ccmp" 
d="M1060 0h-232v1238q-157 -137 -395 -224v226q350 164 472 411h155v-1651z" />
    <glyph glyph-name="two.ccmp" 
d="M644 360q-75 -59 -125 -136h776v-224h-1098q0 281 418 625q143 116 232.5 204t130.5 150q79 123 79 212q0 127 -88 194q-87 68 -199 68q-78 0 -134.5 -21.5t-91.5 -67.5q-72 -92 -73 -236l-238 25q46 498 541 498q230 0 373 -128q146 -128 146 -336q0 -63 -18 -127.5
t-53 -133.5t-137.5 -174t-272.5 -248z" />
    <glyph glyph-name="three.ccmp" 
d="M431 488q63 -320 302 -320q135 0 224 92q90 91 90 228q0 130 -84 213q-84 84 -215 84q-28 0 -67 -7.5t-92 -21.5l27 213q63 0 111 5.5t81 15.5q65 22 117 80q50 59 50 150q0 104 -70 168q-69 66 -177 66q-234 0 -277 -293l-233 42q42 218 173 333t332 115q234 0 362 -135
h-1q127 -131 127 -301q0 -214 -193 -323q273 -84 273 -400q0 -252 -177 -387q-173 -134 -383 -134q-109 0 -198 32t-163 96q-147 130 -169 357z" />
    <glyph glyph-name="four.ccmp" 
d="M871 600v656l-456 -656h456zM871 0v386h-698v202l743 1056h186v-1044h218v-214h-218v-386h-231z" />
    <glyph glyph-name="five.ccmp" 
d="M435 474q47 -306 296 -306q157 0 239 113q84 117 84 264q0 160 -88 254q-86 93 -238 93q-186 0 -286 -157l-214 28l161 859h833v-223h-646l-76 -380q134 83 280 83q225 0 372 -154h-1q74 -76 110 -172.5t36 -212.5q0 -164 -69 -297q-37 -69 -86 -122.5t-113 -93.5
q-126 -78 -298 -78q-224 0 -369 125t-167 357z" />
    <glyph glyph-name="six.ccmp" 
d="M458 538q0 -173 94 -272q95 -98 218 -98q139 0 213 107q38 55 56.5 118t18.5 134q0 156 -81 249q-80 94 -215 94q-133 0 -217 -93q-87 -95 -87 -239zM1039 1199q-51 255 -259 255q-153 0 -250 -151q-89 -141 -101 -402q142 177 373 177q239 0 366 -169q126 -164 126 -369
q0 -267 -153 -418q-153 -150 -368 -150q-575 0 -575 798q0 881 594 881q196 0 322 -111q127 -111 154 -322z" />
    <glyph glyph-name="seven.ccmp" 
d="M611 785q80 185 171.5 337.5t195.5 276.5h-770v224h1077v-178q-259 -274 -426 -666q-84 -197 -130.5 -390.5t-58.5 -388.5h-236q7 396 177 785z" />
    <glyph glyph-name="eight.ccmp" 
d="M499 1225q0 -111 68 -176q70 -66 180 -66q90 0 168 60q75 58 75 171q0 117 -76 177q-78 63 -170 63q-102 0 -175 -67q-70 -64 -70 -162zM435 481q0 -150 94 -232q94 -81 218 -81q116 0 215 78h-1q95 76 95 228q0 137 -89 226q-88 88 -226 88q-114 0 -212 -79
q-94 -77 -94 -228zM199 483q0 313 273 409q-209 95 -209 327q0 191 136 312q133 120 344 120q183 0 332 -111q75 -57 113.5 -137.5t38.5 -189.5q0 -226 -208 -322q275 -110 275 -414q0 -223 -156 -365q-77 -69 -174.5 -104.5t-217.5 -35.5q-123 0 -224 37.5t-172.5 105.5
t-111 161.5t-39.5 206.5z" />
    <glyph glyph-name="nine.ccmp" 
d="M1038 1100q0 152 -82 254q-81 99 -210 99q-135 0 -222 -108q-87 -111 -87 -262q0 -145 85 -237v1q85 -92 220 -92q136 0 215 92q81 96 81 253zM449 425q48 -257 254 -257q159 0 257 141q91 128 100 410q-134 -173 -368 -173q-241 0 -368 168q-125 166 -125 376
q0 247 144 403q146 158 379 158q571 0 571 -796q0 -449 -159 -665q-158 -218 -436 -218q-196 0 -320 110q-63 55 -100 135.5t-51 186.5z" />
    <glyph glyph-name="glyph354" horiz-adv-x="0" 
d="M-403 3328q-29 -31 -70 -54t-89 -38t-100 -22t-103 -7h-282q-35 -3 -65.5 -10t-53 -24t-35 -47.5t-12.5 -82.5q0 -29 3.5 -54.5t10.5 -49.5q57 82 129 137h133q0 -30 16.5 -61t42 -55.5t54.5 -40.5t55 -16q-39 45 -39 96q0 174 181 174q39 0 74 -12.5t60.5 -36t40.5 -58
t15 -79.5q0 -53 -20.5 -94.5t-56.5 -70t-85 -43.5t-106 -15q-217 0 -323 158q-73 -51 -108 -154h-91q-32 0 -61 15t-51.5 46.5t-35.5 80.5t-13 116q0 88 22.5 150t68.5 101t115 56.5t161 17.5h195q97 0 156.5 14.5t88.5 44.5zM-551 2993q0 74 -74 74q-72 0 -72 -74
q0 -38 17.5 -55t54.5 -17q38 0 56 17t18 55z" />
    <glyph glyph-name="glyph360" horiz-adv-x="0" 
d="M-146.5 2778.5q-83.5 -104.5 -252.5 -104.5q-91 0 -166 37.5t-124.5 115.5t-49.5 187q0 102 43.5 177.5t119 119t177.5 43.5q170 0 253 -104t83 -236q0 -131 -83.5 -235.5zM-399 3161q-148 0 -148 -147q0 -152 148 -152q147 0 147 152q0 147 -147 147z" />
    <glyph glyph-name="glyph361" horiz-adv-x="0" 
d="M-12 3372l-76 -56q-36 15 -73 15q-88 0 -131 -23.5t-43 -74.5q0 -88 147 -88l-33 -67q-52 0 -97.5 -9.5t-79.5 -28t-53.5 -45.5t-19.5 -61q0 -42 24.5 -58t74.5 -16q75 0 118 43l66 -54q-85 -71 -244 -71q-208 0 -208 151q0 48 26.5 86t68.5 64t94.5 39t105.5 10
q-137 18 -137 126q0 32 26.5 58.5t71 46t103.5 30t124 10.5q94 0 145 -27z" />
  </font>
</defs>
</svg>
